G04*
G04 #@! TF.GenerationSoftware,Altium Limited,Altium Designer,22.0.2 (36)*
G04*
G04 Layer_Color=16711935*
%FSLAX25Y25*%
%MOIN*%
G70*
G04*
G04 #@! TF.SameCoordinates,5891F61C-6817-4B1F-B1E3-DF0E04F861FB*
G04*
G04*
G04 #@! TF.FilePolarity,Positive*
G04*
G01*
G75*
%ADD14C,0.00394*%
%ADD17C,0.00591*%
%ADD18C,0.00500*%
%ADD146C,0.00000*%
%ADD147C,0.00100*%
%ADD148C,0.00300*%
D14*
X324740Y348732D02*
G03*
X324740Y348732I-1969J0D01*
G01*
X304811Y407811D02*
G03*
X304811Y407811I-1969J0D01*
G01*
X279858Y260323D02*
G03*
X279858Y260323I-1969J0D01*
G01*
X333402Y369378D02*
G03*
X333402Y369378I-1969J0D01*
G01*
X269684Y421653D02*
X289369D01*
X269684Y441338D02*
X289369D01*
X269684Y421653D02*
Y441338D01*
X289369Y421653D02*
Y441338D01*
X319685Y331890D02*
X333858D01*
X319685Y351575D02*
X333858D01*
Y331890D02*
Y351575D01*
X319685Y331890D02*
Y351575D01*
Y404724D02*
Y418898D01*
X300000Y404724D02*
Y418898D01*
X319685D01*
X300000Y404724D02*
X319685D01*
X363189Y298819D02*
X368307D01*
X363189Y287008D02*
X368307D01*
Y298819D01*
X363189Y287008D02*
Y298819D01*
X274803Y257480D02*
Y277165D01*
X288976Y257480D02*
Y277165D01*
X274803Y257480D02*
X288976D01*
X274803Y277165D02*
X288976D01*
X328346Y386221D02*
X342520D01*
X328346Y366535D02*
X342520D01*
Y386221D01*
X328346Y366535D02*
Y386221D01*
X355315Y374016D02*
X360433D01*
X355315Y385827D02*
X360433D01*
X355315Y374016D02*
Y385827D01*
X360433Y374016D02*
Y385827D01*
X335827Y423228D02*
X350787D01*
X335827Y401181D02*
Y423228D01*
X350787Y401181D02*
Y423228D01*
D17*
X275288Y312992D02*
G03*
X275288Y312992I-1969J0D01*
G01*
X268308D02*
X287795Y293505D01*
Y332479D02*
X307282Y312992D01*
X268308D02*
X287795Y332479D01*
Y293505D02*
X307282Y312992D01*
D18*
X339764Y281004D02*
Y292815D01*
X351575Y281004D02*
Y292815D01*
X339764Y281004D02*
X351575D01*
X339764Y292815D02*
X351575D01*
D146*
X340072Y263704D02*
G03*
X342150Y264904I1039J600D01*
G01*
D147*
X336511Y259672D02*
X337261Y258373D01*
X333177Y257747D02*
X336511Y259672D01*
X333177Y257747D02*
X333927Y256448D01*
X337261Y258373D01*
X337790Y257455D02*
X338540Y256156D01*
X334456Y255531D02*
X337790Y257455D01*
X334456Y255531D02*
X335206Y254232D01*
X338540Y256156D01*
X339070Y255239D02*
X339820Y253940D01*
X335736Y253314D02*
X339070Y255239D01*
X335736Y253314D02*
X336486Y252015D01*
X339820Y253940D01*
X340349Y253023D02*
X341099Y251724D01*
X337015Y251098D02*
X340349Y253023D01*
X337015Y251098D02*
X337765Y249799D01*
X341099Y251724D01*
X351261Y259323D02*
X352011Y258024D01*
X355346Y259949D01*
X354595Y261248D02*
X355346Y259949D01*
X351261Y259323D02*
X354595Y261248D01*
X349982Y261539D02*
X350732Y260240D01*
X354066Y262165D01*
X353316Y263464D02*
X354066Y262165D01*
X349982Y261539D02*
X353316Y263464D01*
X348702Y263755D02*
X349452Y262456D01*
X352786Y264381D01*
X352036Y265681D02*
X352786Y264381D01*
X348702Y263755D02*
X352036Y265681D01*
X347423Y265972D02*
X348173Y264673D01*
X351507Y266598D01*
X350757Y267897D02*
X351507Y266598D01*
X347423Y265972D02*
X350757Y267897D01*
X341955Y250242D02*
X352867Y256542D01*
X346567Y267454D02*
X352867Y256542D01*
X335655Y261154D02*
X346567Y267454D01*
X335655Y261154D02*
X341955Y250242D01*
D148*
X336439Y260296D02*
X340991Y259076D01*
X338105Y257410D02*
X339325Y261962D01*
X337272Y258853D02*
X340158Y260519D01*
X339548Y258243D02*
X337882Y261129D01*
M02*
