G04*
G04 #@! TF.GenerationSoftware,Altium Limited,Altium Designer,22.0.2 (36)*
G04*
G04 Layer_Color=8388736*
%FSLAX25Y25*%
%MOIN*%
G70*
G04*
G04 #@! TF.SameCoordinates,5891F61C-6817-4B1F-B1E3-DF0E04F861FB*
G04*
G04*
G04 #@! TF.FilePolarity,Positive*
G04*
G01*
G75*
%ADD12C,0.00787*%
G36*
X262649Y360886D02*
X261194D01*
X261191D01*
X261180D01*
X261164D01*
X261139D01*
X261112Y360883D01*
X261082D01*
X261047Y360881D01*
X261011Y360878D01*
X260932Y360873D01*
X260853Y360862D01*
X260776Y360845D01*
X260741Y360837D01*
X260711Y360826D01*
X260708D01*
X260705Y360823D01*
X260697Y360821D01*
X260686Y360815D01*
X260656Y360799D01*
X260624Y360777D01*
X260582Y360750D01*
X260544Y360714D01*
X260506Y360671D01*
X260471Y360619D01*
Y360616D01*
X260468Y360611D01*
X260462Y360602D01*
X260457Y360591D01*
X260452Y360578D01*
X260446Y360559D01*
X260438Y360540D01*
X260430Y360518D01*
X260416Y360463D01*
X260402Y360400D01*
X260391Y360329D01*
X260389Y360253D01*
Y360217D01*
X260391Y360193D01*
X260394Y360163D01*
X260397Y360127D01*
X260402Y360089D01*
X260410Y360048D01*
X260430Y359963D01*
X260443Y359920D01*
X260460Y359876D01*
X260479Y359835D01*
X260501Y359797D01*
X260525Y359762D01*
X260555Y359729D01*
X260558Y359726D01*
X260563Y359720D01*
X260574Y359715D01*
X260588Y359704D01*
X260607Y359693D01*
X260632Y359680D01*
X260662Y359663D01*
X260697Y359650D01*
X260738Y359636D01*
X260785Y359619D01*
X260836Y359606D01*
X260894Y359595D01*
X260959Y359584D01*
X261030Y359576D01*
X261109Y359573D01*
X261194Y359570D01*
X262649D01*
Y359237D01*
X261194D01*
X261189D01*
X261178D01*
X261159D01*
X261131D01*
X261099Y359240D01*
X261063Y359243D01*
X261022Y359245D01*
X260976Y359248D01*
X260880Y359259D01*
X260779Y359273D01*
X260681Y359295D01*
X260634Y359308D01*
X260591Y359325D01*
X260588D01*
X260580Y359327D01*
X260569Y359333D01*
X260553Y359341D01*
X260533Y359352D01*
X260511Y359363D01*
X260462Y359396D01*
X260432Y359415D01*
X260405Y359437D01*
X260372Y359464D01*
X260342Y359491D01*
X260312Y359524D01*
X260282Y359557D01*
X260255Y359595D01*
X260228Y359636D01*
X260225Y359639D01*
X260222Y359647D01*
X260214Y359658D01*
X260206Y359677D01*
X260195Y359699D01*
X260184Y359726D01*
X260170Y359756D01*
X260159Y359794D01*
X260146Y359833D01*
X260132Y359876D01*
X260121Y359925D01*
X260110Y359977D01*
X260102Y360034D01*
X260094Y360094D01*
X260091Y360157D01*
X260088Y360223D01*
Y360258D01*
X260091Y360283D01*
Y360313D01*
X260094Y360346D01*
X260099Y360387D01*
X260105Y360428D01*
X260118Y360520D01*
X260140Y360619D01*
X260170Y360714D01*
X260187Y360761D01*
X260209Y360804D01*
X260211Y360807D01*
X260214Y360815D01*
X260222Y360826D01*
X260230Y360840D01*
X260244Y360859D01*
X260260Y360881D01*
X260277Y360903D01*
X260299Y360927D01*
X260348Y360982D01*
X260408Y361034D01*
X260479Y361083D01*
X260520Y361105D01*
X260561Y361124D01*
X260563D01*
X260572Y361126D01*
X260585Y361132D01*
X260604Y361137D01*
X260626Y361146D01*
X260656Y361154D01*
X260689Y361162D01*
X260727Y361170D01*
X260771Y361181D01*
X260817Y361189D01*
X260869Y361197D01*
X260927Y361203D01*
X260987Y361211D01*
X261052Y361214D01*
X261120Y361219D01*
X261194D01*
X262649D01*
Y360886D01*
D02*
G37*
G36*
X260836Y358498D02*
X260834D01*
X260825Y358495D01*
X260812Y358492D01*
X260793Y358487D01*
X260771Y358481D01*
X260746Y358476D01*
X260689Y358457D01*
X260626Y358432D01*
X260563Y358402D01*
X260506Y358364D01*
X260482Y358342D01*
X260457Y358320D01*
Y358317D01*
X260452Y358315D01*
X260446Y358306D01*
X260438Y358298D01*
X260421Y358271D01*
X260400Y358233D01*
X260378Y358186D01*
X260361Y358134D01*
X260348Y358072D01*
X260342Y358006D01*
Y357984D01*
X260345Y357968D01*
X260348Y357951D01*
X260350Y357927D01*
X260361Y357878D01*
X260378Y357818D01*
X260405Y357755D01*
X260424Y357725D01*
X260443Y357695D01*
X260465Y357665D01*
X260492Y357635D01*
X260495Y357632D01*
X260501Y357629D01*
X260509Y357621D01*
X260520Y357610D01*
X260533Y357599D01*
X260553Y357588D01*
X260572Y357575D01*
X260596Y357558D01*
X260651Y357531D01*
X260714Y357509D01*
X260787Y357490D01*
X260825Y357487D01*
X260866Y357485D01*
X260869D01*
X260875D01*
X260888D01*
X260902Y357487D01*
X260921Y357490D01*
X260940Y357493D01*
X260989Y357501D01*
X261047Y357520D01*
X261104Y357545D01*
X261134Y357561D01*
X261161Y357580D01*
X261189Y357602D01*
X261216Y357627D01*
X261219Y357629D01*
X261221Y357632D01*
X261229Y357640D01*
X261238Y357651D01*
X261249Y357665D01*
X261260Y357681D01*
X261287Y357722D01*
X261311Y357774D01*
X261333Y357834D01*
X261350Y357902D01*
X261352Y357941D01*
X261355Y357979D01*
Y357995D01*
X261352Y358014D01*
Y358039D01*
X261347Y358072D01*
X261342Y358107D01*
X261333Y358151D01*
X261322Y358197D01*
X261593Y358164D01*
Y358159D01*
X261590Y358145D01*
X261587Y358129D01*
Y358094D01*
X261590Y358080D01*
Y358061D01*
X261593Y358042D01*
X261601Y357995D01*
X261612Y357941D01*
X261631Y357880D01*
X261655Y357818D01*
X261691Y357758D01*
Y357755D01*
X261696Y357750D01*
X261702Y357744D01*
X261710Y357733D01*
X261735Y357706D01*
X261770Y357676D01*
X261814Y357648D01*
X261868Y357621D01*
X261898Y357610D01*
X261934Y357605D01*
X261969Y357599D01*
X262008Y357597D01*
X262010D01*
X262016D01*
X262024D01*
X262038Y357599D01*
X262068Y357602D01*
X262109Y357610D01*
X262152Y357624D01*
X262199Y357646D01*
X262248Y357676D01*
X262270Y357692D01*
X262292Y357714D01*
X262297Y357719D01*
X262308Y357736D01*
X262327Y357760D01*
X262349Y357793D01*
X262368Y357837D01*
X262387Y357889D01*
X262398Y357946D01*
X262403Y358012D01*
Y358028D01*
X262401Y358042D01*
Y358058D01*
X262398Y358074D01*
X262390Y358118D01*
X262376Y358164D01*
X262354Y358216D01*
X262327Y358265D01*
X262289Y358315D01*
X262283Y358320D01*
X262267Y358334D01*
X262242Y358355D01*
X262204Y358377D01*
X262158Y358405D01*
X262098Y358429D01*
X262029Y358451D01*
X261950Y358468D01*
X262005Y358776D01*
X262008D01*
X262018Y358773D01*
X262035Y358770D01*
X262057Y358765D01*
X262081Y358757D01*
X262111Y358749D01*
X262144Y358738D01*
X262180Y358724D01*
X262259Y358689D01*
X262297Y358669D01*
X262338Y358645D01*
X262376Y358618D01*
X262414Y358588D01*
X262453Y358555D01*
X262485Y358519D01*
X262488Y358517D01*
X262493Y358511D01*
X262502Y358498D01*
X262513Y358484D01*
X262526Y358462D01*
X262540Y358440D01*
X262556Y358413D01*
X262573Y358380D01*
X262586Y358347D01*
X262603Y358309D01*
X262616Y358268D01*
X262630Y358225D01*
X262641Y358175D01*
X262649Y358126D01*
X262655Y358074D01*
X262657Y358020D01*
Y357984D01*
X262655Y357965D01*
X262652Y357946D01*
X262646Y357894D01*
X262635Y357837D01*
X262619Y357771D01*
X262597Y357706D01*
X262567Y357640D01*
Y357638D01*
X262564Y357632D01*
X262559Y357624D01*
X262551Y357610D01*
X262532Y357580D01*
X262504Y357542D01*
X262469Y357498D01*
X262428Y357455D01*
X262382Y357411D01*
X262327Y357373D01*
X262324D01*
X262321Y357370D01*
X262311Y357365D01*
X262300Y357359D01*
X262286Y357351D01*
X262270Y357343D01*
X262229Y357326D01*
X262180Y357310D01*
X262125Y357294D01*
X262065Y357283D01*
X262002Y357280D01*
X261999D01*
X261994D01*
X261986D01*
X261975D01*
X261942Y357285D01*
X261904Y357291D01*
X261857Y357302D01*
X261808Y357318D01*
X261756Y357340D01*
X261705Y357370D01*
X261702D01*
X261699Y357373D01*
X261683Y357386D01*
X261658Y357405D01*
X261628Y357435D01*
X261593Y357471D01*
X261557Y357517D01*
X261524Y357569D01*
X261492Y357629D01*
Y357627D01*
X261489Y357618D01*
X261486Y357608D01*
X261481Y357591D01*
X261475Y357575D01*
X261467Y357553D01*
X261445Y357501D01*
X261415Y357447D01*
X261380Y357389D01*
X261333Y357332D01*
X261276Y357283D01*
X261273Y357280D01*
X261268Y357277D01*
X261260Y357272D01*
X261246Y357263D01*
X261232Y357253D01*
X261213Y357242D01*
X261191Y357231D01*
X261164Y357220D01*
X261137Y357209D01*
X261107Y357198D01*
X261038Y357176D01*
X260959Y357162D01*
X260916Y357157D01*
X260872D01*
X260869D01*
X260858D01*
X260839Y357160D01*
X260817D01*
X260787Y357165D01*
X260754Y357171D01*
X260719Y357176D01*
X260678Y357187D01*
X260634Y357201D01*
X260591Y357217D01*
X260544Y357236D01*
X260498Y357261D01*
X260449Y357288D01*
X260402Y357321D01*
X260356Y357356D01*
X260312Y357400D01*
X260310Y357403D01*
X260301Y357411D01*
X260290Y357425D01*
X260277Y357444D01*
X260260Y357466D01*
X260241Y357496D01*
X260219Y357528D01*
X260200Y357567D01*
X260178Y357608D01*
X260157Y357654D01*
X260138Y357703D01*
X260121Y357758D01*
X260107Y357815D01*
X260097Y357875D01*
X260088Y357938D01*
X260086Y358006D01*
Y358020D01*
X260088Y358039D01*
Y358061D01*
X260091Y358091D01*
X260097Y358123D01*
X260102Y358159D01*
X260110Y358200D01*
X260121Y358244D01*
X260135Y358287D01*
X260149Y358334D01*
X260168Y358380D01*
X260192Y358426D01*
X260217Y358470D01*
X260247Y358517D01*
X260282Y358558D01*
X260285Y358560D01*
X260290Y358566D01*
X260301Y358577D01*
X260318Y358593D01*
X260337Y358609D01*
X260361Y358629D01*
X260389Y358648D01*
X260421Y358669D01*
X260454Y358691D01*
X260495Y358713D01*
X260536Y358735D01*
X260582Y358754D01*
X260632Y358770D01*
X260683Y358787D01*
X260738Y358798D01*
X260795Y358806D01*
X260836Y358498D01*
D02*
G37*
G36*
X310936Y375992D02*
X310931D01*
X310917D01*
X310895D01*
X310868Y375994D01*
X310835Y375997D01*
X310800Y376005D01*
X310762Y376013D01*
X310723Y376027D01*
X310721D01*
X310715Y376030D01*
X310707Y376033D01*
X310693Y376038D01*
X310680Y376046D01*
X310661Y376055D01*
X310617Y376076D01*
X310565Y376104D01*
X310508Y376139D01*
X310448Y376180D01*
X310388Y376229D01*
X310385Y376232D01*
X310380Y376235D01*
X310371Y376243D01*
X310358Y376256D01*
X310344Y376270D01*
X310325Y376289D01*
X310303Y376308D01*
X310279Y376333D01*
X310251Y376360D01*
X310224Y376390D01*
X310191Y376423D01*
X310158Y376461D01*
X310123Y376500D01*
X310087Y376543D01*
X310049Y376587D01*
X310008Y376636D01*
X310005Y376641D01*
X309992Y376655D01*
X309975Y376674D01*
X309951Y376701D01*
X309924Y376734D01*
X309891Y376772D01*
X309855Y376816D01*
X309814Y376860D01*
X309730Y376953D01*
X309640Y377043D01*
X309596Y377086D01*
X309552Y377127D01*
X309511Y377163D01*
X309473Y377193D01*
X309470Y377196D01*
X309465Y377198D01*
X309454Y377206D01*
X309440Y377215D01*
X309421Y377228D01*
X309402Y377239D01*
X309353Y377267D01*
X309296Y377294D01*
X309233Y377319D01*
X309167Y377335D01*
X309135Y377338D01*
X309102Y377340D01*
X309099D01*
X309094D01*
X309083D01*
X309072Y377338D01*
X309055D01*
X309036Y377332D01*
X308995Y377324D01*
X308946Y377308D01*
X308894Y377283D01*
X308867Y377269D01*
X308842Y377250D01*
X308818Y377231D01*
X308793Y377206D01*
X308791Y377204D01*
X308788Y377201D01*
X308782Y377193D01*
X308774Y377182D01*
X308763Y377168D01*
X308752Y377152D01*
X308728Y377114D01*
X308706Y377062D01*
X308684Y377005D01*
X308670Y376936D01*
X308665Y376898D01*
Y376838D01*
X308668Y376822D01*
Y376802D01*
X308673Y376781D01*
X308681Y376731D01*
X308698Y376674D01*
X308722Y376614D01*
X308739Y376584D01*
X308755Y376554D01*
X308777Y376527D01*
X308802Y376500D01*
X308804Y376497D01*
X308807Y376494D01*
X308815Y376488D01*
X308826Y376478D01*
X308840Y376469D01*
X308856Y376459D01*
X308875Y376445D01*
X308897Y376434D01*
X308922Y376420D01*
X308949Y376409D01*
X309015Y376388D01*
X309085Y376371D01*
X309126Y376368D01*
X309170Y376366D01*
X309137Y376049D01*
X309132D01*
X309121Y376052D01*
X309105Y376055D01*
X309080Y376057D01*
X309050Y376063D01*
X309015Y376071D01*
X308976Y376079D01*
X308935Y376093D01*
X308894Y376106D01*
X308848Y376123D01*
X308804Y376145D01*
X308761Y376166D01*
X308714Y376194D01*
X308673Y376224D01*
X308632Y376256D01*
X308597Y376295D01*
X308594Y376297D01*
X308589Y376306D01*
X308580Y376317D01*
X308567Y376333D01*
X308553Y376355D01*
X308537Y376382D01*
X308520Y376412D01*
X308501Y376448D01*
X308485Y376486D01*
X308469Y376530D01*
X308452Y376576D01*
X308438Y376628D01*
X308425Y376682D01*
X308417Y376740D01*
X308411Y376802D01*
X308408Y376868D01*
Y376904D01*
X308411Y376928D01*
X308414Y376958D01*
X308419Y376994D01*
X308425Y377034D01*
X308433Y377076D01*
X308444Y377122D01*
X308457Y377168D01*
X308474Y377218D01*
X308493Y377264D01*
X308518Y377313D01*
X308545Y377359D01*
X308575Y377403D01*
X308610Y377444D01*
X308613Y377447D01*
X308619Y377452D01*
X308632Y377463D01*
X308646Y377477D01*
X308665Y377493D01*
X308690Y377512D01*
X308717Y377531D01*
X308750Y377551D01*
X308782Y377570D01*
X308821Y377589D01*
X308862Y377608D01*
X308905Y377624D01*
X308954Y377638D01*
X309003Y377649D01*
X309055Y377654D01*
X309110Y377657D01*
X309113D01*
X309116D01*
X309124D01*
X309135D01*
X309165Y377654D01*
X309203Y377649D01*
X309249Y377641D01*
X309298Y377630D01*
X309353Y377616D01*
X309408Y377594D01*
X309410D01*
X309413Y377591D01*
X309421Y377589D01*
X309432Y377583D01*
X309462Y377567D01*
X309500Y377545D01*
X309547Y377515D01*
X309599Y377480D01*
X309653Y377439D01*
X309713Y377387D01*
X309716Y377384D01*
X309721Y377381D01*
X309730Y377370D01*
X309743Y377359D01*
X309760Y377343D01*
X309779Y377324D01*
X309803Y377302D01*
X309828Y377275D01*
X309858Y377242D01*
X309891Y377206D01*
X309929Y377168D01*
X309967Y377125D01*
X310011Y377078D01*
X310055Y377026D01*
X310104Y376969D01*
X310156Y376909D01*
X310158Y376906D01*
X310167Y376898D01*
X310177Y376882D01*
X310194Y376865D01*
X310213Y376841D01*
X310235Y376816D01*
X310284Y376759D01*
X310336Y376699D01*
X310390Y376641D01*
X310415Y376614D01*
X310437Y376590D01*
X310459Y376568D01*
X310475Y376551D01*
X310478Y376549D01*
X310489Y376538D01*
X310505Y376524D01*
X310527Y376505D01*
X310552Y376483D01*
X310579Y376461D01*
X310639Y376418D01*
Y377660D01*
X310936D01*
Y375992D01*
D02*
G37*
G36*
X309967Y375601D02*
X310003Y375599D01*
X310044Y375596D01*
X310090Y375593D01*
X310186Y375582D01*
X310287Y375569D01*
X310385Y375547D01*
X310431Y375533D01*
X310475Y375517D01*
X310478D01*
X310486Y375514D01*
X310497Y375508D01*
X310513Y375500D01*
X310532Y375489D01*
X310554Y375479D01*
X310603Y375446D01*
X310633Y375427D01*
X310661Y375405D01*
X310693Y375377D01*
X310723Y375350D01*
X310753Y375317D01*
X310784Y375285D01*
X310811Y375246D01*
X310838Y375205D01*
X310841Y375203D01*
X310844Y375195D01*
X310852Y375184D01*
X310860Y375165D01*
X310871Y375143D01*
X310882Y375115D01*
X310895Y375085D01*
X310906Y375047D01*
X310920Y375009D01*
X310934Y374965D01*
X310945Y374916D01*
X310956Y374864D01*
X310964Y374807D01*
X310972Y374747D01*
X310975Y374684D01*
X310977Y374619D01*
Y374583D01*
X310975Y374558D01*
Y374528D01*
X310972Y374496D01*
X310966Y374455D01*
X310961Y374414D01*
X310947Y374321D01*
X310926Y374223D01*
X310895Y374127D01*
X310879Y374081D01*
X310857Y374037D01*
X310855Y374034D01*
X310852Y374026D01*
X310844Y374015D01*
X310835Y374002D01*
X310822Y373982D01*
X310805Y373961D01*
X310789Y373939D01*
X310767Y373914D01*
X310718Y373860D01*
X310658Y373808D01*
X310587Y373759D01*
X310546Y373737D01*
X310505Y373718D01*
X310502D01*
X310494Y373715D01*
X310480Y373709D01*
X310461Y373704D01*
X310439Y373696D01*
X310409Y373688D01*
X310377Y373679D01*
X310338Y373671D01*
X310295Y373660D01*
X310248Y373652D01*
X310197Y373644D01*
X310139Y373638D01*
X310079Y373630D01*
X310014Y373627D01*
X309945Y373622D01*
X309872D01*
X308417D01*
Y373955D01*
X309872D01*
X309874D01*
X309885D01*
X309902D01*
X309926D01*
X309954Y373958D01*
X309984D01*
X310019Y373961D01*
X310055Y373963D01*
X310134Y373969D01*
X310213Y373980D01*
X310289Y373996D01*
X310325Y374004D01*
X310355Y374015D01*
X310358D01*
X310360Y374018D01*
X310369Y374021D01*
X310380Y374026D01*
X310409Y374043D01*
X310442Y374064D01*
X310483Y374092D01*
X310521Y374127D01*
X310560Y374171D01*
X310595Y374223D01*
Y374225D01*
X310598Y374231D01*
X310603Y374239D01*
X310609Y374250D01*
X310614Y374264D01*
X310620Y374283D01*
X310628Y374302D01*
X310636Y374324D01*
X310650Y374378D01*
X310663Y374441D01*
X310674Y374512D01*
X310677Y374588D01*
Y374624D01*
X310674Y374648D01*
X310672Y374679D01*
X310669Y374714D01*
X310663Y374752D01*
X310655Y374793D01*
X310636Y374878D01*
X310622Y374921D01*
X310606Y374965D01*
X310587Y375006D01*
X310565Y375044D01*
X310541Y375080D01*
X310510Y375113D01*
X310508Y375115D01*
X310502Y375121D01*
X310491Y375126D01*
X310478Y375137D01*
X310459Y375148D01*
X310434Y375162D01*
X310404Y375178D01*
X310369Y375192D01*
X310328Y375205D01*
X310281Y375222D01*
X310229Y375236D01*
X310172Y375246D01*
X310106Y375257D01*
X310035Y375266D01*
X309956Y375268D01*
X309872Y375271D01*
X308417D01*
Y375604D01*
X309872D01*
X309877D01*
X309888D01*
X309907D01*
X309934D01*
X309967Y375601D01*
D02*
G37*
G36*
X304373Y277607D02*
X304452Y277594D01*
X304521Y277572D01*
X304551Y277561D01*
X304578Y277550D01*
X304605Y277539D01*
X304627Y277528D01*
X304646Y277517D01*
X304660Y277506D01*
X304674Y277498D01*
X304682Y277493D01*
X304687Y277490D01*
X304690Y277487D01*
X304747Y277438D01*
X304794Y277381D01*
X304829Y277323D01*
X304859Y277269D01*
X304881Y277217D01*
X304889Y277195D01*
X304895Y277179D01*
X304900Y277162D01*
X304903Y277151D01*
X304906Y277143D01*
Y277140D01*
X304938Y277201D01*
X304971Y277252D01*
X305007Y277299D01*
X305042Y277334D01*
X305072Y277364D01*
X305097Y277383D01*
X305113Y277397D01*
X305116Y277400D01*
X305118D01*
X305170Y277430D01*
X305222Y277452D01*
X305271Y277468D01*
X305318Y277479D01*
X305356Y277484D01*
X305389Y277490D01*
X305400D01*
X305408D01*
X305413D01*
X305416D01*
X305479Y277487D01*
X305539Y277476D01*
X305593Y277460D01*
X305643Y277444D01*
X305684Y277427D01*
X305700Y277419D01*
X305714Y277411D01*
X305725Y277405D01*
X305735Y277400D01*
X305738Y277397D01*
X305741D01*
X305796Y277359D01*
X305842Y277315D01*
X305883Y277272D01*
X305918Y277228D01*
X305946Y277190D01*
X305965Y277160D01*
X305973Y277146D01*
X305978Y277138D01*
X305981Y277132D01*
Y277130D01*
X306011Y277064D01*
X306033Y276998D01*
X306049Y276933D01*
X306060Y276876D01*
X306066Y276824D01*
X306069Y276805D01*
X306071Y276785D01*
Y276750D01*
X306069Y276695D01*
X306063Y276644D01*
X306055Y276594D01*
X306044Y276545D01*
X306030Y276502D01*
X306017Y276461D01*
X306000Y276422D01*
X305987Y276390D01*
X305970Y276357D01*
X305954Y276330D01*
X305940Y276308D01*
X305927Y276286D01*
X305916Y276272D01*
X305908Y276259D01*
X305902Y276253D01*
X305899Y276251D01*
X305867Y276215D01*
X305828Y276182D01*
X305790Y276152D01*
X305752Y276125D01*
X305711Y276100D01*
X305673Y276081D01*
X305593Y276046D01*
X305558Y276032D01*
X305525Y276021D01*
X305495Y276013D01*
X305471Y276005D01*
X305449Y275999D01*
X305433Y275997D01*
X305421Y275994D01*
X305419D01*
X305364Y276302D01*
X305443Y276319D01*
X305512Y276341D01*
X305572Y276365D01*
X305618Y276392D01*
X305656Y276414D01*
X305681Y276436D01*
X305697Y276450D01*
X305703Y276455D01*
X305741Y276504D01*
X305768Y276554D01*
X305790Y276605D01*
X305804Y276652D01*
X305812Y276695D01*
X305815Y276712D01*
Y276728D01*
X305817Y276742D01*
Y276758D01*
X305812Y276824D01*
X305801Y276881D01*
X305782Y276933D01*
X305763Y276977D01*
X305741Y277009D01*
X305722Y277034D01*
X305711Y277050D01*
X305705Y277056D01*
X305684Y277078D01*
X305662Y277094D01*
X305613Y277124D01*
X305566Y277146D01*
X305523Y277160D01*
X305482Y277168D01*
X305452Y277170D01*
X305438Y277173D01*
X305430D01*
X305424D01*
X305421D01*
X305383Y277170D01*
X305348Y277165D01*
X305312Y277160D01*
X305282Y277149D01*
X305228Y277121D01*
X305184Y277094D01*
X305149Y277064D01*
X305124Y277037D01*
X305116Y277026D01*
X305110Y277020D01*
X305105Y277015D01*
Y277012D01*
X305069Y276952D01*
X305045Y276889D01*
X305026Y276829D01*
X305015Y276775D01*
X305007Y276728D01*
X305004Y276709D01*
Y276690D01*
X305001Y276676D01*
Y276641D01*
X305004Y276624D01*
X305007Y276611D01*
Y276605D01*
X304736Y276573D01*
X304747Y276619D01*
X304755Y276663D01*
X304761Y276698D01*
X304766Y276731D01*
Y276755D01*
X304769Y276775D01*
Y276791D01*
X304766Y276829D01*
X304764Y276867D01*
X304747Y276936D01*
X304725Y276996D01*
X304701Y277048D01*
X304674Y277089D01*
X304663Y277105D01*
X304652Y277119D01*
X304644Y277130D01*
X304635Y277138D01*
X304633Y277140D01*
X304630Y277143D01*
X304603Y277168D01*
X304575Y277190D01*
X304548Y277209D01*
X304518Y277225D01*
X304461Y277250D01*
X304403Y277269D01*
X304354Y277277D01*
X304335Y277280D01*
X304316Y277282D01*
X304302Y277285D01*
X304289D01*
X304283D01*
X304280D01*
X304240Y277282D01*
X304201Y277280D01*
X304128Y277261D01*
X304065Y277239D01*
X304010Y277211D01*
X303986Y277195D01*
X303966Y277181D01*
X303947Y277170D01*
X303934Y277160D01*
X303923Y277149D01*
X303915Y277140D01*
X303909Y277138D01*
X303906Y277135D01*
X303879Y277105D01*
X303857Y277075D01*
X303838Y277045D01*
X303819Y277015D01*
X303792Y276952D01*
X303775Y276892D01*
X303764Y276843D01*
X303762Y276818D01*
X303759Y276802D01*
X303756Y276785D01*
Y276764D01*
X303762Y276698D01*
X303775Y276635D01*
X303792Y276584D01*
X303814Y276537D01*
X303835Y276499D01*
X303852Y276472D01*
X303860Y276463D01*
X303866Y276455D01*
X303871Y276452D01*
Y276450D01*
X303895Y276428D01*
X303920Y276406D01*
X303977Y276368D01*
X304040Y276338D01*
X304103Y276313D01*
X304160Y276294D01*
X304185Y276289D01*
X304207Y276283D01*
X304226Y276278D01*
X304240Y276275D01*
X304248Y276272D01*
X304250D01*
X304209Y275964D01*
X304152Y275972D01*
X304098Y275983D01*
X304046Y275999D01*
X303996Y276016D01*
X303950Y276035D01*
X303909Y276057D01*
X303868Y276079D01*
X303835Y276100D01*
X303803Y276122D01*
X303775Y276141D01*
X303751Y276160D01*
X303732Y276177D01*
X303715Y276193D01*
X303704Y276204D01*
X303699Y276209D01*
X303696Y276212D01*
X303661Y276253D01*
X303631Y276300D01*
X303606Y276343D01*
X303582Y276390D01*
X303562Y276436D01*
X303549Y276483D01*
X303535Y276526D01*
X303524Y276570D01*
X303516Y276611D01*
X303511Y276646D01*
X303505Y276679D01*
X303502Y276709D01*
Y276731D01*
X303500Y276750D01*
Y276764D01*
X303502Y276832D01*
X303511Y276895D01*
X303521Y276955D01*
X303535Y277012D01*
X303552Y277067D01*
X303571Y277116D01*
X303592Y277162D01*
X303614Y277203D01*
X303633Y277241D01*
X303655Y277274D01*
X303674Y277304D01*
X303691Y277326D01*
X303704Y277345D01*
X303715Y277359D01*
X303724Y277367D01*
X303726Y277370D01*
X303770Y277413D01*
X303816Y277449D01*
X303863Y277482D01*
X303912Y277509D01*
X303958Y277534D01*
X304005Y277553D01*
X304048Y277569D01*
X304092Y277583D01*
X304133Y277594D01*
X304169Y277599D01*
X304201Y277605D01*
X304231Y277610D01*
X304253D01*
X304272Y277613D01*
X304283D01*
X304286D01*
X304330D01*
X304373Y277607D01*
D02*
G37*
G36*
X303609Y275614D02*
X303647Y275538D01*
X303685Y275464D01*
X303724Y275399D01*
X303743Y275369D01*
X303759Y275341D01*
X303775Y275317D01*
X303786Y275298D01*
X303797Y275279D01*
X303805Y275268D01*
X303811Y275259D01*
X303814Y275257D01*
X303885Y275325D01*
X303958Y275382D01*
X304029Y275431D01*
X304098Y275472D01*
X304128Y275489D01*
X304158Y275502D01*
X304182Y275516D01*
X304204Y275524D01*
X304220Y275533D01*
X304234Y275538D01*
X304242Y275543D01*
X304245D01*
X304341Y275576D01*
X304436Y275598D01*
X304532Y275614D01*
X304575Y275623D01*
X304619Y275628D01*
X304657Y275631D01*
X304693Y275634D01*
X304725Y275636D01*
X304753D01*
X304774Y275639D01*
X304791D01*
X304802D01*
X304805D01*
X304873Y275636D01*
X304941Y275634D01*
X305007Y275625D01*
X305067Y275617D01*
X305127Y275606D01*
X305181Y275592D01*
X305233Y275579D01*
X305280Y275565D01*
X305323Y275552D01*
X305362Y275538D01*
X305397Y275527D01*
X305424Y275513D01*
X305446Y275505D01*
X305463Y275497D01*
X305473Y275494D01*
X305476Y275491D01*
X305531Y275462D01*
X305583Y275431D01*
X305629Y275396D01*
X305675Y275363D01*
X305716Y275328D01*
X305755Y275292D01*
X305787Y275257D01*
X305820Y275221D01*
X305847Y275188D01*
X305872Y275159D01*
X305894Y275134D01*
X305910Y275109D01*
X305924Y275090D01*
X305932Y275077D01*
X305938Y275066D01*
X305940Y275063D01*
X305970Y275008D01*
X305995Y274956D01*
X306017Y274902D01*
X306036Y274847D01*
X306052Y274793D01*
X306066Y274741D01*
X306077Y274692D01*
X306085Y274642D01*
X306093Y274599D01*
X306099Y274561D01*
X306101Y274525D01*
X306104Y274492D01*
X306107Y274468D01*
Y274435D01*
X306104Y274372D01*
X306099Y274309D01*
X306093Y274249D01*
X306082Y274192D01*
X306069Y274135D01*
X306055Y274083D01*
X306041Y274036D01*
X306028Y273990D01*
X306011Y273952D01*
X305998Y273914D01*
X305984Y273884D01*
X305970Y273856D01*
X305959Y273834D01*
X305954Y273821D01*
X305948Y273810D01*
X305946Y273807D01*
X305916Y273755D01*
X305880Y273709D01*
X305845Y273665D01*
X305806Y273622D01*
X305768Y273583D01*
X305730Y273551D01*
X305692Y273518D01*
X305654Y273488D01*
X305618Y273463D01*
X305588Y273441D01*
X305558Y273422D01*
X305531Y273406D01*
X305512Y273395D01*
X305495Y273387D01*
X305484Y273381D01*
X305482Y273378D01*
X305424Y273351D01*
X305364Y273329D01*
X305304Y273310D01*
X305247Y273291D01*
X305132Y273264D01*
X305078Y273256D01*
X305028Y273248D01*
X304979Y273242D01*
X304936Y273236D01*
X304897Y273234D01*
X304865Y273231D01*
X304837Y273228D01*
X304818D01*
X304807D01*
X304802D01*
X304734Y273231D01*
X304665Y273234D01*
X304600Y273242D01*
X304540Y273253D01*
X304480Y273264D01*
X304425Y273275D01*
X304373Y273288D01*
X304324Y273305D01*
X304280Y273318D01*
X304242Y273332D01*
X304209Y273343D01*
X304179Y273354D01*
X304158Y273365D01*
X304141Y273373D01*
X304130Y273376D01*
X304128Y273378D01*
X304073Y273409D01*
X304021Y273441D01*
X303975Y273474D01*
X303931Y273510D01*
X303890Y273545D01*
X303852Y273581D01*
X303816Y273616D01*
X303786Y273649D01*
X303759Y273681D01*
X303734Y273712D01*
X303713Y273739D01*
X303696Y273761D01*
X303682Y273780D01*
X303674Y273796D01*
X303669Y273804D01*
X303666Y273807D01*
X303636Y273859D01*
X303612Y273914D01*
X303590Y273968D01*
X303571Y274023D01*
X303557Y274075D01*
X303543Y274127D01*
X303532Y274176D01*
X303524Y274222D01*
X303516Y274266D01*
X303511Y274304D01*
X303508Y274340D01*
X303505Y274370D01*
X303502Y274394D01*
Y274427D01*
X303505Y274490D01*
X303508Y274550D01*
X303527Y274667D01*
X303538Y274722D01*
X303552Y274771D01*
X303565Y274820D01*
X303579Y274864D01*
X303592Y274905D01*
X303606Y274940D01*
X303620Y274970D01*
X303631Y274997D01*
X303642Y275019D01*
X303650Y275033D01*
X303653Y275044D01*
X303655Y275046D01*
X303582Y275148D01*
X303519Y275246D01*
X303467Y275336D01*
X303445Y275380D01*
X303426Y275418D01*
X303407Y275453D01*
X303390Y275486D01*
X303380Y275516D01*
X303369Y275541D01*
X303360Y275560D01*
X303355Y275576D01*
X303349Y275584D01*
Y275587D01*
X303579Y275688D01*
X303609Y275614D01*
D02*
G37*
G36*
X313058Y411849D02*
X313108Y411846D01*
X313200Y411830D01*
X313244Y411817D01*
X313282Y411806D01*
X313320Y411792D01*
X313353Y411778D01*
X313386Y411765D01*
X313413Y411751D01*
X313435Y411737D01*
X313457Y411726D01*
X313471Y411718D01*
X313484Y411710D01*
X313490Y411707D01*
X313492Y411705D01*
X313531Y411674D01*
X313566Y411642D01*
X313629Y411574D01*
X313684Y411500D01*
X313727Y411432D01*
X313744Y411399D01*
X313760Y411369D01*
X313774Y411341D01*
X313785Y411317D01*
X313793Y411298D01*
X313798Y411284D01*
X313804Y411273D01*
Y411271D01*
X313823Y411213D01*
X313839Y411156D01*
X313866Y411030D01*
X313886Y410902D01*
X313891Y410839D01*
X313897Y410779D01*
X313902Y410722D01*
X313905Y410670D01*
X313908Y410621D01*
Y410580D01*
X313910Y410547D01*
Y410523D01*
Y410506D01*
Y410501D01*
Y410416D01*
X313905Y410337D01*
X313899Y410263D01*
X313894Y410195D01*
X313886Y410132D01*
X313878Y410072D01*
X313866Y410020D01*
X313858Y409974D01*
X313847Y409930D01*
X313837Y409895D01*
X313828Y409865D01*
X313820Y409840D01*
X313815Y409818D01*
X313809Y409804D01*
X313804Y409796D01*
Y409794D01*
X313782Y409750D01*
X313760Y409706D01*
X313736Y409668D01*
X313711Y409630D01*
X313684Y409597D01*
X313659Y409567D01*
X313632Y409537D01*
X313607Y409512D01*
X313585Y409490D01*
X313563Y409471D01*
X313544Y409455D01*
X313525Y409441D01*
X313512Y409431D01*
X313501Y409422D01*
X313495Y409419D01*
X313492Y409417D01*
X313454Y409392D01*
X313416Y409373D01*
X313375Y409354D01*
X313337Y409340D01*
X313263Y409316D01*
X313192Y409299D01*
X313162Y409294D01*
X313132Y409291D01*
X313108Y409286D01*
X313086D01*
X313069Y409283D01*
X313045D01*
X312982Y409286D01*
X312925Y409294D01*
X312867Y409305D01*
X312813Y409318D01*
X312764Y409338D01*
X312717Y409357D01*
X312673Y409379D01*
X312635Y409400D01*
X312600Y409422D01*
X312570Y409444D01*
X312543Y409463D01*
X312521Y409482D01*
X312504Y409496D01*
X312491Y409507D01*
X312482Y409515D01*
X312480Y409518D01*
X312441Y409564D01*
X312406Y409611D01*
X312376Y409662D01*
X312351Y409714D01*
X312330Y409763D01*
X312310Y409815D01*
X312297Y409867D01*
X312283Y409914D01*
X312275Y409960D01*
X312267Y410001D01*
X312264Y410039D01*
X312259Y410072D01*
Y410097D01*
X312256Y410118D01*
Y410129D01*
Y410135D01*
X312259Y410203D01*
X312264Y410266D01*
X312275Y410329D01*
X312289Y410386D01*
X312305Y410438D01*
X312324Y410487D01*
X312343Y410533D01*
X312365Y410572D01*
X312384Y410610D01*
X312403Y410643D01*
X312422Y410670D01*
X312439Y410692D01*
X312452Y410708D01*
X312463Y410722D01*
X312469Y410730D01*
X312472Y410733D01*
X312512Y410771D01*
X312556Y410806D01*
X312600Y410836D01*
X312646Y410861D01*
X312690Y410883D01*
X312734Y410902D01*
X312774Y410916D01*
X312815Y410929D01*
X312854Y410937D01*
X312889Y410946D01*
X312919Y410948D01*
X312947Y410954D01*
X312968D01*
X312985Y410956D01*
X312998D01*
X313067Y410954D01*
X313132Y410943D01*
X313192Y410929D01*
X313244Y410910D01*
X313288Y410894D01*
X313304Y410888D01*
X313320Y410880D01*
X313332Y410875D01*
X313340Y410869D01*
X313345Y410866D01*
X313348D01*
X313405Y410828D01*
X313454Y410790D01*
X313498Y410749D01*
X313536Y410711D01*
X313563Y410678D01*
X313585Y410651D01*
X313594Y410640D01*
X313596Y410632D01*
X313602Y410629D01*
Y410653D01*
Y410673D01*
Y410683D01*
Y410689D01*
X313599Y410760D01*
X313594Y410828D01*
X313588Y410891D01*
X313580Y410948D01*
X313574Y410973D01*
X313569Y410997D01*
X313566Y411017D01*
X313563Y411033D01*
X313561Y411047D01*
X313558Y411058D01*
X313555Y411063D01*
Y411066D01*
X313536Y411131D01*
X313517Y411191D01*
X313498Y411240D01*
X313482Y411281D01*
X313465Y411317D01*
X313452Y411341D01*
X313443Y411355D01*
X313441Y411361D01*
X313413Y411399D01*
X313383Y411434D01*
X313353Y411464D01*
X313326Y411489D01*
X313301Y411508D01*
X313282Y411524D01*
X313269Y411533D01*
X313263Y411535D01*
X313222Y411557D01*
X313179Y411571D01*
X313138Y411582D01*
X313099Y411590D01*
X313067Y411595D01*
X313039Y411598D01*
X313015D01*
X312955Y411595D01*
X312903Y411584D01*
X312856Y411568D01*
X312815Y411552D01*
X312786Y411535D01*
X312761Y411519D01*
X312747Y411508D01*
X312742Y411505D01*
X312723Y411486D01*
X312706Y411464D01*
X312673Y411418D01*
X312649Y411369D01*
X312630Y411320D01*
X312616Y411273D01*
X312611Y411254D01*
X312608Y411238D01*
X312603Y411221D01*
Y411210D01*
X312600Y411205D01*
Y411202D01*
X312302Y411227D01*
X312310Y411281D01*
X312321Y411333D01*
X312335Y411380D01*
X312351Y411423D01*
X312370Y411464D01*
X312387Y411503D01*
X312406Y411538D01*
X312425Y411568D01*
X312444Y411595D01*
X312463Y411620D01*
X312480Y411642D01*
X312493Y411658D01*
X312507Y411672D01*
X312515Y411680D01*
X312521Y411686D01*
X312523Y411688D01*
X312559Y411718D01*
X312597Y411743D01*
X312638Y411765D01*
X312679Y411784D01*
X312720Y411797D01*
X312758Y411811D01*
X312835Y411830D01*
X312870Y411838D01*
X312903Y411844D01*
X312933Y411846D01*
X312958Y411849D01*
X312979Y411852D01*
X313007D01*
X313058Y411849D01*
D02*
G37*
G36*
X310905D02*
X310967Y411846D01*
X311027Y411838D01*
X311085Y411830D01*
X311137Y411819D01*
X311186Y411808D01*
X311229Y411795D01*
X311268Y411781D01*
X311306Y411770D01*
X311336Y411756D01*
X311363Y411746D01*
X311385Y411735D01*
X311404Y411726D01*
X311415Y411718D01*
X311423Y411716D01*
X311426Y411713D01*
X311467Y411686D01*
X311505Y411658D01*
X311538Y411628D01*
X311571Y411598D01*
X311598Y411568D01*
X311625Y411535D01*
X311647Y411508D01*
X311666Y411478D01*
X311699Y411429D01*
X311710Y411407D01*
X311721Y411388D01*
X311729Y411372D01*
X311734Y411361D01*
X311737Y411352D01*
Y411350D01*
X311754Y411306D01*
X311767Y411260D01*
X311789Y411161D01*
X311803Y411060D01*
X311814Y410965D01*
X311816Y410918D01*
X311819Y410877D01*
X311822Y410842D01*
X311824Y410809D01*
Y410782D01*
Y410763D01*
Y410752D01*
Y410746D01*
Y409291D01*
X311491D01*
Y410746D01*
X311489Y410831D01*
X311486Y410910D01*
X311478Y410981D01*
X311467Y411047D01*
X311456Y411104D01*
X311442Y411156D01*
X311426Y411202D01*
X311412Y411243D01*
X311399Y411279D01*
X311382Y411309D01*
X311369Y411333D01*
X311358Y411352D01*
X311347Y411366D01*
X311341Y411377D01*
X311336Y411382D01*
X311333Y411385D01*
X311300Y411415D01*
X311265Y411440D01*
X311227Y411462D01*
X311186Y411481D01*
X311142Y411497D01*
X311098Y411511D01*
X311014Y411530D01*
X310973Y411538D01*
X310934Y411544D01*
X310899Y411546D01*
X310869Y411549D01*
X310844Y411552D01*
X310809D01*
X310733Y411549D01*
X310662Y411538D01*
X310599Y411524D01*
X310544Y411511D01*
X310522Y411503D01*
X310503Y411494D01*
X310484Y411489D01*
X310470Y411483D01*
X310459Y411478D01*
X310451Y411473D01*
X310446Y411470D01*
X310443D01*
X310391Y411434D01*
X310348Y411396D01*
X310312Y411358D01*
X310285Y411317D01*
X310263Y411284D01*
X310247Y411254D01*
X310241Y411243D01*
X310238Y411235D01*
X310236Y411232D01*
Y411230D01*
X310225Y411200D01*
X310216Y411164D01*
X310200Y411088D01*
X310189Y411008D01*
X310184Y410929D01*
X310181Y410894D01*
X310178Y410858D01*
Y410828D01*
X310176Y410801D01*
Y410776D01*
Y410760D01*
Y410749D01*
Y410746D01*
Y409291D01*
X309842D01*
Y410746D01*
Y410820D01*
X309848Y410888D01*
X309851Y410954D01*
X309859Y411014D01*
X309864Y411071D01*
X309873Y411123D01*
X309881Y411169D01*
X309892Y411213D01*
X309900Y411251D01*
X309908Y411284D01*
X309916Y411314D01*
X309924Y411336D01*
X309930Y411355D01*
X309935Y411369D01*
X309938Y411377D01*
Y411380D01*
X309957Y411421D01*
X309979Y411462D01*
X310028Y411533D01*
X310080Y411593D01*
X310135Y411642D01*
X310159Y411664D01*
X310181Y411680D01*
X310203Y411696D01*
X310222Y411710D01*
X310236Y411718D01*
X310247Y411726D01*
X310255Y411729D01*
X310258Y411732D01*
X310301Y411754D01*
X310348Y411770D01*
X310443Y411800D01*
X310541Y411822D01*
X310634Y411836D01*
X310675Y411841D01*
X310716Y411846D01*
X310749Y411849D01*
X310779D01*
X310804Y411852D01*
X310839D01*
X310905Y411849D01*
D02*
G37*
%LPC*%
G36*
X304835Y275295D02*
X304818D01*
X304807D01*
X304805D01*
X304706Y275292D01*
X304616Y275281D01*
X304532Y275268D01*
X304452Y275249D01*
X304379Y275227D01*
X304313Y275202D01*
X304253Y275175D01*
X304201Y275148D01*
X304152Y275120D01*
X304111Y275093D01*
X304078Y275068D01*
X304048Y275046D01*
X304027Y275027D01*
X304013Y275014D01*
X304002Y275003D01*
X303999Y275000D01*
X304054Y274926D01*
X304103Y274847D01*
X304144Y274765D01*
X304179Y274692D01*
X304193Y274656D01*
X304204Y274623D01*
X304215Y274596D01*
X304223Y274571D01*
X304231Y274550D01*
X304237Y274536D01*
X304240Y274525D01*
Y274522D01*
X303996Y274443D01*
X303977Y274506D01*
X303956Y274569D01*
X303931Y274623D01*
X303909Y274673D01*
X303887Y274713D01*
X303876Y274733D01*
X303868Y274746D01*
X303863Y274757D01*
X303857Y274765D01*
X303852Y274771D01*
Y274774D01*
X303830Y274713D01*
X303814Y274653D01*
X303803Y274596D01*
X303795Y274544D01*
X303789Y274500D01*
Y274481D01*
X303786Y274465D01*
Y274435D01*
X303789Y274367D01*
X303797Y274301D01*
X303811Y274238D01*
X303827Y274178D01*
X303846Y274124D01*
X303868Y274075D01*
X303893Y274026D01*
X303917Y273985D01*
X303942Y273946D01*
X303966Y273911D01*
X303988Y273884D01*
X304007Y273859D01*
X304024Y273840D01*
X304037Y273826D01*
X304046Y273818D01*
X304048Y273815D01*
X304100Y273772D01*
X304155Y273736D01*
X304215Y273703D01*
X304278Y273676D01*
X304341Y273652D01*
X304403Y273632D01*
X304463Y273616D01*
X304523Y273602D01*
X304581Y273591D01*
X304633Y273586D01*
X304679Y273581D01*
X304720Y273575D01*
X304755D01*
X304780Y273572D01*
X304796D01*
X304802D01*
X304895Y273575D01*
X304979Y273583D01*
X305061Y273594D01*
X305135Y273611D01*
X305203Y273630D01*
X305266Y273652D01*
X305323Y273673D01*
X305372Y273695D01*
X305419Y273717D01*
X305457Y273742D01*
X305490Y273761D01*
X305517Y273780D01*
X305536Y273796D01*
X305553Y273807D01*
X305561Y273815D01*
X305563Y273818D01*
X305610Y273864D01*
X305648Y273916D01*
X305684Y273966D01*
X305711Y274017D01*
X305735Y274069D01*
X305757Y274121D01*
X305774Y274170D01*
X305787Y274219D01*
X305798Y274263D01*
X305806Y274304D01*
X305812Y274342D01*
X305817Y274372D01*
Y274399D01*
X305820Y274419D01*
Y274481D01*
X305815Y274528D01*
X305801Y274612D01*
X305779Y274689D01*
X305768Y274722D01*
X305757Y274754D01*
X305744Y274784D01*
X305733Y274809D01*
X305722Y274831D01*
X305711Y274850D01*
X305703Y274866D01*
X305697Y274877D01*
X305695Y274883D01*
X305692Y274886D01*
X305640Y274956D01*
X305583Y275016D01*
X305525Y275068D01*
X305468Y275112D01*
X305416Y275145D01*
X305394Y275159D01*
X305375Y275169D01*
X305359Y275178D01*
X305348Y275183D01*
X305340Y275188D01*
X305337D01*
X305250Y275224D01*
X305159Y275251D01*
X305069Y275270D01*
X304985Y275281D01*
X304949Y275287D01*
X304914Y275290D01*
X304884Y275292D01*
X304856D01*
X304835Y275295D01*
D02*
G37*
G36*
X313097Y410683D02*
X313075D01*
X313037Y410681D01*
X312998Y410678D01*
X312927Y410662D01*
X312867Y410637D01*
X312813Y410610D01*
X312791Y410596D01*
X312772Y410582D01*
X312755Y410569D01*
X312742Y410558D01*
X312728Y410550D01*
X312720Y410542D01*
X312717Y410539D01*
X312715Y410536D01*
X312690Y410506D01*
X312668Y410476D01*
X312649Y410443D01*
X312633Y410410D01*
X312608Y410348D01*
X312592Y410285D01*
X312581Y410230D01*
X312578Y410206D01*
X312575Y410187D01*
X312573Y410168D01*
Y410157D01*
Y410148D01*
Y410146D01*
X312575Y410097D01*
X312578Y410050D01*
X312597Y409966D01*
X312608Y409925D01*
X312619Y409889D01*
X312633Y409856D01*
X312649Y409826D01*
X312663Y409799D01*
X312676Y409777D01*
X312687Y409755D01*
X312698Y409739D01*
X312709Y409725D01*
X312717Y409717D01*
X312720Y409712D01*
X312723Y409709D01*
X312753Y409679D01*
X312783Y409654D01*
X312813Y409630D01*
X312843Y409611D01*
X312873Y409594D01*
X312903Y409581D01*
X312960Y409561D01*
X313009Y409548D01*
X313031Y409545D01*
X313048Y409542D01*
X313064Y409540D01*
X313083D01*
X313119Y409542D01*
X313154Y409545D01*
X313190Y409553D01*
X313219Y409564D01*
X313280Y409589D01*
X313329Y409619D01*
X313370Y409649D01*
X313386Y409662D01*
X313400Y409673D01*
X313411Y409684D01*
X313419Y409690D01*
X313422Y409695D01*
X313424Y409698D01*
X313449Y409728D01*
X313471Y409761D01*
X313490Y409794D01*
X313506Y409829D01*
X313531Y409900D01*
X313550Y409966D01*
X313555Y409998D01*
X313558Y410026D01*
X313561Y410053D01*
X313563Y410075D01*
X313566Y410094D01*
Y410108D01*
Y410116D01*
Y410118D01*
X313563Y410168D01*
X313561Y410214D01*
X313553Y410255D01*
X313544Y410296D01*
X313533Y410334D01*
X313523Y410367D01*
X313509Y410400D01*
X313498Y410427D01*
X313484Y410452D01*
X313471Y410473D01*
X313460Y410492D01*
X313449Y410509D01*
X313441Y410520D01*
X313433Y410528D01*
X313430Y410533D01*
X313427Y410536D01*
X313400Y410561D01*
X313372Y410585D01*
X313342Y410604D01*
X313312Y410621D01*
X313255Y410648D01*
X313198Y410664D01*
X313148Y410675D01*
X313129Y410678D01*
X313110Y410681D01*
X313097Y410683D01*
D02*
G37*
%LPD*%
D12*
X254724Y368217D02*
X266929D01*
X254724Y354221D02*
Y368217D01*
Y354221D02*
X266929D01*
Y368217D01*
X300197Y360421D02*
Y386823D01*
X320276D01*
Y360421D02*
Y386823D01*
X300197Y360421D02*
X320276D01*
X297441Y257382D02*
X309646D01*
X297441D02*
Y289075D01*
X309646D01*
Y257382D02*
Y289075D01*
X303445Y403937D02*
X316240D01*
Y419685D01*
X303445D02*
X316240D01*
X303445Y403937D02*
Y419685D01*
M02*
