G04*
G04 #@! TF.GenerationSoftware,Altium Limited,Altium Designer,22.0.2 (36)*
G04*
G04 Layer_Color=8388736*
%FSLAX25Y25*%
%MOIN*%
G70*
G04*
G04 #@! TF.SameCoordinates,5891F61C-6817-4B1F-B1E3-DF0E04F861FB*
G04*
G04*
G04 #@! TF.FilePolarity,Negative*
G04*
G01*
G75*
G04:AMPARAMS|DCode=27|XSize=49.38mil|YSize=20.95mil|CornerRadius=10.48mil|HoleSize=0mil|Usage=FLASHONLY|Rotation=270.000|XOffset=0mil|YOffset=0mil|HoleType=Round|Shape=RoundedRectangle|*
%AMROUNDEDRECTD27*
21,1,0.04938,0.00000,0,0,270.0*
21,1,0.02843,0.02095,0,0,270.0*
1,1,0.02095,0.00000,-0.01422*
1,1,0.02095,0.00000,0.01422*
1,1,0.02095,0.00000,0.01422*
1,1,0.02095,0.00000,-0.01422*
%
%ADD27ROUNDEDRECTD27*%
%ADD28R,0.02095X0.04938*%
%ADD36R,0.02134X0.07378*%
G04:AMPARAMS|DCode=37|XSize=73.78mil|YSize=21.34mil|CornerRadius=10.67mil|HoleSize=0mil|Usage=FLASHONLY|Rotation=90.000|XOffset=0mil|YOffset=0mil|HoleType=Round|Shape=RoundedRectangle|*
%AMROUNDEDRECTD37*
21,1,0.07378,0.00000,0,0,90.0*
21,1,0.05244,0.02134,0,0,90.0*
1,1,0.02134,0.00000,0.02622*
1,1,0.02134,0.00000,-0.02622*
1,1,0.02134,0.00000,-0.02622*
1,1,0.02134,0.00000,0.02622*
%
%ADD37ROUNDEDRECTD37*%
G04:AMPARAMS|DCode=40|XSize=48mil|YSize=15mil|CornerRadius=0mil|HoleSize=0mil|Usage=FLASHONLY|Rotation=30.000|XOffset=0mil|YOffset=0mil|HoleType=Round|Shape=Rectangle|*
%AMROTATEDRECTD40*
4,1,4,-0.01704,-0.01850,-0.02454,-0.00551,0.01704,0.01850,0.02454,0.00551,-0.01704,-0.01850,0.0*
%
%ADD40ROTATEDRECTD40*%

%ADD57R,0.06406X0.04043*%
%ADD58R,0.03500X0.03500*%
%ADD59R,0.03500X0.03500*%
%ADD60O,0.06406X0.02468*%
%ADD61R,0.06406X0.02468*%
G04:AMPARAMS|DCode=62|XSize=14.84mil|YSize=66.02mil|CornerRadius=0mil|HoleSize=0mil|Usage=FLASHONLY|Rotation=135.000|XOffset=0mil|YOffset=0mil|HoleType=Round|Shape=Round|*
%AMOVALD62*
21,1,0.05118,0.01484,0.00000,0.00000,225.0*
1,1,0.01484,0.01810,0.01810*
1,1,0.01484,-0.01810,-0.01810*
%
%ADD62OVALD62*%

G04:AMPARAMS|DCode=63|XSize=14.84mil|YSize=66.02mil|CornerRadius=0mil|HoleSize=0mil|Usage=FLASHONLY|Rotation=45.000|XOffset=0mil|YOffset=0mil|HoleType=Round|Shape=Round|*
%AMOVALD63*
21,1,0.05118,0.01484,0.00000,0.00000,135.0*
1,1,0.01484,0.01810,-0.01810*
1,1,0.01484,-0.01810,0.01810*
%
%ADD63OVALD63*%

%ADD64R,0.04831X0.15067*%
%ADD65R,0.04437X0.03650*%
G04:AMPARAMS|DCode=66|XSize=44.37mil|YSize=36.5mil|CornerRadius=0mil|HoleSize=0mil|Usage=FLASHONLY|Rotation=180.000|XOffset=0mil|YOffset=0mil|HoleType=Round|Shape=Octagon|*
%AMOCTAGOND66*
4,1,8,-0.02219,0.00912,-0.02219,-0.00912,-0.01306,-0.01825,0.01306,-0.01825,0.02219,-0.00912,0.02219,0.00912,0.01306,0.01825,-0.01306,0.01825,-0.02219,0.00912,0.0*
%
%ADD66OCTAGOND66*%

%ADD67R,0.08000X0.09500*%
%ADD68R,0.04000X0.05500*%
%ADD69R,0.05500X0.06000*%
G04:AMPARAMS|DCode=70|XSize=60mil|YSize=55mil|CornerRadius=0mil|HoleSize=0mil|Usage=FLASHONLY|Rotation=90.000|XOffset=0mil|YOffset=0mil|HoleType=Round|Shape=Octagon|*
%AMOCTAGOND70*
4,1,8,0.01375,0.03000,-0.01375,0.03000,-0.02750,0.01625,-0.02750,-0.01625,-0.01375,-0.03000,0.01375,-0.03000,0.02750,-0.01625,0.02750,0.01625,0.01375,0.03000,0.0*
%
%ADD70OCTAGOND70*%

%ADD71R,0.12205X0.09055*%
%ADD72O,0.02468X0.06406*%
%ADD73R,0.02468X0.06406*%
G04:AMPARAMS|DCode=74|XSize=67.99mil|YSize=123.11mil|CornerRadius=0mil|HoleSize=0mil|Usage=FLASHONLY|Rotation=2.500|XOffset=0mil|YOffset=0mil|HoleType=Round|Shape=Rectangle|*
%AMROTATEDRECTD74*
4,1,4,-0.03128,-0.06298,-0.03665,0.06001,0.03128,0.06298,0.03665,-0.06001,-0.03128,-0.06298,0.0*
%
%ADD74ROTATEDRECTD74*%

G04:AMPARAMS|DCode=75|XSize=52.24mil|YSize=201.85mil|CornerRadius=0mil|HoleSize=0mil|Usage=FLASHONLY|Rotation=182.500|XOffset=0mil|YOffset=0mil|HoleType=Round|Shape=Rectangle|*
%AMROTATEDRECTD75*
4,1,4,0.02169,0.10197,0.03050,-0.09969,-0.02169,-0.10197,-0.03050,0.09969,0.02169,0.10197,0.0*
%
%ADD75ROTATEDRECTD75*%

%ADD76R,0.07980X0.04516*%
%ADD77C,0.04437*%
G04:AMPARAMS|DCode=78|XSize=44.37mil|YSize=83.74mil|CornerRadius=0mil|HoleSize=0mil|Usage=FLASHONLY|Rotation=280.000|XOffset=0mil|YOffset=0mil|HoleType=Round|Shape=Rectangle|*
%AMROTATEDRECTD78*
4,1,4,-0.04509,0.01458,0.03738,0.02912,0.04509,-0.01458,-0.03738,-0.02912,-0.04509,0.01458,0.0*
%
%ADD78ROTATEDRECTD78*%

%ADD79P,0.09059X4X55.0*%
G04:AMPARAMS|DCode=80|XSize=64.06mil|YSize=79.8mil|CornerRadius=0mil|HoleSize=0mil|Usage=FLASHONLY|Rotation=10.000|XOffset=0mil|YOffset=0mil|HoleType=Round|Shape=Rectangle|*
%AMROTATEDRECTD80*
4,1,4,-0.02461,-0.04486,-0.03847,0.03373,0.02461,0.04486,0.03847,-0.03373,-0.02461,-0.04486,0.0*
%
%ADD80ROTATEDRECTD80*%

G04:AMPARAMS|DCode=81|XSize=18.78mil|YSize=67.99mil|CornerRadius=0mil|HoleSize=0mil|Usage=FLASHONLY|Rotation=100.000|XOffset=0mil|YOffset=0mil|HoleType=Round|Shape=Rectangle|*
%AMROTATEDRECTD81*
4,1,4,0.03511,-0.00334,-0.03185,-0.01515,-0.03511,0.00334,0.03185,0.01515,0.03511,-0.00334,0.0*
%
%ADD81ROTATEDRECTD81*%

%ADD82P,0.03788X8X112.5*%
%ADD83P,0.04950X4X360.0*%
%ADD84P,0.03788X8X22.5*%
%ADD85R,0.08374X0.08374*%
G04:AMPARAMS|DCode=86|XSize=99.49mil|YSize=91.61mil|CornerRadius=0mil|HoleSize=0mil|Usage=FLASHONLY|Rotation=225.000|XOffset=0mil|YOffset=0mil|HoleType=Round|Shape=Rectangle|*
%AMROTATEDRECTD86*
4,1,4,0.00278,0.06757,0.06757,0.00278,-0.00278,-0.06757,-0.06757,-0.00278,0.00278,0.06757,0.0*
%
%ADD86ROTATEDRECTD86*%

%ADD87R,0.06000X0.05500*%
G04:AMPARAMS|DCode=88|XSize=60mil|YSize=55mil|CornerRadius=0mil|HoleSize=0mil|Usage=FLASHONLY|Rotation=0.000|XOffset=0mil|YOffset=0mil|HoleType=Round|Shape=Octagon|*
%AMOCTAGOND88*
4,1,8,0.03000,-0.01375,0.03000,0.01375,0.01625,0.02750,-0.01625,0.02750,-0.03000,0.01375,-0.03000,-0.01375,-0.01625,-0.02750,0.01625,-0.02750,0.03000,-0.01375,0.0*
%
%ADD88OCTAGOND88*%

%ADD89P,0.04950X4X75.0*%
%ADD90O,0.12311X0.09161*%
%ADD91C,0.06799*%
%ADD92R,0.06799X0.06799*%
%ADD93R,0.07193X0.07193*%
%ADD94C,0.07193*%
G04:AMPARAMS|DCode=95|XSize=130.98mil|YSize=130.98mil|CornerRadius=34mil|HoleSize=0mil|Usage=FLASHONLY|Rotation=270.000|XOffset=0mil|YOffset=0mil|HoleType=Round|Shape=RoundedRectangle|*
%AMROUNDEDRECTD95*
21,1,0.13098,0.06299,0,0,270.0*
21,1,0.06299,0.13098,0,0,270.0*
1,1,0.06799,-0.03150,-0.03150*
1,1,0.06799,-0.03150,0.03150*
1,1,0.06799,0.03150,0.03150*
1,1,0.06799,0.03150,-0.03150*
%
%ADD95ROUNDEDRECTD95*%
%ADD96C,0.13098*%
%ADD97C,0.07390*%
%ADD98C,0.00500*%
%ADD99O,0.04437X0.07193*%
%ADD100C,0.04043*%
G36*
X350354Y290965D02*
X348858D01*
Y293878D01*
X350354D01*
Y290965D01*
D02*
G37*
G36*
X348386D02*
X346890D01*
Y293878D01*
X348386D01*
Y290965D01*
D02*
G37*
G36*
X346417D02*
X344921D01*
Y293878D01*
X346417D01*
Y290965D01*
D02*
G37*
G36*
X344449D02*
X342953D01*
Y293878D01*
X344449D01*
Y290965D01*
D02*
G37*
G36*
X342480D02*
X340984D01*
Y293878D01*
X342480D01*
Y290965D01*
D02*
G37*
G36*
X350669Y288661D02*
X352638D01*
Y287126D01*
X350669D01*
Y286693D01*
X352638D01*
Y285157D01*
X350669D01*
Y283386D01*
X340669D01*
Y285157D01*
X338701D01*
Y286693D01*
X340669D01*
Y287126D01*
X338701D01*
Y288661D01*
X340669D01*
Y290433D01*
X350669D01*
Y288661D01*
D02*
G37*
G36*
X350354Y279941D02*
X348858D01*
Y282854D01*
X350354D01*
Y279941D01*
D02*
G37*
G36*
X348386D02*
X346890D01*
Y282854D01*
X348386D01*
Y279941D01*
D02*
G37*
G36*
X346417D02*
X344921D01*
Y282854D01*
X346417D01*
Y279941D01*
D02*
G37*
G36*
X344449D02*
X342953D01*
Y282854D01*
X344449D01*
Y279941D01*
D02*
G37*
G36*
X342480D02*
X340984D01*
Y282854D01*
X342480D01*
Y279941D01*
D02*
G37*
D27*
X264567Y357084D02*
D03*
X257087D02*
D03*
Y365354D02*
D03*
X260827D02*
D03*
D28*
X264567D02*
D03*
D36*
X302736Y364504D02*
D03*
D37*
X307736D02*
D03*
X312736D02*
D03*
X317736D02*
D03*
Y382740D02*
D03*
X312736D02*
D03*
X307736D02*
D03*
X302736D02*
D03*
D40*
X335110Y257997D02*
D03*
X336390Y255781D02*
D03*
X337669Y253565D02*
D03*
X338949Y251349D02*
D03*
X353412Y259699D02*
D03*
X352132Y261915D02*
D03*
X350853Y264131D02*
D03*
X349573Y266347D02*
D03*
D57*
X289173Y425000D02*
D03*
Y437992D02*
D03*
X269881D02*
D03*
Y425000D02*
D03*
D58*
X333858Y243216D02*
D03*
Y237098D02*
D03*
X354593Y307594D02*
D03*
Y301476D02*
D03*
X348556Y307594D02*
D03*
Y301476D02*
D03*
X342520Y307594D02*
D03*
Y301476D02*
D03*
X336483Y307594D02*
D03*
Y301476D02*
D03*
X338189Y381405D02*
D03*
Y375287D02*
D03*
X332283D02*
D03*
Y381405D02*
D03*
X338189Y363083D02*
D03*
Y369201D02*
D03*
X332283D02*
D03*
Y363083D02*
D03*
X309449Y343004D02*
D03*
Y349122D02*
D03*
X296850Y378134D02*
D03*
Y384252D02*
D03*
X306716Y271260D02*
D03*
Y277378D02*
D03*
X300552Y277469D02*
D03*
Y271351D02*
D03*
X316142Y291126D02*
D03*
X310630D02*
D03*
X253937Y316051D02*
D03*
X260887D02*
D03*
X321260D02*
D03*
X315748D02*
D03*
X253937Y309933D02*
D03*
X260887D02*
D03*
X321260D02*
D03*
X315748D02*
D03*
X248031Y328953D02*
D03*
Y310024D02*
D03*
Y316142D02*
D03*
X328740Y292028D02*
D03*
Y285909D02*
D03*
X334646Y292028D02*
D03*
Y285909D02*
D03*
X322441Y265748D02*
D03*
Y271866D02*
D03*
X327953D02*
D03*
Y265748D02*
D03*
X316929Y271866D02*
D03*
Y265748D02*
D03*
D59*
X327862Y243307D02*
D03*
X321744D02*
D03*
X327953Y237008D02*
D03*
X321835D02*
D03*
X307390Y356693D02*
D03*
X301272D02*
D03*
X313386D02*
D03*
X319504D02*
D03*
X331980Y355118D02*
D03*
X338098D02*
D03*
X276681Y356693D02*
D03*
X270563D02*
D03*
X257199Y372047D02*
D03*
X263317D02*
D03*
X300575Y265749D02*
D03*
X306693D02*
D03*
X279224Y270472D02*
D03*
X285343D02*
D03*
X279224Y264961D02*
D03*
X285343D02*
D03*
X327862Y277559D02*
D03*
X321744D02*
D03*
X260933Y321653D02*
D03*
Y327165D02*
D03*
Y332677D02*
D03*
X289673Y356693D02*
D03*
X263386Y377165D02*
D03*
X261721Y420473D02*
D03*
X358752Y270866D02*
D03*
X364870D02*
D03*
X358752Y276378D02*
D03*
X364870D02*
D03*
Y265354D02*
D03*
X358752D02*
D03*
X358752Y281890D02*
D03*
X364870D02*
D03*
X370563Y265354D02*
D03*
X376681D02*
D03*
X370563Y276378D02*
D03*
X376681D02*
D03*
X370563Y270866D02*
D03*
X376681D02*
D03*
Y281890D02*
D03*
X370563D02*
D03*
X352272Y276378D02*
D03*
X346153D02*
D03*
X300484Y285433D02*
D03*
D60*
X336614Y334232D02*
D03*
Y339232D02*
D03*
Y344232D02*
D03*
Y349232D02*
D03*
X316929Y334232D02*
D03*
Y339232D02*
D03*
Y344232D02*
D03*
D61*
Y349232D02*
D03*
D62*
X269005Y309513D02*
D03*
X270397Y308121D02*
D03*
X271789Y306730D02*
D03*
X273181Y305338D02*
D03*
X274573Y303946D02*
D03*
X275965Y302554D02*
D03*
X277357Y301162D02*
D03*
X278749Y299770D02*
D03*
X280141Y298378D02*
D03*
X281533Y296986D02*
D03*
X282925Y295594D02*
D03*
X284316Y294202D02*
D03*
X306585Y316471D02*
D03*
X305193Y317863D02*
D03*
X303801Y319255D02*
D03*
X302410Y320647D02*
D03*
X301018Y322039D02*
D03*
X299626Y323431D02*
D03*
X298234Y324822D02*
D03*
X296842Y326214D02*
D03*
X295450Y327606D02*
D03*
X294058Y328998D02*
D03*
X292666Y330390D02*
D03*
X291274Y331782D02*
D03*
D63*
Y294202D02*
D03*
X292666Y295594D02*
D03*
X294058Y296986D02*
D03*
X295450Y298378D02*
D03*
X296842Y299770D02*
D03*
X298234Y301162D02*
D03*
X299626Y302554D02*
D03*
X301018Y303946D02*
D03*
X302410Y305338D02*
D03*
X303801Y306730D02*
D03*
X305193Y308121D02*
D03*
X306585Y309513D02*
D03*
X284316Y331782D02*
D03*
X282925Y330390D02*
D03*
X281533Y328998D02*
D03*
X280141Y327606D02*
D03*
X278749Y326215D02*
D03*
X277357Y324822D02*
D03*
X275965Y323431D02*
D03*
X274573Y322039D02*
D03*
X273181Y320647D02*
D03*
X271789Y319255D02*
D03*
X270397Y317863D02*
D03*
X269005Y316471D02*
D03*
D64*
X269685Y390158D02*
D03*
X281496D02*
D03*
D65*
X281890Y377953D02*
D03*
D66*
X270866D02*
D03*
D67*
X274409Y366929D02*
D03*
X288582D02*
D03*
D68*
X309842Y391339D02*
D03*
X317323D02*
D03*
D69*
X289764Y379921D02*
D03*
D70*
Y393421D02*
D03*
D71*
X310236Y373622D02*
D03*
D72*
X317342Y421654D02*
D03*
X312343D02*
D03*
X307343D02*
D03*
X302343D02*
D03*
X317342Y401968D02*
D03*
X312343D02*
D03*
X307343D02*
D03*
D73*
X302343D02*
D03*
D74*
X246533Y226965D02*
D03*
X304163Y229482D02*
D03*
D75*
X279509Y245741D02*
D03*
X289342Y246170D02*
D03*
X269676Y245311D02*
D03*
X259842Y244882D02*
D03*
D76*
X268110Y404961D02*
D03*
X290551D02*
D03*
X268110Y414961D02*
D03*
X290551D02*
D03*
D77*
X336614Y276378D02*
D03*
D78*
X236081Y267426D02*
D03*
X234865Y274320D02*
D03*
D79*
X248472Y259357D02*
D03*
X243749Y286141D02*
D03*
D80*
X237864Y257079D02*
D03*
X233002Y284653D02*
D03*
D81*
X247644Y267841D02*
D03*
X245873Y277886D02*
D03*
X246316Y275374D02*
D03*
X246758Y272863D02*
D03*
X247201Y270352D02*
D03*
D82*
X316142Y297244D02*
D03*
X310630D02*
D03*
X248031Y322835D02*
D03*
D83*
X259945Y300804D02*
D03*
X272623Y288126D02*
D03*
X268297Y292452D02*
D03*
X264271Y296478D02*
D03*
D84*
X306602Y285433D02*
D03*
X254815Y321653D02*
D03*
Y327165D02*
D03*
Y332677D02*
D03*
X283555Y356693D02*
D03*
X257268Y377165D02*
D03*
X255603Y420473D02*
D03*
D85*
X232677Y330709D02*
D03*
Y307087D02*
D03*
D86*
X263982Y282848D02*
D03*
X254238Y292591D02*
D03*
D87*
X308661Y258661D02*
D03*
X308547Y250394D02*
D03*
D88*
X322161Y258661D02*
D03*
X322047Y250394D02*
D03*
D89*
X342011Y269028D02*
D03*
X336713Y265969D02*
D03*
D90*
X352362Y340512D02*
D03*
Y355512D02*
D03*
D91*
X229764Y367717D02*
D03*
X239764D02*
D03*
X229764Y377716D02*
D03*
X239764D02*
D03*
Y387717D02*
D03*
X229764Y357716D02*
D03*
X239764D02*
D03*
D92*
X229764Y387717D02*
D03*
D93*
X270945Y346457D02*
D03*
D94*
X280945D02*
D03*
X290945D02*
D03*
X300945D02*
D03*
D95*
X328346Y402362D02*
D03*
D96*
Y422047D02*
D03*
D97*
X367717Y390551D02*
D03*
Y433858D02*
D03*
D98*
X245696Y264680D02*
D03*
X242962Y280189D02*
D03*
D99*
X248327Y417638D02*
D03*
X220177D02*
D03*
D100*
X239370Y418504D02*
D03*
X229134D02*
D03*
X231693Y414567D02*
D03*
X236811D02*
D03*
X234252Y418504D02*
D03*
M02*
