G04*
G04 #@! TF.GenerationSoftware,Altium Limited,Altium Designer,22.0.2 (36)*
G04*
G04 Layer_Physical_Order=4*
G04 Layer_Color=16711680*
%FSLAX25Y25*%
%MOIN*%
G70*
G04*
G04 #@! TF.SameCoordinates,5891F61C-6817-4B1F-B1E3-DF0E04F861FB*
G04*
G04*
G04 #@! TF.FilePolarity,Positive*
G04*
G01*
G75*
%ADD13C,0.01000*%
%ADD18C,0.00500*%
%ADD21R,0.03000X0.03000*%
%ADD22R,0.03000X0.03000*%
%ADD23O,0.05906X0.01968*%
%ADD24R,0.05906X0.01968*%
%ADD49P,0.04243X4X360.0*%
%ADD103O,0.11811X0.08661*%
%ADD104C,0.06299*%
%ADD105R,0.06299X0.06299*%
%ADD106R,0.06693X0.06693*%
%ADD107C,0.06693*%
G04:AMPARAMS|DCode=108|XSize=125.98mil|YSize=125.98mil|CornerRadius=31.5mil|HoleSize=0mil|Usage=FLASHONLY|Rotation=270.000|XOffset=0mil|YOffset=0mil|HoleType=Round|Shape=RoundedRectangle|*
%AMROUNDEDRECTD108*
21,1,0.12598,0.06299,0,0,270.0*
21,1,0.06299,0.12598,0,0,270.0*
1,1,0.06299,-0.03150,-0.03150*
1,1,0.06299,-0.03150,0.03150*
1,1,0.06299,0.03150,0.03150*
1,1,0.06299,0.03150,-0.03150*
%
%ADD108ROUNDEDRECTD108*%
%ADD109C,0.12598*%
%ADD110C,0.06890*%
%ADD111O,0.03937X0.06693*%
%ADD112C,0.03543*%
%ADD113C,0.02362*%
%ADD127R,0.03937X0.01772*%
%ADD128R,0.02362X0.05906*%
%ADD129O,0.07087X0.02165*%
%ADD130R,0.07087X0.02165*%
%ADD131P,0.04243X4X90.0*%
%ADD132R,0.01968X0.03543*%
%ADD133R,0.02559X0.03543*%
%ADD134R,0.08661X0.09843*%
%ADD135R,0.02362X0.04331*%
G36*
X275928Y434264D02*
X275920Y434189D01*
X275922Y434116D01*
X275931Y434044D01*
X275950Y433972D01*
X275977Y433902D01*
X276013Y433833D01*
X276058Y433764D01*
X276111Y433697D01*
X276172Y433630D01*
X275996Y433453D01*
X276246D01*
X276248Y433364D01*
X276254Y433284D01*
X276265Y433214D01*
X276281Y433153D01*
X276300Y433101D01*
X276325Y433059D01*
X276353Y433026D01*
X276386Y433003D01*
X276423Y432989D01*
X276465Y432984D01*
X275526D01*
X275568Y432989D01*
X275605Y433003D01*
X275638Y433026D01*
X275667Y433059D01*
X275691Y433101D01*
X275711Y433153D01*
X275726Y433214D01*
X275737Y433284D01*
X275742Y433346D01*
X275685Y433391D01*
X275616Y433436D01*
X275547Y433472D01*
X275476Y433499D01*
X275405Y433517D01*
X275333Y433527D01*
X275259Y433529D01*
X275185Y433521D01*
X275110Y433505D01*
X275944Y434339D01*
X275928Y434264D01*
D02*
G37*
G36*
X283492Y430010D02*
X283407Y429980D01*
X283332Y429929D01*
X283267Y429858D01*
X283212Y429767D01*
X283167Y429656D01*
X283132Y429524D01*
X283107Y429372D01*
X283092Y429200D01*
X283087Y429008D01*
X282087D01*
X282082Y429200D01*
X282067Y429372D01*
X282042Y429524D01*
X282007Y429656D01*
X281962Y429767D01*
X281907Y429858D01*
X281842Y429929D01*
X281767Y429980D01*
X281682Y430010D01*
X281587Y430020D01*
X283587D01*
X283492Y430010D01*
D02*
G37*
G36*
X352758Y429672D02*
X352836Y429617D01*
X352925Y429569D01*
X353023Y429528D01*
X353131Y429494D01*
X353249Y429466D01*
X353376Y429444D01*
X353514Y429429D01*
X353817Y429420D01*
X352648Y428250D01*
X352646Y428407D01*
X352623Y428691D01*
X352602Y428819D01*
X352574Y428936D01*
X352539Y429044D01*
X352498Y429143D01*
X352450Y429231D01*
X352396Y429310D01*
X352335Y429379D01*
X352688Y429733D01*
X352758Y429672D01*
D02*
G37*
G36*
X283829Y426332D02*
X283916Y426258D01*
X284004Y426193D01*
X284093Y426137D01*
X284182Y426089D01*
X284272Y426051D01*
X284361Y426021D01*
X284452Y426000D01*
X284543Y425988D01*
X284634Y425984D01*
X283465Y424815D01*
X283461Y424906D01*
X283449Y424997D01*
X283428Y425087D01*
X283398Y425177D01*
X283359Y425267D01*
X283312Y425356D01*
X283256Y425444D01*
X283191Y425532D01*
X283117Y425620D01*
X283034Y425707D01*
X283741Y426414D01*
X283829Y426332D01*
D02*
G37*
G36*
X353520Y425027D02*
X353528Y424940D01*
X353536Y424904D01*
X353546Y424874D01*
X353559Y424848D01*
X353573Y424828D01*
X353590Y424814D01*
X353609Y424804D01*
X353630Y424800D01*
X352933Y424633D01*
X352949Y424647D01*
X352963Y424667D01*
X352976Y424695D01*
X352988Y424729D01*
X352997Y424770D01*
X353005Y424818D01*
X353015Y424934D01*
X353018Y425078D01*
X353518D01*
X353520Y425027D01*
D02*
G37*
G36*
X262173Y418979D02*
X262130Y418964D01*
X262093Y418939D01*
X262060Y418904D01*
X262033Y418859D01*
X262011Y418804D01*
X261993Y418739D01*
X261981Y418664D01*
X261973Y418579D01*
X261970Y418484D01*
X261471D01*
X261468Y418579D01*
X261460Y418664D01*
X261448Y418739D01*
X261431Y418804D01*
X261408Y418859D01*
X261381Y418904D01*
X261348Y418939D01*
X261311Y418964D01*
X261268Y418979D01*
X261221Y418984D01*
X262221D01*
X262173Y418979D01*
D02*
G37*
G36*
X256014Y418984D02*
X256512D01*
X256417Y418974D01*
X256332Y418944D01*
X256257Y418894D01*
X256192Y418824D01*
X256137Y418734D01*
X256092Y418624D01*
X256079Y418577D01*
X256094Y418529D01*
X256129Y418439D01*
X256172Y418354D01*
X256221Y418275D01*
X256276Y418202D01*
X256339Y418135D01*
X256016D01*
X256012Y417984D01*
X255012D01*
X255008Y418135D01*
X254685D01*
X254747Y418202D01*
X254803Y418275D01*
X254852Y418354D01*
X254894Y418439D01*
X254930Y418529D01*
X254945Y418577D01*
X254932Y418624D01*
X254887Y418734D01*
X254832Y418824D01*
X254767Y418894D01*
X254692Y418944D01*
X254607Y418974D01*
X254512Y418984D01*
X255010D01*
X255012Y419070D01*
X256012D01*
X256014Y418984D01*
D02*
G37*
G36*
X261730Y418070D02*
X261669Y418001D01*
X261615Y417922D01*
X261567Y417833D01*
X261526Y417735D01*
X261491Y417627D01*
X261463Y417509D01*
X261442Y417382D01*
X261427Y417244D01*
X261417Y416941D01*
X260248Y418110D01*
X260405Y418112D01*
X260689Y418135D01*
X260816Y418156D01*
X260934Y418184D01*
X261042Y418219D01*
X261140Y418260D01*
X261229Y418308D01*
X261308Y418362D01*
X261377Y418423D01*
X261730Y418070D01*
D02*
G37*
G36*
X312414Y414973D02*
X312404Y415025D01*
X312374Y415072D01*
X312324Y415113D01*
X312254Y415149D01*
X312164Y415179D01*
X312054Y415204D01*
X311924Y415223D01*
X311774Y415237D01*
X311724Y415239D01*
X311502Y415223D01*
X311372Y415204D01*
X311262Y415179D01*
X311172Y415149D01*
X311102Y415113D01*
X311052Y415072D01*
X311022Y415025D01*
X311012Y414973D01*
X311000Y416748D01*
X311010Y416653D01*
X311041Y416568D01*
X311092Y416493D01*
X311163Y416428D01*
X311254Y416373D01*
X311366Y416328D01*
X311497Y416293D01*
X311648Y416268D01*
X311713Y416262D01*
X311777Y416268D01*
X311928Y416293D01*
X312060Y416328D01*
X312171Y416373D01*
X312262Y416428D01*
X312333Y416493D01*
X312384Y416568D01*
X312415Y416653D01*
X312426Y416748D01*
X312414Y414973D01*
D02*
G37*
G36*
X342913Y415748D02*
X326772D01*
Y428740D01*
X342913D01*
Y415748D01*
D02*
G37*
G36*
X230213Y417099D02*
X230063Y416975D01*
X229928Y416848D01*
X229809Y416717D01*
X229706Y416582D01*
X229619Y416443D01*
X229548Y416301D01*
X229492Y416154D01*
X229453Y416004D01*
X229429Y415850D01*
X229421Y415693D01*
X228421Y415819D01*
X228415Y415968D01*
X228394Y416119D01*
X228361Y416272D01*
X228314Y416427D01*
X228254Y416584D01*
X228180Y416742D01*
X228093Y416903D01*
X227992Y417066D01*
X227751Y417397D01*
X230213Y417099D01*
D02*
G37*
G36*
X235304Y417049D02*
X234987Y416691D01*
X234858Y416525D01*
X234750Y416365D01*
X234660Y416214D01*
X234591Y416071D01*
X234542Y415935D01*
X234512Y415807D01*
X234502Y415687D01*
X234002D01*
X233992Y415807D01*
X233962Y415935D01*
X233913Y416071D01*
X233843Y416214D01*
X233754Y416365D01*
X233646Y416525D01*
X233517Y416691D01*
X233200Y417049D01*
X233012Y417239D01*
X235492D01*
X235304Y417049D01*
D02*
G37*
G36*
X305868Y415200D02*
X305735Y415065D01*
X305238Y414492D01*
X305173Y414398D01*
X305119Y414312D01*
X305077Y414233D01*
X305046Y414160D01*
X304366Y415667D01*
X304446Y415642D01*
X304527Y415629D01*
X304610Y415628D01*
X304693Y415639D01*
X304777Y415663D01*
X304862Y415698D01*
X304949Y415745D01*
X305036Y415804D01*
X305124Y415876D01*
X305213Y415959D01*
X305868Y415200D01*
D02*
G37*
G36*
X314751Y416580D02*
X314781Y416495D01*
X314832Y416420D01*
X314903Y416355D01*
X314995Y416300D01*
X315106Y416255D01*
X315237Y416220D01*
X315389Y416195D01*
X315560Y416180D01*
X315752Y416175D01*
Y415175D01*
X315562Y415173D01*
X315112Y415143D01*
X315002Y415125D01*
X314912Y415102D01*
X314842Y415076D01*
X314792Y415046D01*
X314762Y415011D01*
X314752Y414973D01*
X314740Y416675D01*
X314751Y416580D01*
D02*
G37*
G36*
X282596Y416101D02*
X282536Y416032D01*
X282481Y415953D01*
X282433Y415865D01*
X282392Y415766D01*
X282358Y415658D01*
X282330Y415541D01*
X282308Y415413D01*
X282293Y415276D01*
X282283Y414972D01*
X281114Y416142D01*
X281271Y416143D01*
X281555Y416166D01*
X281682Y416188D01*
X281800Y416216D01*
X281908Y416251D01*
X282006Y416292D01*
X282095Y416339D01*
X282174Y416394D01*
X282243Y416455D01*
X282596Y416101D01*
D02*
G37*
G36*
X316899Y415308D02*
X316987Y415235D01*
X317075Y415169D01*
X317164Y415113D01*
X317253Y415066D01*
X317342Y415027D01*
X317432Y414997D01*
X317523Y414976D01*
X317614Y414964D01*
X317705Y414961D01*
X316535Y413791D01*
X316532Y413883D01*
X316520Y413973D01*
X316499Y414064D01*
X316469Y414154D01*
X316430Y414243D01*
X316383Y414332D01*
X316327Y414421D01*
X316262Y414509D01*
X316188Y414597D01*
X316105Y414684D01*
X316812Y415391D01*
X316899Y415308D01*
D02*
G37*
G36*
X232753Y413144D02*
X232745Y413130D01*
X232742Y413113D01*
X232743Y413094D01*
X232750Y413073D01*
X232761Y413050D01*
X232777Y413025D01*
X232798Y412997D01*
X232824Y412968D01*
X232854Y412936D01*
X232500Y412582D01*
X232445Y412637D01*
X232264Y412794D01*
X232229Y412817D01*
X232199Y412835D01*
X232173Y412847D01*
X232151Y412852D01*
X232133Y412851D01*
X232765Y413157D01*
X232753Y413144D01*
D02*
G37*
G36*
X310489Y409052D02*
X310496Y408965D01*
X310509Y408888D01*
X310526Y408822D01*
X310549Y408765D01*
X310576Y408719D01*
X310609Y408683D01*
X310646Y408658D01*
X310689Y408642D01*
X310736Y408637D01*
X309736D01*
X309784Y408642D01*
X309826Y408658D01*
X309864Y408683D01*
X309896Y408719D01*
X309924Y408765D01*
X309946Y408822D01*
X309964Y408888D01*
X309976Y408965D01*
X309984Y409052D01*
X309986Y409149D01*
X310486D01*
X310489Y409052D01*
D02*
G37*
G36*
X305132Y409413D02*
X305185Y409120D01*
X305218Y408989D01*
X305255Y408870D01*
X305296Y408761D01*
X305340Y408666D01*
X305378Y408643D01*
X305445Y408614D01*
X305505Y408599D01*
X305557Y408597D01*
X305603Y408610D01*
X305640Y408637D01*
X305472Y408469D01*
X305502Y408434D01*
X305191Y408038D01*
X305119Y408101D01*
X305110Y408107D01*
X304945Y407942D01*
X304972Y407980D01*
X304985Y408025D01*
X304984Y408078D01*
X304969Y408137D01*
X304939Y408205D01*
X304939Y408206D01*
X304852Y408239D01*
X304746Y408267D01*
X304632Y408286D01*
X304509Y408297D01*
X304377Y408299D01*
X304237Y408293D01*
X304088Y408277D01*
X305111Y409576D01*
X305132Y409413D01*
D02*
G37*
G36*
X310953Y408493D02*
X310769Y408276D01*
X310694Y408171D01*
X310630Y408068D01*
X310578Y407967D01*
X310538Y407868D01*
X310509Y407772D01*
X310492Y407678D01*
X310486Y407586D01*
X309986D01*
X309981Y407678D01*
X309963Y407772D01*
X309934Y407868D01*
X309894Y407967D01*
X309842Y408068D01*
X309779Y408171D01*
X309704Y408276D01*
X309617Y408384D01*
X309409Y408605D01*
X311063D01*
X310953Y408493D01*
D02*
G37*
G36*
X277421Y406496D02*
X277438Y406401D01*
X277467Y406305D01*
X277508Y406206D01*
X277559Y406105D01*
X277623Y406002D01*
X277698Y405897D01*
X277784Y405790D01*
X277992Y405568D01*
X276339D01*
X276448Y405680D01*
X276633Y405897D01*
X276708Y406002D01*
X276771Y406105D01*
X276823Y406206D01*
X276863Y406305D01*
X276892Y406401D01*
X276910Y406496D01*
X276915Y406587D01*
X277415D01*
X277421Y406496D01*
D02*
G37*
G36*
X256693Y404724D02*
X244882D01*
Y412598D01*
X256693D01*
Y404724D01*
D02*
G37*
G36*
X263386Y402362D02*
X259842D01*
Y412598D01*
X263386D01*
Y402362D01*
D02*
G37*
G36*
X343307Y398425D02*
X322047D01*
Y407874D01*
X343307D01*
Y398425D01*
D02*
G37*
G36*
X229421Y397737D02*
X229424Y397617D01*
X229445Y397393D01*
X229464Y397288D01*
X229488Y397189D01*
X229517Y397095D01*
X229551Y397006D01*
X229591Y396922D01*
X229636Y396843D01*
X229686Y396770D01*
X228052Y397023D01*
X228123Y397080D01*
X228185Y397143D01*
X228241Y397214D01*
X228289Y397292D01*
X228329Y397377D01*
X228362Y397469D01*
X228388Y397568D01*
X228407Y397675D01*
X228418Y397788D01*
X228421Y397909D01*
X229421Y397737D01*
D02*
G37*
G36*
X258245Y385310D02*
X258189Y385237D01*
X258140Y385158D01*
X258098Y385074D01*
X258062Y384983D01*
X258033Y384887D01*
X258010Y384784D01*
X258007Y384766D01*
X258025Y384655D01*
X258060Y384525D01*
X258105Y384415D01*
X258160Y384325D01*
X258225Y384255D01*
X258300Y384205D01*
X258385Y384175D01*
X258480Y384165D01*
X256480D01*
X256575Y384175D01*
X256660Y384205D01*
X256735Y384255D01*
X256800Y384325D01*
X256855Y384415D01*
X256900Y384525D01*
X256935Y384655D01*
X256954Y384766D01*
X256951Y384784D01*
X256928Y384887D01*
X256899Y384983D01*
X256863Y385074D01*
X256820Y385158D01*
X256771Y385237D01*
X256716Y385310D01*
X256653Y385377D01*
X258307D01*
X258245Y385310D01*
D02*
G37*
G36*
X328391Y384325D02*
X328409Y384284D01*
X328440Y384247D01*
X328483Y384215D01*
X328538Y384189D01*
X328606Y384167D01*
X328686Y384150D01*
X328779Y384138D01*
X328884Y384130D01*
X329001Y384128D01*
Y383628D01*
X328884Y383626D01*
X328686Y383606D01*
X328606Y383589D01*
X328538Y383567D01*
X328483Y383540D01*
X328440Y383509D01*
X328409Y383472D01*
X328391Y383431D01*
X328384Y383385D01*
Y384371D01*
X328391Y384325D01*
D02*
G37*
G36*
X343801Y382899D02*
X343754Y382901D01*
X343711Y382891D01*
X343674Y382869D01*
X343641Y382836D01*
X343614Y382790D01*
X343591Y382733D01*
X343574Y382664D01*
X343561Y382584D01*
X343554Y382491D01*
X343551Y382387D01*
X343051Y382438D01*
X343049Y382548D01*
X343029Y382737D01*
X343012Y382815D01*
X342990Y382883D01*
X342964Y382939D01*
X342932Y382985D01*
X342895Y383020D01*
X342854Y383044D01*
X342808Y383057D01*
X343801Y382899D01*
D02*
G37*
G36*
X362826Y382794D02*
X362784Y382779D01*
X362747Y382753D01*
X362714Y382718D01*
X362686Y382672D01*
X362664Y382615D01*
X362647Y382549D01*
X362634Y382472D01*
X362627Y382385D01*
X362624Y382288D01*
X362124D01*
X362122Y382385D01*
X362114Y382472D01*
X362102Y382549D01*
X362084Y382615D01*
X362062Y382672D01*
X362034Y382718D01*
X362001Y382753D01*
X361964Y382779D01*
X361922Y382794D01*
X361874Y382800D01*
X362874D01*
X362826Y382794D01*
D02*
G37*
G36*
X353867Y382115D02*
X353682Y381898D01*
X353607Y381793D01*
X353544Y381690D01*
X353492Y381589D01*
X353451Y381490D01*
X353423Y381394D01*
X353405Y381300D01*
X353401Y381233D01*
X353402Y381198D01*
X353410Y381111D01*
X353422Y381034D01*
X353440Y380967D01*
X353462Y380911D01*
X353490Y380865D01*
X353522Y380829D01*
X353560Y380804D01*
X353602Y380788D01*
X353650Y380783D01*
X352650D01*
X352697Y380788D01*
X352740Y380804D01*
X352777Y380829D01*
X352810Y380865D01*
X352837Y380911D01*
X352860Y380967D01*
X352877Y381034D01*
X352890Y381111D01*
X352897Y381198D01*
X352898Y381233D01*
X352894Y381300D01*
X352876Y381394D01*
X352848Y381490D01*
X352807Y381589D01*
X352755Y381690D01*
X352692Y381793D01*
X352617Y381898D01*
X352531Y382006D01*
X352323Y382227D01*
X353976D01*
X353867Y382115D01*
D02*
G37*
G36*
X263889Y381580D02*
X263899Y381466D01*
X263915Y381358D01*
X263938Y381255D01*
X263955Y381201D01*
X264386D01*
X264291Y381191D01*
X264206Y381161D01*
X264131Y381110D01*
X264066Y381039D01*
X264040Y380996D01*
X264046Y380983D01*
X264095Y380905D01*
X264151Y380832D01*
X264213Y380765D01*
X263947D01*
X263931Y380705D01*
X263906Y380554D01*
X263891Y380381D01*
X263886Y380189D01*
X262886D01*
X262881Y380381D01*
X262866Y380554D01*
X262841Y380705D01*
X262825Y380765D01*
X262559D01*
X262621Y380832D01*
X262677Y380905D01*
X262726Y380983D01*
X262732Y380996D01*
X262706Y381039D01*
X262641Y381110D01*
X262566Y381161D01*
X262481Y381191D01*
X262386Y381201D01*
X262817D01*
X262834Y381255D01*
X262856Y381358D01*
X262873Y381466D01*
X262883Y381580D01*
X262886Y381700D01*
X263886D01*
X263889Y381580D01*
D02*
G37*
G36*
X323243Y377962D02*
X323135Y378028D01*
X323020Y378087D01*
X322898Y378139D01*
X322768Y378184D01*
X322631Y378222D01*
X322569Y378236D01*
X322530Y378223D01*
X322441Y378185D01*
X322359Y378140D01*
X322283Y378088D01*
X322213Y378030D01*
X322150Y377964D01*
X322131Y378295D01*
X322007Y378306D01*
X321833Y378309D01*
X321741Y379309D01*
X321896Y379314D01*
X322049Y379328D01*
X322070Y379332D01*
X322054Y379615D01*
X322124Y379557D01*
X322199Y379505D01*
X322281Y379459D01*
X322367Y379419D01*
X322411Y379403D01*
X322504Y379430D01*
X322654Y379484D01*
X322803Y379547D01*
X322951Y379619D01*
X323097Y379702D01*
X323243Y379794D01*
Y377962D01*
D02*
G37*
G36*
X341148Y379287D02*
X341152Y379212D01*
X341165Y379128D01*
X341187Y379035D01*
X341218Y378932D01*
X341306Y378699D01*
X341364Y378569D01*
X341589Y378123D01*
X340008Y378608D01*
X340130Y378676D01*
X340238Y378747D01*
X340334Y378822D01*
X340417Y378901D01*
X340488Y378983D01*
X340545Y379068D01*
X340590Y379157D01*
X340622Y379250D01*
X340641Y379345D01*
X340648Y379445D01*
X341148Y379287D01*
D02*
G37*
G36*
X236528Y381334D02*
X236714Y381231D01*
X236942Y381140D01*
X237213Y381063D01*
X237527Y380998D01*
X237883Y380946D01*
X238722Y380881D01*
X239732Y380866D01*
X236614Y377748D01*
X236613Y378274D01*
X236534Y379597D01*
X236482Y379954D01*
X236417Y380267D01*
X236340Y380538D01*
X236249Y380767D01*
X236146Y380953D01*
X236031Y381096D01*
X236384Y381450D01*
X236528Y381334D01*
D02*
G37*
G36*
X233497Y381096D02*
X233381Y380953D01*
X233278Y380767D01*
X233188Y380538D01*
X233110Y380267D01*
X233046Y379954D01*
X232994Y379597D01*
X232928Y378758D01*
X232913Y377748D01*
X229795Y380866D01*
X230321Y380867D01*
X231645Y380946D01*
X232001Y380998D01*
X232314Y381063D01*
X232585Y381140D01*
X232814Y381231D01*
X233000Y381334D01*
X233143Y381450D01*
X233497Y381096D01*
D02*
G37*
G36*
X345700Y377894D02*
X345664Y377880D01*
X345631Y377856D01*
X345603Y377822D01*
X345580Y377779D01*
X345560Y377727D01*
X345545Y377664D01*
X345534Y377593D01*
X345528Y377512D01*
X345526Y377421D01*
X345026D01*
X345023Y377512D01*
X345017Y377593D01*
X345006Y377664D01*
X344991Y377727D01*
X344972Y377779D01*
X344948Y377822D01*
X344920Y377856D01*
X344887Y377880D01*
X344851Y377894D01*
X344810Y377899D01*
X345741D01*
X345700Y377894D01*
D02*
G37*
G36*
X362627Y377458D02*
X362634Y377371D01*
X362647Y377294D01*
X362664Y377227D01*
X362686Y377171D01*
X362714Y377125D01*
X362747Y377089D01*
X362784Y377063D01*
X362826Y377048D01*
X362874Y377043D01*
X361874D01*
X361922Y377048D01*
X361964Y377063D01*
X362001Y377089D01*
X362034Y377125D01*
X362062Y377171D01*
X362084Y377227D01*
X362102Y377294D01*
X362114Y377371D01*
X362122Y377458D01*
X362124Y377555D01*
X362624D01*
X362627Y377458D01*
D02*
G37*
G36*
X345528Y375244D02*
X345534Y375163D01*
X345545Y375091D01*
X345560Y375029D01*
X345580Y374977D01*
X345603Y374934D01*
X345631Y374900D01*
X345664Y374876D01*
X345700Y374862D01*
X345741Y374857D01*
X344810D01*
X344851Y374862D01*
X344887Y374876D01*
X344920Y374900D01*
X344948Y374934D01*
X344972Y374977D01*
X344991Y375029D01*
X345006Y375091D01*
X345017Y375163D01*
X345023Y375244D01*
X345026Y375335D01*
X345526D01*
X345528Y375244D01*
D02*
G37*
G36*
X328749Y374730D02*
X328668Y374646D01*
X328543Y374493D01*
X328499Y374425D01*
X328467Y374361D01*
X328447Y374304D01*
X328439Y374251D01*
X328443Y374204D01*
X328460Y374162D01*
X328489Y374126D01*
X327781Y374813D01*
X327818Y374785D01*
X327861Y374769D01*
X327909Y374766D01*
X327962Y374774D01*
X328021Y374795D01*
X328085Y374828D01*
X328154Y374873D01*
X328228Y374930D01*
X328308Y374999D01*
X328392Y375080D01*
X328749Y374730D01*
D02*
G37*
G36*
X297615Y373105D02*
X297559Y373032D01*
X297511Y372954D01*
X297468Y372869D01*
X297432Y372778D01*
X297403Y372682D01*
X297380Y372580D01*
X297363Y372471D01*
X297354Y372357D01*
X297350Y372237D01*
X296350D01*
X296347Y372357D01*
X296337Y372471D01*
X296321Y372580D01*
X296298Y372682D01*
X296269Y372778D01*
X296233Y372869D01*
X296190Y372954D01*
X296141Y373032D01*
X296086Y373105D01*
X296024Y373172D01*
X297677D01*
X297615Y373105D01*
D02*
G37*
G36*
X369022Y370414D02*
X369028Y370322D01*
X369040Y370236D01*
X369055Y370156D01*
X369075Y370081D01*
X369099Y370012D01*
X369127Y369948D01*
X369160Y369890D01*
X369176Y369869D01*
X369272Y369875D01*
X369308Y369881D01*
X369338Y369888D01*
X369361Y369897D01*
X369377Y369907D01*
X369387Y369918D01*
X369390Y369930D01*
Y369299D01*
X369387Y369311D01*
X369377Y369323D01*
X369361Y369333D01*
X369338Y369341D01*
X369308Y369348D01*
X369272Y369354D01*
X369230Y369359D01*
X369125Y369364D01*
X369063Y369365D01*
Y369835D01*
X368770Y369907D01*
X368520D01*
X369020Y370511D01*
X369022Y370414D01*
D02*
G37*
G36*
X366652Y369918D02*
X366662Y369907D01*
X366679Y369897D01*
X366702Y369888D01*
X366731Y369881D01*
X366767Y369875D01*
X366810Y369870D01*
X366915Y369865D01*
X366977Y369865D01*
Y369365D01*
X366915Y369364D01*
X366767Y369354D01*
X366731Y369348D01*
X366702Y369341D01*
X366679Y369333D01*
X366662Y369323D01*
X366652Y369311D01*
X366649Y369299D01*
Y369930D01*
X366652Y369918D01*
D02*
G37*
G36*
X328524Y369331D02*
X328540Y369288D01*
X328565Y369250D01*
X328601Y369218D01*
X328647Y369191D01*
X328704Y369168D01*
X328770Y369150D01*
X328847Y369138D01*
X328934Y369130D01*
X329031Y369128D01*
Y368628D01*
X328934Y368625D01*
X328847Y368618D01*
X328770Y368605D01*
X328704Y368588D01*
X328647Y368566D01*
X328601Y368538D01*
X328565Y368506D01*
X328540Y368468D01*
X328524Y368425D01*
X328519Y368378D01*
Y369378D01*
X328524Y369331D01*
D02*
G37*
G36*
X357579Y368004D02*
X357574Y368051D01*
X357559Y368094D01*
X357533Y368131D01*
X357497Y368164D01*
X357451Y368191D01*
X357395Y368214D01*
X357328Y368231D01*
X357251Y368244D01*
X357164Y368251D01*
X357067Y368254D01*
Y368754D01*
X357164Y368756D01*
X357251Y368764D01*
X357328Y368776D01*
X357395Y368794D01*
X357451Y368816D01*
X357497Y368844D01*
X357533Y368876D01*
X357559Y368914D01*
X357574Y368956D01*
X357579Y369004D01*
Y368004D01*
D02*
G37*
G36*
X354892Y369221D02*
X355110Y369037D01*
X355215Y368962D01*
X355318Y368898D01*
X355419Y368846D01*
X355518Y368806D01*
X355614Y368777D01*
X355708Y368760D01*
X355800Y368754D01*
Y368254D01*
X355708Y368248D01*
X355614Y368231D01*
X355518Y368202D01*
X355419Y368162D01*
X355318Y368110D01*
X355215Y368046D01*
X355110Y367971D01*
X355002Y367885D01*
X354781Y367677D01*
Y369331D01*
X354892Y369221D01*
D02*
G37*
G36*
X346515Y367894D02*
X346473Y367878D01*
X346435Y367853D01*
X346403Y367817D01*
X346375Y367771D01*
X346353Y367714D01*
X346336Y367648D01*
X346323Y367571D01*
X346316Y367484D01*
X346313Y367387D01*
X345813D01*
X345811Y367484D01*
X345803Y367571D01*
X345791Y367648D01*
X345773Y367714D01*
X345750Y367771D01*
X345723Y367817D01*
X345690Y367853D01*
X345653Y367878D01*
X345610Y367894D01*
X345563Y367899D01*
X346563D01*
X346515Y367894D01*
D02*
G37*
G36*
X375365Y368827D02*
X375582Y368643D01*
X375687Y368568D01*
X375791Y368504D01*
X375891Y368453D01*
X375990Y368412D01*
X376086Y368383D01*
X376181Y368366D01*
X376272Y368360D01*
Y367860D01*
X376181Y367854D01*
X376086Y367837D01*
X375990Y367808D01*
X375891Y367768D01*
X375791Y367716D01*
X375687Y367653D01*
X375582Y367578D01*
X375475Y367491D01*
X375253Y367284D01*
Y367839D01*
X375181Y367850D01*
X375094Y367858D01*
X374996Y367860D01*
Y368360D01*
X375094Y368363D01*
X375181Y368370D01*
X375253Y368382D01*
Y368937D01*
X375365Y368827D01*
D02*
G37*
G36*
X242822Y368508D02*
X242879Y368394D01*
X242945Y368294D01*
X243022Y368207D01*
X243109Y368134D01*
X243207Y368074D01*
X243315Y368027D01*
X243433Y367993D01*
X243562Y367973D01*
X243701Y367967D01*
Y367466D01*
X243562Y367460D01*
X243433Y367440D01*
X243315Y367406D01*
X243207Y367359D01*
X243109Y367299D01*
X243022Y367226D01*
X242945Y367139D01*
X242879Y367039D01*
X242822Y366925D01*
X242776Y366798D01*
Y368635D01*
X242822Y368508D01*
D02*
G37*
G36*
X360515Y367684D02*
X360501Y367638D01*
Y367585D01*
X360515Y367525D01*
X360543Y367458D01*
X360586Y367384D01*
X360642Y367302D01*
X360713Y367214D01*
X360897Y367016D01*
X360543Y366662D01*
X360441Y366761D01*
X360257Y366917D01*
X360175Y366973D01*
X360101Y367016D01*
X360034Y367044D01*
X359974Y367058D01*
X359921D01*
X359875Y367044D01*
X359836Y367016D01*
X360543Y367723D01*
X360515Y367684D01*
D02*
G37*
G36*
X346319Y367125D02*
X346336Y367031D01*
X346365Y366935D01*
X346405Y366836D01*
X346457Y366735D01*
X346521Y366632D01*
X346596Y366527D01*
X346682Y366420D01*
X346890Y366198D01*
X345236D01*
X345346Y366310D01*
X345530Y366527D01*
X345605Y366632D01*
X345669Y366735D01*
X345721Y366836D01*
X345761Y366935D01*
X345790Y367031D01*
X345807Y367125D01*
X345813Y367217D01*
X346313D01*
X346319Y367125D01*
D02*
G37*
G36*
X361124Y366798D02*
X361205Y366744D01*
X361291Y366704D01*
X361381Y366676D01*
X361476Y366663D01*
X361575Y366663D01*
X361679Y366677D01*
X361788Y366705D01*
X361901Y366745D01*
X362019Y366800D01*
X361482Y365256D01*
X361404Y365423D01*
X361031Y366100D01*
X360961Y366203D01*
X360824Y366377D01*
X360758Y366448D01*
X361047Y366865D01*
X361124Y366798D01*
D02*
G37*
G36*
X369390Y363787D02*
X369387Y363800D01*
X369377Y363811D01*
X369361Y363821D01*
X369338Y363829D01*
X369308Y363836D01*
X369272Y363842D01*
X369230Y363847D01*
X369125Y363852D01*
X369063Y363853D01*
Y364353D01*
X369125Y364353D01*
X369272Y364363D01*
X369308Y364369D01*
X369338Y364376D01*
X369361Y364385D01*
X369377Y364395D01*
X369387Y364406D01*
X369390Y364418D01*
Y363787D01*
D02*
G37*
G36*
X366652Y364406D02*
X366662Y364395D01*
X366679Y364385D01*
X366702Y364376D01*
X366731Y364369D01*
X366767Y364363D01*
X366810Y364359D01*
X366915Y364353D01*
X366977Y364353D01*
Y363853D01*
X366915Y363852D01*
X366767Y363842D01*
X366731Y363836D01*
X366702Y363829D01*
X366679Y363821D01*
X366662Y363811D01*
X366652Y363800D01*
X366649Y363787D01*
Y364418D01*
X366652Y364406D01*
D02*
G37*
G36*
X377024Y364883D02*
X377032Y364796D01*
X377044Y364719D01*
X377062Y364652D01*
X377084Y364596D01*
X377112Y364550D01*
X377144Y364514D01*
X377182Y364489D01*
X377207Y364479D01*
X377598D01*
X377489Y364367D01*
X377304Y364150D01*
X377229Y364045D01*
X377166Y363942D01*
X377114Y363841D01*
X377074Y363742D01*
X377045Y363646D01*
X377027Y363552D01*
X377022Y363460D01*
X376522D01*
X376516Y363552D01*
X376499Y363646D01*
X376470Y363742D01*
X376429Y363841D01*
X376378Y363942D01*
X376314Y364045D01*
X376239Y364150D01*
X376152Y364258D01*
X375945Y364479D01*
X376336D01*
X376362Y364489D01*
X376399Y364514D01*
X376432Y364550D01*
X376459Y364596D01*
X376482Y364652D01*
X376499Y364719D01*
X376512Y364796D01*
X376519Y364883D01*
X376522Y364980D01*
X377022D01*
X377024Y364883D01*
D02*
G37*
G36*
X298002Y364521D02*
X298090Y364447D01*
X298178Y364382D01*
X298266Y364326D01*
X298355Y364278D01*
X298445Y364240D01*
X298535Y364210D01*
X298625Y364189D01*
X298716Y364177D01*
X298807Y364173D01*
X297638Y363004D01*
X297634Y363095D01*
X297622Y363186D01*
X297601Y363276D01*
X297571Y363366D01*
X297533Y363456D01*
X297485Y363545D01*
X297429Y363633D01*
X297364Y363721D01*
X297290Y363809D01*
X297208Y363896D01*
X297915Y364603D01*
X298002Y364521D01*
D02*
G37*
G36*
X360515Y362172D02*
X360501Y362126D01*
Y362073D01*
X360515Y362013D01*
X360543Y361946D01*
X360586Y361872D01*
X360642Y361790D01*
X360713Y361702D01*
X360897Y361504D01*
X360543Y361151D01*
X360441Y361250D01*
X360257Y361405D01*
X360175Y361462D01*
X360101Y361504D01*
X360034Y361532D01*
X359974Y361547D01*
X359921D01*
X359875Y361532D01*
X359836Y361504D01*
X360543Y362211D01*
X360515Y362172D01*
D02*
G37*
G36*
X363393Y358529D02*
X363385Y358575D01*
X363370Y358615D01*
X363349Y358651D01*
X363322Y358682D01*
X363289Y358708D01*
X363249Y358730D01*
X363204Y358746D01*
X363152Y358758D01*
X363094Y358765D01*
X363030Y358768D01*
Y359268D01*
X363125Y359269D01*
X363297Y359284D01*
X363372Y359296D01*
X363441Y359312D01*
X363503Y359331D01*
X363558Y359354D01*
X363607Y359381D01*
X363648Y359411D01*
X363683Y359444D01*
X363393Y358529D01*
D02*
G37*
G36*
X292464Y355472D02*
X292352Y355582D01*
X292134Y355767D01*
X292029Y355842D01*
X291926Y355905D01*
X291825Y355957D01*
X291727Y355997D01*
X291630Y356026D01*
X291536Y356043D01*
X291530Y356044D01*
X291477Y356039D01*
X291400Y356027D01*
X291334Y356009D01*
X291277Y355987D01*
X291231Y355959D01*
X291195Y355927D01*
X291170Y355889D01*
X291154Y355847D01*
X291149Y355799D01*
Y356799D01*
X291154Y356752D01*
X291170Y356709D01*
X291195Y356672D01*
X291231Y356639D01*
X291277Y356612D01*
X291334Y356589D01*
X291400Y356572D01*
X291477Y356559D01*
X291530Y356555D01*
X291536Y356555D01*
X291630Y356572D01*
X291727Y356601D01*
X291825Y356642D01*
X291926Y356693D01*
X292029Y356757D01*
X292134Y356832D01*
X292242Y356918D01*
X292464Y357126D01*
Y355472D01*
D02*
G37*
G36*
X283720Y355283D02*
X283733Y355217D01*
X283965D01*
X283917Y355212D01*
X283875Y355196D01*
X283837Y355171D01*
X283805Y355135D01*
X283777Y355089D01*
X283773Y355078D01*
X283807Y354994D01*
X283859Y354893D01*
X283922Y354790D01*
X283997Y354685D01*
X284084Y354577D01*
X284291Y354356D01*
X282638D01*
X282747Y354468D01*
X282932Y354685D01*
X283007Y354790D01*
X283070Y354893D01*
X283122Y354994D01*
X283156Y355078D01*
X283152Y355089D01*
X283125Y355135D01*
X283092Y355171D01*
X283055Y355196D01*
X283012Y355212D01*
X282965Y355217D01*
X283197D01*
X283209Y355283D01*
X283215Y355375D01*
X283715D01*
X283720Y355283D01*
D02*
G37*
G36*
X230116Y354587D02*
X229557Y354519D01*
X227803Y354214D01*
X227485Y354128D01*
X227215Y354039D01*
X226993Y353947D01*
X226820Y353851D01*
X226694Y353751D01*
X226297Y354061D01*
X226424Y354216D01*
X226530Y354409D01*
X226615Y354640D01*
X226680Y354908D01*
X226725Y355213D01*
X226749Y355556D01*
X226753Y355936D01*
X226699Y356809D01*
X226642Y357302D01*
X230116Y354587D01*
D02*
G37*
G36*
X379583Y353150D02*
X370866D01*
Y359449D01*
X379583D01*
Y353150D01*
D02*
G37*
G36*
X251505Y352588D02*
X251320Y352371D01*
X251245Y352265D01*
X251182Y352162D01*
X251130Y352061D01*
X251089Y351963D01*
X251061Y351866D01*
X251043Y351772D01*
X251037Y351680D01*
X250537D01*
X250532Y351772D01*
X250514Y351866D01*
X250485Y351963D01*
X250445Y352061D01*
X250393Y352162D01*
X250330Y352265D01*
X250255Y352371D01*
X250168Y352478D01*
X249961Y352700D01*
X251614D01*
X251505Y352588D01*
D02*
G37*
G36*
X352815Y351187D02*
X352772Y351171D01*
X352735Y351146D01*
X352702Y351110D01*
X352675Y351064D01*
X352652Y351007D01*
X352635Y350941D01*
X352622Y350864D01*
X352615Y350777D01*
X352612Y350680D01*
X352112D01*
X352110Y350777D01*
X352102Y350864D01*
X352090Y350941D01*
X352072Y351007D01*
X352050Y351064D01*
X352022Y351110D01*
X351990Y351146D01*
X351952Y351171D01*
X351910Y351187D01*
X351862Y351192D01*
X352862D01*
X352815Y351187D01*
D02*
G37*
G36*
X247232Y350394D02*
X247076Y350392D01*
X246792Y350369D01*
X246664Y350347D01*
X246546Y350320D01*
X246438Y350285D01*
X246340Y350244D01*
X246252Y350196D01*
X246173Y350142D01*
X246104Y350081D01*
X245750Y350434D01*
X245811Y350503D01*
X245865Y350582D01*
X245913Y350671D01*
X245954Y350769D01*
X245989Y350877D01*
X246017Y350995D01*
X246038Y351122D01*
X246053Y351259D01*
X246063Y351563D01*
X247232Y350394D01*
D02*
G37*
G36*
X240553Y350225D02*
X240576Y349941D01*
X240597Y349814D01*
X240625Y349696D01*
X240660Y349588D01*
X240701Y349490D01*
X240749Y349401D01*
X240803Y349322D01*
X240864Y349253D01*
X240511Y348900D01*
X240442Y348960D01*
X240363Y349015D01*
X240274Y349063D01*
X240176Y349104D01*
X240068Y349138D01*
X239950Y349166D01*
X239823Y349188D01*
X239686Y349203D01*
X239382Y349213D01*
X240551Y350382D01*
X240553Y350225D01*
D02*
G37*
G36*
X251355Y348228D02*
X251362Y348143D01*
X251375Y348068D01*
X251392Y348003D01*
X251415Y347948D01*
X251442Y347903D01*
X251475Y347868D01*
X251512Y347843D01*
X251555Y347828D01*
X251602Y347823D01*
X250602D01*
X250650Y347828D01*
X250692Y347843D01*
X250730Y347868D01*
X250762Y347903D01*
X250790Y347948D01*
X250812Y348003D01*
X250830Y348068D01*
X250842Y348143D01*
X250850Y348228D01*
X250852Y348323D01*
X251352D01*
X251355Y348228D01*
D02*
G37*
G36*
X248575D02*
X248597Y347843D01*
X248603Y347828D01*
X248610Y347823D01*
X247824D01*
X247872Y347828D01*
X247914Y347843D01*
X247952Y347868D01*
X247984Y347903D01*
X248012Y347948D01*
X248034Y348003D01*
X248052Y348068D01*
X248064Y348143D01*
X248072Y348228D01*
X248074Y348323D01*
X248574D01*
X248575Y348228D01*
D02*
G37*
G36*
X244741D02*
X244748Y348143D01*
X244761Y348068D01*
X244778Y348003D01*
X244801Y347948D01*
X244828Y347903D01*
X244861Y347868D01*
X244898Y347843D01*
X244941Y347828D01*
X244988Y347823D01*
X243988D01*
X244036Y347828D01*
X244078Y347843D01*
X244116Y347868D01*
X244148Y347903D01*
X244176Y347948D01*
X244198Y348003D01*
X244216Y348068D01*
X244228Y348143D01*
X244236Y348228D01*
X244238Y348323D01*
X244738D01*
X244741Y348228D01*
D02*
G37*
G36*
X241276D02*
X241284Y348143D01*
X241296Y348068D01*
X241314Y348003D01*
X241336Y347948D01*
X241364Y347903D01*
X241396Y347868D01*
X241434Y347843D01*
X241476Y347828D01*
X241524Y347823D01*
X240524D01*
X240571Y347828D01*
X240614Y347843D01*
X240651Y347868D01*
X240684Y347903D01*
X240711Y347948D01*
X240734Y348003D01*
X240751Y348068D01*
X240764Y348143D01*
X240771Y348228D01*
X240774Y348323D01*
X241274D01*
X241276Y348228D01*
D02*
G37*
G36*
X343563Y348228D02*
X343580Y348134D01*
X343609Y348037D01*
X343649Y347939D01*
X343701Y347838D01*
X343765Y347735D01*
X343840Y347629D01*
X343926Y347522D01*
X344134Y347300D01*
X342480D01*
X342590Y347412D01*
X342775Y347629D01*
X342849Y347735D01*
X342913Y347838D01*
X342965Y347939D01*
X343005Y348037D01*
X343034Y348134D01*
X343051Y348228D01*
X343057Y348320D01*
X343557D01*
X343563Y348228D01*
D02*
G37*
G36*
X232213Y346682D02*
X232029Y346465D01*
X231954Y346360D01*
X231890Y346257D01*
X231838Y346156D01*
X231798Y346057D01*
X231769Y345961D01*
X231752Y345867D01*
X231746Y345775D01*
X231246D01*
X231240Y345867D01*
X231223Y345961D01*
X231194Y346057D01*
X231154Y346156D01*
X231102Y346257D01*
X231038Y346360D01*
X230963Y346465D01*
X230877Y346573D01*
X230669Y346794D01*
X232323D01*
X232213Y346682D01*
D02*
G37*
G36*
X352615Y345247D02*
X352622Y345160D01*
X352635Y345083D01*
X352652Y345016D01*
X352675Y344960D01*
X352702Y344914D01*
X352735Y344878D01*
X352772Y344852D01*
X352815Y344837D01*
X352862Y344832D01*
X351862D01*
X351910Y344837D01*
X351952Y344852D01*
X351990Y344878D01*
X352022Y344914D01*
X352050Y344960D01*
X352072Y345016D01*
X352090Y345083D01*
X352102Y345160D01*
X352110Y345247D01*
X352112Y345344D01*
X352612D01*
X352615Y345247D01*
D02*
G37*
G36*
X379583Y344488D02*
X369685D01*
Y350394D01*
X379583D01*
Y344488D01*
D02*
G37*
G36*
X252364Y344994D02*
X252380Y344951D01*
X252406Y344914D01*
X252442Y344881D01*
X252488Y344854D01*
X252544Y344831D01*
X252610Y344814D01*
X252687Y344801D01*
X252773Y344794D01*
X252870Y344791D01*
Y344291D01*
X252370Y344303D01*
X252358Y345041D01*
X252364Y344994D01*
D02*
G37*
G36*
X254418Y343648D02*
X254363Y343770D01*
X254303Y343880D01*
X254238Y343976D01*
X254168Y344060D01*
X254092Y344131D01*
X254012Y344188D01*
X253926Y344233D01*
X253835Y344266D01*
X253740Y344285D01*
X253639Y344291D01*
X253850Y344791D01*
X253915Y344795D01*
X253992Y344807D01*
X254081Y344826D01*
X254296Y344888D01*
X254559Y344981D01*
X255044Y345179D01*
X254418Y343648D01*
D02*
G37*
G36*
X341448Y343953D02*
X341527Y343899D01*
X341616Y343851D01*
X341714Y343810D01*
X341822Y343775D01*
X341940Y343747D01*
X342067Y343725D01*
X342204Y343711D01*
X342508Y343701D01*
X341339Y342531D01*
X341337Y342688D01*
X341314Y342972D01*
X341292Y343100D01*
X341264Y343217D01*
X341230Y343325D01*
X341189Y343424D01*
X341141Y343512D01*
X341087Y343591D01*
X341026Y343660D01*
X341379Y344014D01*
X341448Y343953D01*
D02*
G37*
G36*
X300911Y343110D02*
X300348Y343110D01*
X298934Y343027D01*
X298554Y342973D01*
X298220Y342905D01*
X297932Y342824D01*
X297690Y342729D01*
X297493Y342622D01*
X297342Y342500D01*
X296989Y342854D01*
X297110Y343005D01*
X297218Y343201D01*
X297312Y343444D01*
X297393Y343732D01*
X297461Y344066D01*
X297515Y344446D01*
X297584Y345343D01*
X297599Y346423D01*
X300911Y343110D01*
D02*
G37*
G36*
X238751Y340481D02*
X238968Y340296D01*
X239073Y340221D01*
X239176Y340158D01*
X239277Y340106D01*
X239376Y340066D01*
X239472Y340037D01*
X239495Y340033D01*
X239517Y340036D01*
X239584Y340054D01*
X239640Y340076D01*
X239686Y340104D01*
X239722Y340136D01*
X239748Y340174D01*
X239763Y340216D01*
X239768Y340264D01*
Y339264D01*
X239763Y339311D01*
X239748Y339354D01*
X239722Y339391D01*
X239686Y339424D01*
X239640Y339451D01*
X239584Y339474D01*
X239517Y339491D01*
X239495Y339495D01*
X239472Y339491D01*
X239376Y339462D01*
X239277Y339422D01*
X239176Y339370D01*
X239073Y339306D01*
X238968Y339231D01*
X238860Y339145D01*
X238639Y338937D01*
Y340591D01*
X238751Y340481D01*
D02*
G37*
G36*
X249847Y339264D02*
X249842Y339311D01*
X249826Y339354D01*
X249801Y339391D01*
X249765Y339424D01*
X249719Y339451D01*
X249662Y339474D01*
X249596Y339491D01*
X249519Y339504D01*
X249432Y339511D01*
X249335Y339514D01*
Y340014D01*
X249432Y340016D01*
X249519Y340024D01*
X249596Y340036D01*
X249662Y340054D01*
X249719Y340076D01*
X249765Y340104D01*
X249801Y340136D01*
X249826Y340174D01*
X249842Y340216D01*
X249847Y340264D01*
Y339264D01*
D02*
G37*
G36*
X248603Y340216D02*
X248619Y340174D01*
X248644Y340136D01*
X248680Y340104D01*
X248726Y340076D01*
X248782Y340054D01*
X248849Y340036D01*
X248926Y340024D01*
X249013Y340016D01*
X249110Y340014D01*
Y339514D01*
X249013Y339511D01*
X248926Y339504D01*
X248849Y339491D01*
X248782Y339474D01*
X248726Y339451D01*
X248680Y339424D01*
X248644Y339391D01*
X248619Y339354D01*
X248603Y339311D01*
X248598Y339264D01*
Y340264D01*
X248603Y340216D01*
D02*
G37*
G36*
X248090Y338011D02*
X248048Y337996D01*
X248010Y337970D01*
X247978Y337934D01*
X247950Y337888D01*
X247928Y337832D01*
X247910Y337765D01*
X247898Y337688D01*
X247890Y337601D01*
X247888Y337504D01*
X247388D01*
X247385Y337601D01*
X247378Y337688D01*
X247365Y337765D01*
X247348Y337832D01*
X247325Y337888D01*
X247298Y337934D01*
X247265Y337970D01*
X247228Y337996D01*
X247185Y338011D01*
X247138Y338016D01*
X248138D01*
X248090Y338011D01*
D02*
G37*
G36*
X306962Y338745D02*
X307050Y338640D01*
X307139Y338547D01*
X307230Y338466D01*
X307321Y338398D01*
X307413Y338342D01*
X307507Y338298D01*
X307602Y338267D01*
X307697Y338248D01*
X307794Y338242D01*
X307708Y337742D01*
X307623Y337737D01*
X307533Y337722D01*
X307437Y337696D01*
X307335Y337661D01*
X307227Y337615D01*
X307113Y337559D01*
X306868Y337416D01*
X306737Y337330D01*
X306599Y337233D01*
X306875Y338864D01*
X306962Y338745D01*
D02*
G37*
G36*
X312288Y337121D02*
X312201Y337239D01*
X312113Y337344D01*
X312024Y337438D01*
X311934Y337518D01*
X311842Y337587D01*
X311750Y337643D01*
X311656Y337686D01*
X311562Y337717D01*
X311466Y337736D01*
X311369Y337742D01*
X311456Y338242D01*
X311540Y338247D01*
X311631Y338263D01*
X311727Y338288D01*
X311829Y338324D01*
X311936Y338369D01*
X312050Y338425D01*
X312295Y338568D01*
X312427Y338654D01*
X312564Y338751D01*
X312288Y337121D01*
D02*
G37*
G36*
X245371Y337994D02*
X245290Y337964D01*
X245220Y337914D01*
X245158Y337844D01*
X245106Y337754D01*
X245064Y337644D01*
X245041Y337554D01*
X245070Y337458D01*
X245106Y337367D01*
X245148Y337283D01*
X245197Y337204D01*
X245253Y337131D01*
X245315Y337064D01*
X244990D01*
X244988Y337004D01*
X243988D01*
X243987Y337064D01*
X243661D01*
X243724Y337131D01*
X243779Y337204D01*
X243828Y337283D01*
X243871Y337367D01*
X243906Y337458D01*
X243936Y337554D01*
X243913Y337644D01*
X243870Y337754D01*
X243818Y337844D01*
X243757Y337914D01*
X243686Y337964D01*
X243606Y337994D01*
X243516Y338004D01*
X245460D01*
X245371Y337994D01*
D02*
G37*
G36*
X294666Y336711D02*
X294659Y336757D01*
X294636Y336798D01*
X294598Y336834D01*
X294545Y336865D01*
X294477Y336892D01*
X294393Y336914D01*
X294295Y336931D01*
X294181Y336943D01*
X293908Y336952D01*
Y337453D01*
X294052Y337455D01*
X294295Y337474D01*
X294393Y337491D01*
X294477Y337513D01*
X294545Y337539D01*
X294598Y337571D01*
X294636Y337607D01*
X294659Y337648D01*
X294666Y337694D01*
Y336711D01*
D02*
G37*
G36*
X291258Y335786D02*
X291197Y335717D01*
X291143Y335638D01*
X291095Y335550D01*
X291054Y335452D01*
X291019Y335344D01*
X290991Y335226D01*
X290970Y335098D01*
X290955Y334961D01*
X290945Y334658D01*
X289776Y335827D01*
X289932Y335828D01*
X290216Y335852D01*
X290344Y335873D01*
X290462Y335901D01*
X290570Y335935D01*
X290668Y335977D01*
X290756Y336024D01*
X290835Y336079D01*
X290904Y336140D01*
X291258Y335786D01*
D02*
G37*
G36*
X258827Y335544D02*
X258809Y335468D01*
X258804Y335390D01*
X258812Y335311D01*
X258832Y335230D01*
X258865Y335147D01*
X258911Y335062D01*
X258969Y334976D01*
X259041Y334888D01*
X259100Y334825D01*
X259258Y334673D01*
X259627Y334360D01*
X259790Y334245D01*
X259938Y334159D01*
X260072Y334101D01*
X260192Y334072D01*
X260298Y334071D01*
X260389Y334098D01*
X260466Y334153D01*
X259063Y332751D01*
X259119Y332828D01*
X259146Y332919D01*
X259145Y333024D01*
X259115Y333144D01*
X259057Y333278D01*
X258971Y333427D01*
X258857Y333590D01*
X258714Y333767D01*
X258344Y334165D01*
X258439Y334260D01*
X258333Y334176D01*
X258180Y334328D01*
X257365Y335045D01*
X257314Y335072D01*
X258858Y335619D01*
X258827Y335544D01*
D02*
G37*
G36*
X298992Y332385D02*
X298985Y332431D01*
X298962Y332472D01*
X298924Y332508D01*
X298871Y332539D01*
X298803Y332566D01*
X298719Y332588D01*
X298621Y332605D01*
X298507Y332617D01*
X298234Y332626D01*
Y333126D01*
X298378Y333129D01*
X298621Y333148D01*
X298719Y333165D01*
X298803Y333187D01*
X298871Y333213D01*
X298924Y333245D01*
X298962Y333281D01*
X298985Y333322D01*
X298992Y333368D01*
Y332385D01*
D02*
G37*
G36*
X252530Y333394D02*
X252748Y333210D01*
X252853Y333135D01*
X252926Y333090D01*
X252940Y333130D01*
X252945Y333177D01*
Y333078D01*
X252956Y333071D01*
X253057Y333019D01*
X253155Y332979D01*
X253252Y332950D01*
X253346Y332933D01*
X253438Y332927D01*
Y332427D01*
X253346Y332421D01*
X253252Y332404D01*
X253155Y332375D01*
X253057Y332335D01*
X252956Y332283D01*
X252945Y332277D01*
Y332177D01*
X252940Y332225D01*
X252926Y332264D01*
X252853Y332220D01*
X252748Y332144D01*
X252640Y332058D01*
X252418Y331850D01*
Y333504D01*
X252530Y333394D01*
D02*
G37*
G36*
X261444Y331179D02*
X261359Y331149D01*
X261284Y331099D01*
X261219Y331029D01*
X261164Y330939D01*
X261119Y330829D01*
X261084Y330699D01*
X261059Y330549D01*
X261044Y330379D01*
X261039Y330189D01*
X260039D01*
X260034Y330379D01*
X260019Y330549D01*
X259994Y330699D01*
X259959Y330829D01*
X259914Y330939D01*
X259859Y331029D01*
X259794Y331099D01*
X259719Y331149D01*
X259634Y331179D01*
X259539Y331189D01*
X261539D01*
X261444Y331179D01*
D02*
G37*
G36*
X245982Y330274D02*
X245921Y330205D01*
X245867Y330127D01*
X245819Y330038D01*
X245778Y329940D01*
X245743Y329832D01*
X245715Y329714D01*
X245694Y329587D01*
X245679Y329449D01*
X245669Y329146D01*
X244500Y330315D01*
X244657Y330317D01*
X244941Y330340D01*
X245068Y330361D01*
X245186Y330389D01*
X245294Y330424D01*
X245392Y330465D01*
X245481Y330513D01*
X245560Y330567D01*
X245629Y330628D01*
X245982Y330274D01*
D02*
G37*
G36*
X261044Y329461D02*
X261059Y329289D01*
X261084Y329137D01*
X261119Y329006D01*
X261164Y328894D01*
X261219Y328803D01*
X261284Y328732D01*
X261359Y328682D01*
X261444Y328651D01*
X261539Y328641D01*
X259539D01*
X259634Y328651D01*
X259719Y328682D01*
X259794Y328732D01*
X259859Y328803D01*
X259914Y328894D01*
X259959Y329006D01*
X259994Y329137D01*
X260019Y329289D01*
X260034Y329461D01*
X260039Y329653D01*
X261039D01*
X261044Y329461D01*
D02*
G37*
G36*
X273859Y329937D02*
X274076Y329752D01*
X274181Y329677D01*
X274284Y329614D01*
X274385Y329562D01*
X274484Y329521D01*
X274580Y329493D01*
X274674Y329475D01*
X274766Y329470D01*
Y328970D01*
X274674Y328964D01*
X274580Y328946D01*
X274484Y328918D01*
X274385Y328877D01*
X274284Y328825D01*
X274181Y328762D01*
X274076Y328687D01*
X273968Y328601D01*
X273747Y328393D01*
Y330046D01*
X273859Y329937D01*
D02*
G37*
G36*
X290864Y328306D02*
X290803Y328237D01*
X290749Y328158D01*
X290701Y328069D01*
X290660Y327971D01*
X290625Y327863D01*
X290597Y327745D01*
X290576Y327618D01*
X290561Y327481D01*
X290551Y327177D01*
X289382Y328346D01*
X289539Y328348D01*
X289823Y328371D01*
X289950Y328393D01*
X290068Y328421D01*
X290176Y328455D01*
X290274Y328496D01*
X290363Y328544D01*
X290442Y328598D01*
X290511Y328660D01*
X290864Y328306D01*
D02*
G37*
G36*
X252530Y327883D02*
X252748Y327698D01*
X252853Y327623D01*
X252926Y327578D01*
X252940Y327618D01*
X252945Y327665D01*
Y327566D01*
X252956Y327559D01*
X253057Y327508D01*
X253155Y327467D01*
X253252Y327438D01*
X253346Y327421D01*
X253438Y327415D01*
Y326915D01*
X253346Y326910D01*
X253252Y326892D01*
X253155Y326863D01*
X253057Y326823D01*
X252956Y326771D01*
X252945Y326765D01*
Y326665D01*
X252940Y326713D01*
X252926Y326753D01*
X252853Y326708D01*
X252748Y326633D01*
X252640Y326546D01*
X252418Y326339D01*
Y327992D01*
X252530Y327883D01*
D02*
G37*
G36*
X271226Y326872D02*
X271232Y326853D01*
X271243Y326830D01*
X271259Y326803D01*
X271282Y326772D01*
X271344Y326697D01*
X271429Y326606D01*
X271480Y326555D01*
X271126Y326201D01*
X271093Y326233D01*
X271034Y326283D01*
X271008Y326301D01*
X270984Y326314D01*
X270963Y326324D01*
X270943Y326328D01*
X270926Y326328D01*
X270911Y326324D01*
X270899Y326315D01*
X271226Y326886D01*
X271226Y326872D01*
D02*
G37*
G36*
X261444Y325667D02*
X261359Y325637D01*
X261284Y325587D01*
X261219Y325517D01*
X261164Y325427D01*
X261119Y325317D01*
X261084Y325187D01*
X261059Y325037D01*
X261044Y324867D01*
X261039Y324677D01*
X260039D01*
X260034Y324867D01*
X260019Y325037D01*
X259994Y325187D01*
X259959Y325317D01*
X259914Y325427D01*
X259859Y325517D01*
X259794Y325587D01*
X259719Y325637D01*
X259634Y325667D01*
X259539Y325677D01*
X261539D01*
X261444Y325667D01*
D02*
G37*
G36*
X267880Y324490D02*
X267870Y324460D01*
X267867Y324427D01*
X267870Y324392D01*
X267880Y324356D01*
X267896Y324319D01*
X267918Y324279D01*
X267948Y324238D01*
X267983Y324195D01*
X268026Y324150D01*
X267672Y323796D01*
X267615Y323852D01*
X267507Y323943D01*
X267457Y323979D01*
X267410Y324008D01*
X267366Y324030D01*
X267324Y324045D01*
X267285Y324054D01*
X267249Y324056D01*
X267215Y324051D01*
X267897Y324519D01*
X267880Y324490D01*
D02*
G37*
G36*
X230245Y324241D02*
X230060Y324024D01*
X229985Y323919D01*
X229922Y323816D01*
X229870Y323715D01*
X229830Y323616D01*
X229824Y323600D01*
X229840Y323561D01*
X229868Y323515D01*
X229900Y323479D01*
X229938Y323453D01*
X229980Y323438D01*
X230028Y323433D01*
X229785D01*
X229783Y323426D01*
X229778Y323334D01*
X229278D01*
X229272Y323426D01*
X229271Y323433D01*
X229028D01*
X229075Y323438D01*
X229118Y323453D01*
X229155Y323479D01*
X229188Y323515D01*
X229215Y323561D01*
X229231Y323600D01*
X229226Y323616D01*
X229185Y323715D01*
X229133Y323816D01*
X229070Y323919D01*
X228995Y324024D01*
X228908Y324132D01*
X228701Y324353D01*
X230354D01*
X230245Y324241D01*
D02*
G37*
G36*
X261044Y323949D02*
X261059Y323777D01*
X261084Y323625D01*
X261119Y323494D01*
X261164Y323382D01*
X261219Y323291D01*
X261284Y323221D01*
X261359Y323170D01*
X261444Y323140D01*
X261539Y323130D01*
X259539D01*
X259634Y323140D01*
X259719Y323170D01*
X259794Y323221D01*
X259859Y323291D01*
X259914Y323382D01*
X259959Y323494D01*
X259994Y323625D01*
X260019Y323777D01*
X260034Y323949D01*
X260039Y324142D01*
X261039D01*
X261044Y323949D01*
D02*
G37*
G36*
X265454Y323965D02*
X265477Y323681D01*
X265499Y323554D01*
X265527Y323436D01*
X265562Y323328D01*
X265603Y323230D01*
X265651Y323141D01*
X265705Y323062D01*
X265766Y322993D01*
X265412Y322640D01*
X265343Y322701D01*
X265264Y322755D01*
X265176Y322803D01*
X265077Y322844D01*
X264969Y322879D01*
X264852Y322907D01*
X264724Y322928D01*
X264587Y322943D01*
X264283Y322953D01*
X265453Y324122D01*
X265454Y323965D01*
D02*
G37*
G36*
X236532Y322500D02*
X236547Y322457D01*
X236572Y322420D01*
X236607Y322387D01*
X236652Y322360D01*
X236707Y322337D01*
X236772Y322320D01*
X236847Y322307D01*
X236932Y322300D01*
X237027Y322297D01*
Y321797D01*
X236932Y321795D01*
X236847Y321787D01*
X236772Y321775D01*
X236707Y321757D01*
X236652Y321735D01*
X236607Y321707D01*
X236572Y321675D01*
X236547Y321637D01*
X236532Y321595D01*
X236527Y321547D01*
Y322547D01*
X236532Y322500D01*
D02*
G37*
G36*
X238133Y321220D02*
X238021Y321330D01*
X237804Y321515D01*
X237698Y321590D01*
X237595Y321653D01*
X237494Y321705D01*
X237396Y321745D01*
X237299Y321774D01*
X237205Y321792D01*
X237113Y321797D01*
Y322297D01*
X237205Y322303D01*
X237299Y322320D01*
X237396Y322349D01*
X237494Y322390D01*
X237595Y322441D01*
X237698Y322505D01*
X237804Y322580D01*
X237911Y322666D01*
X238133Y322874D01*
Y321220D01*
D02*
G37*
G36*
X252530Y322371D02*
X252748Y322186D01*
X252853Y322111D01*
X252926Y322066D01*
X252940Y322106D01*
X252945Y322153D01*
Y322054D01*
X252956Y322048D01*
X253057Y321996D01*
X253155Y321955D01*
X253252Y321927D01*
X253346Y321909D01*
X253438Y321903D01*
Y321404D01*
X253346Y321398D01*
X253252Y321380D01*
X253155Y321352D01*
X253057Y321311D01*
X252956Y321259D01*
X252945Y321253D01*
Y321153D01*
X252940Y321201D01*
X252926Y321241D01*
X252853Y321196D01*
X252748Y321121D01*
X252640Y321034D01*
X252418Y320827D01*
Y322480D01*
X252530Y322371D01*
D02*
G37*
G36*
X278742Y319123D02*
X278765Y318839D01*
X278786Y318711D01*
X278792Y318686D01*
X278800Y318690D01*
X278837Y318720D01*
X278795Y318677D01*
X278814Y318594D01*
X278849Y318485D01*
X278890Y318387D01*
X278938Y318299D01*
X278992Y318220D01*
X279053Y318151D01*
X278700Y317797D01*
X278630Y317858D01*
X278552Y317913D01*
X278463Y317960D01*
X278365Y318002D01*
X278257Y318036D01*
X278173Y318056D01*
X278130Y318013D01*
X278160Y318050D01*
X278164Y318058D01*
X278139Y318064D01*
X278012Y318086D01*
X277874Y318100D01*
X277571Y318110D01*
X277978Y318517D01*
X277945Y318552D01*
X278299Y318905D01*
X278333Y318873D01*
X278740Y319280D01*
X278742Y319123D01*
D02*
G37*
G36*
X264435Y319105D02*
X264250Y318888D01*
X264176Y318782D01*
X264112Y318679D01*
X264060Y318578D01*
X264020Y318480D01*
X263991Y318383D01*
X263974Y318289D01*
X263968Y318197D01*
X263468D01*
X263462Y318289D01*
X263445Y318383D01*
X263416Y318480D01*
X263376Y318578D01*
X263324Y318679D01*
X263260Y318782D01*
X263185Y318888D01*
X263099Y318995D01*
X262891Y319217D01*
X264545D01*
X264435Y319105D01*
D02*
G37*
G36*
X228142Y317581D02*
X228326Y317426D01*
X228407Y317369D01*
X228482Y317327D01*
X228549Y317298D01*
X228609Y317284D01*
X228662D01*
X228708Y317298D01*
X228747Y317327D01*
X228040Y316619D01*
X228068Y316658D01*
X228082Y316704D01*
Y316757D01*
X228068Y316817D01*
X228040Y316885D01*
X227997Y316959D01*
X227941Y317040D01*
X227870Y317129D01*
X227686Y317327D01*
X228040Y317680D01*
X228142Y317581D01*
D02*
G37*
G36*
X233563Y315339D02*
X233558Y315386D01*
X233543Y315429D01*
X233517Y315466D01*
X233481Y315499D01*
X233435Y315526D01*
X233379Y315549D01*
X233313Y315566D01*
X233236Y315579D01*
X233149Y315586D01*
X233051Y315589D01*
Y316089D01*
X233149Y316091D01*
X233236Y316099D01*
X233313Y316111D01*
X233379Y316129D01*
X233435Y316151D01*
X233481Y316179D01*
X233517Y316211D01*
X233543Y316249D01*
X233558Y316291D01*
X233563Y316339D01*
Y315339D01*
D02*
G37*
G36*
X231009Y316291D02*
X231024Y316249D01*
X231050Y316211D01*
X231085Y316179D01*
X231132Y316151D01*
X231188Y316129D01*
X231254Y316111D01*
X231331Y316099D01*
X231418Y316091D01*
X231516Y316089D01*
Y315589D01*
X231418Y315586D01*
X231331Y315579D01*
X231254Y315566D01*
X231188Y315549D01*
X231132Y315526D01*
X231085Y315499D01*
X231050Y315466D01*
X231024Y315429D01*
X231009Y315386D01*
X231004Y315339D01*
Y316339D01*
X231009Y316291D01*
D02*
G37*
G36*
X286602Y314961D02*
X286446Y314959D01*
X286162Y314936D01*
X286034Y314914D01*
X285916Y314886D01*
X285808Y314852D01*
X285710Y314811D01*
X285622Y314763D01*
X285543Y314709D01*
X285482Y314655D01*
X285433Y314603D01*
X285377Y314537D01*
X285331Y314474D01*
X285297Y314414D01*
X285273Y314358D01*
X285260Y314306D01*
X285257Y314258D01*
X285266Y314213D01*
X285285Y314172D01*
X285315Y314135D01*
X284608Y314842D01*
X284645Y314812D01*
X284686Y314793D01*
X284730Y314785D01*
X284779Y314787D01*
X284831Y314800D01*
X284887Y314824D01*
X284946Y314859D01*
X285009Y314904D01*
X285076Y314961D01*
X285127Y315009D01*
X285181Y315070D01*
X285235Y315149D01*
X285283Y315238D01*
X285324Y315336D01*
X285359Y315444D01*
X285387Y315562D01*
X285408Y315689D01*
X285423Y315826D01*
X285433Y316130D01*
X286602Y314961D01*
D02*
G37*
G36*
X274411Y314792D02*
X274434Y314508D01*
X274456Y314381D01*
X274462Y314356D01*
X274469Y314359D01*
X274507Y314389D01*
X274464Y314346D01*
X274484Y314263D01*
X274518Y314155D01*
X274559Y314056D01*
X274607Y313968D01*
X274661Y313889D01*
X274723Y313820D01*
X274369Y313467D01*
X274300Y313527D01*
X274221Y313582D01*
X274132Y313630D01*
X274034Y313671D01*
X273926Y313705D01*
X273843Y313725D01*
X273800Y313682D01*
X273830Y313720D01*
X273833Y313727D01*
X273808Y313733D01*
X273681Y313755D01*
X273544Y313770D01*
X273240Y313780D01*
X273647Y314187D01*
X273614Y314221D01*
X273968Y314575D01*
X274002Y314542D01*
X274409Y314949D01*
X274411Y314792D01*
D02*
G37*
G36*
X235689Y314763D02*
X235706Y314669D01*
X235735Y314573D01*
X235775Y314474D01*
X235827Y314373D01*
X235834Y314363D01*
X235933D01*
X235886Y314357D01*
X235846Y314343D01*
X235891Y314270D01*
X235966Y314165D01*
X236052Y314057D01*
X236260Y313836D01*
X234606D01*
X234716Y313948D01*
X234900Y314165D01*
X234975Y314270D01*
X235020Y314343D01*
X234981Y314357D01*
X234933Y314363D01*
X235032D01*
X235039Y314373D01*
X235091Y314474D01*
X235131Y314573D01*
X235160Y314669D01*
X235177Y314763D01*
X235183Y314855D01*
X235683D01*
X235689Y314763D01*
D02*
G37*
G36*
X300164Y315378D02*
X300381Y315194D01*
X300486Y315119D01*
X300589Y315055D01*
X300690Y315004D01*
X300789Y314963D01*
X300885Y314934D01*
X300979Y314917D01*
X301071Y314911D01*
Y314411D01*
X300979Y314406D01*
X300885Y314388D01*
X300789Y314359D01*
X300690Y314319D01*
X300589Y314267D01*
X300486Y314204D01*
X300381Y314129D01*
X300273Y314042D01*
X300052Y313835D01*
Y315488D01*
X300164Y315378D01*
D02*
G37*
G36*
X271906Y312544D02*
X271985Y312490D01*
X272074Y312442D01*
X272172Y312401D01*
X272280Y312366D01*
X272397Y312338D01*
X272525Y312317D01*
X272662Y312302D01*
X272966Y312292D01*
X271796Y311123D01*
X271795Y311279D01*
X271772Y311563D01*
X271750Y311691D01*
X271722Y311809D01*
X271688Y311917D01*
X271646Y312015D01*
X271599Y312104D01*
X271544Y312182D01*
X271483Y312251D01*
X271837Y312605D01*
X271906Y312544D01*
D02*
G37*
G36*
X274495Y308364D02*
X274472Y308378D01*
X274447Y308385D01*
X274420Y308387D01*
X274392Y308383D01*
X274361Y308372D01*
X274328Y308357D01*
X274293Y308335D01*
X274256Y308307D01*
X274217Y308274D01*
X274176Y308235D01*
X273822Y308588D01*
X273875Y308642D01*
X273961Y308741D01*
X273995Y308786D01*
X274022Y308827D01*
X274043Y308866D01*
X274058Y308901D01*
X274067Y308933D01*
X274069Y308962D01*
X274066Y308988D01*
X274495Y308364D01*
D02*
G37*
G36*
X287229Y308175D02*
X287191Y308205D01*
X287151Y308224D01*
X287106Y308233D01*
X287058Y308230D01*
X287005Y308217D01*
X286950Y308193D01*
X286890Y308158D01*
X286827Y308113D01*
X286760Y308057D01*
X286690Y307990D01*
X286336Y308343D01*
X286403Y308414D01*
X286459Y308481D01*
X286505Y308544D01*
X286540Y308603D01*
X286564Y308659D01*
X286577Y308711D01*
X286579Y308759D01*
X286571Y308804D01*
X286551Y308845D01*
X286522Y308882D01*
X287229Y308175D01*
D02*
G37*
G36*
X280870Y308352D02*
X280851Y308312D01*
X280842Y308267D01*
X280845Y308219D01*
X280858Y308167D01*
X280882Y308111D01*
X280917Y308051D01*
X280962Y307988D01*
X281018Y307921D01*
X281085Y307851D01*
X280732Y307497D01*
X280661Y307564D01*
X280594Y307621D01*
X280531Y307666D01*
X280472Y307701D01*
X280416Y307725D01*
X280364Y307738D01*
X280316Y307740D01*
X280271Y307732D01*
X280230Y307713D01*
X280193Y307683D01*
X280900Y308390D01*
X280870Y308352D01*
D02*
G37*
G36*
X294476Y306693D02*
X294385Y306690D01*
X294294Y306677D01*
X294204Y306656D01*
X294114Y306626D01*
X294024Y306588D01*
X293935Y306540D01*
X293870Y306499D01*
X293837Y306452D01*
X293770Y306335D01*
X293724Y306225D01*
X293699Y306123D01*
X293695Y306028D01*
X293713Y305939D01*
X293752Y305858D01*
X293812Y305784D01*
X292398Y307198D01*
X292472Y307138D01*
X292553Y307099D01*
X292642Y307081D01*
X292737Y307085D01*
X292840Y307109D01*
X292949Y307155D01*
X293066Y307223D01*
X293113Y307256D01*
X293155Y307321D01*
X293202Y307410D01*
X293240Y307500D01*
X293270Y307590D01*
X293291Y307680D01*
X293304Y307771D01*
X293307Y307862D01*
X294476Y306693D01*
D02*
G37*
G36*
X365354Y306693D02*
X359449D01*
Y312598D01*
X365354D01*
Y306693D01*
D02*
G37*
G36*
X285047Y306347D02*
X284982Y306278D01*
X284927Y306213D01*
X284883Y306151D01*
X284849Y306093D01*
X284826Y306038D01*
X284814Y305986D01*
X284812Y305939D01*
X284821Y305894D01*
X284840Y305854D01*
X284870Y305817D01*
X284163Y306524D01*
X284200Y306494D01*
X284241Y306474D01*
X284285Y306466D01*
X284333Y306467D01*
X284384Y306480D01*
X284439Y306503D01*
X284497Y306536D01*
X284559Y306580D01*
X284625Y306635D01*
X284694Y306701D01*
X285047Y306347D01*
D02*
G37*
G36*
X282306Y306634D02*
X282373Y306577D01*
X282436Y306532D01*
X282496Y306497D01*
X282551Y306473D01*
X282603Y306460D01*
X282652Y306458D01*
X282696Y306466D01*
X282737Y306485D01*
X282774Y306515D01*
X282067Y305808D01*
X282097Y305845D01*
X282117Y305886D01*
X282125Y305931D01*
X282122Y305979D01*
X282109Y306031D01*
X282085Y306087D01*
X282051Y306147D01*
X282005Y306210D01*
X281949Y306276D01*
X281882Y306347D01*
X282236Y306701D01*
X282306Y306634D01*
D02*
G37*
G36*
X320178Y306073D02*
X320361Y305918D01*
X320443Y305861D01*
X320517Y305819D01*
X320584Y305790D01*
X320644Y305776D01*
X320697D01*
X320743Y305790D01*
X320782Y305819D01*
X320075Y305112D01*
X320103Y305151D01*
X320117Y305196D01*
Y305250D01*
X320103Y305310D01*
X320075Y305377D01*
X320033Y305451D01*
X319976Y305532D01*
X319905Y305621D01*
X319722Y305819D01*
X320075Y306172D01*
X320178Y306073D01*
D02*
G37*
G36*
X249381Y305835D02*
X249598Y305651D01*
X249703Y305576D01*
X249806Y305512D01*
X249907Y305460D01*
X250006Y305420D01*
X250102Y305391D01*
X250196Y305374D01*
X250288Y305368D01*
Y304868D01*
X250196Y304862D01*
X250102Y304845D01*
X250006Y304816D01*
X249907Y304776D01*
X249806Y304724D01*
X249703Y304661D01*
X249598Y304586D01*
X249490Y304499D01*
X249269Y304291D01*
Y305945D01*
X249381Y305835D01*
D02*
G37*
G36*
X313160Y305048D02*
X313377Y304863D01*
X313483Y304788D01*
X313586Y304725D01*
X313687Y304673D01*
X313785Y304633D01*
X313802Y304628D01*
X313841Y304643D01*
X313887Y304671D01*
X313923Y304703D01*
X313948Y304741D01*
X313964Y304783D01*
X313969Y304831D01*
Y304588D01*
X313976Y304587D01*
X314068Y304581D01*
Y304081D01*
X313976Y304075D01*
X313969Y304074D01*
Y303831D01*
X313964Y303878D01*
X313948Y303921D01*
X313923Y303958D01*
X313887Y303991D01*
X313841Y304018D01*
X313802Y304034D01*
X313785Y304029D01*
X313687Y303988D01*
X313586Y303937D01*
X313483Y303873D01*
X313377Y303798D01*
X313270Y303712D01*
X313048Y303504D01*
Y305157D01*
X313160Y305048D01*
D02*
G37*
G36*
X291844Y303559D02*
X291770Y303619D01*
X291688Y303658D01*
X291600Y303675D01*
X291504Y303671D01*
X291400Y303646D01*
X291290Y303599D01*
X291172Y303531D01*
X291047Y303441D01*
X290915Y303330D01*
X290775Y303197D01*
X290068Y303904D01*
X290200Y304044D01*
X290312Y304176D01*
X290401Y304301D01*
X290470Y304419D01*
X290516Y304530D01*
X290542Y304633D01*
X290546Y304729D01*
X290529Y304818D01*
X290490Y304899D01*
X290430Y304974D01*
X291844Y303559D01*
D02*
G37*
G36*
X289840Y302262D02*
X289709Y302124D01*
X289599Y301993D01*
X289511Y301869D01*
X289444Y301753D01*
X289398Y301643D01*
X289373Y301540D01*
X289369Y301445D01*
X289387Y301357D01*
X289426Y301275D01*
X289486Y301201D01*
X288072Y302615D01*
X288146Y302555D01*
X288227Y302516D01*
X288316Y302499D01*
X288411Y302502D01*
X288514Y302527D01*
X288623Y302573D01*
X288740Y302640D01*
X288864Y302728D01*
X288995Y302838D01*
X289132Y302969D01*
X289840Y302262D01*
D02*
G37*
G36*
X283910Y303515D02*
X283869Y303492D01*
X283833Y303454D01*
X283802Y303401D01*
X283775Y303333D01*
X283753Y303249D01*
X283748Y303218D01*
X283767Y303155D01*
X283807Y303057D01*
X283859Y302956D01*
X283922Y302853D01*
X283997Y302748D01*
X284084Y302640D01*
X284291Y302418D01*
X282638D01*
X282747Y302530D01*
X282932Y302748D01*
X283007Y302853D01*
X283070Y302956D01*
X283122Y303057D01*
X283163Y303155D01*
X283181Y303218D01*
X283176Y303249D01*
X283154Y303333D01*
X283128Y303401D01*
X283096Y303454D01*
X283060Y303492D01*
X283019Y303515D01*
X282973Y303522D01*
X283956D01*
X283910Y303515D01*
D02*
G37*
G36*
X315897Y302850D02*
X315855Y302834D01*
X315817Y302809D01*
X315785Y302773D01*
X315757Y302727D01*
X315735Y302670D01*
X315717Y302604D01*
X315705Y302527D01*
X315697Y302440D01*
X315695Y302343D01*
X315195D01*
X315192Y302440D01*
X315185Y302527D01*
X315172Y302604D01*
X315155Y302670D01*
X315132Y302727D01*
X315105Y302773D01*
X315072Y302809D01*
X315035Y302834D01*
X314992Y302850D01*
X314945Y302855D01*
X315945D01*
X315897Y302850D01*
D02*
G37*
G36*
X267027Y303807D02*
X267107Y303753D01*
X267196Y303707D01*
X267294Y303670D01*
X267400Y303641D01*
X267515Y303620D01*
X267639Y303608D01*
X267771Y303605D01*
X267912Y303610D01*
X268062Y303624D01*
X267023Y302337D01*
X267005Y302500D01*
X266955Y302793D01*
X266923Y302923D01*
X266887Y303042D01*
X266847Y303151D01*
X266802Y303249D01*
X266752Y303336D01*
X266699Y303413D01*
X266641Y303478D01*
X266955Y303871D01*
X267027Y303807D01*
D02*
G37*
G36*
X315697Y300710D02*
X315705Y300623D01*
X315717Y300546D01*
X315735Y300479D01*
X315757Y300423D01*
X315785Y300377D01*
X315817Y300341D01*
X315855Y300315D01*
X315897Y300300D01*
X315945Y300295D01*
X314945D01*
X314992Y300300D01*
X315035Y300315D01*
X315072Y300341D01*
X315105Y300377D01*
X315132Y300423D01*
X315155Y300479D01*
X315172Y300546D01*
X315185Y300623D01*
X315192Y300710D01*
X315195Y300807D01*
X315695D01*
X315697Y300710D01*
D02*
G37*
G36*
X320782Y297331D02*
X320743Y297359D01*
X320697Y297373D01*
X320644D01*
X320584Y297359D01*
X320517Y297331D01*
X320443Y297288D01*
X320361Y297232D01*
X320273Y297161D01*
X320075Y296977D01*
X319722Y297331D01*
X319820Y297433D01*
X319976Y297617D01*
X320033Y297699D01*
X320075Y297773D01*
X320103Y297840D01*
X320117Y297900D01*
Y297953D01*
X320103Y297999D01*
X320075Y298038D01*
X320782Y297331D01*
D02*
G37*
G36*
X315897Y297326D02*
X315855Y297311D01*
X315817Y297286D01*
X315785Y297251D01*
X315757Y297206D01*
X315735Y297151D01*
X315717Y297086D01*
X315705Y297011D01*
X315697Y296926D01*
X315695Y296831D01*
X315195D01*
X315192Y296926D01*
X315185Y297011D01*
X315172Y297086D01*
X315155Y297151D01*
X315132Y297206D01*
X315105Y297251D01*
X315072Y297286D01*
X315035Y297311D01*
X314992Y297326D01*
X314945Y297331D01*
X315945D01*
X315897Y297326D01*
D02*
G37*
G36*
X273333Y295863D02*
X273220Y295973D01*
X273003Y296158D01*
X272898Y296233D01*
X272795Y296296D01*
X272694Y296348D01*
X272595Y296388D01*
X272499Y296417D01*
X272405Y296434D01*
X272313Y296440D01*
Y296940D01*
X272405Y296946D01*
X272499Y296963D01*
X272595Y296992D01*
X272694Y297032D01*
X272795Y297084D01*
X272898Y297148D01*
X273003Y297223D01*
X273111Y297309D01*
X273333Y297517D01*
Y295863D01*
D02*
G37*
G36*
X315697Y295198D02*
X315705Y295111D01*
X315717Y295034D01*
X315735Y294967D01*
X315757Y294911D01*
X315785Y294865D01*
X315817Y294829D01*
X315855Y294804D01*
X315897Y294788D01*
X315945Y294783D01*
X314945D01*
X314992Y294788D01*
X315035Y294804D01*
X315072Y294829D01*
X315105Y294865D01*
X315132Y294911D01*
X315155Y294967D01*
X315172Y295034D01*
X315185Y295111D01*
X315192Y295198D01*
X315195Y295295D01*
X315695D01*
X315697Y295198D01*
D02*
G37*
G36*
X365354Y294488D02*
X354331D01*
Y297638D01*
X359842D01*
X362205Y300000D01*
Y303937D01*
X365354D01*
Y294488D01*
D02*
G37*
G36*
X302714Y292373D02*
X302533Y292149D01*
X302460Y292041D01*
X302397Y291935D01*
X302346Y291833D01*
X302307Y291734D01*
X302278Y291637D01*
X302261Y291544D01*
X302256Y291453D01*
X301756Y291437D01*
X301750Y291530D01*
X301732Y291624D01*
X301703Y291720D01*
X301662Y291818D01*
X301609Y291917D01*
X301544Y292018D01*
X301468Y292121D01*
X301380Y292225D01*
X301280Y292331D01*
X301169Y292438D01*
X302822Y292490D01*
X302714Y292373D01*
D02*
G37*
G36*
X377953Y294094D02*
X373622D01*
Y292748D01*
X373091D01*
Y291595D01*
X372835Y291339D01*
X368110D01*
Y309842D01*
X377953D01*
Y294094D01*
D02*
G37*
G36*
X321319Y291814D02*
X321276Y291799D01*
X321239Y291774D01*
X321206Y291739D01*
X321179Y291694D01*
X321156Y291639D01*
X321139Y291574D01*
X321126Y291499D01*
X321119Y291414D01*
X321116Y291319D01*
X320616D01*
X320614Y291414D01*
X320606Y291499D01*
X320594Y291574D01*
X320576Y291639D01*
X320554Y291694D01*
X320526Y291739D01*
X320494Y291774D01*
X320456Y291799D01*
X320414Y291814D01*
X320366Y291819D01*
X321366D01*
X321319Y291814D01*
D02*
G37*
G36*
X280571Y291929D02*
X280588Y291834D01*
X280617Y291738D01*
X280657Y291639D01*
X280709Y291539D01*
X280773Y291435D01*
X280848Y291330D01*
X280934Y291223D01*
X281142Y291001D01*
X279488D01*
X279598Y291113D01*
X279782Y291330D01*
X279857Y291435D01*
X279921Y291539D01*
X279973Y291639D01*
X280013Y291738D01*
X280042Y291834D01*
X280059Y291929D01*
X280065Y292021D01*
X280565D01*
X280571Y291929D01*
D02*
G37*
G36*
X309223Y291662D02*
X309440Y291477D01*
X309546Y291403D01*
X309649Y291339D01*
X309750Y291287D01*
X309848Y291247D01*
X309945Y291218D01*
X310039Y291201D01*
X310131Y291195D01*
Y290695D01*
X310039Y290689D01*
X309945Y290672D01*
X309848Y290643D01*
X309750Y290603D01*
X309649Y290551D01*
X309546Y290487D01*
X309440Y290412D01*
X309333Y290326D01*
X309111Y290118D01*
Y291772D01*
X309223Y291662D01*
D02*
G37*
G36*
X357399Y289626D02*
X357414Y289583D01*
X357438Y289546D01*
X357473Y289513D01*
X357519Y289486D01*
X357574Y289463D01*
X357639Y289446D01*
X357714Y289433D01*
X357799Y289426D01*
X357893Y289423D01*
Y288923D01*
X357799Y288922D01*
X357639Y288909D01*
X357574Y288897D01*
X357519Y288882D01*
X357473Y288864D01*
X357438Y288843D01*
X357414Y288819D01*
X357399Y288791D01*
X357394Y288760D01*
Y289673D01*
X357399Y289626D01*
D02*
G37*
G36*
X359292Y288673D02*
X359286Y288721D01*
X359272Y288763D01*
X359246Y288801D01*
X359211Y288833D01*
X359167Y288861D01*
X359111Y288883D01*
X359047Y288901D01*
X358972Y288913D01*
X358887Y288921D01*
X358791Y288923D01*
Y289423D01*
X358887Y289426D01*
X358972Y289433D01*
X359047Y289446D01*
X359111Y289463D01*
X359167Y289486D01*
X359211Y289513D01*
X359246Y289546D01*
X359272Y289583D01*
X359286Y289626D01*
X359292Y289673D01*
Y288673D01*
D02*
G37*
G36*
X302212Y288669D02*
X301474Y288657D01*
X301522Y288663D01*
X301564Y288679D01*
X301602Y288705D01*
X301634Y288741D01*
X301662Y288787D01*
X301684Y288843D01*
X301702Y288910D01*
X301714Y288986D01*
X301722Y289073D01*
X301724Y289169D01*
X302224D01*
X302212Y288669D01*
D02*
G37*
G36*
X376043Y288767D02*
X376001Y288752D01*
X375963Y288726D01*
X375931Y288690D01*
X375903Y288644D01*
X375881Y288588D01*
X375863Y288521D01*
X375851Y288444D01*
X375843Y288357D01*
X375840Y288260D01*
X375519D01*
X375767Y288012D01*
X375707Y287947D01*
X375655Y287881D01*
X375611Y287815D01*
X375576Y287748D01*
X375549Y287681D01*
X375531Y287613D01*
X375522Y287544D01*
X375521Y287475D01*
X375528Y287406D01*
X375544Y287335D01*
X374737Y288143D01*
X374807Y288127D01*
X374877Y288119D01*
X374946Y288120D01*
X375014Y288130D01*
X375082Y288148D01*
X375150Y288174D01*
X375217Y288209D01*
X375283Y288253D01*
X375340Y288298D01*
X375338Y288357D01*
X375330Y288444D01*
X375318Y288521D01*
X375301Y288588D01*
X375278Y288644D01*
X375251Y288690D01*
X375218Y288726D01*
X375181Y288752D01*
X375138Y288767D01*
X375091Y288772D01*
X376091D01*
X376043Y288767D01*
D02*
G37*
G36*
X321122Y288779D02*
X321139Y288685D01*
X321168Y288588D01*
X321208Y288490D01*
X321260Y288389D01*
X321324Y288286D01*
X321399Y288180D01*
X321485Y288073D01*
X321693Y287851D01*
X320039D01*
X320149Y287963D01*
X320334Y288180D01*
X320409Y288286D01*
X320472Y288389D01*
X320524Y288490D01*
X320564Y288588D01*
X320593Y288685D01*
X320610Y288779D01*
X320616Y288871D01*
X321116D01*
X321122Y288779D01*
D02*
G37*
G36*
X362657Y288306D02*
X362615Y288291D01*
X362577Y288265D01*
X362545Y288229D01*
X362517Y288183D01*
X362495Y288127D01*
X362477Y288060D01*
X362465Y287984D01*
X362457Y287897D01*
X362455Y287799D01*
X361955D01*
X361952Y287897D01*
X361945Y287984D01*
X361932Y288060D01*
X361915Y288127D01*
X361892Y288183D01*
X361865Y288229D01*
X361832Y288265D01*
X361795Y288291D01*
X361752Y288306D01*
X361705Y288311D01*
X362705D01*
X362657Y288306D01*
D02*
G37*
G36*
X299886Y285720D02*
X299881Y285768D01*
X299866Y285810D01*
X299840Y285848D01*
X299804Y285880D01*
X299758Y285908D01*
X299702Y285930D01*
X299635Y285948D01*
X299558Y285961D01*
X299471Y285968D01*
X299374Y285970D01*
Y286471D01*
X299471Y286473D01*
X299558Y286480D01*
X299635Y286493D01*
X299702Y286510D01*
X299758Y286533D01*
X299804Y286561D01*
X299840Y286593D01*
X299866Y286631D01*
X299881Y286673D01*
X299886Y286720D01*
Y285720D01*
D02*
G37*
G36*
X297060Y286673D02*
X297075Y286631D01*
X297101Y286593D01*
X297137Y286561D01*
X297183Y286533D01*
X297239Y286510D01*
X297306Y286493D01*
X297382Y286480D01*
X297469Y286473D01*
X297567Y286471D01*
Y285970D01*
X297469Y285968D01*
X297382Y285961D01*
X297306Y285948D01*
X297239Y285930D01*
X297183Y285908D01*
X297137Y285880D01*
X297101Y285848D01*
X297075Y285810D01*
X297060Y285768D01*
X297055Y285720D01*
Y286720D01*
X297060Y286673D01*
D02*
G37*
G36*
X287985Y285720D02*
X287980Y285768D01*
X287964Y285810D01*
X287938Y285848D01*
X287903Y285880D01*
X287857Y285908D01*
X287800Y285930D01*
X287734Y285948D01*
X287657Y285961D01*
X287570Y285968D01*
X287473Y285970D01*
Y286471D01*
X287570Y286473D01*
X287657Y286480D01*
X287734Y286493D01*
X287800Y286510D01*
X287857Y286533D01*
X287903Y286561D01*
X287938Y286593D01*
X287964Y286631D01*
X287980Y286673D01*
X287985Y286720D01*
Y285720D01*
D02*
G37*
G36*
X285601Y286938D02*
X285818Y286753D01*
X285924Y286678D01*
X286027Y286615D01*
X286127Y286563D01*
X286226Y286522D01*
X286323Y286493D01*
X286417Y286476D01*
X286509Y286471D01*
Y285970D01*
X286417Y285965D01*
X286323Y285947D01*
X286226Y285919D01*
X286127Y285878D01*
X286027Y285826D01*
X285924Y285763D01*
X285818Y285688D01*
X285711Y285601D01*
X285489Y285394D01*
Y287047D01*
X285601Y286938D01*
D02*
G37*
G36*
X295941Y284739D02*
X295898Y284724D01*
X295861Y284698D01*
X295828Y284663D01*
X295801Y284616D01*
X295778Y284560D01*
X295761Y284494D01*
X295748Y284417D01*
X295741Y284330D01*
X295738Y284232D01*
X295238D01*
X295236Y284330D01*
X295228Y284417D01*
X295216Y284494D01*
X295198Y284560D01*
X295176Y284616D01*
X295148Y284663D01*
X295116Y284698D01*
X295078Y284724D01*
X295036Y284739D01*
X294988Y284745D01*
X295988D01*
X295941Y284739D01*
D02*
G37*
G36*
X306555Y283267D02*
X306572Y283173D01*
X306601Y283077D01*
X306642Y282978D01*
X306693Y282877D01*
X306741Y282800D01*
X306799D01*
X306752Y282794D01*
X306746Y282792D01*
X306757Y282774D01*
X306832Y282669D01*
X306918Y282561D01*
X307126Y282340D01*
X306551D01*
X306549Y282288D01*
X306049D01*
X306048Y282340D01*
X305472D01*
X305582Y282452D01*
X305767Y282669D01*
X305842Y282774D01*
X305853Y282792D01*
X305847Y282794D01*
X305799Y282800D01*
X305857D01*
X305905Y282877D01*
X305957Y282978D01*
X305997Y283077D01*
X306026Y283173D01*
X306043Y283267D01*
X306049Y283359D01*
X306549D01*
X306555Y283267D01*
D02*
G37*
G36*
X295741Y282602D02*
X295748Y282517D01*
X295761Y282442D01*
X295778Y282377D01*
X295801Y282322D01*
X295828Y282277D01*
X295861Y282242D01*
X295898Y282217D01*
X295941Y282202D01*
X295988Y282197D01*
X294988D01*
X295036Y282202D01*
X295078Y282217D01*
X295116Y282242D01*
X295148Y282277D01*
X295176Y282322D01*
X295198Y282377D01*
X295216Y282442D01*
X295228Y282517D01*
X295236Y282602D01*
X295238Y282697D01*
X295738D01*
X295741Y282602D01*
D02*
G37*
G36*
X275615Y283644D02*
X275832Y283460D01*
X275937Y283385D01*
X276040Y283321D01*
X276141Y283269D01*
X276240Y283229D01*
X276336Y283200D01*
X276430Y283183D01*
X276522Y283177D01*
Y282677D01*
X276430Y282671D01*
X276336Y282654D01*
X276240Y282625D01*
X276141Y282585D01*
X276040Y282533D01*
X275937Y282470D01*
X275832Y282395D01*
X275725Y282308D01*
X275503Y282100D01*
Y283754D01*
X275615Y283644D01*
D02*
G37*
G36*
X283456Y283236D02*
X283466Y282957D01*
X283482Y282831D01*
X283506Y282715D01*
X283538Y282607D01*
X283577Y282509D01*
X283624Y282420D01*
X283658Y282371D01*
X283747Y282296D01*
X283828Y282239D01*
X283903Y282197D01*
X283970Y282168D01*
X284030Y282154D01*
X284083D01*
X284129Y282168D01*
X284168Y282197D01*
X283461Y281490D01*
X283489Y281528D01*
X283503Y281574D01*
Y281627D01*
X283489Y281687D01*
X283461Y281755D01*
X283418Y281829D01*
X283362Y281910D01*
X283291Y281999D01*
X283282Y282009D01*
X283222Y282050D01*
X283134Y282099D01*
X283036Y282142D01*
X282928Y282179D01*
X282809Y282211D01*
X282680Y282238D01*
X282540Y282259D01*
X282231Y282285D01*
X283462Y283389D01*
X283456Y283236D01*
D02*
G37*
G36*
X277445Y282451D02*
X277629Y282296D01*
X277710Y282239D01*
X277785Y282197D01*
X277852Y282168D01*
X277912Y282154D01*
X277965D01*
X278011Y282168D01*
X278050Y282197D01*
X277343Y281490D01*
X277371Y281528D01*
X277385Y281574D01*
Y281627D01*
X277371Y281687D01*
X277343Y281755D01*
X277300Y281829D01*
X277244Y281910D01*
X277173Y281999D01*
X276989Y282197D01*
X277343Y282550D01*
X277445Y282451D01*
D02*
G37*
G36*
X336558Y280276D02*
X336446Y280385D01*
X336229Y280570D01*
X336124Y280645D01*
X336020Y280708D01*
X335920Y280760D01*
X335821Y280801D01*
X335725Y280829D01*
X335630Y280847D01*
X335539Y280852D01*
Y281352D01*
X335630Y281358D01*
X335725Y281375D01*
X335821Y281404D01*
X335920Y281445D01*
X336020Y281497D01*
X336124Y281560D01*
X336229Y281635D01*
X336336Y281721D01*
X336558Y281929D01*
Y280276D01*
D02*
G37*
G36*
X355835Y280147D02*
X355651Y279930D01*
X355576Y279824D01*
X355512Y279721D01*
X355460Y279621D01*
X355420Y279522D01*
X355391Y279426D01*
X355374Y279331D01*
X355368Y279239D01*
X354868D01*
X354862Y279331D01*
X354845Y279426D01*
X354816Y279522D01*
X354776Y279621D01*
X354724Y279721D01*
X354661Y279824D01*
X354586Y279930D01*
X354499Y280037D01*
X354291Y280259D01*
X355945D01*
X355835Y280147D01*
D02*
G37*
G36*
X300776Y279528D02*
X300619Y279526D01*
X300335Y279503D01*
X300207Y279481D01*
X300090Y279453D01*
X299982Y279419D01*
X299883Y279378D01*
X299795Y279330D01*
X299716Y279275D01*
X299647Y279215D01*
X299293Y279568D01*
X299354Y279637D01*
X299409Y279716D01*
X299456Y279805D01*
X299498Y279903D01*
X299532Y280011D01*
X299560Y280129D01*
X299582Y280256D01*
X299596Y280393D01*
X299606Y280697D01*
X300776Y279528D01*
D02*
G37*
G36*
X290819Y279890D02*
X290806Y279845D01*
X290807Y279792D01*
X290823Y279733D01*
X290852Y279666D01*
X290896Y279591D01*
X290953Y279510D01*
X291025Y279421D01*
X291212Y279221D01*
X290858Y278867D01*
X290755Y278967D01*
X290569Y279125D01*
X290488Y279183D01*
X290413Y279227D01*
X290346Y279256D01*
X290286Y279272D01*
X290234Y279273D01*
X290189Y279260D01*
X290151Y279233D01*
X290846Y279928D01*
X290819Y279890D01*
D02*
G37*
G36*
X318817Y276731D02*
X318756Y276662D01*
X318702Y276583D01*
X318654Y276495D01*
X318613Y276396D01*
X318578Y276288D01*
X318550Y276171D01*
X318529Y276043D01*
X318514Y275906D01*
X318504Y275602D01*
X317335Y276772D01*
X317491Y276773D01*
X317775Y276796D01*
X317903Y276818D01*
X318021Y276846D01*
X318129Y276880D01*
X318227Y276922D01*
X318316Y276969D01*
X318394Y277024D01*
X318463Y277085D01*
X318817Y276731D01*
D02*
G37*
G36*
X288060Y275762D02*
X288149Y275657D01*
X288239Y275564D01*
X288330Y275483D01*
X288422Y275415D01*
X288515Y275359D01*
X288609Y275316D01*
X288671Y275295D01*
X288687Y275299D01*
X288759Y275321D01*
X288820Y275347D01*
X288870Y275379D01*
X288908Y275415D01*
X288935Y275456D01*
X288951Y275502D01*
X288879Y275155D01*
X288814Y274760D01*
X288796Y274759D01*
X288746Y274514D01*
X288749Y274561D01*
X288740Y274603D01*
X288717Y274640D01*
X288682Y274672D01*
X288633Y274698D01*
X288571Y274721D01*
X288569Y274721D01*
X288542Y274714D01*
X288440Y274678D01*
X288333Y274632D01*
X288220Y274575D01*
X287976Y274432D01*
X287846Y274344D01*
X287710Y274247D01*
X287972Y275880D01*
X288060Y275762D01*
D02*
G37*
G36*
X318506Y275422D02*
X318529Y275138D01*
X318550Y275010D01*
X318578Y274893D01*
X318613Y274785D01*
X318654Y274687D01*
X318702Y274598D01*
X318756Y274519D01*
X318817Y274450D01*
X318463Y274096D01*
X318394Y274157D01*
X318316Y274212D01*
X318227Y274259D01*
X318129Y274301D01*
X318021Y274335D01*
X317903Y274363D01*
X317775Y274385D01*
X317638Y274400D01*
X317335Y274410D01*
X318504Y275579D01*
X318506Y275422D01*
D02*
G37*
G36*
X289253Y271141D02*
X289414Y271007D01*
X289488Y270957D01*
X289558Y270918D01*
X289623Y270891D01*
X289684Y270874D01*
X289741Y270868D01*
X289793Y270874D01*
X289842Y270891D01*
X288898Y270434D01*
X288939Y270460D01*
X288967Y270492D01*
X288981Y270530D01*
X288983Y270574D01*
X288971Y270625D01*
X288946Y270681D01*
X288908Y270744D01*
X288857Y270813D01*
X288793Y270887D01*
X288716Y270968D01*
X289167Y271224D01*
X289253Y271141D01*
D02*
G37*
G36*
X267450Y270454D02*
X267681Y270276D01*
X267791Y270204D01*
X267898Y270143D01*
X268002Y270093D01*
X268024Y270084D01*
X268039Y270092D01*
X268079Y270124D01*
X268107Y270161D01*
X268122Y270203D01*
X268125Y270249D01*
X268139Y270043D01*
X268198Y270026D01*
X268292Y270009D01*
X268381Y270004D01*
X268411Y269504D01*
X268317Y269498D01*
X268222Y269480D01*
X268177Y269466D01*
X268191Y269261D01*
X268182Y269307D01*
X268161Y269349D01*
X268128Y269385D01*
X268084Y269417D01*
X268067Y269425D01*
X268029Y269409D01*
X267932Y269355D01*
X267832Y269290D01*
X267732Y269212D01*
X267631Y269123D01*
X267529Y269022D01*
X267426Y268909D01*
X267329Y270560D01*
X267450Y270454D01*
D02*
G37*
G36*
X362460Y269488D02*
X362478Y269393D01*
X362507Y269297D01*
X362547Y269198D01*
X362599Y269098D01*
X362662Y268994D01*
X362737Y268889D01*
X362824Y268782D01*
X363032Y268560D01*
X361378D01*
X361488Y268672D01*
X361672Y268889D01*
X361747Y268994D01*
X361810Y269098D01*
X361862Y269198D01*
X361903Y269297D01*
X361932Y269393D01*
X361949Y269488D01*
X361955Y269580D01*
X362455D01*
X362460Y269488D01*
D02*
G37*
G36*
X289250Y266144D02*
X289401Y266015D01*
X289470Y265966D01*
X289534Y265928D01*
X289593Y265899D01*
X289648Y265882D01*
X289697Y265874D01*
X289742Y265877D01*
X289783Y265891D01*
X288924Y265468D01*
X288958Y265489D01*
X288980Y265516D01*
X288992Y265549D01*
X288992Y265586D01*
X288981Y265629D01*
X288960Y265677D01*
X288927Y265731D01*
X288883Y265789D01*
X288828Y265853D01*
X288762Y265921D01*
X289167Y266224D01*
X289250Y266144D01*
D02*
G37*
G36*
X309899Y264821D02*
X309816Y264882D01*
X309730Y264936D01*
X309641Y264984D01*
X309549Y265026D01*
X309454Y265061D01*
X309356Y265090D01*
X309255Y265113D01*
X309152Y265129D01*
X309045Y265139D01*
X308935Y265142D01*
Y265642D01*
X309018Y265646D01*
X309095Y265659D01*
X309167Y265682D01*
X309232Y265713D01*
X309291Y265753D01*
X309344Y265802D01*
X309392Y265859D01*
X309433Y265926D01*
X309469Y266002D01*
X309498Y266086D01*
X309899Y264821D01*
D02*
G37*
G36*
X256561Y263697D02*
X256487Y263713D01*
X256398Y263704D01*
X256294Y263672D01*
X256175Y263616D01*
X256042Y263535D01*
X255895Y263430D01*
X255732Y263301D01*
X255364Y262971D01*
X255157Y262769D01*
X254450Y263476D01*
X254594Y263625D01*
X254816Y263885D01*
X254893Y263995D01*
X254948Y264093D01*
X254981Y264178D01*
X254992Y264251D01*
X254980Y264311D01*
X254946Y264358D01*
X254890Y264392D01*
X256561Y263697D01*
D02*
G37*
G36*
X307566Y263669D02*
X307467Y263567D01*
X307311Y263383D01*
X307255Y263301D01*
X307212Y263227D01*
X307184Y263160D01*
X307170Y263100D01*
Y263047D01*
X307184Y263001D01*
X307212Y262962D01*
X306505Y263669D01*
X306544Y263641D01*
X306590Y263627D01*
X306643D01*
X306703Y263641D01*
X306770Y263669D01*
X306845Y263712D01*
X306926Y263768D01*
X307014Y263839D01*
X307212Y264023D01*
X307566Y263669D01*
D02*
G37*
G36*
X263952Y264358D02*
X263918Y264311D01*
X263906Y264251D01*
X263917Y264178D01*
X263949Y264093D01*
X264004Y263995D01*
X264082Y263885D01*
X264181Y263761D01*
X264447Y263476D01*
X263740Y262769D01*
X263534Y262971D01*
X263003Y263430D01*
X262855Y263535D01*
X262722Y263616D01*
X262604Y263672D01*
X262500Y263704D01*
X262411Y263713D01*
X262336Y263697D01*
X264008Y264392D01*
X263952Y264358D01*
D02*
G37*
G36*
X264447Y261169D02*
X264301Y261019D01*
X264076Y260757D01*
X263996Y260646D01*
X263939Y260548D01*
X263904Y260463D01*
X263891Y260391D01*
X263899Y260332D01*
X263931Y260286D01*
X263984Y260254D01*
X262336Y260925D01*
X262408Y260911D01*
X262495Y260921D01*
X262597Y260955D01*
X262715Y261014D01*
X262848Y261097D01*
X262996Y261205D01*
X263337Y261492D01*
X263740Y261876D01*
X264447Y261169D01*
D02*
G37*
G36*
X255366Y261672D02*
X255902Y261205D01*
X256050Y261097D01*
X256183Y261014D01*
X256300Y260955D01*
X256402Y260921D01*
X256490Y260911D01*
X256562Y260925D01*
X254914Y260254D01*
X254967Y260286D01*
X254998Y260332D01*
X255007Y260391D01*
X254994Y260463D01*
X254959Y260548D01*
X254901Y260646D01*
X254822Y260757D01*
X254720Y260881D01*
X254450Y261169D01*
X255157Y261876D01*
X255366Y261672D01*
D02*
G37*
G36*
X299490Y259974D02*
X299538Y259917D01*
X299590Y259865D01*
X299649Y259821D01*
X299712Y259784D01*
X299760Y259763D01*
X299804Y259789D01*
X299840Y259821D01*
X299866Y259859D01*
X299881Y259901D01*
X299886Y259949D01*
Y259723D01*
X299936Y259712D01*
X300021Y259702D01*
X300112Y259699D01*
Y259199D01*
X300021Y259195D01*
X299936Y259185D01*
X299886Y259175D01*
Y258949D01*
X299881Y258996D01*
X299866Y259039D01*
X299840Y259076D01*
X299804Y259109D01*
X299760Y259135D01*
X299712Y259114D01*
X299649Y259076D01*
X299590Y259032D01*
X299538Y258981D01*
X299490Y258923D01*
X299448Y258859D01*
Y259197D01*
X299374Y259199D01*
Y259699D01*
X299448Y259701D01*
Y260039D01*
X299490Y259974D01*
D02*
G37*
G36*
X294886Y258781D02*
X294844Y258763D01*
X294807Y258735D01*
X294775Y258697D01*
X294747Y258647D01*
X294725Y258588D01*
X294707Y258517D01*
X294695Y258436D01*
X294688Y258345D01*
X294685Y258243D01*
X294185D01*
X294182Y258342D01*
X294175Y258430D01*
X294163Y258507D01*
X294145Y258575D01*
X294123Y258631D01*
X294095Y258677D01*
X294062Y258712D01*
X294025Y258737D01*
X293983Y258751D01*
X293935Y258755D01*
X294934Y258788D01*
X294886Y258781D01*
D02*
G37*
G36*
X294764Y257435D02*
X294839Y257381D01*
X294925Y257331D01*
X295022Y257285D01*
X295131Y257242D01*
X295251Y257202D01*
X295525Y257131D01*
X295678Y257101D01*
X295843Y257074D01*
X294505Y256103D01*
X294526Y256249D01*
X294537Y256386D01*
X294539Y256516D01*
X294531Y256637D01*
X294514Y256750D01*
X294488Y256856D01*
X294452Y256953D01*
X294407Y257042D01*
X294353Y257122D01*
X294289Y257195D01*
X294700Y257491D01*
X294764Y257435D01*
D02*
G37*
D13*
X304788Y414828D02*
X306102Y416142D01*
X304198Y414828D02*
X304788D01*
X303937Y414567D02*
X304198Y414828D01*
X306102Y416142D02*
Y417126D01*
X255512Y420382D02*
X255602Y420472D01*
X255512Y417292D02*
Y420382D01*
X292181Y305567D02*
X294488Y307874D01*
Y307874D01*
X292181Y305310D02*
Y305567D01*
X287791Y300920D02*
X292181Y305310D01*
X287791Y300792D02*
Y300920D01*
X244488Y336221D02*
Y339764D01*
X258062Y335154D02*
X260539Y332677D01*
X258062Y335154D02*
Y335888D01*
X257802Y336148D02*
X258062Y335888D01*
X260539Y327165D02*
Y332677D01*
Y321654D02*
Y327165D01*
X228740Y396063D02*
X228921Y396244D01*
Y418291D01*
X229134Y418504D01*
X309842Y416429D02*
Y417126D01*
X310524Y415748D02*
X312902D01*
X313583Y416429D02*
Y417126D01*
X309842Y416429D02*
X310524Y415748D01*
X312902D02*
X313583Y416429D01*
Y416357D02*
Y417126D01*
Y416357D02*
X314264Y415675D01*
X315821D01*
X317717Y413779D01*
X254929Y268857D02*
X255513D01*
X254343Y276431D02*
X254984Y275791D01*
X253150Y273550D02*
X254343D01*
X255390Y264197D02*
X256390Y265197D01*
X254984Y274190D02*
X256584D01*
X254343Y273550D02*
X254984Y274190D01*
X255390Y263709D02*
Y264197D01*
X251204Y263046D02*
Y267395D01*
X254804Y263123D02*
X255390Y263709D01*
X251204Y263046D02*
X252727Y261523D01*
X256584Y274190D02*
X257169Y273605D01*
X252804Y266732D02*
X254929Y268857D01*
X257246Y275791D02*
X258769Y274268D01*
X252727Y261523D02*
X254804D01*
X255513Y268857D02*
X258769Y272114D01*
Y274268D01*
X254804Y261523D02*
X255390Y260937D01*
Y260449D02*
Y260937D01*
X252804Y263709D02*
X253390Y263123D01*
X255390Y260449D02*
X256390Y259449D01*
X254850Y270457D02*
X257169Y272776D01*
Y273605D01*
X253390Y263123D02*
X254804D01*
X252804Y263709D02*
Y266732D01*
X254984Y275791D02*
X257246D01*
X251204Y267395D02*
X254266Y270457D01*
X253150Y276431D02*
X254343D01*
X254266Y270457D02*
X254850D01*
X262508Y265197D02*
X263508Y264197D01*
X265849Y263123D02*
X265849Y263123D01*
X267970D02*
X268556Y263709D01*
Y263969D02*
X269410Y264823D01*
X268556Y263709D02*
Y263969D01*
X264094Y263123D02*
X265849D01*
X263508Y263709D02*
X264094Y263123D01*
X269410Y264823D02*
X271555D01*
X262508Y259449D02*
X263508Y260449D01*
X269094Y259823D02*
X271555D01*
X268512Y260405D02*
Y260937D01*
Y260405D02*
X269094Y259823D01*
X265849Y263123D02*
X267970D01*
X266512Y261523D02*
X267926D01*
X268512Y260937D01*
X264094Y261523D02*
X266512D01*
X266512Y261523D01*
X263508Y260937D02*
X264094Y261523D01*
X263508Y263709D02*
Y264197D01*
Y260449D02*
Y260937D01*
X282587Y426862D02*
Y431496D01*
Y426862D02*
X284646Y424803D01*
X325522Y378809D02*
X325590Y378878D01*
X321329Y378809D02*
X325522D01*
X321260Y378740D02*
X321329Y378809D01*
X263295Y382677D02*
X263386Y382587D01*
Y379921D02*
Y382587D01*
X257480Y382980D02*
Y386221D01*
X257177Y382677D02*
X257480Y382980D01*
X296850Y364961D02*
X298819Y362992D01*
X296850Y364961D02*
Y374016D01*
D18*
X290945Y344781D02*
Y346457D01*
X275676Y329220D02*
X289532Y343076D01*
X272903Y329220D02*
X275676D01*
X289532Y343369D02*
X290945Y344781D01*
X289532Y343076D02*
Y343369D01*
X275984Y326378D02*
X289764Y340158D01*
X270079Y327165D02*
X270515D01*
X271303Y326378D02*
X275984D01*
X270515Y327165D02*
X271303Y326378D01*
X304134Y409449D02*
X306102Y407480D01*
X303937Y409449D02*
X304134D01*
X306102Y406496D02*
Y407480D01*
X260236Y416929D02*
X261720Y418413D01*
Y420472D01*
X306043Y285728D02*
X306299Y285472D01*
Y281496D02*
Y285472D01*
X237795Y339764D02*
X241024D01*
X241024Y339764D01*
X244488Y329134D02*
X247638Y332283D01*
Y339764D01*
X251102D01*
X235039Y321957D02*
X235130Y322047D01*
X238976D01*
X283942Y313470D02*
X286614Y316142D01*
X286614D01*
X283893Y313470D02*
X283942D01*
X264272Y324134D02*
X266349Y322057D01*
Y314019D02*
Y322057D01*
X266929Y324893D02*
Y325197D01*
X263718Y306755D02*
X268021Y302451D01*
X266929Y324893D02*
X267849Y323973D01*
X266349Y314019D02*
X271956Y308412D01*
X263718Y306755D02*
Y320060D01*
X267849Y316240D02*
X272978Y311111D01*
X267849Y316240D02*
Y323973D01*
X312205Y304331D02*
X315445D01*
Y298819D02*
Y304331D01*
Y293307D02*
Y298819D01*
X287008Y275197D02*
X287195Y275010D01*
X292037D02*
X292224Y274823D01*
X287195Y275010D02*
X292037D01*
X291620Y278459D02*
X298537D01*
X289370Y280709D02*
X291620Y278459D01*
X298537D02*
X300787Y280709D01*
X294435Y257402D02*
Y259053D01*
Y257402D02*
X295669Y256168D01*
Y255906D02*
Y256168D01*
X292224Y259823D02*
X293666D01*
X294435Y259053D01*
X282283Y283374D02*
X284949Y280709D01*
X282283Y283374D02*
Y283465D01*
X284646Y286221D02*
X289461D01*
X274659Y282927D02*
X276612D01*
X278831Y280709D01*
X266604Y269754D02*
X271486D01*
X266535Y269685D02*
X266604Y269754D01*
X271486D02*
X271555Y269823D01*
X275266Y299321D02*
X280315Y294272D01*
Y290158D02*
Y294272D01*
X289764Y334646D02*
X292321Y337203D01*
X296262D01*
X295081Y332876D02*
X300588D01*
X289370Y327165D02*
X295081Y332876D01*
X328778Y375112D02*
Y376022D01*
X325590Y373878D02*
X327543D01*
X328778Y375112D01*
Y376022D02*
X329134Y376378D01*
X335558Y366859D02*
X343307Y359110D01*
X330689Y383878D02*
X335558Y379009D01*
Y366859D02*
Y379009D01*
X343307Y346457D02*
Y359110D01*
X325590Y368878D02*
X330728D01*
X340676Y358930D01*
Y344363D02*
Y358930D01*
X299208Y314661D02*
X311232D01*
X321563Y304331D01*
X251575Y321654D02*
X254421D01*
X251575Y327165D02*
X254421D01*
X251575Y332677D02*
X254421D01*
X273228Y314961D02*
X274998Y313191D01*
X275396D01*
X229528Y321957D02*
Y325197D01*
X374410Y287008D02*
X375590Y288189D01*
Y290248D01*
X261720Y420472D02*
X261811Y420563D01*
X290067Y356299D02*
X293307D01*
X289673Y356693D02*
X290067Y356299D01*
X283465Y356602D02*
X283555Y356693D01*
X283465Y353512D02*
Y356602D01*
X281737Y417717D02*
X297017Y432996D01*
X280137Y417717D02*
X281737D01*
X297638Y431496D02*
X346850D01*
X281102Y414961D02*
X297638Y431496D01*
X297017Y432996D02*
X349071D01*
X277165Y414745D02*
X280137Y417717D01*
X277165Y404724D02*
Y414745D01*
X310236Y406890D02*
Y409449D01*
X309842Y406496D02*
X310236Y406890D01*
X275996Y431969D02*
Y433453D01*
X274803Y434646D02*
Y434646D01*
X275996Y431969D02*
X276468Y431496D01*
X274803Y434646D02*
X275996Y433453D01*
X353150Y380217D02*
X353445Y379921D01*
X353150Y380217D02*
Y383071D01*
X363030Y359018D02*
X364211D01*
X364567Y358661D01*
X359055Y362992D02*
X363030Y359018D01*
X376772Y363205D02*
X376984Y362992D01*
X376772Y363205D02*
Y365323D01*
X283465Y305118D02*
X287855Y309508D01*
Y309636D01*
X279567Y309016D02*
Y309144D01*
Y309016D02*
X283465Y305118D01*
Y301575D02*
Y305118D01*
X308268Y290945D02*
X317143D01*
X318784Y292586D01*
Y296040D01*
X321563Y298819D01*
X320866Y287008D02*
Y292610D01*
X321563Y293307D01*
X306043Y260728D02*
Y262500D01*
X308935Y265392D01*
X310274D01*
X310630Y265748D01*
X288939Y266098D02*
Y266967D01*
X288583Y267323D02*
X288939Y266967D01*
X290214Y264823D02*
X292224D01*
X288939Y266098D02*
X290214Y264823D01*
Y269823D02*
X292224D01*
X288892Y271145D02*
X290214Y269823D01*
X288892Y271145D02*
Y271990D01*
X288536Y272347D02*
X288892Y271990D01*
X300112Y259449D02*
X301043Y260380D01*
X298425Y259449D02*
X300112D01*
X301043Y260380D02*
Y260728D01*
X362205Y267717D02*
Y288537D01*
X356980Y289173D02*
X361569D01*
X362205Y288537D01*
X355906Y290248D02*
X356980Y289173D01*
X353150Y272047D02*
X355118Y274016D01*
Y281102D01*
X320866Y272047D02*
X353150D01*
X317323Y275590D02*
X320866Y272047D01*
X317323Y275590D02*
X322835Y281102D01*
X337402D01*
X340898Y379740D02*
X343301Y382144D01*
X340551Y377559D02*
X340898Y377905D01*
Y379740D01*
X343301Y383200D02*
X343979Y383878D01*
X343301Y382144D02*
Y383200D01*
X343979Y383878D02*
X345276D01*
X346063Y365354D02*
Y368200D01*
X345276Y368878D02*
X345385D01*
X346063Y368200D01*
X359055Y368504D02*
X359055Y368504D01*
X353937Y368504D02*
X359055D01*
X362199Y366104D02*
X362556Y365748D01*
X359055Y368504D02*
X361455Y366104D01*
X362199D01*
X376590Y368110D02*
X376984Y368504D01*
X374410Y368110D02*
X376590D01*
X369063Y369615D02*
X369756D01*
X370866Y368504D01*
X368770Y369907D02*
Y377665D01*
X365763Y380671D02*
X368770Y377665D01*
Y369907D02*
X369063Y369615D01*
Y364103D02*
X369756D01*
X370866Y362992D01*
X368770Y364396D02*
X369063Y364103D01*
X368770Y364396D02*
Y369907D01*
X362081Y380671D02*
X362374Y380964D01*
X362081Y380671D02*
X365763D01*
X362374Y380964D02*
Y383661D01*
X358624Y380671D02*
X362081D01*
X355081Y377128D02*
X358624Y380671D01*
X345568Y377128D02*
X355081D01*
X345276Y377421D02*
X345568Y377128D01*
X345276Y377421D02*
Y378878D01*
X367270Y369907D02*
Y377043D01*
X365142Y379171D02*
X367270Y377043D01*
X366977Y369615D02*
X367270Y369907D01*
X365173Y368504D02*
X366284Y369615D01*
X366977D01*
X367270Y364396D02*
Y369907D01*
X366977Y364103D02*
X367270Y364396D01*
X365173Y362992D02*
X366284Y364103D01*
X366977D01*
X362081Y379171D02*
X365142D01*
X362081D02*
X362374Y378878D01*
Y376181D02*
Y378878D01*
X359245Y379171D02*
X362081D01*
X355702Y375628D02*
X359245Y379171D01*
X345568Y375628D02*
X355702D01*
X345276Y373878D02*
Y375335D01*
X345568Y375628D01*
X352362Y349055D02*
X352655Y348762D01*
X362935D01*
X352362Y349055D02*
Y355512D01*
Y340512D02*
Y346969D01*
X352655Y347262D01*
X363556D01*
X368770Y352475D01*
Y364396D01*
X362935Y348762D02*
X367270Y353097D01*
Y364396D01*
X340676Y344363D02*
X342520Y342520D01*
X325590Y383878D02*
X330689D01*
X346850Y431496D02*
X353268Y425078D01*
Y423897D02*
X353543Y423622D01*
X349071Y432996D02*
X353829Y428238D01*
X353268Y423897D02*
Y425078D01*
X243701Y367717D02*
X253418Y357999D01*
Y351907D02*
Y357999D01*
X251102Y349591D02*
X253418Y351907D01*
X250787Y351397D02*
Y353543D01*
X239764Y367717D02*
X243701D01*
X295579Y286221D02*
X300551D01*
X301043Y285728D01*
X295488Y280709D02*
Y286130D01*
X295579Y286221D01*
X301969Y293307D02*
X302006Y293270D01*
X301974Y290245D02*
X302006Y290277D01*
Y293270D01*
X301974Y286660D02*
Y290245D01*
X301043Y285728D02*
X301974Y286660D01*
X231693Y413743D02*
X232677Y412759D01*
Y399001D02*
X233663Y398015D01*
X231693Y413743D02*
Y414567D01*
X232677Y399001D02*
Y412759D01*
X234252Y400394D02*
Y418504D01*
Y400394D02*
X235433Y399213D01*
Y382047D02*
Y399213D01*
X233663Y381616D02*
Y398015D01*
X235433Y382047D02*
X239764Y377716D01*
X229764D02*
X233663Y381616D01*
X231496Y335433D02*
Y347638D01*
Y335433D02*
X267717Y299213D01*
X268118Y296690D02*
X274176D01*
X268021Y302451D02*
X268199D01*
X259690Y305118D02*
X268118Y296690D01*
X248425Y305118D02*
X259690D01*
X267717Y299213D02*
X270472D01*
X270581Y299321D02*
X275266D01*
X270472Y299213D02*
X270581Y299321D01*
X225984Y353395D02*
X229764Y357174D01*
X225984Y319382D02*
X229528Y315839D01*
X225984Y319382D02*
Y353395D01*
X229764Y357174D02*
Y357716D01*
X229528Y315839D02*
X235039D01*
X235433Y312992D02*
Y315445D01*
X235039Y315839D02*
X235433Y315445D01*
X274898Y309310D02*
X275202D01*
X271956Y308412D02*
X273999D01*
X274898Y309310D01*
X279333Y317517D02*
X279722D01*
X277559Y319291D02*
X279333Y317517D01*
X289764Y340158D02*
X294646D01*
X300945Y346457D01*
X306102Y337992D02*
X313061D01*
X305906Y338189D02*
X306102Y337992D01*
X313061D02*
X313258Y337795D01*
X254561Y344541D02*
X255008Y344094D01*
X252132Y344541D02*
X254561D01*
X255008Y344094D02*
X255512D01*
X251102Y345571D02*
X252132Y344541D01*
X251102Y345571D02*
Y349591D01*
X239370Y350394D02*
X241024Y348740D01*
Y346063D02*
Y348740D01*
X247638Y346063D02*
X248324Y346750D01*
Y348944D01*
X248334D01*
X250787Y351397D01*
X244488Y346063D02*
Y348819D01*
X247244Y351575D01*
D21*
X374410Y355028D02*
D03*
Y348909D02*
D03*
X375590Y290248D02*
D03*
Y296366D02*
D03*
X355906D02*
D03*
Y290248D02*
D03*
X229528Y321957D02*
D03*
X235039D02*
D03*
X229528Y315839D02*
D03*
X235039D02*
D03*
D22*
X261327Y411024D02*
D03*
X255209D02*
D03*
X289673Y356693D02*
D03*
X283555D02*
D03*
X263295Y382677D02*
D03*
X257177D02*
D03*
X255602Y420472D02*
D03*
X261720D02*
D03*
X254421Y321654D02*
D03*
X260539D02*
D03*
X254421Y327165D02*
D03*
X260539D02*
D03*
X254421Y332677D02*
D03*
X260539D02*
D03*
X369988Y308661D02*
D03*
X363870D02*
D03*
X363870Y302362D02*
D03*
X369988D02*
D03*
X278831Y280709D02*
D03*
X284949D02*
D03*
X295579Y286221D02*
D03*
X289461D02*
D03*
X295488Y280709D02*
D03*
X289370D02*
D03*
X315445Y298819D02*
D03*
X321563D02*
D03*
X315445Y293307D02*
D03*
X321563D02*
D03*
X256390Y265197D02*
D03*
X262508D02*
D03*
X256390Y259449D02*
D03*
X262508D02*
D03*
X376984Y362992D02*
D03*
X370866D02*
D03*
X365173D02*
D03*
X359055D02*
D03*
Y368504D02*
D03*
X365173D02*
D03*
X370866D02*
D03*
X376984D02*
D03*
X321563Y304331D02*
D03*
X315445D02*
D03*
X276468Y431496D02*
D03*
X282587D02*
D03*
D23*
X345276Y383878D02*
D03*
Y378878D02*
D03*
Y373878D02*
D03*
Y368878D02*
D03*
X325590Y383878D02*
D03*
Y378878D02*
D03*
Y373878D02*
D03*
D24*
Y368878D02*
D03*
D49*
X296262Y337203D02*
D03*
X300588Y332876D02*
D03*
X287791Y300792D02*
D03*
X292181Y305310D02*
D03*
X287855Y309636D02*
D03*
X283465Y305118D02*
D03*
D103*
X352362Y340512D02*
D03*
Y355512D02*
D03*
D104*
X229764Y367717D02*
D03*
X239764D02*
D03*
X229764Y377716D02*
D03*
X239764D02*
D03*
Y387717D02*
D03*
X229764Y357716D02*
D03*
X239764D02*
D03*
D105*
X229764Y387717D02*
D03*
D106*
X270945Y346457D02*
D03*
D107*
X280945D02*
D03*
X290945D02*
D03*
X300945D02*
D03*
D108*
X328346Y402362D02*
D03*
D109*
Y422047D02*
D03*
D110*
X367717Y390551D02*
D03*
Y433858D02*
D03*
D111*
X248327Y417638D02*
D03*
X220177D02*
D03*
D112*
X239370Y418504D02*
D03*
X229134D02*
D03*
X231693Y414567D02*
D03*
X236811D02*
D03*
X234252Y418504D02*
D03*
D113*
X272903Y329220D02*
D03*
X270079Y327165D02*
D03*
X250394Y298819D02*
D03*
X253543Y301969D02*
D03*
X303937Y409449D02*
D03*
Y414567D02*
D03*
X255512Y417292D02*
D03*
X260236Y416929D02*
D03*
X247244Y406299D02*
D03*
X279921Y356693D02*
D03*
X306299Y281496D02*
D03*
X237795Y339764D02*
D03*
X238976Y322047D02*
D03*
X244488Y329134D02*
D03*
X286614Y316142D02*
D03*
X252362Y307874D02*
D03*
X311465Y310096D02*
D03*
X312205Y304331D02*
D03*
X287008Y275197D02*
D03*
X295669Y255906D02*
D03*
X282283Y283465D02*
D03*
X310236Y285433D02*
D03*
X284646Y286221D02*
D03*
X266535Y269685D02*
D03*
X275590Y292126D02*
D03*
X289764Y334646D02*
D03*
X289370Y327165D02*
D03*
X329134Y376378D02*
D03*
X338189Y371654D02*
D03*
X329134Y362992D02*
D03*
X327953Y355512D02*
D03*
X312598Y349213D02*
D03*
X306299Y342913D02*
D03*
X341732Y334252D02*
D03*
X311811D02*
D03*
X324803Y316142D02*
D03*
X294488Y307874D02*
D03*
X244488Y336221D02*
D03*
X251575Y321654D02*
D03*
Y327165D02*
D03*
Y332677D02*
D03*
X257802Y336148D02*
D03*
X257412Y316051D02*
D03*
X273228Y314961D02*
D03*
X229528Y325197D02*
D03*
X247085Y295510D02*
D03*
X252756Y283858D02*
D03*
X257087Y279528D02*
D03*
X274659Y282927D02*
D03*
X271260Y279528D02*
D03*
X261793Y274803D02*
D03*
X243307Y257874D02*
D03*
X238583Y285433D02*
D03*
X237008Y262992D02*
D03*
X234252Y278740D02*
D03*
X265354Y251969D02*
D03*
X265748Y247638D02*
D03*
X266142Y242126D02*
D03*
X266535Y237402D02*
D03*
X316929Y269291D02*
D03*
X342913Y277953D02*
D03*
X337795Y292126D02*
D03*
X348819Y287008D02*
D03*
X342126D02*
D03*
X326378Y256299D02*
D03*
X337402Y237008D02*
D03*
X338189Y248031D02*
D03*
X334646Y268504D02*
D03*
X345560Y269028D02*
D03*
X374410Y287008D02*
D03*
X376772Y284646D02*
D03*
X364567Y295669D02*
D03*
Y299606D02*
D03*
X293307Y356299D02*
D03*
X283465Y353512D02*
D03*
X228740Y396063D02*
D03*
X259449Y369291D02*
D03*
X319685Y359449D02*
D03*
X322835Y393307D02*
D03*
Y389370D02*
D03*
X302362Y372441D02*
D03*
X282283Y361811D02*
D03*
Y366142D02*
D03*
X281102Y414961D02*
D03*
X277165Y404724D02*
D03*
X285039Y414961D02*
D03*
X290551Y418504D02*
D03*
X317717Y413779D02*
D03*
X310236Y409449D02*
D03*
X274803Y434646D02*
D03*
Y438189D02*
D03*
X250787Y406299D02*
D03*
X254331D02*
D03*
X261417Y404331D02*
D03*
Y407480D02*
D03*
X360630Y308268D02*
D03*
Y311811D02*
D03*
X377559Y345669D02*
D03*
X374410D02*
D03*
X370866D02*
D03*
X377559Y355118D02*
D03*
X375590Y358661D02*
D03*
X372047D02*
D03*
X353150Y383071D02*
D03*
X364567Y358661D02*
D03*
X376772Y365323D02*
D03*
X283465Y301575D02*
D03*
X308268Y290945D02*
D03*
X320866Y287008D02*
D03*
X300787Y280709D02*
D03*
X310630Y265748D02*
D03*
X288583Y267323D02*
D03*
X288536Y272347D02*
D03*
X298425Y259449D02*
D03*
X362205Y267717D02*
D03*
X370472Y296457D02*
D03*
X375590Y300787D02*
D03*
X299208Y314661D02*
D03*
X355118Y281102D02*
D03*
X317323Y275590D02*
D03*
X337402Y281102D02*
D03*
X340551Y377559D02*
D03*
X346063Y365354D02*
D03*
X353937Y368504D02*
D03*
X362556Y365748D02*
D03*
X374410Y368110D02*
D03*
X253150Y276431D02*
D03*
Y273550D02*
D03*
X342520Y342520D02*
D03*
X343307Y346457D02*
D03*
X353829Y428238D02*
D03*
X353543Y423622D02*
D03*
X284646Y424803D02*
D03*
X250787Y353543D02*
D03*
X257087Y352362D02*
D03*
X301969Y293307D02*
D03*
X231496Y347638D02*
D03*
X268199Y302451D02*
D03*
X280315Y290158D02*
D03*
X235433Y312992D02*
D03*
X248425Y305118D02*
D03*
X274176Y296690D02*
D03*
X272978Y311111D02*
D03*
X266929Y325197D02*
D03*
X263718Y320060D02*
D03*
X264272Y324134D02*
D03*
X275202Y309310D02*
D03*
X277559Y319291D02*
D03*
X313258Y337795D02*
D03*
X305906Y338189D02*
D03*
X255512Y344094D02*
D03*
X239370Y350394D02*
D03*
X247244Y351575D02*
D03*
X269685Y352362D02*
D03*
X264961D02*
D03*
X261024D02*
D03*
X292913Y408661D02*
D03*
X288189D02*
D03*
X254724Y366535D02*
D03*
X298819Y359449D02*
D03*
X321260Y378740D02*
D03*
X326378Y365354D02*
D03*
Y359055D02*
D03*
X263386Y379921D02*
D03*
X257480Y386221D02*
D03*
X268504Y364567D02*
D03*
Y368898D02*
D03*
Y373622D02*
D03*
X298819Y362992D02*
D03*
X296850Y374016D02*
D03*
X255906Y237008D02*
D03*
X255512Y241732D02*
D03*
X255118Y246850D02*
D03*
X254724Y251181D02*
D03*
X312205Y396063D02*
D03*
X307480D02*
D03*
X302362Y427165D02*
D03*
X307480D02*
D03*
X312205D02*
D03*
X317323D02*
D03*
X337008Y417323D02*
D03*
Y427165D02*
D03*
D127*
X370177Y292913D02*
D03*
X361248Y296654D02*
D03*
Y289173D02*
D03*
X353445Y379921D02*
D03*
X362374Y376181D02*
D03*
Y383661D02*
D03*
D128*
X306043Y285728D02*
D03*
X301043D02*
D03*
Y260728D02*
D03*
X306043D02*
D03*
D129*
X292224Y274823D02*
D03*
Y269823D02*
D03*
Y264823D02*
D03*
Y259823D02*
D03*
X271555Y274823D02*
D03*
Y269823D02*
D03*
Y264823D02*
D03*
D130*
Y259823D02*
D03*
D131*
X275396Y313191D02*
D03*
X283893Y313470D02*
D03*
X279722Y317517D02*
D03*
X279567Y309144D02*
D03*
D132*
X244488Y339764D02*
D03*
X247638D02*
D03*
Y346063D02*
D03*
X244488D02*
D03*
D133*
X251102Y339764D02*
D03*
X241024D02*
D03*
X251102Y346063D02*
D03*
X241024D02*
D03*
D134*
X343307Y421457D02*
D03*
Y402953D02*
D03*
D135*
X306102Y417126D02*
D03*
X309842D02*
D03*
X313583D02*
D03*
Y406496D02*
D03*
X309842D02*
D03*
X306102D02*
D03*
M02*
