G04*
G04 #@! TF.GenerationSoftware,Altium Limited,Altium Designer,22.0.2 (36)*
G04*
G04 Layer_Color=2752767*
%FSLAX25Y25*%
%MOIN*%
G70*
G04*
G04 #@! TF.SameCoordinates,5891F61C-6817-4B1F-B1E3-DF0E04F861FB*
G04*
G04*
G04 #@! TF.FilePolarity,Positive*
G04*
G01*
G75*
%ADD13C,0.01000*%
%ADD150C,0.00200*%
%ADD151C,0.01500*%
%ADD152C,0.01600*%
%ADD153C,0.01400*%
D13*
X76782Y616975D02*
G03*
X76782Y616975I-3333J0D01*
G01*
X70115Y601975D02*
X73448Y598642D01*
X76782Y601975D01*
X73448Y605309D02*
X76782Y601975D01*
X70115D02*
X73448Y605309D01*
X70115Y583642D02*
X73448Y585309D01*
X76782Y583642D01*
X75115Y586975D02*
X76782Y583642D01*
X75115Y586975D02*
X76782Y590309D01*
X73448Y588642D02*
X76782Y590309D01*
X70115D02*
X73448Y588642D01*
X70115Y590309D02*
X71782Y586975D01*
X70115Y583642D02*
X71782Y586975D01*
X71448Y569976D02*
X75448D01*
Y573976D01*
X71448D02*
X75448D01*
X71448Y569976D02*
Y573976D01*
X70115Y568642D02*
X76782D01*
Y575309D01*
X70115D02*
X76782D01*
X70115Y568642D02*
Y575309D01*
X71782Y555309D02*
X73448Y553642D01*
X70115Y555309D02*
X71782D01*
X70115D02*
X71782Y556976D01*
X70115Y558642D02*
X71782Y556976D01*
X70115Y558642D02*
X71782D01*
X73448Y560309D01*
X75115Y558642D01*
X76782D01*
X75115Y556976D02*
X76782Y558642D01*
X75115Y556976D02*
X76782Y555309D01*
X75115D02*
X76782D01*
X73448Y553642D02*
X75115Y555309D01*
X70115Y538642D02*
X76782D01*
Y545309D01*
X70115D02*
X76782D01*
X70115Y538642D02*
Y545309D01*
X73448Y523642D02*
X76782Y530309D01*
X70115D02*
X76782D01*
X70115D02*
X73448Y523642D01*
X70115Y510309D02*
X71782D01*
X70115D02*
Y513642D01*
X71782D01*
Y515309D01*
X75115D01*
Y513642D02*
Y515309D01*
Y513642D02*
X76782D01*
Y510309D02*
Y513642D01*
X75115Y510309D02*
X76782D01*
X75115Y508642D02*
Y510309D01*
X71782Y508642D02*
X75115D01*
X71782D02*
Y510309D01*
X1281194Y618641D02*
X1282194Y619640D01*
X1284193D01*
X1285193Y618641D01*
Y614642D01*
X1284193Y613642D01*
X1282194D01*
X1281194Y614642D01*
Y618641D01*
X1287192Y613642D02*
Y614642D01*
X1288192D01*
Y613642D01*
X1287192D01*
X1296189Y619640D02*
X1294190Y618641D01*
X1292191Y616641D01*
Y614642D01*
X1293190Y613642D01*
X1295190D01*
X1296189Y614642D01*
Y615642D01*
X1295190Y616641D01*
X1292191D01*
X1298189Y618641D02*
X1299188Y619640D01*
X1301188D01*
X1302188Y618641D01*
Y614642D01*
X1301188Y613642D01*
X1299188D01*
X1298189Y614642D01*
Y618641D01*
X1304187D02*
X1305186Y619640D01*
X1307186D01*
X1308185Y618641D01*
Y614642D01*
X1307186Y613642D01*
X1305186D01*
X1304187Y614642D01*
Y618641D01*
X1310185Y613642D02*
Y617641D01*
X1311185D01*
X1312184Y616641D01*
Y613642D01*
Y616641D01*
X1313184Y617641D01*
X1314184Y616641D01*
Y613642D01*
X1316183D02*
Y617641D01*
X1317183D01*
X1318182Y616641D01*
Y613642D01*
Y616641D01*
X1319182Y617641D01*
X1320182Y616641D01*
Y613642D01*
X1330178D02*
X1328179Y615642D01*
Y617641D01*
X1330178Y619640D01*
X1337176Y613642D02*
X1333177D01*
X1337176Y617641D01*
Y618641D01*
X1336176Y619640D01*
X1334177D01*
X1333177Y618641D01*
X1339176D02*
X1340175Y619640D01*
X1342175D01*
X1343174Y618641D01*
Y617641D01*
X1342175Y616641D01*
X1341175D01*
X1342175D01*
X1343174Y615642D01*
Y614642D01*
X1342175Y613642D01*
X1340175D01*
X1339176Y614642D01*
X1345174Y613642D02*
Y614642D01*
X1346173D01*
Y613642D01*
X1345174D01*
X1354171Y619640D02*
X1352171Y618641D01*
X1350172Y616641D01*
Y614642D01*
X1351172Y613642D01*
X1353171D01*
X1354171Y614642D01*
Y615642D01*
X1353171Y616641D01*
X1350172D01*
X1360169Y613642D02*
X1356170D01*
X1360169Y617641D01*
Y618641D01*
X1359169Y619640D01*
X1357170D01*
X1356170Y618641D01*
X1362168Y613642D02*
Y617641D01*
X1363168D01*
X1364167Y616641D01*
Y613642D01*
Y616641D01*
X1365167Y617641D01*
X1366167Y616641D01*
Y613642D01*
X1368166D02*
X1370166D01*
X1369166D01*
Y617641D01*
X1368166D01*
X1373164Y613642D02*
X1375164D01*
X1374164D01*
Y619640D01*
X1373164D01*
X1378163Y613642D02*
X1380162Y615642D01*
Y617641D01*
X1378163Y619640D01*
X1281194Y601641D02*
X1285193D01*
X1281194Y586641D02*
X1285193D01*
X1281194Y571641D02*
X1285193D01*
X1281194Y556641D02*
X1285193D01*
X1281194Y541641D02*
X1285193D01*
X1281194Y526641D02*
X1285193D01*
X1281194Y511641D02*
X1285193D01*
X1172226Y613642D02*
X1174225D01*
X1173226D01*
Y619640D01*
X1172226Y618641D01*
X1177224Y613642D02*
Y614642D01*
X1178224D01*
Y613642D01*
X1177224D01*
X1182223Y618641D02*
X1183222Y619640D01*
X1185222D01*
X1186221Y618641D01*
Y614642D01*
X1185222Y613642D01*
X1183222D01*
X1182223Y614642D01*
Y618641D01*
X1188221D02*
X1189221Y619640D01*
X1191220D01*
X1192220Y618641D01*
Y614642D01*
X1191220Y613642D01*
X1189221D01*
X1188221Y614642D01*
Y618641D01*
X1194219D02*
X1195218Y619640D01*
X1197218D01*
X1198218Y618641D01*
Y614642D01*
X1197218Y613642D01*
X1195218D01*
X1194219Y614642D01*
Y618641D01*
X1200217Y613642D02*
Y617641D01*
X1201217D01*
X1202216Y616641D01*
Y613642D01*
Y616641D01*
X1203216Y617641D01*
X1204216Y616641D01*
Y613642D01*
X1206215D02*
Y617641D01*
X1207215D01*
X1208214Y616641D01*
Y613642D01*
Y616641D01*
X1209214Y617641D01*
X1210214Y616641D01*
Y613642D01*
X1220210D02*
X1218211Y615642D01*
Y617641D01*
X1220210Y619640D01*
X1223209Y618641D02*
X1224209Y619640D01*
X1226208D01*
X1227208Y618641D01*
Y617641D01*
X1226208Y616641D01*
X1225209D01*
X1226208D01*
X1227208Y615642D01*
Y614642D01*
X1226208Y613642D01*
X1224209D01*
X1223209Y614642D01*
X1229208D02*
X1230207Y613642D01*
X1232207D01*
X1233206Y614642D01*
Y618641D01*
X1232207Y619640D01*
X1230207D01*
X1229208Y618641D01*
Y617641D01*
X1230207Y616641D01*
X1233206D01*
X1235206Y613642D02*
Y614642D01*
X1236205D01*
Y613642D01*
X1235206D01*
X1240204Y618641D02*
X1241204Y619640D01*
X1243203D01*
X1244203Y618641D01*
Y617641D01*
X1243203Y616641D01*
X1242203D01*
X1243203D01*
X1244203Y615642D01*
Y614642D01*
X1243203Y613642D01*
X1241204D01*
X1240204Y614642D01*
X1246202Y619640D02*
X1250201D01*
Y618641D01*
X1246202Y614642D01*
Y613642D01*
X1252200D02*
Y617641D01*
X1253200D01*
X1254199Y616641D01*
Y613642D01*
Y616641D01*
X1255199Y617641D01*
X1256199Y616641D01*
Y613642D01*
X1258198D02*
X1260198D01*
X1259198D01*
Y617641D01*
X1258198D01*
X1263196Y613642D02*
X1265196D01*
X1264196D01*
Y619640D01*
X1263196D01*
X1268195Y613642D02*
X1270194Y615642D01*
Y617641D01*
X1268195Y619640D01*
X1172226Y601641D02*
X1176225D01*
X1172226Y586641D02*
X1176225D01*
X1172226Y571641D02*
X1176225D01*
X1172226Y556641D02*
X1176225D01*
X1172226Y541641D02*
X1176225D01*
X1172226Y526641D02*
X1176225D01*
X1172226Y511641D02*
X1176225D01*
X701163Y617641D02*
Y613642D01*
Y615642D01*
X702163Y616641D01*
X703162Y617641D01*
X704162D01*
X707161Y613642D02*
X709160D01*
X708161D01*
Y619640D01*
X707161Y618641D01*
X712159Y619640D02*
X716158D01*
Y618641D01*
X712159Y614642D01*
Y613642D01*
X718157Y618641D02*
X719157Y619640D01*
X721157D01*
X722156Y618641D01*
Y614642D01*
X721157Y613642D01*
X719157D01*
X718157Y614642D01*
Y618641D01*
X724156Y612642D02*
X728154D01*
X730154Y613642D02*
X732153D01*
X731153D01*
Y619640D01*
X730154Y618641D01*
X735152D02*
X736152Y619640D01*
X738151D01*
X739151Y618641D01*
Y614642D01*
X738151Y613642D01*
X736152D01*
X735152Y614642D01*
Y618641D01*
X741150D02*
X742150Y619640D01*
X744149D01*
X745149Y618641D01*
Y614642D01*
X744149Y613642D01*
X742150D01*
X741150Y614642D01*
Y618641D01*
X747148Y619640D02*
Y613642D01*
Y616641D01*
X748148Y617641D01*
X750147D01*
X751147Y616641D01*
Y613642D01*
X756145D02*
Y619640D01*
X753146Y616641D01*
X757145D01*
X759144Y618641D02*
X760144Y619640D01*
X762143D01*
X763143Y618641D01*
Y614642D01*
X762143Y613642D01*
X760144D01*
X759144Y614642D01*
Y618641D01*
X765142Y612642D02*
X769141D01*
X771140Y613642D02*
X773140D01*
X772140D01*
Y619640D01*
X771140Y618641D01*
X776139D02*
X777138Y619640D01*
X779138D01*
X780137Y618641D01*
Y614642D01*
X779138Y613642D01*
X777138D01*
X776139Y614642D01*
Y618641D01*
X782137D02*
X783137Y619640D01*
X785136D01*
X786135Y618641D01*
Y614642D01*
X785136Y613642D01*
X783137D01*
X782137Y614642D01*
Y618641D01*
X788135Y617641D02*
Y613642D01*
Y615642D01*
X789135Y616641D01*
X790134Y617641D01*
X791134D01*
X794133Y613642D02*
X796132D01*
X795133D01*
Y619640D01*
X794133Y618641D01*
X799131D02*
X800131Y619640D01*
X802130D01*
X803130Y618641D01*
Y614642D01*
X802130Y613642D01*
X800131D01*
X799131Y614642D01*
Y618641D01*
X805129D02*
X806129Y619640D01*
X808128D01*
X809128Y618641D01*
Y614642D01*
X808128Y613642D01*
X806129D01*
X805129Y614642D01*
Y618641D01*
X705162Y602641D02*
X702163D01*
X701163Y601641D01*
Y599642D01*
X702163Y598642D01*
X705162D01*
X707161Y603641D02*
X708161Y604640D01*
X710160D01*
X711160Y603641D01*
Y599642D01*
X710160Y598642D01*
X708161D01*
X707161Y599642D01*
Y603641D01*
X713159Y604640D02*
Y598642D01*
Y601641D01*
X714159Y602641D01*
X716158D01*
X717158Y601641D01*
Y598642D01*
X719157D02*
Y602641D01*
X722156D01*
X723156Y601641D01*
Y598642D01*
X729154Y604640D02*
X727155Y603641D01*
X725155Y601641D01*
Y599642D01*
X726155Y598642D01*
X728154D01*
X729154Y599642D01*
Y600642D01*
X728154Y601641D01*
X725155D01*
X731153Y603641D02*
X732153Y604640D01*
X734152D01*
X735152Y603641D01*
Y599642D01*
X734152Y598642D01*
X732153D01*
X731153Y599642D01*
Y603641D01*
X705162Y587641D02*
X702163D01*
X701163Y586641D01*
Y584642D01*
X702163Y583642D01*
X705162D01*
X707161D02*
X709160D01*
X708161D01*
Y589640D01*
X707161Y588641D01*
X712159Y589640D02*
X716158D01*
Y588641D01*
X712159Y584642D01*
Y583642D01*
X722156Y589640D02*
X718157D01*
Y586641D01*
X720157Y587641D01*
X721157D01*
X722156Y586641D01*
Y584642D01*
X721157Y583642D01*
X719157D01*
X718157Y584642D01*
X724156Y589640D02*
Y583642D01*
Y586641D01*
X725155Y587641D01*
X727155D01*
X728154Y586641D01*
Y583642D01*
X730154D02*
X732153D01*
X731153D01*
Y589640D01*
X730154Y588641D01*
X735152D02*
X736152Y589640D01*
X738151D01*
X739151Y588641D01*
Y584642D01*
X738151Y583642D01*
X736152D01*
X735152Y584642D01*
Y588641D01*
X741150D02*
X742150Y589640D01*
X744149D01*
X745149Y588641D01*
Y584642D01*
X744149Y583642D01*
X742150D01*
X741150Y584642D01*
Y588641D01*
X701163Y572641D02*
Y568642D01*
Y570642D01*
X702163Y571641D01*
X703162Y572641D01*
X704162D01*
X711160Y568642D02*
X707161D01*
X711160Y572641D01*
Y573641D01*
X710160Y574640D01*
X708161D01*
X707161Y573641D01*
X717158Y568642D02*
X713159D01*
X717158Y572641D01*
Y573641D01*
X716158Y574640D01*
X714159D01*
X713159Y573641D01*
X719157D02*
X720157Y574640D01*
X722156D01*
X723156Y573641D01*
Y569642D01*
X722156Y568642D01*
X720157D01*
X719157Y569642D01*
Y573641D01*
X725155Y567642D02*
X729154D01*
X731153Y573641D02*
X732153Y574640D01*
X734152D01*
X735152Y573641D01*
Y572641D01*
X734152Y571641D01*
X733153D01*
X734152D01*
X735152Y570642D01*
Y569642D01*
X734152Y568642D01*
X732153D01*
X731153Y569642D01*
X737151Y573641D02*
X738151Y574640D01*
X740150D01*
X741150Y573641D01*
Y569642D01*
X740150Y568642D01*
X738151D01*
X737151Y569642D01*
Y573641D01*
X743149D02*
X744149Y574640D01*
X746148D01*
X747148Y573641D01*
Y569642D01*
X746148Y568642D01*
X744149D01*
X743149Y569642D01*
Y573641D01*
X749148Y574640D02*
Y568642D01*
Y571641D01*
X750147Y572641D01*
X752146D01*
X753146Y571641D01*
Y568642D01*
X755146D02*
X757145D01*
X756145D01*
Y574640D01*
X755146Y573641D01*
X760144Y568642D02*
X762143D01*
X761144D01*
Y574640D01*
X760144Y573641D01*
X765142D02*
X766142Y574640D01*
X768141D01*
X769141Y573641D01*
Y569642D01*
X768141Y568642D01*
X766142D01*
X765142Y569642D01*
Y573641D01*
X771140Y572641D02*
Y568642D01*
Y570642D01*
X772140Y571641D01*
X773140Y572641D01*
X774139D01*
X777138Y568642D02*
X779138D01*
X778138D01*
Y574640D01*
X777138Y573641D01*
X782137D02*
X783137Y574640D01*
X785136D01*
X786135Y573641D01*
Y569642D01*
X785136Y568642D01*
X783137D01*
X782137Y569642D01*
Y573641D01*
X788135D02*
X789135Y574640D01*
X791134D01*
X792134Y573641D01*
Y569642D01*
X791134Y568642D01*
X789135D01*
X788135Y569642D01*
Y573641D01*
X703162Y553642D02*
X701163Y555642D01*
Y557641D01*
X703162Y559640D01*
X706161Y553642D02*
Y559640D01*
X708161Y557641D01*
X710160Y559640D01*
Y553642D01*
X712159D02*
X714159D01*
X713159D01*
Y557641D01*
X712159D01*
X717158D02*
X721157Y553642D01*
X719157Y555642D01*
X721157Y557641D01*
X717158Y553642D01*
X726155D02*
X724156D01*
X723156Y554642D01*
Y556641D01*
X724156Y557641D01*
X726155D01*
X727155Y556641D01*
Y555642D01*
X723156D01*
X733153Y559640D02*
Y553642D01*
X730154D01*
X729154Y554642D01*
Y556641D01*
X730154Y557641D01*
X733153D01*
X735152Y553642D02*
X737151Y555642D01*
Y557641D01*
X735152Y559640D01*
X705162Y542641D02*
X702163D01*
X701163Y541641D01*
Y539642D01*
X702163Y538642D01*
X705162D01*
X707161Y539642D02*
X708161Y538642D01*
X710160D01*
X711160Y539642D01*
Y543641D01*
X710160Y544640D01*
X708161D01*
X707161Y543641D01*
Y542641D01*
X708161Y541641D01*
X711160D01*
X713159Y543641D02*
X714159Y544640D01*
X716158D01*
X717158Y543641D01*
Y539642D01*
X716158Y538642D01*
X714159D01*
X713159Y539642D01*
Y543641D01*
X719157Y544640D02*
Y538642D01*
Y541641D01*
X720157Y542641D01*
X722156D01*
X723156Y541641D01*
Y538642D01*
X728154D02*
Y544640D01*
X725155Y541641D01*
X729154D01*
X731153Y543641D02*
X732153Y544640D01*
X734152D01*
X735152Y543641D01*
Y539642D01*
X734152Y538642D01*
X732153D01*
X731153Y539642D01*
Y543641D01*
X703162Y523642D02*
X701163Y525642D01*
Y527641D01*
X703162Y529640D01*
X706161Y523642D02*
Y529640D01*
X708161Y527641D01*
X710160Y529640D01*
Y523642D01*
X712159D02*
X714159D01*
X713159D01*
Y527641D01*
X712159D01*
X717158D02*
X721157Y523642D01*
X719157Y525642D01*
X721157Y527641D01*
X717158Y523642D01*
X726155D02*
X724156D01*
X723156Y524642D01*
Y526641D01*
X724156Y527641D01*
X726155D01*
X727155Y526641D01*
Y525642D01*
X723156D01*
X733153Y529640D02*
Y523642D01*
X730154D01*
X729154Y524642D01*
Y526641D01*
X730154Y527641D01*
X733153D01*
X735152Y523642D02*
X737151Y525642D01*
Y527641D01*
X735152Y529640D01*
X701163Y512641D02*
X703162Y508642D01*
X705162Y512641D01*
X711160Y514640D02*
X709160Y513641D01*
X707161Y511641D01*
Y509642D01*
X708161Y508642D01*
X710160D01*
X711160Y509642D01*
Y510642D01*
X710160Y511641D01*
X707161D01*
X713159Y513641D02*
X714159Y514640D01*
X716158D01*
X717158Y513641D01*
Y509642D01*
X716158Y508642D01*
X714159D01*
X713159Y509642D01*
Y513641D01*
X719157Y514640D02*
Y508642D01*
Y511641D01*
X720157Y512641D01*
X722156D01*
X723156Y511641D01*
Y508642D01*
X725155Y513641D02*
X726155Y514640D01*
X728154D01*
X729154Y513641D01*
Y512641D01*
X728154Y511641D01*
X727155D01*
X728154D01*
X729154Y510642D01*
Y509642D01*
X728154Y508642D01*
X726155D01*
X725155Y509642D01*
X731153Y513641D02*
X732153Y514640D01*
X734152D01*
X735152Y513641D01*
Y509642D01*
X734152Y508642D01*
X732153D01*
X731153Y509642D01*
Y513641D01*
X737151Y508642D02*
Y512641D01*
X738151D01*
X739151Y511641D01*
Y508642D01*
Y511641D01*
X740150Y512641D01*
X741150Y511641D01*
Y508642D01*
X743149Y513641D02*
X744149Y514640D01*
X746148D01*
X747148Y513641D01*
Y509642D01*
X746148Y508642D01*
X744149D01*
X743149Y509642D01*
Y513641D01*
X749148Y508642D02*
Y512641D01*
X750147D01*
X751147Y511641D01*
Y508642D01*
Y511641D01*
X752146Y512641D01*
X753146Y511641D01*
Y508642D01*
X755146Y512641D02*
X759144Y508642D01*
X757145Y510642D01*
X759144Y512641D01*
X755146Y508642D01*
X761144Y513641D02*
X762143Y514640D01*
X764143D01*
X765142Y513641D01*
Y509642D01*
X764143Y508642D01*
X762143D01*
X761144Y509642D01*
Y513641D01*
X626583Y613642D02*
Y619640D01*
X629582D01*
X630582Y618641D01*
Y616641D01*
X629582Y615642D01*
X626583D01*
X628583D02*
X630582Y613642D01*
X633581D02*
X635580D01*
X636580Y614642D01*
Y616641D01*
X635580Y617641D01*
X633581D01*
X632581Y616641D01*
Y614642D01*
X633581Y613642D01*
X638579Y617641D02*
Y614642D01*
X639579Y613642D01*
X642578D01*
Y617641D01*
X644577Y613642D02*
Y617641D01*
X647576D01*
X648576Y616641D01*
Y613642D01*
X654574Y619640D02*
Y613642D01*
X651575D01*
X650575Y614642D01*
Y616641D01*
X651575Y617641D01*
X654574D01*
X659573Y613642D02*
X657573D01*
X656573Y614642D01*
Y616641D01*
X657573Y617641D01*
X659573D01*
X660572Y616641D01*
Y615642D01*
X656573D01*
X666570Y619640D02*
Y613642D01*
X663571D01*
X662572Y614642D01*
Y616641D01*
X663571Y617641D01*
X666570D01*
X626583Y598642D02*
Y604640D01*
X629582D01*
X630582Y603641D01*
Y601641D01*
X629582Y600642D01*
X626583D01*
X628583D02*
X630582Y598642D01*
X633581D02*
X635580D01*
X636580Y599642D01*
Y601641D01*
X635580Y602641D01*
X633581D01*
X632581Y601641D01*
Y599642D01*
X633581Y598642D01*
X638579Y602641D02*
Y599642D01*
X639579Y598642D01*
X642578D01*
Y602641D01*
X644577Y598642D02*
Y602641D01*
X647576D01*
X648576Y601641D01*
Y598642D01*
X654574Y604640D02*
Y598642D01*
X651575D01*
X650575Y599642D01*
Y601641D01*
X651575Y602641D01*
X654574D01*
X659573Y598642D02*
X657573D01*
X656573Y599642D01*
Y601641D01*
X657573Y602641D01*
X659573D01*
X660572Y601641D01*
Y600642D01*
X656573D01*
X666570Y604640D02*
Y598642D01*
X663571D01*
X662572Y599642D01*
Y601641D01*
X663571Y602641D01*
X666570D01*
X626583Y583642D02*
Y589640D01*
X629582D01*
X630582Y588641D01*
Y586641D01*
X629582Y585642D01*
X626583D01*
X628583D02*
X630582Y583642D01*
X633581D02*
X635580D01*
X636580Y584642D01*
Y586641D01*
X635580Y587641D01*
X633581D01*
X632581Y586641D01*
Y584642D01*
X633581Y583642D01*
X638579Y587641D02*
Y584642D01*
X639579Y583642D01*
X642578D01*
Y587641D01*
X644577Y583642D02*
Y587641D01*
X647576D01*
X648576Y586641D01*
Y583642D01*
X654574Y589640D02*
Y583642D01*
X651575D01*
X650575Y584642D01*
Y586641D01*
X651575Y587641D01*
X654574D01*
X659573Y583642D02*
X657573D01*
X656573Y584642D01*
Y586641D01*
X657573Y587641D01*
X659573D01*
X660572Y586641D01*
Y585642D01*
X656573D01*
X666570Y589640D02*
Y583642D01*
X663571D01*
X662572Y584642D01*
Y586641D01*
X663571Y587641D01*
X666570D01*
X626583Y568642D02*
Y574640D01*
X629582D01*
X630582Y573641D01*
Y571641D01*
X629582Y570642D01*
X626583D01*
X628583D02*
X630582Y568642D01*
X633581D02*
X635580D01*
X636580Y569642D01*
Y571641D01*
X635580Y572641D01*
X633581D01*
X632581Y571641D01*
Y569642D01*
X633581Y568642D01*
X638579Y572641D02*
Y569642D01*
X639579Y568642D01*
X642578D01*
Y572641D01*
X644577Y568642D02*
Y572641D01*
X647576D01*
X648576Y571641D01*
Y568642D01*
X654574Y574640D02*
Y568642D01*
X651575D01*
X650575Y569642D01*
Y571641D01*
X651575Y572641D01*
X654574D01*
X659573Y568642D02*
X657573D01*
X656573Y569642D01*
Y571641D01*
X657573Y572641D01*
X659573D01*
X660572Y571641D01*
Y570642D01*
X656573D01*
X666570Y574640D02*
Y568642D01*
X663571D01*
X662572Y569642D01*
Y571641D01*
X663571Y572641D01*
X666570D01*
X628583Y553642D02*
X626583Y555642D01*
Y557641D01*
X628583Y559640D01*
X631582Y553642D02*
Y559640D01*
X633581Y557641D01*
X635580Y559640D01*
Y553642D01*
X637580D02*
X639579D01*
X638579D01*
Y557641D01*
X637580D01*
X642578D02*
X646577Y553642D01*
X644577Y555642D01*
X646577Y557641D01*
X642578Y553642D01*
X651575D02*
X649576D01*
X648576Y554642D01*
Y556641D01*
X649576Y557641D01*
X651575D01*
X652575Y556641D01*
Y555642D01*
X648576D01*
X658573Y559640D02*
Y553642D01*
X655574D01*
X654574Y554642D01*
Y556641D01*
X655574Y557641D01*
X658573D01*
X660572Y553642D02*
X662572Y555642D01*
Y557641D01*
X660572Y559640D01*
X626583Y538642D02*
Y544640D01*
X629582D01*
X630582Y543641D01*
Y541641D01*
X629582Y540642D01*
X626583D01*
X628583D02*
X630582Y538642D01*
X633581D02*
X635580D01*
X636580Y539642D01*
Y541641D01*
X635580Y542641D01*
X633581D01*
X632581Y541641D01*
Y539642D01*
X633581Y538642D01*
X638579Y542641D02*
Y539642D01*
X639579Y538642D01*
X642578D01*
Y542641D01*
X644577Y538642D02*
Y542641D01*
X647576D01*
X648576Y541641D01*
Y538642D01*
X654574Y544640D02*
Y538642D01*
X651575D01*
X650575Y539642D01*
Y541641D01*
X651575Y542641D01*
X654574D01*
X659573Y538642D02*
X657573D01*
X656573Y539642D01*
Y541641D01*
X657573Y542641D01*
X659573D01*
X660572Y541641D01*
Y540642D01*
X656573D01*
X666570Y544640D02*
Y538642D01*
X663571D01*
X662572Y539642D01*
Y541641D01*
X663571Y542641D01*
X666570D01*
X628583Y523642D02*
X626583Y525642D01*
Y527641D01*
X628583Y529640D01*
X631582Y523642D02*
Y529640D01*
X633581Y527641D01*
X635580Y529640D01*
Y523642D01*
X637580D02*
X639579D01*
X638579D01*
Y527641D01*
X637580D01*
X642578D02*
X646577Y523642D01*
X644577Y525642D01*
X646577Y527641D01*
X642578Y523642D01*
X651575D02*
X649576D01*
X648576Y524642D01*
Y526641D01*
X649576Y527641D01*
X651575D01*
X652575Y526641D01*
Y525642D01*
X648576D01*
X658573Y529640D02*
Y523642D01*
X655574D01*
X654574Y524642D01*
Y526641D01*
X655574Y527641D01*
X658573D01*
X660572Y523642D02*
X662572Y525642D01*
Y527641D01*
X660572Y529640D01*
X626583Y508642D02*
Y514640D01*
X629582D01*
X630582Y513641D01*
Y511641D01*
X629582Y510642D01*
X626583D01*
X628583D02*
X630582Y508642D01*
X633581D02*
X635580D01*
X636580Y509642D01*
Y511641D01*
X635580Y512641D01*
X633581D01*
X632581Y511641D01*
Y509642D01*
X633581Y508642D01*
X638579Y512641D02*
Y509642D01*
X639579Y508642D01*
X642578D01*
Y512641D01*
X644577Y508642D02*
Y512641D01*
X647576D01*
X648576Y511641D01*
Y508642D01*
X654574Y514640D02*
Y508642D01*
X651575D01*
X650575Y509642D01*
Y511641D01*
X651575Y512641D01*
X654574D01*
X659573Y508642D02*
X657573D01*
X656573Y509642D01*
Y511641D01*
X657573Y512641D01*
X659573D01*
X660572Y511641D01*
Y510642D01*
X656573D01*
X666570Y514640D02*
Y508642D01*
X663571D01*
X662572Y509642D01*
Y511641D01*
X663571Y512641D01*
X666570D01*
X567598Y613642D02*
Y619640D01*
X570597D01*
X571597Y618641D01*
Y616641D01*
X570597Y615642D01*
X567598D01*
X574596Y617641D02*
X576595D01*
X577595Y616641D01*
Y613642D01*
X574596D01*
X573596Y614642D01*
X574596Y615642D01*
X577595D01*
X583593Y619640D02*
Y613642D01*
X580594D01*
X579595Y614642D01*
Y616641D01*
X580594Y617641D01*
X583593D01*
X567598Y598642D02*
Y604640D01*
X570597D01*
X571597Y603641D01*
Y601641D01*
X570597Y600642D01*
X567598D01*
X574596Y602641D02*
X576595D01*
X577595Y601641D01*
Y598642D01*
X574596D01*
X573596Y599642D01*
X574596Y600642D01*
X577595D01*
X583593Y604640D02*
Y598642D01*
X580594D01*
X579595Y599642D01*
Y601641D01*
X580594Y602641D01*
X583593D01*
X567598Y583642D02*
Y589640D01*
X570597D01*
X571597Y588641D01*
Y586641D01*
X570597Y585642D01*
X567598D01*
X574596Y587641D02*
X576595D01*
X577595Y586641D01*
Y583642D01*
X574596D01*
X573596Y584642D01*
X574596Y585642D01*
X577595D01*
X583593Y589640D02*
Y583642D01*
X580594D01*
X579595Y584642D01*
Y586641D01*
X580594Y587641D01*
X583593D01*
X567598Y568642D02*
Y574640D01*
X570597D01*
X571597Y573641D01*
Y571641D01*
X570597Y570642D01*
X567598D01*
X574596Y572641D02*
X576595D01*
X577595Y571641D01*
Y568642D01*
X574596D01*
X573596Y569642D01*
X574596Y570642D01*
X577595D01*
X583593Y574640D02*
Y568642D01*
X580594D01*
X579595Y569642D01*
Y571641D01*
X580594Y572641D01*
X583593D01*
X567598Y553642D02*
Y559640D01*
X570597D01*
X571597Y558641D01*
Y556641D01*
X570597Y555642D01*
X567598D01*
X574596Y557641D02*
X576595D01*
X577595Y556641D01*
Y553642D01*
X574596D01*
X573596Y554642D01*
X574596Y555642D01*
X577595D01*
X583593Y559640D02*
Y553642D01*
X580594D01*
X579595Y554642D01*
Y556641D01*
X580594Y557641D01*
X583593D01*
X567598Y538642D02*
Y544640D01*
X570597D01*
X571597Y543641D01*
Y541641D01*
X570597Y540642D01*
X567598D01*
X574596Y542641D02*
X576595D01*
X577595Y541641D01*
Y538642D01*
X574596D01*
X573596Y539642D01*
X574596Y540642D01*
X577595D01*
X583593Y544640D02*
Y538642D01*
X580594D01*
X579595Y539642D01*
Y541641D01*
X580594Y542641D01*
X583593D01*
X567598Y523642D02*
Y529640D01*
X570597D01*
X571597Y528641D01*
Y526641D01*
X570597Y525642D01*
X567598D01*
X574596Y527641D02*
X576595D01*
X577595Y526641D01*
Y523642D01*
X574596D01*
X573596Y524642D01*
X574596Y525642D01*
X577595D01*
X583593Y529640D02*
Y523642D01*
X580594D01*
X579595Y524642D01*
Y526641D01*
X580594Y527641D01*
X583593D01*
X567598Y514640D02*
Y510642D01*
X569598Y508642D01*
X571597Y510642D01*
Y514640D01*
X573596Y508642D02*
X575596D01*
X574596D01*
Y512641D01*
X573596D01*
X579595D02*
X581594D01*
X582593Y511641D01*
Y508642D01*
X579595D01*
X578595Y509642D01*
X579595Y510642D01*
X582593D01*
X417643Y619640D02*
X421642D01*
X419643D01*
Y613642D01*
X424641D02*
X426640D01*
X427640Y614642D01*
Y616641D01*
X426640Y617641D01*
X424641D01*
X423641Y616641D01*
Y614642D01*
X424641Y613642D01*
X429639Y611643D02*
Y617641D01*
X432639D01*
X433638Y616641D01*
Y614642D01*
X432639Y613642D01*
X429639D01*
X441636Y619640D02*
Y613642D01*
X445634D01*
X448633Y617641D02*
X450633D01*
X451632Y616641D01*
Y613642D01*
X448633D01*
X447634Y614642D01*
X448633Y615642D01*
X451632D01*
X453632Y617641D02*
Y614642D01*
X454631Y613642D01*
X457630D01*
Y612642D01*
X456631Y611643D01*
X455631D01*
X457630Y613642D02*
Y617641D01*
X462629Y613642D02*
X460629D01*
X459630Y614642D01*
Y616641D01*
X460629Y617641D01*
X462629D01*
X463628Y616641D01*
Y615642D01*
X459630D01*
X465628Y617641D02*
Y613642D01*
Y615642D01*
X466628Y616641D01*
X467627Y617641D01*
X468627D01*
X477624Y616641D02*
X481623D01*
X489620Y619640D02*
Y613642D01*
X492619D01*
X493619Y614642D01*
Y615642D01*
X492619Y616641D01*
X489620D01*
X492619D01*
X493619Y617641D01*
Y618641D01*
X492619Y619640D01*
X489620D01*
X496618Y613642D02*
X498617D01*
X499617Y614642D01*
Y616641D01*
X498617Y617641D01*
X496618D01*
X495618Y616641D01*
Y614642D01*
X496618Y613642D01*
X502616Y618641D02*
Y617641D01*
X501616D01*
X503616D01*
X502616D01*
Y614642D01*
X503616Y613642D01*
X507614Y618641D02*
Y617641D01*
X506614D01*
X508614D01*
X507614D01*
Y614642D01*
X508614Y613642D01*
X512613D02*
X514612D01*
X515612Y614642D01*
Y616641D01*
X514612Y617641D01*
X512613D01*
X511613Y616641D01*
Y614642D01*
X512613Y613642D01*
X517611D02*
Y617641D01*
X518611D01*
X519610Y616641D01*
Y613642D01*
Y616641D01*
X520610Y617641D01*
X521610Y616641D01*
Y613642D01*
X529607Y619640D02*
Y613642D01*
X533606D01*
X536605Y617641D02*
X538604D01*
X539604Y616641D01*
Y613642D01*
X536605D01*
X535605Y614642D01*
X536605Y615642D01*
X539604D01*
X541603Y617641D02*
Y614642D01*
X542603Y613642D01*
X545602D01*
Y612642D01*
X544602Y611643D01*
X543603D01*
X545602Y613642D02*
Y617641D01*
X550600Y613642D02*
X548601D01*
X547601Y614642D01*
Y616641D01*
X548601Y617641D01*
X550600D01*
X551600Y616641D01*
Y615642D01*
X547601D01*
X553599Y617641D02*
Y613642D01*
Y615642D01*
X554599Y616641D01*
X555599Y617641D01*
X556598D01*
X417643Y604640D02*
X421642D01*
X419643D01*
Y598642D01*
X424641D02*
X426640D01*
X427640Y599642D01*
Y601641D01*
X426640Y602641D01*
X424641D01*
X423641Y601641D01*
Y599642D01*
X424641Y598642D01*
X429639Y596643D02*
Y602641D01*
X432639D01*
X433638Y601641D01*
Y599642D01*
X432639Y598642D01*
X429639D01*
X441636Y604640D02*
Y598642D01*
X445634D01*
X448633Y602641D02*
X450633D01*
X451632Y601641D01*
Y598642D01*
X448633D01*
X447634Y599642D01*
X448633Y600642D01*
X451632D01*
X453632Y602641D02*
Y599642D01*
X454631Y598642D01*
X457630D01*
Y597643D01*
X456631Y596643D01*
X455631D01*
X457630Y598642D02*
Y602641D01*
X462629Y598642D02*
X460629D01*
X459630Y599642D01*
Y601641D01*
X460629Y602641D01*
X462629D01*
X463628Y601641D01*
Y600642D01*
X459630D01*
X465628Y602641D02*
Y598642D01*
Y600642D01*
X466628Y601641D01*
X467627Y602641D01*
X468627D01*
X477624Y601641D02*
X481623D01*
X489620Y604640D02*
Y598642D01*
X492619D01*
X493619Y599642D01*
Y600642D01*
X492619Y601641D01*
X489620D01*
X492619D01*
X493619Y602641D01*
Y603641D01*
X492619Y604640D01*
X489620D01*
X496618Y598642D02*
X498617D01*
X499617Y599642D01*
Y601641D01*
X498617Y602641D01*
X496618D01*
X495618Y601641D01*
Y599642D01*
X496618Y598642D01*
X502616Y603641D02*
Y602641D01*
X501616D01*
X503616D01*
X502616D01*
Y599642D01*
X503616Y598642D01*
X507614Y603641D02*
Y602641D01*
X506614D01*
X508614D01*
X507614D01*
Y599642D01*
X508614Y598642D01*
X512613D02*
X514612D01*
X515612Y599642D01*
Y601641D01*
X514612Y602641D01*
X512613D01*
X511613Y601641D01*
Y599642D01*
X512613Y598642D01*
X517611D02*
Y602641D01*
X518611D01*
X519610Y601641D01*
Y598642D01*
Y601641D01*
X520610Y602641D01*
X521610Y601641D01*
Y598642D01*
X529607Y604640D02*
Y598642D01*
X533606D01*
X536605Y602641D02*
X538604D01*
X539604Y601641D01*
Y598642D01*
X536605D01*
X535605Y599642D01*
X536605Y600642D01*
X539604D01*
X541603Y602641D02*
Y599642D01*
X542603Y598642D01*
X545602D01*
Y597643D01*
X544602Y596643D01*
X543603D01*
X545602Y598642D02*
Y602641D01*
X550600Y598642D02*
X548601D01*
X547601Y599642D01*
Y601641D01*
X548601Y602641D01*
X550600D01*
X551600Y601641D01*
Y600642D01*
X547601D01*
X553599Y602641D02*
Y598642D01*
Y600642D01*
X554599Y601641D01*
X555599Y602641D01*
X556598D01*
X417643Y589640D02*
X421642D01*
X419643D01*
Y583642D01*
X424641D02*
X426640D01*
X427640Y584642D01*
Y586641D01*
X426640Y587641D01*
X424641D01*
X423641Y586641D01*
Y584642D01*
X424641Y583642D01*
X429639Y581643D02*
Y587641D01*
X432639D01*
X433638Y586641D01*
Y584642D01*
X432639Y583642D01*
X429639D01*
X441636Y589640D02*
Y583642D01*
X445634D01*
X448633Y587641D02*
X450633D01*
X451632Y586641D01*
Y583642D01*
X448633D01*
X447634Y584642D01*
X448633Y585642D01*
X451632D01*
X453632Y587641D02*
Y584642D01*
X454631Y583642D01*
X457630D01*
Y582643D01*
X456631Y581643D01*
X455631D01*
X457630Y583642D02*
Y587641D01*
X462629Y583642D02*
X460629D01*
X459630Y584642D01*
Y586641D01*
X460629Y587641D01*
X462629D01*
X463628Y586641D01*
Y585642D01*
X459630D01*
X465628Y587641D02*
Y583642D01*
Y585642D01*
X466628Y586641D01*
X467627Y587641D01*
X468627D01*
X477624Y586641D02*
X481623D01*
X489620Y589640D02*
Y583642D01*
X492619D01*
X493619Y584642D01*
Y585642D01*
X492619Y586641D01*
X489620D01*
X492619D01*
X493619Y587641D01*
Y588641D01*
X492619Y589640D01*
X489620D01*
X496618Y583642D02*
X498617D01*
X499617Y584642D01*
Y586641D01*
X498617Y587641D01*
X496618D01*
X495618Y586641D01*
Y584642D01*
X496618Y583642D01*
X502616Y588641D02*
Y587641D01*
X501616D01*
X503616D01*
X502616D01*
Y584642D01*
X503616Y583642D01*
X507614Y588641D02*
Y587641D01*
X506614D01*
X508614D01*
X507614D01*
Y584642D01*
X508614Y583642D01*
X512613D02*
X514612D01*
X515612Y584642D01*
Y586641D01*
X514612Y587641D01*
X512613D01*
X511613Y586641D01*
Y584642D01*
X512613Y583642D01*
X517611D02*
Y587641D01*
X518611D01*
X519610Y586641D01*
Y583642D01*
Y586641D01*
X520610Y587641D01*
X521610Y586641D01*
Y583642D01*
X529607Y589640D02*
Y583642D01*
X533606D01*
X536605Y587641D02*
X538604D01*
X539604Y586641D01*
Y583642D01*
X536605D01*
X535605Y584642D01*
X536605Y585642D01*
X539604D01*
X541603Y587641D02*
Y584642D01*
X542603Y583642D01*
X545602D01*
Y582643D01*
X544602Y581643D01*
X543603D01*
X545602Y583642D02*
Y587641D01*
X550600Y583642D02*
X548601D01*
X547601Y584642D01*
Y586641D01*
X548601Y587641D01*
X550600D01*
X551600Y586641D01*
Y585642D01*
X547601D01*
X553599Y587641D02*
Y583642D01*
Y585642D01*
X554599Y586641D01*
X555599Y587641D01*
X556598D01*
X417643Y574640D02*
X421642D01*
X419643D01*
Y568642D01*
X424641D02*
X426640D01*
X427640Y569642D01*
Y571641D01*
X426640Y572641D01*
X424641D01*
X423641Y571641D01*
Y569642D01*
X424641Y568642D01*
X429639Y566643D02*
Y572641D01*
X432639D01*
X433638Y571641D01*
Y569642D01*
X432639Y568642D01*
X429639D01*
X441636Y574640D02*
Y568642D01*
X445634D01*
X448633Y572641D02*
X450633D01*
X451632Y571641D01*
Y568642D01*
X448633D01*
X447634Y569642D01*
X448633Y570642D01*
X451632D01*
X453632Y572641D02*
Y569642D01*
X454631Y568642D01*
X457630D01*
Y567642D01*
X456631Y566643D01*
X455631D01*
X457630Y568642D02*
Y572641D01*
X462629Y568642D02*
X460629D01*
X459630Y569642D01*
Y571641D01*
X460629Y572641D01*
X462629D01*
X463628Y571641D01*
Y570642D01*
X459630D01*
X465628Y572641D02*
Y568642D01*
Y570642D01*
X466628Y571641D01*
X467627Y572641D01*
X468627D01*
X477624Y571641D02*
X481623D01*
X489620Y574640D02*
Y568642D01*
X492619D01*
X493619Y569642D01*
Y570642D01*
X492619Y571641D01*
X489620D01*
X492619D01*
X493619Y572641D01*
Y573641D01*
X492619Y574640D01*
X489620D01*
X496618Y568642D02*
X498617D01*
X499617Y569642D01*
Y571641D01*
X498617Y572641D01*
X496618D01*
X495618Y571641D01*
Y569642D01*
X496618Y568642D01*
X502616Y573641D02*
Y572641D01*
X501616D01*
X503616D01*
X502616D01*
Y569642D01*
X503616Y568642D01*
X507614Y573641D02*
Y572641D01*
X506614D01*
X508614D01*
X507614D01*
Y569642D01*
X508614Y568642D01*
X512613D02*
X514612D01*
X515612Y569642D01*
Y571641D01*
X514612Y572641D01*
X512613D01*
X511613Y571641D01*
Y569642D01*
X512613Y568642D01*
X517611D02*
Y572641D01*
X518611D01*
X519610Y571641D01*
Y568642D01*
Y571641D01*
X520610Y572641D01*
X521610Y571641D01*
Y568642D01*
X529607Y574640D02*
Y568642D01*
X533606D01*
X536605Y572641D02*
X538604D01*
X539604Y571641D01*
Y568642D01*
X536605D01*
X535605Y569642D01*
X536605Y570642D01*
X539604D01*
X541603Y572641D02*
Y569642D01*
X542603Y568642D01*
X545602D01*
Y567642D01*
X544602Y566643D01*
X543603D01*
X545602Y568642D02*
Y572641D01*
X550600Y568642D02*
X548601D01*
X547601Y569642D01*
Y571641D01*
X548601Y572641D01*
X550600D01*
X551600Y571641D01*
Y570642D01*
X547601D01*
X553599Y572641D02*
Y568642D01*
Y570642D01*
X554599Y571641D01*
X555599Y572641D01*
X556598D01*
X417643Y559640D02*
X421642D01*
X419643D01*
Y553642D01*
X424641D02*
X426640D01*
X427640Y554642D01*
Y556641D01*
X426640Y557641D01*
X424641D01*
X423641Y556641D01*
Y554642D01*
X424641Y553642D01*
X429639Y551643D02*
Y557641D01*
X432639D01*
X433638Y556641D01*
Y554642D01*
X432639Y553642D01*
X429639D01*
X441636Y559640D02*
Y553642D01*
X445634D01*
X448633Y557641D02*
X450633D01*
X451632Y556641D01*
Y553642D01*
X448633D01*
X447634Y554642D01*
X448633Y555642D01*
X451632D01*
X453632Y557641D02*
Y554642D01*
X454631Y553642D01*
X457630D01*
Y552642D01*
X456631Y551643D01*
X455631D01*
X457630Y553642D02*
Y557641D01*
X462629Y553642D02*
X460629D01*
X459630Y554642D01*
Y556641D01*
X460629Y557641D01*
X462629D01*
X463628Y556641D01*
Y555642D01*
X459630D01*
X465628Y557641D02*
Y553642D01*
Y555642D01*
X466628Y556641D01*
X467627Y557641D01*
X468627D01*
X477624Y556641D02*
X481623D01*
X489620Y559640D02*
Y553642D01*
X492619D01*
X493619Y554642D01*
Y555642D01*
X492619Y556641D01*
X489620D01*
X492619D01*
X493619Y557641D01*
Y558641D01*
X492619Y559640D01*
X489620D01*
X496618Y553642D02*
X498617D01*
X499617Y554642D01*
Y556641D01*
X498617Y557641D01*
X496618D01*
X495618Y556641D01*
Y554642D01*
X496618Y553642D01*
X502616Y558641D02*
Y557641D01*
X501616D01*
X503616D01*
X502616D01*
Y554642D01*
X503616Y553642D01*
X507614Y558641D02*
Y557641D01*
X506614D01*
X508614D01*
X507614D01*
Y554642D01*
X508614Y553642D01*
X512613D02*
X514612D01*
X515612Y554642D01*
Y556641D01*
X514612Y557641D01*
X512613D01*
X511613Y556641D01*
Y554642D01*
X512613Y553642D01*
X517611D02*
Y557641D01*
X518611D01*
X519610Y556641D01*
Y553642D01*
Y556641D01*
X520610Y557641D01*
X521610Y556641D01*
Y553642D01*
X529607Y559640D02*
Y553642D01*
X533606D01*
X536605Y557641D02*
X538604D01*
X539604Y556641D01*
Y553642D01*
X536605D01*
X535605Y554642D01*
X536605Y555642D01*
X539604D01*
X541603Y557641D02*
Y554642D01*
X542603Y553642D01*
X545602D01*
Y552642D01*
X544602Y551643D01*
X543603D01*
X545602Y553642D02*
Y557641D01*
X550600Y553642D02*
X548601D01*
X547601Y554642D01*
Y556641D01*
X548601Y557641D01*
X550600D01*
X551600Y556641D01*
Y555642D01*
X547601D01*
X553599Y557641D02*
Y553642D01*
Y555642D01*
X554599Y556641D01*
X555599Y557641D01*
X556598D01*
X417643Y544640D02*
X421642D01*
X419643D01*
Y538642D01*
X424641D02*
X426640D01*
X427640Y539642D01*
Y541641D01*
X426640Y542641D01*
X424641D01*
X423641Y541641D01*
Y539642D01*
X424641Y538642D01*
X429639Y536643D02*
Y542641D01*
X432639D01*
X433638Y541641D01*
Y539642D01*
X432639Y538642D01*
X429639D01*
X441636Y544640D02*
Y538642D01*
X445634D01*
X448633Y542641D02*
X450633D01*
X451632Y541641D01*
Y538642D01*
X448633D01*
X447634Y539642D01*
X448633Y540642D01*
X451632D01*
X453632Y542641D02*
Y539642D01*
X454631Y538642D01*
X457630D01*
Y537642D01*
X456631Y536643D01*
X455631D01*
X457630Y538642D02*
Y542641D01*
X462629Y538642D02*
X460629D01*
X459630Y539642D01*
Y541641D01*
X460629Y542641D01*
X462629D01*
X463628Y541641D01*
Y540642D01*
X459630D01*
X465628Y542641D02*
Y538642D01*
Y540642D01*
X466628Y541641D01*
X467627Y542641D01*
X468627D01*
X477624Y541641D02*
X481623D01*
X489620Y544640D02*
Y538642D01*
X492619D01*
X493619Y539642D01*
Y540642D01*
X492619Y541641D01*
X489620D01*
X492619D01*
X493619Y542641D01*
Y543641D01*
X492619Y544640D01*
X489620D01*
X496618Y538642D02*
X498617D01*
X499617Y539642D01*
Y541641D01*
X498617Y542641D01*
X496618D01*
X495618Y541641D01*
Y539642D01*
X496618Y538642D01*
X502616Y543641D02*
Y542641D01*
X501616D01*
X503616D01*
X502616D01*
Y539642D01*
X503616Y538642D01*
X507614Y543641D02*
Y542641D01*
X506614D01*
X508614D01*
X507614D01*
Y539642D01*
X508614Y538642D01*
X512613D02*
X514612D01*
X515612Y539642D01*
Y541641D01*
X514612Y542641D01*
X512613D01*
X511613Y541641D01*
Y539642D01*
X512613Y538642D01*
X517611D02*
Y542641D01*
X518611D01*
X519610Y541641D01*
Y538642D01*
Y541641D01*
X520610Y542641D01*
X521610Y541641D01*
Y538642D01*
X529607Y544640D02*
Y538642D01*
X533606D01*
X536605Y542641D02*
X538604D01*
X539604Y541641D01*
Y538642D01*
X536605D01*
X535605Y539642D01*
X536605Y540642D01*
X539604D01*
X541603Y542641D02*
Y539642D01*
X542603Y538642D01*
X545602D01*
Y537642D01*
X544602Y536643D01*
X543603D01*
X545602Y538642D02*
Y542641D01*
X550600Y538642D02*
X548601D01*
X547601Y539642D01*
Y541641D01*
X548601Y542641D01*
X550600D01*
X551600Y541641D01*
Y540642D01*
X547601D01*
X553599Y542641D02*
Y538642D01*
Y540642D01*
X554599Y541641D01*
X555599Y542641D01*
X556598D01*
X417643Y529640D02*
X421642D01*
X419643D01*
Y523642D01*
X424641D02*
X426640D01*
X427640Y524642D01*
Y526641D01*
X426640Y527641D01*
X424641D01*
X423641Y526641D01*
Y524642D01*
X424641Y523642D01*
X429639Y521643D02*
Y527641D01*
X432639D01*
X433638Y526641D01*
Y524642D01*
X432639Y523642D01*
X429639D01*
X441636Y529640D02*
Y523642D01*
X445634D01*
X448633Y527641D02*
X450633D01*
X451632Y526641D01*
Y523642D01*
X448633D01*
X447634Y524642D01*
X448633Y525642D01*
X451632D01*
X453632Y527641D02*
Y524642D01*
X454631Y523642D01*
X457630D01*
Y522643D01*
X456631Y521643D01*
X455631D01*
X457630Y523642D02*
Y527641D01*
X462629Y523642D02*
X460629D01*
X459630Y524642D01*
Y526641D01*
X460629Y527641D01*
X462629D01*
X463628Y526641D01*
Y525642D01*
X459630D01*
X465628Y527641D02*
Y523642D01*
Y525642D01*
X466628Y526641D01*
X467627Y527641D01*
X468627D01*
X477624Y526641D02*
X481623D01*
X489620Y529640D02*
Y523642D01*
X492619D01*
X493619Y524642D01*
Y525642D01*
X492619Y526641D01*
X489620D01*
X492619D01*
X493619Y527641D01*
Y528641D01*
X492619Y529640D01*
X489620D01*
X496618Y523642D02*
X498617D01*
X499617Y524642D01*
Y526641D01*
X498617Y527641D01*
X496618D01*
X495618Y526641D01*
Y524642D01*
X496618Y523642D01*
X502616Y528641D02*
Y527641D01*
X501616D01*
X503616D01*
X502616D01*
Y524642D01*
X503616Y523642D01*
X507614Y528641D02*
Y527641D01*
X506614D01*
X508614D01*
X507614D01*
Y524642D01*
X508614Y523642D01*
X512613D02*
X514612D01*
X515612Y524642D01*
Y526641D01*
X514612Y527641D01*
X512613D01*
X511613Y526641D01*
Y524642D01*
X512613Y523642D01*
X517611D02*
Y527641D01*
X518611D01*
X519610Y526641D01*
Y523642D01*
Y526641D01*
X520610Y527641D01*
X521610Y526641D01*
Y523642D01*
X529607Y529640D02*
Y523642D01*
X533606D01*
X536605Y527641D02*
X538604D01*
X539604Y526641D01*
Y523642D01*
X536605D01*
X535605Y524642D01*
X536605Y525642D01*
X539604D01*
X541603Y527641D02*
Y524642D01*
X542603Y523642D01*
X545602D01*
Y522643D01*
X544602Y521643D01*
X543603D01*
X545602Y523642D02*
Y527641D01*
X550600Y523642D02*
X548601D01*
X547601Y524642D01*
Y526641D01*
X548601Y527641D01*
X550600D01*
X551600Y526641D01*
Y525642D01*
X547601D01*
X553599Y527641D02*
Y523642D01*
Y525642D01*
X554599Y526641D01*
X555599Y527641D01*
X556598D01*
X417643Y514640D02*
X421642D01*
X419643D01*
Y508642D01*
X424641D02*
X426640D01*
X427640Y509642D01*
Y511641D01*
X426640Y512641D01*
X424641D01*
X423641Y511641D01*
Y509642D01*
X424641Y508642D01*
X429639Y506643D02*
Y512641D01*
X432639D01*
X433638Y511641D01*
Y509642D01*
X432639Y508642D01*
X429639D01*
X441636Y514640D02*
Y508642D01*
X445634D01*
X448633Y512641D02*
X450633D01*
X451632Y511641D01*
Y508642D01*
X448633D01*
X447634Y509642D01*
X448633Y510642D01*
X451632D01*
X453632Y512641D02*
Y509642D01*
X454631Y508642D01*
X457630D01*
Y507643D01*
X456631Y506643D01*
X455631D01*
X457630Y508642D02*
Y512641D01*
X462629Y508642D02*
X460629D01*
X459630Y509642D01*
Y511641D01*
X460629Y512641D01*
X462629D01*
X463628Y511641D01*
Y510642D01*
X459630D01*
X465628Y512641D02*
Y508642D01*
Y510642D01*
X466628Y511641D01*
X467627Y512641D01*
X468627D01*
X477624Y511641D02*
X481623D01*
X489620Y514640D02*
Y508642D01*
X492619D01*
X493619Y509642D01*
Y510642D01*
X492619Y511641D01*
X489620D01*
X492619D01*
X493619Y512641D01*
Y513641D01*
X492619Y514640D01*
X489620D01*
X496618Y508642D02*
X498617D01*
X499617Y509642D01*
Y511641D01*
X498617Y512641D01*
X496618D01*
X495618Y511641D01*
Y509642D01*
X496618Y508642D01*
X502616Y513641D02*
Y512641D01*
X501616D01*
X503616D01*
X502616D01*
Y509642D01*
X503616Y508642D01*
X507614Y513641D02*
Y512641D01*
X506614D01*
X508614D01*
X507614D01*
Y509642D01*
X508614Y508642D01*
X512613D02*
X514612D01*
X515612Y509642D01*
Y511641D01*
X514612Y512641D01*
X512613D01*
X511613Y511641D01*
Y509642D01*
X512613Y508642D01*
X517611D02*
Y512641D01*
X518611D01*
X519610Y511641D01*
Y508642D01*
Y511641D01*
X520610Y512641D01*
X521610Y511641D01*
Y508642D01*
X529607Y514640D02*
Y508642D01*
X533606D01*
X536605Y512641D02*
X538604D01*
X539604Y511641D01*
Y508642D01*
X536605D01*
X535605Y509642D01*
X536605Y510642D01*
X539604D01*
X541603Y512641D02*
Y509642D01*
X542603Y508642D01*
X545602D01*
Y507643D01*
X544602Y506643D01*
X543603D01*
X545602Y508642D02*
Y512641D01*
X550600Y508642D02*
X548601D01*
X547601Y509642D01*
Y511641D01*
X548601Y512641D01*
X550600D01*
X551600Y511641D01*
Y510642D01*
X547601D01*
X553599Y512641D02*
Y508642D01*
Y510642D01*
X554599Y511641D01*
X555599Y512641D01*
X556598D01*
X348262Y618641D02*
X347262Y619640D01*
X345263D01*
X344263Y618641D01*
Y617641D01*
X345263Y616641D01*
X347262D01*
X348262Y615642D01*
Y614642D01*
X347262Y613642D01*
X345263D01*
X344263Y614642D01*
X350261Y613642D02*
X352260D01*
X351261D01*
Y619640D01*
X350261D01*
X356259Y613642D02*
X358259D01*
X359258Y614642D01*
Y616641D01*
X358259Y617641D01*
X356259D01*
X355259Y616641D01*
Y614642D01*
X356259Y613642D01*
X362257Y618641D02*
Y617641D01*
X361258D01*
X363257D01*
X362257D01*
Y614642D01*
X363257Y613642D01*
X344263Y598642D02*
Y604640D01*
X347262D01*
X348262Y603641D01*
Y601641D01*
X347262Y600642D01*
X344263D01*
X346262D02*
X348262Y598642D01*
X351261D02*
X353260D01*
X354260Y599642D01*
Y601641D01*
X353260Y602641D01*
X351261D01*
X350261Y601641D01*
Y599642D01*
X351261Y598642D01*
X356259Y602641D02*
Y599642D01*
X357259Y598642D01*
X360258D01*
Y602641D01*
X362257Y598642D02*
Y602641D01*
X365256D01*
X366256Y601641D01*
Y598642D01*
X372254Y604640D02*
Y598642D01*
X369255D01*
X368255Y599642D01*
Y601641D01*
X369255Y602641D01*
X372254D01*
X344263Y583642D02*
Y589640D01*
X347262D01*
X348262Y588641D01*
Y586641D01*
X347262Y585642D01*
X344263D01*
X346262D02*
X348262Y583642D01*
X351261D02*
X353260D01*
X354260Y584642D01*
Y586641D01*
X353260Y587641D01*
X351261D01*
X350261Y586641D01*
Y584642D01*
X351261Y583642D01*
X356259Y587641D02*
Y584642D01*
X357259Y583642D01*
X360258D01*
Y587641D01*
X362257Y583642D02*
Y587641D01*
X365256D01*
X366256Y586641D01*
Y583642D01*
X372254Y589640D02*
Y583642D01*
X369255D01*
X368255Y584642D01*
Y586641D01*
X369255Y587641D01*
X372254D01*
X344263Y568642D02*
Y574640D01*
X347262D01*
X348262Y573641D01*
Y571641D01*
X347262Y570642D01*
X344263D01*
X346262D02*
X348262Y568642D01*
X351261D02*
X353260D01*
X354260Y569642D01*
Y571641D01*
X353260Y572641D01*
X351261D01*
X350261Y571641D01*
Y569642D01*
X351261Y568642D01*
X356259Y572641D02*
Y569642D01*
X357259Y568642D01*
X360258D01*
Y572641D01*
X362257Y568642D02*
Y572641D01*
X365256D01*
X366256Y571641D01*
Y568642D01*
X372254Y574640D02*
Y568642D01*
X369255D01*
X368255Y569642D01*
Y571641D01*
X369255Y572641D01*
X372254D01*
X344263Y553642D02*
Y559640D01*
X347262D01*
X348262Y558641D01*
Y556641D01*
X347262Y555642D01*
X344263D01*
X346262D02*
X348262Y553642D01*
X351261D02*
X353260D01*
X354260Y554642D01*
Y556641D01*
X353260Y557641D01*
X351261D01*
X350261Y556641D01*
Y554642D01*
X351261Y553642D01*
X356259Y557641D02*
Y554642D01*
X357259Y553642D01*
X360258D01*
Y557641D01*
X362257Y553642D02*
Y557641D01*
X365256D01*
X366256Y556641D01*
Y553642D01*
X372254Y559640D02*
Y553642D01*
X369255D01*
X368255Y554642D01*
Y556641D01*
X369255Y557641D01*
X372254D01*
X344263Y538642D02*
Y544640D01*
X347262D01*
X348262Y543641D01*
Y541641D01*
X347262Y540642D01*
X344263D01*
X346262D02*
X348262Y538642D01*
X351261D02*
X353260D01*
X354260Y539642D01*
Y541641D01*
X353260Y542641D01*
X351261D01*
X350261Y541641D01*
Y539642D01*
X351261Y538642D01*
X356259Y542641D02*
Y539642D01*
X357259Y538642D01*
X360258D01*
Y542641D01*
X362257Y538642D02*
Y542641D01*
X365256D01*
X366256Y541641D01*
Y538642D01*
X372254Y544640D02*
Y538642D01*
X369255D01*
X368255Y539642D01*
Y541641D01*
X369255Y542641D01*
X372254D01*
X344263Y523642D02*
Y529640D01*
X347262D01*
X348262Y528641D01*
Y526641D01*
X347262Y525642D01*
X344263D01*
X346262D02*
X348262Y523642D01*
X351261D02*
X353260D01*
X354260Y524642D01*
Y526641D01*
X353260Y527641D01*
X351261D01*
X350261Y526641D01*
Y524642D01*
X351261Y523642D01*
X356259Y527641D02*
Y524642D01*
X357259Y523642D01*
X360258D01*
Y527641D01*
X362257Y523642D02*
Y527641D01*
X365256D01*
X366256Y526641D01*
Y523642D01*
X372254Y529640D02*
Y523642D01*
X369255D01*
X368255Y524642D01*
Y526641D01*
X369255Y527641D01*
X372254D01*
X344263Y508642D02*
Y514640D01*
X347262D01*
X348262Y513641D01*
Y511641D01*
X347262Y510642D01*
X344263D01*
X346262D02*
X348262Y508642D01*
X351261D02*
X353260D01*
X354260Y509642D01*
Y511641D01*
X353260Y512641D01*
X351261D01*
X350261Y511641D01*
Y509642D01*
X351261Y508642D01*
X356259Y512641D02*
Y509642D01*
X357259Y508642D01*
X360258D01*
Y512641D01*
X362257Y508642D02*
Y512641D01*
X365256D01*
X366256Y511641D01*
Y508642D01*
X372254Y514640D02*
Y508642D01*
X369255D01*
X368255Y509642D01*
Y511641D01*
X369255Y512641D01*
X372254D01*
X293675Y613642D02*
Y619640D01*
X296674D01*
X297674Y618641D01*
Y616641D01*
X296674Y615642D01*
X293675D01*
X299674Y619640D02*
X303672D01*
X301673D01*
Y613642D01*
X305672Y619640D02*
Y613642D01*
Y616641D01*
X309670D01*
Y619640D01*
Y613642D01*
X293675Y598642D02*
Y604640D01*
X297674Y598642D01*
Y604640D01*
X299674Y598642D02*
Y604640D01*
X302673D01*
X303672Y603641D01*
Y601641D01*
X302673Y600642D01*
X299674D01*
X305672Y604640D02*
X309670D01*
X307671D01*
Y598642D01*
X311670Y604640D02*
Y598642D01*
Y601641D01*
X315668D01*
Y604640D01*
Y598642D01*
X293675Y583642D02*
Y589640D01*
X296674D01*
X297674Y588641D01*
Y586641D01*
X296674Y585642D01*
X293675D01*
X299674Y589640D02*
X303672D01*
X301673D01*
Y583642D01*
X305672Y589640D02*
Y583642D01*
Y586641D01*
X309670D01*
Y589640D01*
Y583642D01*
X293675Y568642D02*
Y574640D01*
X296674D01*
X297674Y573641D01*
Y571641D01*
X296674Y570642D01*
X293675D01*
X299674Y574640D02*
X303672D01*
X301673D01*
Y568642D01*
X305672Y574640D02*
Y568642D01*
Y571641D01*
X309670D01*
Y574640D01*
Y568642D01*
X293675Y553642D02*
Y559640D01*
X296674D01*
X297674Y558641D01*
Y556641D01*
X296674Y555642D01*
X293675D01*
X299674Y559640D02*
X303672D01*
X301673D01*
Y553642D01*
X305672Y559640D02*
Y553642D01*
Y556641D01*
X309670D01*
Y559640D01*
Y553642D01*
X293675Y538642D02*
Y544640D01*
X296674D01*
X297674Y543641D01*
Y541641D01*
X296674Y540642D01*
X293675D01*
X299674Y544640D02*
X303672D01*
X301673D01*
Y538642D01*
X305672Y544640D02*
Y538642D01*
Y541641D01*
X309670D01*
Y544640D01*
Y538642D01*
X293675Y523642D02*
Y529640D01*
X296674D01*
X297674Y528641D01*
Y526641D01*
X296674Y525642D01*
X293675D01*
X299674Y529640D02*
X303672D01*
X301673D01*
Y523642D01*
X305672Y529640D02*
Y523642D01*
Y526641D01*
X309670D01*
Y529640D01*
Y523642D01*
X293675Y508642D02*
Y514640D01*
X296674D01*
X297674Y513641D01*
Y511641D01*
X296674Y510642D01*
X293675D01*
X299674Y514640D02*
X303672D01*
X301673D01*
Y508642D01*
X305672Y514640D02*
Y508642D01*
Y511641D01*
X309670D01*
Y514640D01*
Y508642D01*
X183707Y618641D02*
X184707Y619640D01*
X186707D01*
X187706Y618641D01*
Y614642D01*
X186707Y613642D01*
X184707D01*
X183707Y614642D01*
Y618641D01*
X189706Y613642D02*
Y614642D01*
X190705D01*
Y613642D01*
X189706D01*
X197703D02*
Y619640D01*
X194704Y616641D01*
X198703D01*
X200702Y618641D02*
X201702Y619640D01*
X203701D01*
X204701Y618641D01*
Y614642D01*
X203701Y613642D01*
X201702D01*
X200702Y614642D01*
Y618641D01*
X206700D02*
X207700Y619640D01*
X209699D01*
X210699Y618641D01*
Y614642D01*
X209699Y613642D01*
X207700D01*
X206700Y614642D01*
Y618641D01*
X212698Y613642D02*
Y617641D01*
X213698D01*
X214698Y616641D01*
Y613642D01*
Y616641D01*
X215697Y617641D01*
X216697Y616641D01*
Y613642D01*
X218696D02*
Y617641D01*
X219696D01*
X220696Y616641D01*
Y613642D01*
Y616641D01*
X221695Y617641D01*
X222695Y616641D01*
Y613642D01*
X232692D02*
X230692Y615642D01*
Y617641D01*
X232692Y619640D01*
X235691Y613642D02*
X237690D01*
X236690D01*
Y619640D01*
X235691Y618641D01*
X244688Y619640D02*
X240689D01*
Y616641D01*
X242688Y617641D01*
X243688D01*
X244688Y616641D01*
Y614642D01*
X243688Y613642D01*
X241689D01*
X240689Y614642D01*
X246687Y613642D02*
Y614642D01*
X247687D01*
Y613642D01*
X246687D01*
X251686Y619640D02*
X255684D01*
Y618641D01*
X251686Y614642D01*
Y613642D01*
X261682Y619640D02*
X257684D01*
Y616641D01*
X259683Y617641D01*
X260683D01*
X261682Y616641D01*
Y614642D01*
X260683Y613642D01*
X258683D01*
X257684Y614642D01*
X263682Y613642D02*
Y617641D01*
X264681D01*
X265681Y616641D01*
Y613642D01*
Y616641D01*
X266681Y617641D01*
X267680Y616641D01*
Y613642D01*
X269680D02*
X271679D01*
X270679D01*
Y617641D01*
X269680D01*
X274678Y613642D02*
X276677D01*
X275678D01*
Y619640D01*
X274678D01*
X279677Y613642D02*
X281676Y615642D01*
Y617641D01*
X279677Y619640D01*
X183707Y603641D02*
X184707Y604640D01*
X186707D01*
X187706Y603641D01*
Y599642D01*
X186707Y598642D01*
X184707D01*
X183707Y599642D01*
Y603641D01*
X189706Y598642D02*
Y599642D01*
X190705D01*
Y598642D01*
X189706D01*
X198703Y604640D02*
X196703Y603641D01*
X194704Y601641D01*
Y599642D01*
X195704Y598642D01*
X197703D01*
X198703Y599642D01*
Y600642D01*
X197703Y601641D01*
X194704D01*
X200702Y603641D02*
X201702Y604640D01*
X203701D01*
X204701Y603641D01*
Y599642D01*
X203701Y598642D01*
X201702D01*
X200702Y599642D01*
Y603641D01*
X206700D02*
X207700Y604640D01*
X209699D01*
X210699Y603641D01*
Y599642D01*
X209699Y598642D01*
X207700D01*
X206700Y599642D01*
Y603641D01*
X212698Y598642D02*
Y602641D01*
X213698D01*
X214698Y601641D01*
Y598642D01*
Y601641D01*
X215697Y602641D01*
X216697Y601641D01*
Y598642D01*
X218696D02*
Y602641D01*
X219696D01*
X220696Y601641D01*
Y598642D01*
Y601641D01*
X221695Y602641D01*
X222695Y601641D01*
Y598642D01*
X232692D02*
X230692Y600642D01*
Y602641D01*
X232692Y604640D01*
X239689Y598642D02*
X235691D01*
X239689Y602641D01*
Y603641D01*
X238690Y604640D01*
X236690D01*
X235691Y603641D01*
X241689D02*
X242688Y604640D01*
X244688D01*
X245688Y603641D01*
Y602641D01*
X244688Y601641D01*
X243688D01*
X244688D01*
X245688Y600642D01*
Y599642D01*
X244688Y598642D01*
X242688D01*
X241689Y599642D01*
X247687Y598642D02*
Y599642D01*
X248687D01*
Y598642D01*
X247687D01*
X256684Y604640D02*
X254685Y603641D01*
X252685Y601641D01*
Y599642D01*
X253685Y598642D01*
X255684D01*
X256684Y599642D01*
Y600642D01*
X255684Y601641D01*
X252685D01*
X262682Y598642D02*
X258683D01*
X262682Y602641D01*
Y603641D01*
X261682Y604640D01*
X259683D01*
X258683Y603641D01*
X264681Y598642D02*
Y602641D01*
X265681D01*
X266681Y601641D01*
Y598642D01*
Y601641D01*
X267680Y602641D01*
X268680Y601641D01*
Y598642D01*
X270679D02*
X272679D01*
X271679D01*
Y602641D01*
X270679D01*
X275678Y598642D02*
X277677D01*
X276677D01*
Y604640D01*
X275678D01*
X280676Y598642D02*
X282676Y600642D01*
Y602641D01*
X280676Y604640D01*
X183707Y583642D02*
X185707D01*
X184707D01*
Y589640D01*
X183707Y588641D01*
X188706Y583642D02*
Y584642D01*
X189706D01*
Y583642D01*
X188706D01*
X193704Y588641D02*
X194704Y589640D01*
X196703D01*
X197703Y588641D01*
Y584642D01*
X196703Y583642D01*
X194704D01*
X193704Y584642D01*
Y588641D01*
X199702D02*
X200702Y589640D01*
X202701D01*
X203701Y588641D01*
Y584642D01*
X202701Y583642D01*
X200702D01*
X199702Y584642D01*
Y588641D01*
X205700D02*
X206700Y589640D01*
X208699D01*
X209699Y588641D01*
Y584642D01*
X208699Y583642D01*
X206700D01*
X205700Y584642D01*
Y588641D01*
X211699Y583642D02*
Y587641D01*
X212698D01*
X213698Y586641D01*
Y583642D01*
Y586641D01*
X214698Y587641D01*
X215697Y586641D01*
Y583642D01*
X217696D02*
Y587641D01*
X218696D01*
X219696Y586641D01*
Y583642D01*
Y586641D01*
X220696Y587641D01*
X221695Y586641D01*
Y583642D01*
X231692D02*
X229693Y585642D01*
Y587641D01*
X231692Y589640D01*
X234691Y588641D02*
X235691Y589640D01*
X237690D01*
X238690Y588641D01*
Y587641D01*
X237690Y586641D01*
X236690D01*
X237690D01*
X238690Y585642D01*
Y584642D01*
X237690Y583642D01*
X235691D01*
X234691Y584642D01*
X240689D02*
X241689Y583642D01*
X243688D01*
X244688Y584642D01*
Y588641D01*
X243688Y589640D01*
X241689D01*
X240689Y588641D01*
Y587641D01*
X241689Y586641D01*
X244688D01*
X246687Y583642D02*
Y584642D01*
X247687D01*
Y583642D01*
X246687D01*
X251686Y588641D02*
X252685Y589640D01*
X254685D01*
X255684Y588641D01*
Y587641D01*
X254685Y586641D01*
X253685D01*
X254685D01*
X255684Y585642D01*
Y584642D01*
X254685Y583642D01*
X252685D01*
X251686Y584642D01*
X257684Y589640D02*
X261682D01*
Y588641D01*
X257684Y584642D01*
Y583642D01*
X263682D02*
Y587641D01*
X264681D01*
X265681Y586641D01*
Y583642D01*
Y586641D01*
X266681Y587641D01*
X267680Y586641D01*
Y583642D01*
X269680D02*
X271679D01*
X270679D01*
Y587641D01*
X269680D01*
X274678Y583642D02*
X276677D01*
X275678D01*
Y589640D01*
X274678D01*
X279677Y583642D02*
X281676Y585642D01*
Y587641D01*
X279677Y589640D01*
X183707Y568642D02*
X185707D01*
X184707D01*
Y574640D01*
X183707Y573641D01*
X188706Y568642D02*
Y569642D01*
X189706D01*
Y568642D01*
X188706D01*
X193704D02*
X195704D01*
X194704D01*
Y574640D01*
X193704Y573641D01*
X198703D02*
X199702Y574640D01*
X201702D01*
X202701Y573641D01*
Y569642D01*
X201702Y568642D01*
X199702D01*
X198703Y569642D01*
Y573641D01*
X204701D02*
X205700Y574640D01*
X207700D01*
X208699Y573641D01*
Y569642D01*
X207700Y568642D01*
X205700D01*
X204701Y569642D01*
Y573641D01*
X210699Y568642D02*
Y572641D01*
X211699D01*
X212698Y571641D01*
Y568642D01*
Y571641D01*
X213698Y572641D01*
X214698Y571641D01*
Y568642D01*
X216697D02*
Y572641D01*
X217696D01*
X218696Y571641D01*
Y568642D01*
Y571641D01*
X219696Y572641D01*
X220696Y571641D01*
Y568642D01*
X230692D02*
X228693Y570642D01*
Y572641D01*
X230692Y574640D01*
X236690Y568642D02*
Y574640D01*
X233691Y571641D01*
X237690D01*
X239689Y573641D02*
X240689Y574640D01*
X242688D01*
X243688Y573641D01*
Y572641D01*
X242688Y571641D01*
X241689D01*
X242688D01*
X243688Y570642D01*
Y569642D01*
X242688Y568642D01*
X240689D01*
X239689Y569642D01*
X245688Y568642D02*
Y569642D01*
X246687D01*
Y568642D01*
X245688D01*
X250686Y573641D02*
X251686Y574640D01*
X253685D01*
X254685Y573641D01*
Y572641D01*
X253685Y571641D01*
X252685D01*
X253685D01*
X254685Y570642D01*
Y569642D01*
X253685Y568642D01*
X251686D01*
X250686Y569642D01*
X256684Y568642D02*
X258683D01*
X257684D01*
Y574640D01*
X256684Y573641D01*
X261682Y568642D02*
Y572641D01*
X262682D01*
X263682Y571641D01*
Y568642D01*
Y571641D01*
X264681Y572641D01*
X265681Y571641D01*
Y568642D01*
X267680D02*
X269680D01*
X268680D01*
Y572641D01*
X267680D01*
X272679Y568642D02*
X274678D01*
X273678D01*
Y574640D01*
X272679D01*
X277677Y568642D02*
X279677Y570642D01*
Y572641D01*
X277677Y574640D01*
X183707Y553642D02*
X185707D01*
X184707D01*
Y559640D01*
X183707Y558641D01*
X188706Y553642D02*
Y554642D01*
X189706D01*
Y553642D01*
X188706D01*
X193704Y559640D02*
X197703D01*
Y558641D01*
X193704Y554642D01*
Y553642D01*
X199702Y558641D02*
X200702Y559640D01*
X202701D01*
X203701Y558641D01*
Y554642D01*
X202701Y553642D01*
X200702D01*
X199702Y554642D01*
Y558641D01*
X205700D02*
X206700Y559640D01*
X208699D01*
X209699Y558641D01*
Y554642D01*
X208699Y553642D01*
X206700D01*
X205700Y554642D01*
Y558641D01*
X211699Y553642D02*
Y557641D01*
X212698D01*
X213698Y556641D01*
Y553642D01*
Y556641D01*
X214698Y557641D01*
X215697Y556641D01*
Y553642D01*
X217696D02*
Y557641D01*
X218696D01*
X219696Y556641D01*
Y553642D01*
Y556641D01*
X220696Y557641D01*
X221695Y556641D01*
Y553642D01*
X231692D02*
X229693Y555642D01*
Y557641D01*
X231692Y559640D01*
X238690D02*
X236690Y558641D01*
X234691Y556641D01*
Y554642D01*
X235691Y553642D01*
X237690D01*
X238690Y554642D01*
Y555642D01*
X237690Y556641D01*
X234691D01*
X244688Y559640D02*
X242688Y558641D01*
X240689Y556641D01*
Y554642D01*
X241689Y553642D01*
X243688D01*
X244688Y554642D01*
Y555642D01*
X243688Y556641D01*
X240689D01*
X246687Y553642D02*
Y554642D01*
X247687D01*
Y553642D01*
X246687D01*
X251686Y554642D02*
X252685Y553642D01*
X254685D01*
X255684Y554642D01*
Y558641D01*
X254685Y559640D01*
X252685D01*
X251686Y558641D01*
Y557641D01*
X252685Y556641D01*
X255684D01*
X257684Y558641D02*
X258683Y559640D01*
X260683D01*
X261682Y558641D01*
Y557641D01*
X260683Y556641D01*
X259683D01*
X260683D01*
X261682Y555642D01*
Y554642D01*
X260683Y553642D01*
X258683D01*
X257684Y554642D01*
X263682Y553642D02*
Y557641D01*
X264681D01*
X265681Y556641D01*
Y553642D01*
Y556641D01*
X266681Y557641D01*
X267680Y556641D01*
Y553642D01*
X269680D02*
X271679D01*
X270679D01*
Y557641D01*
X269680D01*
X274678Y553642D02*
X276677D01*
X275678D01*
Y559640D01*
X274678D01*
X279677Y553642D02*
X281676Y555642D01*
Y557641D01*
X279677Y559640D01*
X183707Y543641D02*
X184707Y544640D01*
X186707D01*
X187706Y543641D01*
Y539642D01*
X186707Y538642D01*
X184707D01*
X183707Y539642D01*
Y543641D01*
X189706Y538642D02*
Y539642D01*
X190705D01*
Y538642D01*
X189706D01*
X197703D02*
Y544640D01*
X194704Y541641D01*
X198703D01*
X200702Y543641D02*
X201702Y544640D01*
X203701D01*
X204701Y543641D01*
Y539642D01*
X203701Y538642D01*
X201702D01*
X200702Y539642D01*
Y543641D01*
X206700D02*
X207700Y544640D01*
X209699D01*
X210699Y543641D01*
Y539642D01*
X209699Y538642D01*
X207700D01*
X206700Y539642D01*
Y543641D01*
X212698Y538642D02*
Y542641D01*
X213698D01*
X214698Y541641D01*
Y538642D01*
Y541641D01*
X215697Y542641D01*
X216697Y541641D01*
Y538642D01*
X218696D02*
Y542641D01*
X219696D01*
X220696Y541641D01*
Y538642D01*
Y541641D01*
X221695Y542641D01*
X222695Y541641D01*
Y538642D01*
X232692D02*
X230692Y540642D01*
Y542641D01*
X232692Y544640D01*
X235691Y538642D02*
X237690D01*
X236690D01*
Y544640D01*
X235691Y543641D01*
X244688Y544640D02*
X240689D01*
Y541641D01*
X242688Y542641D01*
X243688D01*
X244688Y541641D01*
Y539642D01*
X243688Y538642D01*
X241689D01*
X240689Y539642D01*
X246687Y538642D02*
Y539642D01*
X247687D01*
Y538642D01*
X246687D01*
X251686Y544640D02*
X255684D01*
Y543641D01*
X251686Y539642D01*
Y538642D01*
X261682Y544640D02*
X257684D01*
Y541641D01*
X259683Y542641D01*
X260683D01*
X261682Y541641D01*
Y539642D01*
X260683Y538642D01*
X258683D01*
X257684Y539642D01*
X263682Y538642D02*
Y542641D01*
X264681D01*
X265681Y541641D01*
Y538642D01*
Y541641D01*
X266681Y542641D01*
X267680Y541641D01*
Y538642D01*
X269680D02*
X271679D01*
X270679D01*
Y542641D01*
X269680D01*
X274678Y538642D02*
X276677D01*
X275678D01*
Y544640D01*
X274678D01*
X279677Y538642D02*
X281676Y540642D01*
Y542641D01*
X279677Y544640D01*
X183707Y528641D02*
X184707Y529640D01*
X186707D01*
X187706Y528641D01*
Y524642D01*
X186707Y523642D01*
X184707D01*
X183707Y524642D01*
Y528641D01*
X189706Y523642D02*
Y524642D01*
X190705D01*
Y523642D01*
X189706D01*
X194704Y524642D02*
X195704Y523642D01*
X197703D01*
X198703Y524642D01*
Y528641D01*
X197703Y529640D01*
X195704D01*
X194704Y528641D01*
Y527641D01*
X195704Y526641D01*
X198703D01*
X200702Y528641D02*
X201702Y529640D01*
X203701D01*
X204701Y528641D01*
Y524642D01*
X203701Y523642D01*
X201702D01*
X200702Y524642D01*
Y528641D01*
X206700D02*
X207700Y529640D01*
X209699D01*
X210699Y528641D01*
Y524642D01*
X209699Y523642D01*
X207700D01*
X206700Y524642D01*
Y528641D01*
X212698Y523642D02*
Y527641D01*
X213698D01*
X214698Y526641D01*
Y523642D01*
Y526641D01*
X215697Y527641D01*
X216697Y526641D01*
Y523642D01*
X218696D02*
Y527641D01*
X219696D01*
X220696Y526641D01*
Y523642D01*
Y526641D01*
X221695Y527641D01*
X222695Y526641D01*
Y523642D01*
X232692D02*
X230692Y525642D01*
Y527641D01*
X232692Y529640D01*
X235691Y528641D02*
X236690Y529640D01*
X238690D01*
X239689Y528641D01*
Y527641D01*
X238690Y526641D01*
X237690D01*
X238690D01*
X239689Y525642D01*
Y524642D01*
X238690Y523642D01*
X236690D01*
X235691Y524642D01*
X245688Y529640D02*
X241689D01*
Y526641D01*
X243688Y527641D01*
X244688D01*
X245688Y526641D01*
Y524642D01*
X244688Y523642D01*
X242688D01*
X241689Y524642D01*
X247687Y523642D02*
Y524642D01*
X248687D01*
Y523642D01*
X247687D01*
X255684D02*
Y529640D01*
X252685Y526641D01*
X256684D01*
X258683Y528641D02*
X259683Y529640D01*
X261682D01*
X262682Y528641D01*
Y527641D01*
X261682Y526641D01*
X260683D01*
X261682D01*
X262682Y525642D01*
Y524642D01*
X261682Y523642D01*
X259683D01*
X258683Y524642D01*
X264681Y523642D02*
Y527641D01*
X265681D01*
X266681Y526641D01*
Y523642D01*
Y526641D01*
X267680Y527641D01*
X268680Y526641D01*
Y523642D01*
X270679D02*
X272679D01*
X271679D01*
Y527641D01*
X270679D01*
X275678Y523642D02*
X277677D01*
X276677D01*
Y529640D01*
X275678D01*
X280676Y523642D02*
X282676Y525642D01*
Y527641D01*
X280676Y529640D01*
X183707Y513641D02*
X184707Y514640D01*
X186707D01*
X187706Y513641D01*
Y509642D01*
X186707Y508642D01*
X184707D01*
X183707Y509642D01*
Y513641D01*
X189706Y508642D02*
Y509642D01*
X190705D01*
Y508642D01*
X189706D01*
X194704Y513641D02*
X195704Y514640D01*
X197703D01*
X198703Y513641D01*
Y512641D01*
X197703Y511641D01*
X196703D01*
X197703D01*
X198703Y510642D01*
Y509642D01*
X197703Y508642D01*
X195704D01*
X194704Y509642D01*
X200702Y513641D02*
X201702Y514640D01*
X203701D01*
X204701Y513641D01*
Y509642D01*
X203701Y508642D01*
X201702D01*
X200702Y509642D01*
Y513641D01*
X206700D02*
X207700Y514640D01*
X209699D01*
X210699Y513641D01*
Y509642D01*
X209699Y508642D01*
X207700D01*
X206700Y509642D01*
Y513641D01*
X212698Y508642D02*
Y512641D01*
X213698D01*
X214698Y511641D01*
Y508642D01*
Y511641D01*
X215697Y512641D01*
X216697Y511641D01*
Y508642D01*
X218696D02*
Y512641D01*
X219696D01*
X220696Y511641D01*
Y508642D01*
Y511641D01*
X221695Y512641D01*
X222695Y511641D01*
Y508642D01*
X232692D02*
X230692Y510642D01*
Y512641D01*
X232692Y514640D01*
X235691Y508642D02*
X237690D01*
X236690D01*
Y514640D01*
X235691Y513641D01*
X240689Y508642D02*
X242688D01*
X241689D01*
Y514640D01*
X240689Y513641D01*
X245688Y508642D02*
Y509642D01*
X246687D01*
Y508642D01*
X245688D01*
X250686Y513641D02*
X251686Y514640D01*
X253685D01*
X254685Y513641D01*
Y512641D01*
X253685Y511641D01*
X254685Y510642D01*
Y509642D01*
X253685Y508642D01*
X251686D01*
X250686Y509642D01*
Y510642D01*
X251686Y511641D01*
X250686Y512641D01*
Y513641D01*
X251686Y511641D02*
X253685D01*
X256684Y508642D02*
X258683D01*
X257684D01*
Y514640D01*
X256684Y513641D01*
X261682Y508642D02*
Y512641D01*
X262682D01*
X263682Y511641D01*
Y508642D01*
Y511641D01*
X264681Y512641D01*
X265681Y511641D01*
Y508642D01*
X267680D02*
X269680D01*
X268680D01*
Y512641D01*
X267680D01*
X272679Y508642D02*
X274678D01*
X273678D01*
Y514640D01*
X272679D01*
X277677Y508642D02*
X279677Y510642D01*
Y512641D01*
X277677Y514640D01*
X127722Y493642D02*
X123723D01*
X127722Y497641D01*
Y498641D01*
X126722Y499640D01*
X124723D01*
X123723Y498641D01*
X129721D02*
X130721Y499640D01*
X132720D01*
X133720Y498641D01*
Y494642D01*
X132720Y493642D01*
X130721D01*
X129721Y494642D01*
Y498641D01*
X135720Y494642D02*
X136719Y493642D01*
X138719D01*
X139718Y494642D01*
Y498641D01*
X138719Y499640D01*
X136719D01*
X135720Y498641D01*
Y497641D01*
X136719Y496641D01*
X139718D01*
X147716Y499640D02*
X151714D01*
X149715D01*
Y493642D01*
X154713D02*
X156713D01*
X157712Y494642D01*
Y496641D01*
X156713Y497641D01*
X154713D01*
X153714Y496641D01*
Y494642D01*
X154713Y493642D01*
X160711Y498641D02*
Y497641D01*
X159712D01*
X161711D01*
X160711D01*
Y494642D01*
X161711Y493642D01*
X165710Y497641D02*
X167709D01*
X168709Y496641D01*
Y493642D01*
X165710D01*
X164710Y494642D01*
X165710Y495642D01*
X168709D01*
X170708Y493642D02*
X172707D01*
X171708D01*
Y499640D01*
X170708D01*
X127722Y613642D02*
X123723D01*
X127722Y617641D01*
Y618641D01*
X126722Y619640D01*
X124723D01*
X123723Y618641D01*
X127722Y598642D02*
X123723D01*
X127722Y602641D01*
Y603641D01*
X126722Y604640D01*
X124723D01*
X123723Y603641D01*
X127722Y583642D02*
X123723D01*
X127722Y587641D01*
Y588641D01*
X126722Y589640D01*
X124723D01*
X123723Y588641D01*
X127722Y568642D02*
X123723D01*
X127722Y572641D01*
Y573641D01*
X126722Y574640D01*
X124723D01*
X123723Y573641D01*
X127722Y553642D02*
X123723D01*
X127722Y557641D01*
Y558641D01*
X126722Y559640D01*
X124723D01*
X123723Y558641D01*
X127722Y544640D02*
X123723D01*
Y541641D01*
X125723Y542641D01*
X126722D01*
X127722Y541641D01*
Y539642D01*
X126722Y538642D01*
X124723D01*
X123723Y539642D01*
Y523642D02*
X125723D01*
X124723D01*
Y529640D01*
X123723Y528641D01*
X132720Y523642D02*
X128722D01*
X132720Y527641D01*
Y528641D01*
X131721Y529640D01*
X129721D01*
X128722Y528641D01*
X123723Y508642D02*
X125723D01*
X124723D01*
Y514640D01*
X123723Y513641D01*
X128722D02*
X129721Y514640D01*
X131721D01*
X132720Y513641D01*
Y512641D01*
X131721Y511641D01*
X132720Y510642D01*
Y509642D01*
X131721Y508642D01*
X129721D01*
X128722Y509642D01*
Y510642D01*
X129721Y511641D01*
X128722Y512641D01*
Y513641D01*
X129721Y511641D02*
X131721D01*
X138719Y508642D02*
X134720D01*
X138719Y512641D01*
Y513641D01*
X137719Y514640D01*
X135720D01*
X134720Y513641D01*
X251683Y471147D02*
X255681D01*
X251683Y473146D02*
X255681D01*
X263679Y469147D02*
Y475145D01*
X266678D01*
X267678Y474146D01*
Y472146D01*
X266678Y471147D01*
X263679D01*
X265678D02*
X267678Y469147D01*
X270677D02*
X272676D01*
X273676Y470147D01*
Y472146D01*
X272676Y473146D01*
X270677D01*
X269677Y472146D01*
Y470147D01*
X270677Y469147D01*
X275675Y473146D02*
Y470147D01*
X276675Y469147D01*
X279674D01*
Y473146D01*
X282673Y474146D02*
Y473146D01*
X281673D01*
X283672D01*
X282673D01*
Y470147D01*
X283672Y469147D01*
X289670D02*
X287671D01*
X286671Y470147D01*
Y472146D01*
X287671Y473146D01*
X289670D01*
X290670Y472146D01*
Y471147D01*
X286671D01*
X296668Y475145D02*
Y469147D01*
X293669D01*
X292670Y470147D01*
Y472146D01*
X293669Y473146D01*
X296668D01*
X304666Y469147D02*
Y475145D01*
X307665D01*
X308664Y474146D01*
Y472146D01*
X307665Y471147D01*
X304666D01*
X311663Y473146D02*
X313663D01*
X314662Y472146D01*
Y469147D01*
X311663D01*
X310664Y470147D01*
X311663Y471147D01*
X314662D01*
X317661Y474146D02*
Y473146D01*
X316662D01*
X318661D01*
X317661D01*
Y470147D01*
X318661Y469147D01*
X321660Y475145D02*
Y469147D01*
Y472146D01*
X322660Y473146D01*
X324659D01*
X325659Y472146D01*
Y469147D01*
X333656Y475145D02*
Y469147D01*
X337655D01*
X342653D02*
X340654D01*
X339654Y470147D01*
Y472146D01*
X340654Y473146D01*
X342653D01*
X343653Y472146D01*
Y471147D01*
X339654D01*
X345652Y469147D02*
Y473146D01*
X348651D01*
X349651Y472146D01*
Y469147D01*
X353650Y467148D02*
X354649D01*
X355649Y468148D01*
Y473146D01*
X352650D01*
X351650Y472146D01*
Y470147D01*
X352650Y469147D01*
X355649D01*
X358648Y474146D02*
Y473146D01*
X357648D01*
X359648D01*
X358648D01*
Y470147D01*
X359648Y469147D01*
X362647Y475145D02*
Y469147D01*
Y472146D01*
X363647Y473146D01*
X365646D01*
X366646Y472146D01*
Y469147D01*
X374643Y472146D02*
X378642D01*
X376642Y474146D02*
Y470147D01*
X386639Y475145D02*
X390638D01*
X388638D01*
Y469147D01*
X393637D02*
X395636D01*
X396636Y470147D01*
Y472146D01*
X395636Y473146D01*
X393637D01*
X392637Y472146D01*
Y470147D01*
X393637Y469147D01*
X399635D02*
X401634D01*
X402634Y470147D01*
Y472146D01*
X401634Y473146D01*
X399635D01*
X398635Y472146D01*
Y470147D01*
X399635Y469147D01*
X404633D02*
X406633D01*
X405633D01*
Y475145D01*
X404633D01*
X419628Y474146D02*
X418629Y475145D01*
X416629D01*
X415630Y474146D01*
Y473146D01*
X416629Y472146D01*
X418629D01*
X419628Y471147D01*
Y470147D01*
X418629Y469147D01*
X416629D01*
X415630Y470147D01*
X421628Y469147D02*
X423627D01*
X422627D01*
Y473146D01*
X421628D01*
X426626D02*
X430625D01*
X426626Y469147D01*
X430625D01*
X435623D02*
X433624D01*
X432624Y470147D01*
Y472146D01*
X433624Y473146D01*
X435623D01*
X436623Y472146D01*
Y471147D01*
X432624D01*
X444620D02*
X448619D01*
X444620Y473146D02*
X448619D01*
X460615Y474146D02*
X459616Y475145D01*
X457616D01*
X456616Y474146D01*
Y473146D01*
X457616Y472146D01*
X459616D01*
X460615Y471147D01*
Y470147D01*
X459616Y469147D01*
X457616D01*
X456616Y470147D01*
X462614Y469147D02*
X464614D01*
X463614D01*
Y475145D01*
X462614D01*
X468613Y469147D02*
X470612D01*
X471612Y470147D01*
Y472146D01*
X470612Y473146D01*
X468613D01*
X467613Y472146D01*
Y470147D01*
X468613Y469147D01*
X474611Y474146D02*
Y473146D01*
X473611D01*
X475610D01*
X474611D01*
Y470147D01*
X475610Y469147D01*
X484607D02*
X486607D01*
X485607D01*
Y475145D01*
X484607D01*
X492605Y469147D02*
X490605D01*
X489606Y470147D01*
Y472146D01*
X490605Y473146D01*
X492605D01*
X493605Y472146D01*
Y471147D01*
X489606D01*
X495604Y469147D02*
Y473146D01*
X498603D01*
X499603Y472146D01*
Y469147D01*
X503601Y467148D02*
X504601D01*
X505601Y468148D01*
Y473146D01*
X502602D01*
X501602Y472146D01*
Y470147D01*
X502602Y469147D01*
X505601D01*
X508600Y474146D02*
Y473146D01*
X507600D01*
X509599D01*
X508600D01*
Y470147D01*
X509599Y469147D01*
X512598Y475145D02*
Y469147D01*
Y472146D01*
X513598Y473146D01*
X515597D01*
X516597Y472146D01*
Y469147D01*
X525594Y473146D02*
X527594D01*
X528593Y472146D01*
Y469147D01*
X525594D01*
X524594Y470147D01*
X525594Y471147D01*
X528593D01*
X530592Y469147D02*
X533592D01*
X534591Y470147D01*
X533592Y471147D01*
X531592D01*
X530592Y472146D01*
X531592Y473146D01*
X534591D01*
X546587Y475145D02*
Y469147D01*
X543588D01*
X542589Y470147D01*
Y472146D01*
X543588Y473146D01*
X546587D01*
X551586Y469147D02*
X549586D01*
X548587Y470147D01*
Y472146D01*
X549586Y473146D01*
X551586D01*
X552585Y472146D01*
Y471147D01*
X548587D01*
X555584Y469147D02*
Y474146D01*
Y472146D01*
X554585D01*
X556584D01*
X555584D01*
Y474146D01*
X556584Y475145D01*
X559583Y469147D02*
X561583D01*
X560583D01*
Y473146D01*
X559583D01*
X564581Y469147D02*
Y473146D01*
X567581D01*
X568580Y472146D01*
Y469147D01*
X573579D02*
X571579D01*
X570580Y470147D01*
Y472146D01*
X571579Y473146D01*
X573579D01*
X574578Y472146D01*
Y471147D01*
X570580D01*
X580576Y475145D02*
Y469147D01*
X577577D01*
X576578Y470147D01*
Y472146D01*
X577577Y473146D01*
X580576D01*
X588574Y469147D02*
X590573D01*
X589573D01*
Y473146D01*
X588574D01*
X593572Y469147D02*
Y473146D01*
X596571D01*
X597571Y472146D01*
Y469147D01*
X606568Y474146D02*
Y473146D01*
X605568D01*
X607568D01*
X606568D01*
Y470147D01*
X607568Y469147D01*
X610567Y475145D02*
Y469147D01*
Y472146D01*
X611566Y473146D01*
X613566D01*
X614565Y472146D01*
Y469147D01*
X619564D02*
X617564D01*
X616565Y470147D01*
Y472146D01*
X617564Y473146D01*
X619564D01*
X620563Y472146D01*
Y471147D01*
X616565D01*
X628561Y469147D02*
Y475145D01*
X631560D01*
X632560Y474146D01*
Y472146D01*
X631560Y471147D01*
X628561D01*
X638558Y474146D02*
X637558Y475145D01*
X635559D01*
X634559Y474146D01*
Y470147D01*
X635559Y469147D01*
X637558D01*
X638558Y470147D01*
X640557Y475145D02*
Y469147D01*
X643556D01*
X644556Y470147D01*
Y471147D01*
X643556Y472146D01*
X640557D01*
X643556D01*
X644556Y473146D01*
Y474146D01*
X643556Y475145D01*
X640557D01*
X652553Y469147D02*
X654552D01*
X653553D01*
Y475145D01*
X652553D01*
X658551Y473146D02*
X660550D01*
X661550Y472146D01*
Y469147D01*
X658551D01*
X657551Y470147D01*
X658551Y471147D01*
X661550D01*
X663550Y473146D02*
Y470147D01*
X664549Y469147D01*
X667548D01*
Y468148D01*
X666548Y467148D01*
X665549D01*
X667548Y469147D02*
Y473146D01*
X670547Y469147D02*
X672547D01*
X673546Y470147D01*
Y472146D01*
X672547Y473146D01*
X670547D01*
X669548Y472146D01*
Y470147D01*
X670547Y469147D01*
X675546Y473146D02*
Y470147D01*
X676545Y469147D01*
X679544D01*
Y473146D01*
X682543Y474146D02*
Y473146D01*
X681544D01*
X683543D01*
X682543D01*
Y470147D01*
X683543Y469147D01*
X286671Y481144D02*
X290670D01*
X286671Y483144D02*
X290670D01*
X302666Y484143D02*
X301667Y485143D01*
X299667D01*
X298668Y484143D01*
Y480145D01*
X299667Y479145D01*
X301667D01*
X302666Y480145D01*
X305665Y483144D02*
X307665D01*
X308664Y482144D01*
Y479145D01*
X305665D01*
X304666Y480145D01*
X305665Y481144D01*
X308664D01*
X310664Y479145D02*
X312663D01*
X311663D01*
Y485143D01*
X310664D01*
X319661Y483144D02*
X316662D01*
X315662Y482144D01*
Y480145D01*
X316662Y479145D01*
X319661D01*
X321660Y483144D02*
Y480145D01*
X322660Y479145D01*
X325659D01*
Y483144D01*
X327658Y479145D02*
X329658D01*
X328658D01*
Y485143D01*
X327658D01*
X333656Y483144D02*
X335656D01*
X336655Y482144D01*
Y479145D01*
X333656D01*
X332657Y480145D01*
X333656Y481144D01*
X336655D01*
X339654Y484143D02*
Y483144D01*
X338655D01*
X340654D01*
X339654D01*
Y480145D01*
X340654Y479145D01*
X346652D02*
X344653D01*
X343653Y480145D01*
Y482144D01*
X344653Y483144D01*
X346652D01*
X347652Y482144D01*
Y481144D01*
X343653D01*
X353650Y485143D02*
Y479145D01*
X350651D01*
X349651Y480145D01*
Y482144D01*
X350651Y483144D01*
X353650D01*
X362647Y479145D02*
Y484143D01*
Y482144D01*
X361647D01*
X363647D01*
X362647D01*
Y484143D01*
X363647Y485143D01*
X366646Y483144D02*
Y479145D01*
Y481144D01*
X367645Y482144D01*
X368645Y483144D01*
X369645D01*
X373643Y479145D02*
X375643D01*
X376642Y480145D01*
Y482144D01*
X375643Y483144D01*
X373643D01*
X372644Y482144D01*
Y480145D01*
X373643Y479145D01*
X378642D02*
Y483144D01*
X379641D01*
X380641Y482144D01*
Y479145D01*
Y482144D01*
X381641Y483144D01*
X382640Y482144D01*
Y479145D01*
X391637Y484143D02*
Y483144D01*
X390638D01*
X392637D01*
X391637D01*
Y480145D01*
X392637Y479145D01*
X396636D02*
X398635D01*
X399635Y480145D01*
Y482144D01*
X398635Y483144D01*
X396636D01*
X395636Y482144D01*
Y480145D01*
X396636Y479145D01*
X402634D02*
X404633D01*
X405633Y480145D01*
Y482144D01*
X404633Y483144D01*
X402634D01*
X401634Y482144D01*
Y480145D01*
X402634Y479145D01*
X407632D02*
X409632D01*
X408632D01*
Y485143D01*
X407632D01*
X418629Y479145D02*
X421628D01*
X422627Y480145D01*
X421628Y481144D01*
X419628D01*
X418629Y482144D01*
X419628Y483144D01*
X422627D01*
X425627Y484143D02*
Y483144D01*
X424627D01*
X426626D01*
X425627D01*
Y480145D01*
X426626Y479145D01*
X430625Y483144D02*
X432624D01*
X433624Y482144D01*
Y479145D01*
X430625D01*
X429625Y480145D01*
X430625Y481144D01*
X433624D01*
X435623Y483144D02*
Y479145D01*
Y481144D01*
X436623Y482144D01*
X437623Y483144D01*
X438622D01*
X442621Y484143D02*
Y483144D01*
X441621D01*
X443621D01*
X442621D01*
Y480145D01*
X443621Y479145D01*
X456616Y483144D02*
X453617D01*
X452618Y482144D01*
Y480145D01*
X453617Y479145D01*
X456616D01*
X461615D02*
X459616D01*
X458616Y480145D01*
Y482144D01*
X459616Y483144D01*
X461615D01*
X462614Y482144D01*
Y481144D01*
X458616D01*
X464614Y479145D02*
Y483144D01*
X467613D01*
X468613Y482144D01*
Y479145D01*
X471612Y484143D02*
Y483144D01*
X470612D01*
X472611D01*
X471612D01*
Y480145D01*
X472611Y479145D01*
X475610Y483144D02*
Y479145D01*
Y481144D01*
X476610Y482144D01*
X477610Y483144D01*
X478609D01*
X484607Y479145D02*
X482608D01*
X481608Y480145D01*
Y482144D01*
X482608Y483144D01*
X484607D01*
X485607Y482144D01*
Y481144D01*
X481608D01*
X493605Y477145D02*
Y483144D01*
X496603D01*
X497603Y482144D01*
Y480145D01*
X496603Y479145D01*
X493605D01*
X500602D02*
X502602D01*
X503601Y480145D01*
Y482144D01*
X502602Y483144D01*
X500602D01*
X499603Y482144D01*
Y480145D01*
X500602Y479145D01*
X505601D02*
X508600D01*
X509599Y480145D01*
X508600Y481144D01*
X506600D01*
X505601Y482144D01*
X506600Y483144D01*
X509599D01*
X511599Y479145D02*
X513598D01*
X512598D01*
Y483144D01*
X511599D01*
X517597Y484143D02*
Y483144D01*
X516597D01*
X518596D01*
X517597D01*
Y480145D01*
X518596Y479145D01*
X521595D02*
X523595D01*
X522595D01*
Y483144D01*
X521595D01*
X527594Y479145D02*
X529593D01*
X530592Y480145D01*
Y482144D01*
X529593Y483144D01*
X527594D01*
X526594Y482144D01*
Y480145D01*
X527594Y479145D01*
X532592D02*
Y483144D01*
X535591D01*
X536591Y482144D01*
Y479145D01*
X545588Y484143D02*
Y483144D01*
X544588D01*
X546587D01*
X545588D01*
Y480145D01*
X546587Y479145D01*
X550586D02*
X552585D01*
X553585Y480145D01*
Y482144D01*
X552585Y483144D01*
X550586D01*
X549586Y482144D01*
Y480145D01*
X550586Y479145D01*
X562582Y484143D02*
Y483144D01*
X561583D01*
X563582D01*
X562582D01*
Y480145D01*
X563582Y479145D01*
X567581D02*
X569580D01*
X570580Y480145D01*
Y482144D01*
X569580Y483144D01*
X567581D01*
X566581Y482144D01*
Y480145D01*
X567581Y479145D01*
X573579D02*
X575578D01*
X576578Y480145D01*
Y482144D01*
X575578Y483144D01*
X573579D01*
X572579Y482144D01*
Y480145D01*
X573579Y479145D01*
X578577D02*
X580576D01*
X579577D01*
Y485143D01*
X578577D01*
X592572Y479145D02*
X590573D01*
X589573Y480145D01*
Y482144D01*
X590573Y483144D01*
X592572D01*
X593572Y482144D01*
Y481144D01*
X589573D01*
X595572Y479145D02*
Y483144D01*
X598570D01*
X599570Y482144D01*
Y479145D01*
X605568Y485143D02*
Y479145D01*
X602569D01*
X601570Y480145D01*
Y482144D01*
X602569Y483144D01*
X605568D01*
X617564D02*
X614565D01*
X613566Y482144D01*
Y480145D01*
X614565Y479145D01*
X617564D01*
X622563D02*
X620563D01*
X619564Y480145D01*
Y482144D01*
X620563Y483144D01*
X622563D01*
X623562Y482144D01*
Y481144D01*
X619564D01*
X625562Y479145D02*
Y483144D01*
X628561D01*
X629561Y482144D01*
Y479145D01*
X632559Y484143D02*
Y483144D01*
X631560D01*
X633559D01*
X632559D01*
Y480145D01*
X633559Y479145D01*
X636558Y483144D02*
Y479145D01*
Y481144D01*
X637558Y482144D01*
X638558Y483144D01*
X639557D01*
X645555Y479145D02*
X643556D01*
X642556Y480145D01*
Y482144D01*
X643556Y483144D01*
X645555D01*
X646555Y482144D01*
Y481144D01*
X642556D01*
X654552Y477145D02*
Y483144D01*
X657551D01*
X658551Y482144D01*
Y480145D01*
X657551Y479145D01*
X654552D01*
X661550D02*
X663550D01*
X664549Y480145D01*
Y482144D01*
X663550Y483144D01*
X661550D01*
X660550Y482144D01*
Y480145D01*
X661550Y479145D01*
X666548D02*
X669548D01*
X670547Y480145D01*
X669548Y481144D01*
X667548D01*
X666548Y482144D01*
X667548Y483144D01*
X670547D01*
X672547Y479145D02*
X674546D01*
X673546D01*
Y483144D01*
X672547D01*
X678545Y484143D02*
Y483144D01*
X677545D01*
X679544D01*
X678545D01*
Y480145D01*
X679544Y479145D01*
X682543D02*
X684543D01*
X683543D01*
Y483144D01*
X682543D01*
X688541Y479145D02*
X690541D01*
X691540Y480145D01*
Y482144D01*
X690541Y483144D01*
X688541D01*
X687542Y482144D01*
Y480145D01*
X688541Y479145D01*
X693540D02*
Y483144D01*
X696539D01*
X697539Y482144D01*
Y479145D01*
X699538D02*
Y480145D01*
X700537D01*
Y479145D01*
X699538D01*
D150*
X221177Y417638D02*
G03*
X221177Y417638I-1000J0D01*
G01*
X249327D02*
G03*
X249327Y417638I-1000J0D01*
G01*
X336008Y426665D02*
X336508D01*
X336008D02*
Y427665D01*
X336508D01*
Y428165D01*
X337508D01*
Y427665D02*
Y428165D01*
Y427665D02*
X338008D01*
Y426665D02*
Y427665D01*
X337508Y426665D02*
X338008D01*
X337508Y426165D02*
Y426665D01*
X336508Y426165D02*
X337508D01*
X336508D02*
Y426665D01*
X336008Y416823D02*
X336508D01*
X336008D02*
Y417823D01*
X336508D01*
Y418323D01*
X337508D01*
Y417823D02*
Y418323D01*
Y417823D02*
X338008D01*
Y416823D02*
Y417823D01*
X337508Y416823D02*
X338008D01*
X337508Y416323D02*
Y416823D01*
X336508Y416323D02*
X337508D01*
X336508D02*
Y416823D01*
X316323Y426665D02*
X316823D01*
X316323D02*
Y427665D01*
X316823D01*
Y428165D01*
X317823D01*
Y427665D02*
Y428165D01*
Y427665D02*
X318323D01*
Y426665D02*
Y427665D01*
X317823Y426665D02*
X318323D01*
X317823Y426165D02*
Y426665D01*
X316823Y426165D02*
X317823D01*
X316823D02*
Y426665D01*
X311205D02*
X311705D01*
X311205D02*
Y427665D01*
X311705D01*
Y428165D01*
X312705D01*
Y427665D02*
Y428165D01*
Y427665D02*
X313205D01*
Y426665D02*
Y427665D01*
X312705Y426665D02*
X313205D01*
X312705Y426165D02*
Y426665D01*
X311705Y426165D02*
X312705D01*
X311705D02*
Y426665D01*
X306480D02*
X306980D01*
X306480D02*
Y427665D01*
X306980D01*
Y428165D01*
X307980D01*
Y427665D02*
Y428165D01*
Y427665D02*
X308480D01*
Y426665D02*
Y427665D01*
X307980Y426665D02*
X308480D01*
X307980Y426165D02*
Y426665D01*
X306980Y426165D02*
X307980D01*
X306980D02*
Y426665D01*
X301362D02*
X301862D01*
X301362D02*
Y427665D01*
X301862D01*
Y428165D01*
X302862D01*
Y427665D02*
Y428165D01*
Y427665D02*
X303362D01*
Y426665D02*
Y427665D01*
X302862Y426665D02*
X303362D01*
X302862Y426165D02*
Y426665D01*
X301862Y426165D02*
X302862D01*
X301862D02*
Y426665D01*
X306480Y395563D02*
X306980D01*
X306480D02*
Y396563D01*
X306980D01*
Y397063D01*
X307980D01*
Y396563D02*
Y397063D01*
Y396563D02*
X308480D01*
Y395563D02*
Y396563D01*
X307980Y395563D02*
X308480D01*
X307980Y395063D02*
Y395563D01*
X306980Y395063D02*
X307980D01*
X306980D02*
Y395563D01*
X311205D02*
X311705D01*
X311205D02*
Y396563D01*
X311705D01*
Y397063D01*
X312705D01*
Y396563D02*
Y397063D01*
Y396563D02*
X313205D01*
Y395563D02*
Y396563D01*
X312705Y395563D02*
X313205D01*
X312705Y395063D02*
Y395563D01*
X311705Y395063D02*
X312705D01*
X311705D02*
Y395563D01*
X253724Y250681D02*
X254224D01*
X253724D02*
Y251681D01*
X254224D01*
Y252181D01*
X255224D01*
Y251681D02*
Y252181D01*
Y251681D02*
X255724D01*
Y250681D02*
Y251681D01*
X255224Y250681D02*
X255724D01*
X255224Y250181D02*
Y250681D01*
X254224Y250181D02*
X255224D01*
X254224D02*
Y250681D01*
X254118Y246350D02*
X254618D01*
X254118D02*
Y247350D01*
X254618D01*
Y247850D01*
X255618D01*
Y247350D02*
Y247850D01*
Y247350D02*
X256118D01*
Y246350D02*
Y247350D01*
X255618Y246350D02*
X256118D01*
X255618Y245850D02*
Y246350D01*
X254618Y245850D02*
X255618D01*
X254618D02*
Y246350D01*
X254512Y241232D02*
X255012D01*
X254512D02*
Y242232D01*
X255012D01*
Y242732D01*
X256012D01*
Y242232D02*
Y242732D01*
Y242232D02*
X256512D01*
Y241232D02*
Y242232D01*
X256012Y241232D02*
X256512D01*
X256012Y240732D02*
Y241232D01*
X255012Y240732D02*
X256012D01*
X255012D02*
Y241232D01*
X254906Y236508D02*
X255405D01*
X254906D02*
Y237508D01*
X255405D01*
Y238008D01*
X256405D01*
Y237508D02*
Y238008D01*
Y237508D02*
X256906D01*
Y236508D02*
Y237508D01*
X256405Y236508D02*
X256906D01*
X256405Y236008D02*
Y236508D01*
X255405Y236008D02*
X256405D01*
X255405D02*
Y236508D01*
X295850Y373516D02*
X296350D01*
X295850D02*
Y374516D01*
X296350D01*
Y375016D01*
X297350D01*
Y374516D02*
Y375016D01*
Y374516D02*
X297850D01*
Y373516D02*
Y374516D01*
X297350Y373516D02*
X297850D01*
X297350Y373016D02*
Y373516D01*
X296350Y373016D02*
X297350D01*
X296350D02*
Y373516D01*
X297819Y362492D02*
X298319D01*
X297819D02*
Y363492D01*
X298319D01*
Y363992D01*
X299319D01*
Y363492D02*
Y363992D01*
Y363492D02*
X299819D01*
Y362492D02*
Y363492D01*
X299319Y362492D02*
X299819D01*
X299319Y361992D02*
Y362492D01*
X298319Y361992D02*
X299319D01*
X298319D02*
Y362492D01*
X267504Y373122D02*
X268004D01*
X267504D02*
Y374122D01*
X268004D01*
Y374622D01*
X269004D01*
Y374122D02*
Y374622D01*
Y374122D02*
X269504D01*
Y373122D02*
Y374122D01*
X269004Y373122D02*
X269504D01*
X269004Y372622D02*
Y373122D01*
X268004Y372622D02*
X269004D01*
X268004D02*
Y373122D01*
X267504Y368398D02*
X268004D01*
X267504D02*
Y369398D01*
X268004D01*
Y369898D01*
X269004D01*
Y369398D02*
Y369898D01*
Y369398D02*
X269504D01*
Y368398D02*
Y369398D01*
X269004Y368398D02*
X269504D01*
X269004Y367898D02*
Y368398D01*
X268004Y367898D02*
X269004D01*
X268004D02*
Y368398D01*
X267504Y364067D02*
X268004D01*
X267504D02*
Y365067D01*
X268004D01*
Y365567D01*
X269004D01*
Y365067D02*
Y365567D01*
Y365067D02*
X269504D01*
Y364067D02*
Y365067D01*
X269004Y364067D02*
X269504D01*
X269004Y363567D02*
Y364067D01*
X268004Y363567D02*
X269004D01*
X268004D02*
Y364067D01*
X256480Y385720D02*
X256980D01*
X256480D02*
Y386720D01*
X256980D01*
Y387221D01*
X257980D01*
Y386720D02*
Y387221D01*
Y386720D02*
X258480D01*
Y385720D02*
Y386720D01*
X257980Y385720D02*
X258480D01*
X257980Y385221D02*
Y385720D01*
X256980Y385221D02*
X257980D01*
X256980D02*
Y385720D01*
X262386Y379421D02*
X262886D01*
X262386D02*
Y380421D01*
X262886D01*
Y380921D01*
X263886D01*
Y380421D02*
Y380921D01*
Y380421D02*
X264386D01*
Y379421D02*
Y380421D01*
X263886Y379421D02*
X264386D01*
X263886Y378921D02*
Y379421D01*
X262886Y378921D02*
X263886D01*
X262886D02*
Y379421D01*
X325378Y358555D02*
X325878D01*
X325378D02*
Y359555D01*
X325878D01*
Y360055D01*
X326878D01*
Y359555D02*
Y360055D01*
Y359555D02*
X327378D01*
Y358555D02*
Y359555D01*
X326878Y358555D02*
X327378D01*
X326878Y358055D02*
Y358555D01*
X325878Y358055D02*
X326878D01*
X325878D02*
Y358555D01*
X325378Y364854D02*
X325878D01*
X325378D02*
Y365854D01*
X325878D01*
Y366354D01*
X326878D01*
Y365854D02*
Y366354D01*
Y365854D02*
X327378D01*
Y364854D02*
Y365854D01*
X326878Y364854D02*
X327378D01*
X326878Y364354D02*
Y364854D01*
X325878Y364354D02*
X326878D01*
X325878D02*
Y364854D01*
X320260Y378240D02*
X320760D01*
X320260D02*
Y379240D01*
X320760D01*
Y379740D01*
X321760D01*
Y379240D02*
Y379740D01*
Y379240D02*
X322260D01*
Y378240D02*
Y379240D01*
X321760Y378240D02*
X322260D01*
X321760Y377740D02*
Y378240D01*
X320760Y377740D02*
X321760D01*
X320760D02*
Y378240D01*
X297819Y358949D02*
X298319D01*
X297819D02*
Y359949D01*
X298319D01*
Y360449D01*
X299319D01*
Y359949D02*
Y360449D01*
Y359949D02*
X299819D01*
Y358949D02*
Y359949D01*
X299319Y358949D02*
X299819D01*
X299319Y358449D02*
Y358949D01*
X298319Y358449D02*
X299319D01*
X298319D02*
Y358949D01*
X253724Y366035D02*
X254224D01*
X253724D02*
Y367035D01*
X254224D01*
Y367535D01*
X255224D01*
Y367035D02*
Y367535D01*
Y367035D02*
X255724D01*
Y366035D02*
Y367035D01*
X255224Y366035D02*
X255724D01*
X255224Y365535D02*
Y366035D01*
X254224Y365535D02*
X255224D01*
X254224D02*
Y366035D01*
X287189Y408161D02*
X287689D01*
X287189D02*
Y409161D01*
X287689D01*
Y409661D01*
X288689D01*
Y409161D02*
Y409661D01*
Y409161D02*
X289189D01*
Y408161D02*
Y409161D01*
X288689Y408161D02*
X289189D01*
X288689Y407661D02*
Y408161D01*
X287689Y407661D02*
X288689D01*
X287689D02*
Y408161D01*
X291913D02*
X292413D01*
X291913D02*
Y409161D01*
X292413D01*
Y409661D01*
X293413D01*
Y409161D02*
Y409661D01*
Y409161D02*
X293913D01*
Y408161D02*
Y409161D01*
X293413Y408161D02*
X293913D01*
X293413Y407661D02*
Y408161D01*
X292413Y407661D02*
X293413D01*
X292413D02*
Y408161D01*
X260024Y351862D02*
X260524D01*
X260024D02*
Y352862D01*
X260524D01*
Y353362D01*
X261524D01*
Y352862D02*
Y353362D01*
Y352862D02*
X262024D01*
Y351862D02*
Y352862D01*
X261524Y351862D02*
X262024D01*
X261524Y351362D02*
Y351862D01*
X260524Y351362D02*
X261524D01*
X260524D02*
Y351862D01*
X263961D02*
X264461D01*
X263961D02*
Y352862D01*
X264461D01*
Y353362D01*
X265461D01*
Y352862D02*
Y353362D01*
Y352862D02*
X265961D01*
Y351862D02*
Y352862D01*
X265461Y351862D02*
X265961D01*
X265461Y351362D02*
Y351862D01*
X264461Y351362D02*
X265461D01*
X264461D02*
Y351862D01*
X268685D02*
X269185D01*
X268685D02*
Y352862D01*
X269185D01*
Y353362D01*
X270185D01*
Y352862D02*
Y353362D01*
Y352862D02*
X270685D01*
Y351862D02*
Y352862D01*
X270185Y351862D02*
X270685D01*
X270185Y351362D02*
Y351862D01*
X269185Y351362D02*
X270185D01*
X269185D02*
Y351862D01*
X246244Y351075D02*
X246744D01*
X246244D02*
Y352075D01*
X246744D01*
Y352575D01*
X247744D01*
Y352075D02*
Y352575D01*
Y352075D02*
X248244D01*
Y351075D02*
Y352075D01*
X247744Y351075D02*
X248244D01*
X247744Y350575D02*
Y351075D01*
X246744Y350575D02*
X247744D01*
X246744D02*
Y351075D01*
X238370Y349894D02*
X238870D01*
X238370D02*
Y350894D01*
X238870D01*
Y351394D01*
X239870D01*
Y350894D02*
Y351394D01*
Y350894D02*
X240370D01*
Y349894D02*
Y350894D01*
X239870Y349894D02*
X240370D01*
X239870Y349394D02*
Y349894D01*
X238870Y349394D02*
X239870D01*
X238870D02*
Y349894D01*
X254512Y343595D02*
X255012D01*
X254512D02*
Y344595D01*
X255012D01*
Y345094D01*
X256012D01*
Y344595D02*
Y345094D01*
Y344595D02*
X256512D01*
Y343595D02*
Y344595D01*
X256012Y343595D02*
X256512D01*
X256012Y343094D02*
Y343595D01*
X255012Y343094D02*
X256012D01*
X255012D02*
Y343595D01*
X304906Y337689D02*
X305405D01*
X304906D02*
Y338689D01*
X305405D01*
Y339189D01*
X306405D01*
Y338689D02*
Y339189D01*
Y338689D02*
X306906D01*
Y337689D02*
Y338689D01*
X306405Y337689D02*
X306906D01*
X306405Y337189D02*
Y337689D01*
X305405Y337189D02*
X306405D01*
X305405D02*
Y337689D01*
X312258Y337295D02*
X312758D01*
X312258D02*
Y338295D01*
X312758D01*
Y338795D01*
X313758D01*
Y338295D02*
Y338795D01*
Y338295D02*
X314258D01*
Y337295D02*
Y338295D01*
X313758Y337295D02*
X314258D01*
X313758Y336795D02*
Y337295D01*
X312758Y336795D02*
X313758D01*
X312758D02*
Y337295D01*
X276559Y318791D02*
X277059D01*
X276559D02*
Y319791D01*
X277059D01*
Y320291D01*
X278059D01*
Y319791D02*
Y320291D01*
Y319791D02*
X278559D01*
Y318791D02*
Y319791D01*
X278059Y318791D02*
X278559D01*
X278059Y318291D02*
Y318791D01*
X277059Y318291D02*
X278059D01*
X277059D02*
Y318791D01*
X274202Y308810D02*
X274702D01*
X274202D02*
Y309810D01*
X274702D01*
Y310310D01*
X275702D01*
Y309810D02*
Y310310D01*
Y309810D02*
X276202D01*
Y308810D02*
Y309810D01*
X275702Y308810D02*
X276202D01*
X275702Y308310D02*
Y308810D01*
X274702Y308310D02*
X275702D01*
X274702D02*
Y308810D01*
X263272Y323634D02*
X263772D01*
X263272D02*
Y324634D01*
X263772D01*
Y325134D01*
X264772D01*
Y324634D02*
Y325134D01*
Y324634D02*
X265272D01*
Y323634D02*
Y324634D01*
X264772Y323634D02*
X265272D01*
X264772Y323134D02*
Y323634D01*
X263772Y323134D02*
X264772D01*
X263772D02*
Y323634D01*
X262718Y319560D02*
X263218D01*
X262718D02*
Y320560D01*
X263218D01*
Y321060D01*
X264218D01*
Y320560D02*
Y321060D01*
Y320560D02*
X264718D01*
Y319560D02*
Y320560D01*
X264218Y319560D02*
X264718D01*
X264218Y319060D02*
Y319560D01*
X263218Y319060D02*
X264218D01*
X263218D02*
Y319560D01*
X265929Y324697D02*
X266429D01*
X265929D02*
Y325697D01*
X266429D01*
Y326197D01*
X267429D01*
Y325697D02*
Y326197D01*
Y325697D02*
X267929D01*
Y324697D02*
Y325697D01*
X267429Y324697D02*
X267929D01*
X267429Y324197D02*
Y324697D01*
X266429Y324197D02*
X267429D01*
X266429D02*
Y324697D01*
X271978Y310611D02*
X272478D01*
X271978D02*
Y311611D01*
X272478D01*
Y312111D01*
X273478D01*
Y311611D02*
Y312111D01*
Y311611D02*
X273978D01*
Y310611D02*
Y311611D01*
X273478Y310611D02*
X273978D01*
X273478Y310111D02*
Y310611D01*
X272478Y310111D02*
X273478D01*
X272478D02*
Y310611D01*
X273176Y296190D02*
X273676D01*
X273176D02*
Y297190D01*
X273676D01*
Y297690D01*
X274676D01*
Y297190D02*
Y297690D01*
Y297190D02*
X275176D01*
Y296190D02*
Y297190D01*
X274676Y296190D02*
X275176D01*
X274676Y295690D02*
Y296190D01*
X273676Y295690D02*
X274676D01*
X273676D02*
Y296190D01*
X247425Y304618D02*
X247925D01*
X247425D02*
Y305618D01*
X247925D01*
Y306118D01*
X248925D01*
Y305618D02*
Y306118D01*
Y305618D02*
X249425D01*
Y304618D02*
Y305618D01*
X248925Y304618D02*
X249425D01*
X248925Y304118D02*
Y304618D01*
X247925Y304118D02*
X248925D01*
X247925D02*
Y304618D01*
X234433Y312492D02*
X234933D01*
X234433D02*
Y313492D01*
X234933D01*
Y313992D01*
X235933D01*
Y313492D02*
Y313992D01*
Y313492D02*
X236433D01*
Y312492D02*
Y313492D01*
X235933Y312492D02*
X236433D01*
X235933Y311992D02*
Y312492D01*
X234933Y311992D02*
X235933D01*
X234933D02*
Y312492D01*
X279315Y289657D02*
X279815D01*
X279315D02*
Y290657D01*
X279815D01*
Y291158D01*
X280815D01*
Y290657D02*
Y291158D01*
Y290657D02*
X281315D01*
Y289657D02*
Y290657D01*
X280815Y289657D02*
X281315D01*
X280815Y289158D02*
Y289657D01*
X279815Y289158D02*
X280815D01*
X279815D02*
Y289657D01*
X267199Y301951D02*
X267699D01*
X267199D02*
Y302951D01*
X267699D01*
Y303451D01*
X268699D01*
Y302951D02*
Y303451D01*
Y302951D02*
X269199D01*
Y301951D02*
Y302951D01*
X268699Y301951D02*
X269199D01*
X268699Y301451D02*
Y301951D01*
X267699Y301451D02*
X268699D01*
X267699D02*
Y301951D01*
X230496Y347138D02*
X230996D01*
X230496D02*
Y348138D01*
X230996D01*
Y348638D01*
X231996D01*
Y348138D02*
Y348638D01*
Y348138D02*
X232496D01*
Y347138D02*
Y348138D01*
X231996Y347138D02*
X232496D01*
X231996Y346638D02*
Y347138D01*
X230996Y346638D02*
X231996D01*
X230996D02*
Y347138D01*
X300969Y292807D02*
X301468D01*
X300969D02*
Y293807D01*
X301468D01*
Y294307D01*
X302468D01*
Y293807D02*
Y294307D01*
Y293807D02*
X302969D01*
Y292807D02*
Y293807D01*
X302468Y292807D02*
X302969D01*
X302468Y292307D02*
Y292807D01*
X301468Y292307D02*
X302468D01*
X301468D02*
Y292807D01*
X256087Y351862D02*
X256587D01*
X256087D02*
Y352862D01*
X256587D01*
Y353362D01*
X257587D01*
Y352862D02*
Y353362D01*
Y352862D02*
X258087D01*
Y351862D02*
Y352862D01*
X257587Y351862D02*
X258087D01*
X257587Y351362D02*
Y351862D01*
X256587Y351362D02*
X257587D01*
X256587D02*
Y351862D01*
X249787Y353043D02*
X250287D01*
X249787D02*
Y354043D01*
X250287D01*
Y354543D01*
X251287D01*
Y354043D02*
Y354543D01*
Y354043D02*
X251787D01*
Y353043D02*
Y354043D01*
X251287Y353043D02*
X251787D01*
X251287Y352543D02*
Y353043D01*
X250287Y352543D02*
X251287D01*
X250287D02*
Y353043D01*
X283646Y424303D02*
X284146D01*
X283646D02*
Y425303D01*
X284146D01*
Y425803D01*
X285146D01*
Y425303D02*
Y425803D01*
Y425303D02*
X285646D01*
Y424303D02*
Y425303D01*
X285146Y424303D02*
X285646D01*
X285146Y423803D02*
Y424303D01*
X284146Y423803D02*
X285146D01*
X284146D02*
Y424303D01*
X352543Y423122D02*
X353043D01*
X352543D02*
Y424122D01*
X353043D01*
Y424622D01*
X354043D01*
Y424122D02*
Y424622D01*
Y424122D02*
X354543D01*
Y423122D02*
Y424122D01*
X354043Y423122D02*
X354543D01*
X354043Y422622D02*
Y423122D01*
X353043Y422622D02*
X354043D01*
X353043D02*
Y423122D01*
X352829Y427738D02*
X353329D01*
X352829D02*
Y428738D01*
X353329D01*
Y429238D01*
X354329D01*
Y428738D02*
Y429238D01*
Y428738D02*
X354829D01*
Y427738D02*
Y428738D01*
X354329Y427738D02*
X354829D01*
X354329Y427238D02*
Y427738D01*
X353329Y427238D02*
X354329D01*
X353329D02*
Y427738D01*
X342307Y345957D02*
X342807D01*
X342307D02*
Y346957D01*
X342807D01*
Y347457D01*
X343807D01*
Y346957D02*
Y347457D01*
Y346957D02*
X344307D01*
Y345957D02*
Y346957D01*
X343807Y345957D02*
X344307D01*
X343807Y345457D02*
Y345957D01*
X342807Y345457D02*
X343807D01*
X342807D02*
Y345957D01*
X341520Y342020D02*
X342020D01*
X341520D02*
Y343020D01*
X342020D01*
Y343520D01*
X343020D01*
Y343020D02*
Y343520D01*
Y343020D02*
X343520D01*
Y342020D02*
Y343020D01*
X343020Y342020D02*
X343520D01*
X343020Y341520D02*
Y342020D01*
X342020Y341520D02*
X343020D01*
X342020D02*
Y342020D01*
X252150Y273050D02*
X252650D01*
X252150D02*
Y274050D01*
X252650D01*
Y274550D01*
X253650D01*
Y274050D02*
Y274550D01*
Y274050D02*
X254150D01*
Y273050D02*
Y274050D01*
X253650Y273050D02*
X254150D01*
X253650Y272550D02*
Y273050D01*
X252650Y272550D02*
X253650D01*
X252650D02*
Y273050D01*
X252150Y275931D02*
X252650D01*
X252150D02*
Y276931D01*
X252650D01*
Y277431D01*
X253650D01*
Y276931D02*
Y277431D01*
Y276931D02*
X254150D01*
Y275931D02*
Y276931D01*
X253650Y275931D02*
X254150D01*
X253650Y275431D02*
Y275931D01*
X252650Y275431D02*
X253650D01*
X252650D02*
Y275931D01*
X373410Y367610D02*
X373909D01*
X373410D02*
Y368610D01*
X373909D01*
Y369110D01*
X374909D01*
Y368610D02*
Y369110D01*
Y368610D02*
X375410D01*
Y367610D02*
Y368610D01*
X374909Y367610D02*
X375410D01*
X374909Y367110D02*
Y367610D01*
X373909Y367110D02*
X374909D01*
X373909D02*
Y367610D01*
X361556Y365248D02*
X362056D01*
X361556D02*
Y366248D01*
X362056D01*
Y366748D01*
X363056D01*
Y366248D02*
Y366748D01*
Y366248D02*
X363556D01*
Y365248D02*
Y366248D01*
X363056Y365248D02*
X363556D01*
X363056Y364748D02*
Y365248D01*
X362056Y364748D02*
X363056D01*
X362056D02*
Y365248D01*
X352937Y368004D02*
X353437D01*
X352937D02*
Y369004D01*
X353437D01*
Y369504D01*
X354437D01*
Y369004D02*
Y369504D01*
Y369004D02*
X354937D01*
Y368004D02*
Y369004D01*
X354437Y368004D02*
X354937D01*
X354437Y367504D02*
Y368004D01*
X353437Y367504D02*
X354437D01*
X353437D02*
Y368004D01*
X345063Y364854D02*
X345563D01*
X345063D02*
Y365854D01*
X345563D01*
Y366354D01*
X346563D01*
Y365854D02*
Y366354D01*
Y365854D02*
X347063D01*
Y364854D02*
Y365854D01*
X346563Y364854D02*
X347063D01*
X346563Y364354D02*
Y364854D01*
X345563Y364354D02*
X346563D01*
X345563D02*
Y364854D01*
X339551Y377059D02*
X340051D01*
X339551D02*
Y378059D01*
X340051D01*
Y378559D01*
X341051D01*
Y378059D02*
Y378559D01*
Y378059D02*
X341551D01*
Y377059D02*
Y378059D01*
X341051Y377059D02*
X341551D01*
X341051Y376559D02*
Y377059D01*
X340051Y376559D02*
X341051D01*
X340051D02*
Y377059D01*
X336402Y280602D02*
X336902D01*
X336402D02*
Y281602D01*
X336902D01*
Y282102D01*
X337902D01*
Y281602D02*
Y282102D01*
Y281602D02*
X338402D01*
Y280602D02*
Y281602D01*
X337902Y280602D02*
X338402D01*
X337902Y280102D02*
Y280602D01*
X336902Y280102D02*
X337902D01*
X336902D02*
Y280602D01*
X316323Y275091D02*
X316823D01*
X316323D02*
Y276091D01*
X316823D01*
Y276590D01*
X317823D01*
Y276091D02*
Y276590D01*
Y276091D02*
X318323D01*
Y275091D02*
Y276091D01*
X317823Y275091D02*
X318323D01*
X317823Y274590D02*
Y275091D01*
X316823Y274590D02*
X317823D01*
X316823D02*
Y275091D01*
X354118Y280602D02*
X354618D01*
X354118D02*
Y281602D01*
X354618D01*
Y282102D01*
X355618D01*
Y281602D02*
Y282102D01*
Y281602D02*
X356118D01*
Y280602D02*
Y281602D01*
X355618Y280602D02*
X356118D01*
X355618Y280102D02*
Y280602D01*
X354618Y280102D02*
X355618D01*
X354618D02*
Y280602D01*
X298208Y314161D02*
X298708D01*
X298208D02*
Y315161D01*
X298708D01*
Y315661D01*
X299708D01*
Y315161D02*
Y315661D01*
Y315161D02*
X300208D01*
Y314161D02*
Y315161D01*
X299708Y314161D02*
X300208D01*
X299708Y313661D02*
Y314161D01*
X298708Y313661D02*
X299708D01*
X298708D02*
Y314161D01*
X374590Y300287D02*
X375091D01*
X374590D02*
Y301287D01*
X375091D01*
Y301787D01*
X376091D01*
Y301287D02*
Y301787D01*
Y301287D02*
X376590D01*
Y300287D02*
Y301287D01*
X376091Y300287D02*
X376590D01*
X376091Y299787D02*
Y300287D01*
X375091Y299787D02*
X376091D01*
X375091D02*
Y300287D01*
X369472Y295957D02*
X369972D01*
X369472D02*
Y296957D01*
X369972D01*
Y297457D01*
X370972D01*
Y296957D02*
Y297457D01*
Y296957D02*
X371472D01*
Y295957D02*
Y296957D01*
X370972Y295957D02*
X371472D01*
X370972Y295457D02*
Y295957D01*
X369972Y295457D02*
X370972D01*
X369972D02*
Y295957D01*
X361205Y267216D02*
X361705D01*
X361205D02*
Y268216D01*
X361705D01*
Y268717D01*
X362705D01*
Y268216D02*
Y268717D01*
Y268216D02*
X363205D01*
Y267216D02*
Y268216D01*
X362705Y267216D02*
X363205D01*
X362705Y266717D02*
Y267216D01*
X361705Y266717D02*
X362705D01*
X361705D02*
Y267216D01*
X297425Y258949D02*
X297925D01*
X297425D02*
Y259949D01*
X297925D01*
Y260449D01*
X298925D01*
Y259949D02*
Y260449D01*
Y259949D02*
X299425D01*
Y258949D02*
Y259949D01*
X298925Y258949D02*
X299425D01*
X298925Y258449D02*
Y258949D01*
X297925Y258449D02*
X298925D01*
X297925D02*
Y258949D01*
X287536Y271847D02*
X288036D01*
X287536D02*
Y272847D01*
X288036D01*
Y273347D01*
X289036D01*
Y272847D02*
Y273347D01*
Y272847D02*
X289536D01*
Y271847D02*
Y272847D01*
X289036Y271847D02*
X289536D01*
X289036Y271347D02*
Y271847D01*
X288036Y271347D02*
X289036D01*
X288036D02*
Y271847D01*
X287583Y266823D02*
X288083D01*
X287583D02*
Y267823D01*
X288083D01*
Y268323D01*
X289083D01*
Y267823D02*
Y268323D01*
Y267823D02*
X289583D01*
Y266823D02*
Y267823D01*
X289083Y266823D02*
X289583D01*
X289083Y266323D02*
Y266823D01*
X288083Y266323D02*
X289083D01*
X288083D02*
Y266823D01*
X309630Y265248D02*
X310130D01*
X309630D02*
Y266248D01*
X310130D01*
Y266748D01*
X311130D01*
Y266248D02*
Y266748D01*
Y266248D02*
X311630D01*
Y265248D02*
Y266248D01*
X311130Y265248D02*
X311630D01*
X311130Y264748D02*
Y265248D01*
X310130Y264748D02*
X311130D01*
X310130D02*
Y265248D01*
X299787Y280209D02*
X300287D01*
X299787D02*
Y281209D01*
X300287D01*
Y281709D01*
X301287D01*
Y281209D02*
Y281709D01*
Y281209D02*
X301787D01*
Y280209D02*
Y281209D01*
X301287Y280209D02*
X301787D01*
X301287Y279709D02*
Y280209D01*
X300287Y279709D02*
X301287D01*
X300287D02*
Y280209D01*
X319866Y286508D02*
X320366D01*
X319866D02*
Y287508D01*
X320366D01*
Y288008D01*
X321366D01*
Y287508D02*
Y288008D01*
Y287508D02*
X321866D01*
Y286508D02*
Y287508D01*
X321366Y286508D02*
X321866D01*
X321366Y286008D02*
Y286508D01*
X320366Y286008D02*
X321366D01*
X320366D02*
Y286508D01*
X307268Y290445D02*
X307768D01*
X307268D02*
Y291445D01*
X307768D01*
Y291945D01*
X308768D01*
Y291445D02*
Y291945D01*
Y291445D02*
X309268D01*
Y290445D02*
Y291445D01*
X308768Y290445D02*
X309268D01*
X308768Y289945D02*
Y290445D01*
X307768Y289945D02*
X308768D01*
X307768D02*
Y290445D01*
X282465Y301075D02*
X282965D01*
X282465D02*
Y302075D01*
X282965D01*
Y302575D01*
X283965D01*
Y302075D02*
Y302575D01*
Y302075D02*
X284465D01*
Y301075D02*
Y302075D01*
X283965Y301075D02*
X284465D01*
X283965Y300575D02*
Y301075D01*
X282965Y300575D02*
X283965D01*
X282965D02*
Y301075D01*
X375772Y364823D02*
X376272D01*
X375772D02*
Y365823D01*
X376272D01*
Y366323D01*
X377272D01*
Y365823D02*
Y366323D01*
Y365823D02*
X377772D01*
Y364823D02*
Y365823D01*
X377272Y364823D02*
X377772D01*
X377272Y364323D02*
Y364823D01*
X376272Y364323D02*
X377272D01*
X376272D02*
Y364823D01*
X363567Y358161D02*
X364067D01*
X363567D02*
Y359161D01*
X364067D01*
Y359661D01*
X365067D01*
Y359161D02*
Y359661D01*
Y359161D02*
X365567D01*
Y358161D02*
Y359161D01*
X365067Y358161D02*
X365567D01*
X365067Y357661D02*
Y358161D01*
X364067Y357661D02*
X365067D01*
X364067D02*
Y358161D01*
X352150Y382571D02*
X352650D01*
X352150D02*
Y383571D01*
X352650D01*
Y384071D01*
X353650D01*
Y383571D02*
Y384071D01*
Y383571D02*
X354150D01*
Y382571D02*
Y383571D01*
X353650Y382571D02*
X354150D01*
X353650Y382071D02*
Y382571D01*
X352650Y382071D02*
X353650D01*
X352650D02*
Y382571D01*
X371047Y358161D02*
X371547D01*
X371047D02*
Y359161D01*
X371547D01*
Y359661D01*
X372547D01*
Y359161D02*
Y359661D01*
Y359161D02*
X373047D01*
Y358161D02*
Y359161D01*
X372547Y358161D02*
X373047D01*
X372547Y357661D02*
Y358161D01*
X371547Y357661D02*
X372547D01*
X371547D02*
Y358161D01*
X374590D02*
X375091D01*
X374590D02*
Y359161D01*
X375091D01*
Y359661D01*
X376091D01*
Y359161D02*
Y359661D01*
Y359161D02*
X376590D01*
Y358161D02*
Y359161D01*
X376091Y358161D02*
X376590D01*
X376091Y357661D02*
Y358161D01*
X375091Y357661D02*
X376091D01*
X375091D02*
Y358161D01*
X376559Y354618D02*
X377059D01*
X376559D02*
Y355618D01*
X377059D01*
Y356118D01*
X378059D01*
Y355618D02*
Y356118D01*
Y355618D02*
X378559D01*
Y354618D02*
Y355618D01*
X378059Y354618D02*
X378559D01*
X378059Y354118D02*
Y354618D01*
X377059Y354118D02*
X378059D01*
X377059D02*
Y354618D01*
X369866Y345169D02*
X370366D01*
X369866D02*
Y346169D01*
X370366D01*
Y346669D01*
X371366D01*
Y346169D02*
Y346669D01*
Y346169D02*
X371866D01*
Y345169D02*
Y346169D01*
X371366Y345169D02*
X371866D01*
X371366Y344669D02*
Y345169D01*
X370366Y344669D02*
X371366D01*
X370366D02*
Y345169D01*
X373410D02*
X373909D01*
X373410D02*
Y346169D01*
X373909D01*
Y346669D01*
X374909D01*
Y346169D02*
Y346669D01*
Y346169D02*
X375410D01*
Y345169D02*
Y346169D01*
X374909Y345169D02*
X375410D01*
X374909Y344669D02*
Y345169D01*
X373909Y344669D02*
X374909D01*
X373909D02*
Y345169D01*
X376559D02*
X377059D01*
X376559D02*
Y346169D01*
X377059D01*
Y346669D01*
X378059D01*
Y346169D02*
Y346669D01*
Y346169D02*
X378559D01*
Y345169D02*
Y346169D01*
X378059Y345169D02*
X378559D01*
X378059Y344669D02*
Y345169D01*
X377059Y344669D02*
X378059D01*
X377059D02*
Y345169D01*
X359630Y311311D02*
X360130D01*
X359630D02*
Y312311D01*
X360130D01*
Y312811D01*
X361130D01*
Y312311D02*
Y312811D01*
Y312311D02*
X361630D01*
Y311311D02*
Y312311D01*
X361130Y311311D02*
X361630D01*
X361130Y310811D02*
Y311311D01*
X360130Y310811D02*
X361130D01*
X360130D02*
Y311311D01*
X359630Y307768D02*
X360130D01*
X359630D02*
Y308768D01*
X360130D01*
Y309268D01*
X361130D01*
Y308768D02*
Y309268D01*
Y308768D02*
X361630D01*
Y307768D02*
Y308768D01*
X361130Y307768D02*
X361630D01*
X361130Y307268D02*
Y307768D01*
X360130Y307268D02*
X361130D01*
X360130D02*
Y307768D01*
X260417Y406980D02*
X260917D01*
X260417D02*
Y407980D01*
X260917D01*
Y408480D01*
X261917D01*
Y407980D02*
Y408480D01*
Y407980D02*
X262417D01*
Y406980D02*
Y407980D01*
X261917Y406980D02*
X262417D01*
X261917Y406480D02*
Y406980D01*
X260917Y406480D02*
X261917D01*
X260917D02*
Y406980D01*
X260417Y403831D02*
X260917D01*
X260417D02*
Y404831D01*
X260917D01*
Y405331D01*
X261917D01*
Y404831D02*
Y405331D01*
Y404831D02*
X262417D01*
Y403831D02*
Y404831D01*
X261917Y403831D02*
X262417D01*
X261917Y403331D02*
Y403831D01*
X260917Y403331D02*
X261917D01*
X260917D02*
Y403831D01*
X253331Y405799D02*
X253831D01*
X253331D02*
Y406799D01*
X253831D01*
Y407299D01*
X254831D01*
Y406799D02*
Y407299D01*
Y406799D02*
X255331D01*
Y405799D02*
Y406799D01*
X254831Y405799D02*
X255331D01*
X254831Y405299D02*
Y405799D01*
X253831Y405299D02*
X254831D01*
X253831D02*
Y405799D01*
X249787D02*
X250287D01*
X249787D02*
Y406799D01*
X250287D01*
Y407299D01*
X251287D01*
Y406799D02*
Y407299D01*
Y406799D02*
X251787D01*
Y405799D02*
Y406799D01*
X251287Y405799D02*
X251787D01*
X251287Y405299D02*
Y405799D01*
X250287Y405299D02*
X251287D01*
X250287D02*
Y405799D01*
X273803Y437689D02*
X274303D01*
X273803D02*
Y438689D01*
X274303D01*
Y439189D01*
X275303D01*
Y438689D02*
Y439189D01*
Y438689D02*
X275803D01*
Y437689D02*
Y438689D01*
X275303Y437689D02*
X275803D01*
X275303Y437189D02*
Y437689D01*
X274303Y437189D02*
X275303D01*
X274303D02*
Y437689D01*
X273803Y434146D02*
X274303D01*
X273803D02*
Y435146D01*
X274303D01*
Y435646D01*
X275303D01*
Y435146D02*
Y435646D01*
Y435146D02*
X275803D01*
Y434146D02*
Y435146D01*
X275303Y434146D02*
X275803D01*
X275303Y433646D02*
Y434146D01*
X274303Y433646D02*
X275303D01*
X274303D02*
Y434146D01*
X309236Y408949D02*
X309736D01*
X309236D02*
Y409949D01*
X309736D01*
Y410449D01*
X310736D01*
Y409949D02*
Y410449D01*
Y409949D02*
X311236D01*
Y408949D02*
Y409949D01*
X310736Y408949D02*
X311236D01*
X310736Y408449D02*
Y408949D01*
X309736Y408449D02*
X310736D01*
X309736D02*
Y408949D01*
X316717Y413279D02*
X317216D01*
X316717D02*
Y414280D01*
X317216D01*
Y414780D01*
X318216D01*
Y414280D02*
Y414780D01*
Y414280D02*
X318717D01*
Y413279D02*
Y414280D01*
X318216Y413279D02*
X318717D01*
X318216Y412780D02*
Y413279D01*
X317216Y412780D02*
X318216D01*
X317216D02*
Y413279D01*
X289551Y418004D02*
X290051D01*
X289551D02*
Y419004D01*
X290051D01*
Y419504D01*
X291051D01*
Y419004D02*
Y419504D01*
Y419004D02*
X291551D01*
Y418004D02*
Y419004D01*
X291051Y418004D02*
X291551D01*
X291051Y417504D02*
Y418004D01*
X290051Y417504D02*
X291051D01*
X290051D02*
Y418004D01*
X284039Y414461D02*
X284539D01*
X284039D02*
Y415461D01*
X284539D01*
Y415961D01*
X285539D01*
Y415461D02*
Y415961D01*
Y415461D02*
X286039D01*
Y414461D02*
Y415461D01*
X285539Y414461D02*
X286039D01*
X285539Y413961D02*
Y414461D01*
X284539Y413961D02*
X285539D01*
X284539D02*
Y414461D01*
X276165Y404224D02*
X276665D01*
X276165D02*
Y405224D01*
X276665D01*
Y405724D01*
X277665D01*
Y405224D02*
Y405724D01*
Y405224D02*
X278165D01*
Y404224D02*
Y405224D01*
X277665Y404224D02*
X278165D01*
X277665Y403724D02*
Y404224D01*
X276665Y403724D02*
X277665D01*
X276665D02*
Y404224D01*
X280102Y414461D02*
X280602D01*
X280102D02*
Y415461D01*
X280602D01*
Y415961D01*
X281602D01*
Y415461D02*
Y415961D01*
Y415461D02*
X282102D01*
Y414461D02*
Y415461D01*
X281602Y414461D02*
X282102D01*
X281602Y413961D02*
Y414461D01*
X280602Y413961D02*
X281602D01*
X280602D02*
Y414461D01*
X281283Y365642D02*
X281784D01*
X281283D02*
Y366642D01*
X281784D01*
Y367142D01*
X282784D01*
Y366642D02*
Y367142D01*
Y366642D02*
X283283D01*
Y365642D02*
Y366642D01*
X282784Y365642D02*
X283283D01*
X282784Y365142D02*
Y365642D01*
X281784Y365142D02*
X282784D01*
X281784D02*
Y365642D01*
X281283Y361311D02*
X281784D01*
X281283D02*
Y362311D01*
X281784D01*
Y362811D01*
X282784D01*
Y362311D02*
Y362811D01*
Y362311D02*
X283283D01*
Y361311D02*
Y362311D01*
X282784Y361311D02*
X283283D01*
X282784Y360811D02*
Y361311D01*
X281784Y360811D02*
X282784D01*
X281784D02*
Y361311D01*
X301362Y371941D02*
X301862D01*
X301362D02*
Y372941D01*
X301862D01*
Y373441D01*
X302862D01*
Y372941D02*
Y373441D01*
Y372941D02*
X303362D01*
Y371941D02*
Y372941D01*
X302862Y371941D02*
X303362D01*
X302862Y371441D02*
Y371941D01*
X301862Y371441D02*
X302862D01*
X301862D02*
Y371941D01*
X321835Y388870D02*
X322335D01*
X321835D02*
Y389870D01*
X322335D01*
Y390370D01*
X323335D01*
Y389870D02*
Y390370D01*
Y389870D02*
X323835D01*
Y388870D02*
Y389870D01*
X323335Y388870D02*
X323835D01*
X323335Y388370D02*
Y388870D01*
X322335Y388370D02*
X323335D01*
X322335D02*
Y388870D01*
X321835Y392807D02*
X322335D01*
X321835D02*
Y393807D01*
X322335D01*
Y394307D01*
X323335D01*
Y393807D02*
Y394307D01*
Y393807D02*
X323835D01*
Y392807D02*
Y393807D01*
X323335Y392807D02*
X323835D01*
X323335Y392307D02*
Y392807D01*
X322335Y392307D02*
X323335D01*
X322335D02*
Y392807D01*
X318685Y358949D02*
X319185D01*
X318685D02*
Y359949D01*
X319185D01*
Y360449D01*
X320185D01*
Y359949D02*
Y360449D01*
Y359949D02*
X320685D01*
Y358949D02*
Y359949D01*
X320185Y358949D02*
X320685D01*
X320185Y358449D02*
Y358949D01*
X319185Y358449D02*
X320185D01*
X319185D02*
Y358949D01*
X258449Y368791D02*
X258949D01*
X258449D02*
Y369791D01*
X258949D01*
Y370291D01*
X259949D01*
Y369791D02*
Y370291D01*
Y369791D02*
X260449D01*
Y368791D02*
Y369791D01*
X259949Y368791D02*
X260449D01*
X259949Y368291D02*
Y368791D01*
X258949Y368291D02*
X259949D01*
X258949D02*
Y368791D01*
X227740Y395563D02*
X228240D01*
X227740D02*
Y396563D01*
X228240D01*
Y397063D01*
X229240D01*
Y396563D02*
Y397063D01*
Y396563D02*
X229740D01*
Y395563D02*
Y396563D01*
X229240Y395563D02*
X229740D01*
X229240Y395063D02*
Y395563D01*
X228240Y395063D02*
X229240D01*
X228240D02*
Y395563D01*
X282465Y353012D02*
X282965D01*
X282465D02*
Y354012D01*
X282965D01*
Y354512D01*
X283965D01*
Y354012D02*
Y354512D01*
Y354012D02*
X284465D01*
Y353012D02*
Y354012D01*
X283965Y353012D02*
X284465D01*
X283965Y352512D02*
Y353012D01*
X282965Y352512D02*
X283965D01*
X282965D02*
Y353012D01*
X292307Y355799D02*
X292807D01*
X292307D02*
Y356799D01*
X292807D01*
Y357299D01*
X293807D01*
Y356799D02*
Y357299D01*
Y356799D02*
X294307D01*
Y355799D02*
Y356799D01*
X293807Y355799D02*
X294307D01*
X293807Y355299D02*
Y355799D01*
X292807Y355299D02*
X293807D01*
X292807D02*
Y355799D01*
X363567Y299106D02*
X364067D01*
X363567D02*
Y300106D01*
X364067D01*
Y300606D01*
X365067D01*
Y300106D02*
Y300606D01*
Y300106D02*
X365567D01*
Y299106D02*
Y300106D01*
X365067Y299106D02*
X365567D01*
X365067Y298606D02*
Y299106D01*
X364067Y298606D02*
X365067D01*
X364067D02*
Y299106D01*
X363567Y295169D02*
X364067D01*
X363567D02*
Y296169D01*
X364067D01*
Y296669D01*
X365067D01*
Y296169D02*
Y296669D01*
Y296169D02*
X365567D01*
Y295169D02*
Y296169D01*
X365067Y295169D02*
X365567D01*
X365067Y294669D02*
Y295169D01*
X364067Y294669D02*
X365067D01*
X364067D02*
Y295169D01*
X375772Y284146D02*
X376272D01*
X375772D02*
Y285146D01*
X376272D01*
Y285646D01*
X377272D01*
Y285146D02*
Y285646D01*
Y285146D02*
X377772D01*
Y284146D02*
Y285146D01*
X377272Y284146D02*
X377772D01*
X377272Y283646D02*
Y284146D01*
X376272Y283646D02*
X377272D01*
X376272D02*
Y284146D01*
X373410Y286508D02*
X373909D01*
X373410D02*
Y287508D01*
X373909D01*
Y288008D01*
X374909D01*
Y287508D02*
Y288008D01*
Y287508D02*
X375410D01*
Y286508D02*
Y287508D01*
X374909Y286508D02*
X375410D01*
X374909Y286008D02*
Y286508D01*
X373909Y286008D02*
X374909D01*
X373909D02*
Y286508D01*
X344560Y268528D02*
X345060D01*
X344560D02*
Y269528D01*
X345060D01*
Y270028D01*
X346060D01*
Y269528D02*
Y270028D01*
Y269528D02*
X346560D01*
Y268528D02*
Y269528D01*
X346060Y268528D02*
X346560D01*
X346060Y268028D02*
Y268528D01*
X345060Y268028D02*
X346060D01*
X345060D02*
Y268528D01*
X333646Y268004D02*
X334146D01*
X333646D02*
Y269004D01*
X334146D01*
Y269504D01*
X335146D01*
Y269004D02*
Y269504D01*
Y269004D02*
X335646D01*
Y268004D02*
Y269004D01*
X335146Y268004D02*
X335646D01*
X335146Y267504D02*
Y268004D01*
X334146Y267504D02*
X335146D01*
X334146D02*
Y268004D01*
X337189Y247532D02*
X337689D01*
X337189D02*
Y248532D01*
X337689D01*
Y249031D01*
X338689D01*
Y248532D02*
Y249031D01*
Y248532D02*
X339189D01*
Y247532D02*
Y248532D01*
X338689Y247532D02*
X339189D01*
X338689Y247031D02*
Y247532D01*
X337689Y247031D02*
X338689D01*
X337689D02*
Y247532D01*
X336402Y236508D02*
X336902D01*
X336402D02*
Y237508D01*
X336902D01*
Y238008D01*
X337902D01*
Y237508D02*
Y238008D01*
Y237508D02*
X338402D01*
Y236508D02*
Y237508D01*
X337902Y236508D02*
X338402D01*
X337902Y236008D02*
Y236508D01*
X336902Y236008D02*
X337902D01*
X336902D02*
Y236508D01*
X325378Y255799D02*
X325878D01*
X325378D02*
Y256799D01*
X325878D01*
Y257299D01*
X326878D01*
Y256799D02*
Y257299D01*
Y256799D02*
X327378D01*
Y255799D02*
Y256799D01*
X326878Y255799D02*
X327378D01*
X326878Y255299D02*
Y255799D01*
X325878Y255299D02*
X326878D01*
X325878D02*
Y255799D01*
X341126Y286508D02*
X341626D01*
X341126D02*
Y287508D01*
X341626D01*
Y288008D01*
X342626D01*
Y287508D02*
Y288008D01*
Y287508D02*
X343126D01*
Y286508D02*
Y287508D01*
X342626Y286508D02*
X343126D01*
X342626Y286008D02*
Y286508D01*
X341626Y286008D02*
X342626D01*
X341626D02*
Y286508D01*
X347819D02*
X348319D01*
X347819D02*
Y287508D01*
X348319D01*
Y288008D01*
X349319D01*
Y287508D02*
Y288008D01*
Y287508D02*
X349819D01*
Y286508D02*
Y287508D01*
X349319Y286508D02*
X349819D01*
X349319Y286008D02*
Y286508D01*
X348319Y286008D02*
X349319D01*
X348319D02*
Y286508D01*
X336795Y291626D02*
X337295D01*
X336795D02*
Y292626D01*
X337295D01*
Y293126D01*
X338295D01*
Y292626D02*
Y293126D01*
Y292626D02*
X338795D01*
Y291626D02*
Y292626D01*
X338295Y291626D02*
X338795D01*
X338295Y291126D02*
Y291626D01*
X337295Y291126D02*
X338295D01*
X337295D02*
Y291626D01*
X341913Y277453D02*
X342413D01*
X341913D02*
Y278453D01*
X342413D01*
Y278953D01*
X343413D01*
Y278453D02*
Y278953D01*
Y278453D02*
X343913D01*
Y277453D02*
Y278453D01*
X343413Y277453D02*
X343913D01*
X343413Y276953D02*
Y277453D01*
X342413Y276953D02*
X343413D01*
X342413D02*
Y277453D01*
X315929Y268791D02*
X316429D01*
X315929D02*
Y269791D01*
X316429D01*
Y270291D01*
X317429D01*
Y269791D02*
Y270291D01*
Y269791D02*
X317929D01*
Y268791D02*
Y269791D01*
X317429Y268791D02*
X317929D01*
X317429Y268291D02*
Y268791D01*
X316429Y268291D02*
X317429D01*
X316429D02*
Y268791D01*
X265535Y236902D02*
X266035D01*
X265535D02*
Y237902D01*
X266035D01*
Y238402D01*
X267035D01*
Y237902D02*
Y238402D01*
Y237902D02*
X267535D01*
Y236902D02*
Y237902D01*
X267035Y236902D02*
X267535D01*
X267035Y236402D02*
Y236902D01*
X266035Y236402D02*
X267035D01*
X266035D02*
Y236902D01*
X265142Y241626D02*
X265642D01*
X265142D02*
Y242626D01*
X265642D01*
Y243126D01*
X266642D01*
Y242626D02*
Y243126D01*
Y242626D02*
X267142D01*
Y241626D02*
Y242626D01*
X266642Y241626D02*
X267142D01*
X266642Y241126D02*
Y241626D01*
X265642Y241126D02*
X266642D01*
X265642D02*
Y241626D01*
X264748Y247138D02*
X265248D01*
X264748D02*
Y248138D01*
X265248D01*
Y248638D01*
X266248D01*
Y248138D02*
Y248638D01*
Y248138D02*
X266748D01*
Y247138D02*
Y248138D01*
X266248Y247138D02*
X266748D01*
X266248Y246638D02*
Y247138D01*
X265248Y246638D02*
X266248D01*
X265248D02*
Y247138D01*
X264354Y251468D02*
X264854D01*
X264354D02*
Y252468D01*
X264854D01*
Y252969D01*
X265854D01*
Y252468D02*
Y252969D01*
Y252468D02*
X266354D01*
Y251468D02*
Y252468D01*
X265854Y251468D02*
X266354D01*
X265854Y250969D02*
Y251468D01*
X264854Y250969D02*
X265854D01*
X264854D02*
Y251468D01*
X233252Y278240D02*
X233752D01*
X233252D02*
Y279240D01*
X233752D01*
Y279740D01*
X234752D01*
Y279240D02*
Y279740D01*
Y279240D02*
X235252D01*
Y278240D02*
Y279240D01*
X234752Y278240D02*
X235252D01*
X234752Y277740D02*
Y278240D01*
X233752Y277740D02*
X234752D01*
X233752D02*
Y278240D01*
X236008Y262492D02*
X236508D01*
X236008D02*
Y263492D01*
X236508D01*
Y263992D01*
X237508D01*
Y263492D02*
Y263992D01*
Y263492D02*
X238008D01*
Y262492D02*
Y263492D01*
X237508Y262492D02*
X238008D01*
X237508Y261992D02*
Y262492D01*
X236508Y261992D02*
X237508D01*
X236508D02*
Y262492D01*
X237583Y284933D02*
X238083D01*
X237583D02*
Y285933D01*
X238083D01*
Y286433D01*
X239083D01*
Y285933D02*
Y286433D01*
Y285933D02*
X239583D01*
Y284933D02*
Y285933D01*
X239083Y284933D02*
X239583D01*
X239083Y284433D02*
Y284933D01*
X238083Y284433D02*
X239083D01*
X238083D02*
Y284933D01*
X242307Y257374D02*
X242807D01*
X242307D02*
Y258374D01*
X242807D01*
Y258874D01*
X243807D01*
Y258374D02*
Y258874D01*
Y258374D02*
X244307D01*
Y257374D02*
Y258374D01*
X243807Y257374D02*
X244307D01*
X243807Y256874D02*
Y257374D01*
X242807Y256874D02*
X243807D01*
X242807D02*
Y257374D01*
X260793Y274303D02*
X261293D01*
X260793D02*
Y275303D01*
X261293D01*
Y275803D01*
X262293D01*
Y275303D02*
Y275803D01*
Y275303D02*
X262793D01*
Y274303D02*
Y275303D01*
X262293Y274303D02*
X262793D01*
X262293Y273803D02*
Y274303D01*
X261293Y273803D02*
X262293D01*
X261293D02*
Y274303D01*
X270260Y279028D02*
X270760D01*
X270260D02*
Y280028D01*
X270760D01*
Y280528D01*
X271760D01*
Y280028D02*
Y280528D01*
Y280028D02*
X272260D01*
Y279028D02*
Y280028D01*
X271760Y279028D02*
X272260D01*
X271760Y278528D02*
Y279028D01*
X270760Y278528D02*
X271760D01*
X270760D02*
Y279028D01*
X273659Y282427D02*
X274159D01*
X273659D02*
Y283427D01*
X274159D01*
Y283927D01*
X275159D01*
Y283427D02*
Y283927D01*
Y283427D02*
X275659D01*
Y282427D02*
Y283427D01*
X275159Y282427D02*
X275659D01*
X275159Y281927D02*
Y282427D01*
X274159Y281927D02*
X275159D01*
X274159D02*
Y282427D01*
X256087Y279028D02*
X256587D01*
X256087D02*
Y280028D01*
X256587D01*
Y280528D01*
X257587D01*
Y280028D02*
Y280528D01*
Y280028D02*
X258087D01*
Y279028D02*
Y280028D01*
X257587Y279028D02*
X258087D01*
X257587Y278528D02*
Y279028D01*
X256587Y278528D02*
X257587D01*
X256587D02*
Y279028D01*
X251756Y283358D02*
X252256D01*
X251756D02*
Y284358D01*
X252256D01*
Y284858D01*
X253256D01*
Y284358D02*
Y284858D01*
Y284358D02*
X253756D01*
Y283358D02*
Y284358D01*
X253256Y283358D02*
X253756D01*
X253256Y282858D02*
Y283358D01*
X252256Y282858D02*
X253256D01*
X252256D02*
Y283358D01*
X246085Y295010D02*
X246585D01*
X246085D02*
Y296010D01*
X246585D01*
Y296510D01*
X247585D01*
Y296010D02*
Y296510D01*
Y296010D02*
X248085D01*
Y295010D02*
Y296010D01*
X247585Y295010D02*
X248085D01*
X247585Y294510D02*
Y295010D01*
X246585Y294510D02*
X247585D01*
X246585D02*
Y295010D01*
X228528Y324697D02*
X229028D01*
X228528D02*
Y325697D01*
X229028D01*
Y326197D01*
X230028D01*
Y325697D02*
Y326197D01*
Y325697D02*
X230528D01*
Y324697D02*
Y325697D01*
X230028Y324697D02*
X230528D01*
X230028Y324197D02*
Y324697D01*
X229028Y324197D02*
X230028D01*
X229028D02*
Y324697D01*
X272228Y314461D02*
X272728D01*
X272228D02*
Y315461D01*
X272728D01*
Y315961D01*
X273728D01*
Y315461D02*
Y315961D01*
Y315461D02*
X274228D01*
Y314461D02*
Y315461D01*
X273728Y314461D02*
X274228D01*
X273728Y313961D02*
Y314461D01*
X272728Y313961D02*
X273728D01*
X272728D02*
Y314461D01*
X256412Y315551D02*
X256912D01*
X256412D02*
Y316551D01*
X256912D01*
Y317051D01*
X257912D01*
Y316551D02*
Y317051D01*
Y316551D02*
X258412D01*
Y315551D02*
Y316551D01*
X257912Y315551D02*
X258412D01*
X257912Y315051D02*
Y315551D01*
X256912Y315051D02*
X257912D01*
X256912D02*
Y315551D01*
X256802Y335648D02*
X257302D01*
X256802D02*
Y336648D01*
X257302D01*
Y337148D01*
X258302D01*
Y336648D02*
Y337148D01*
Y336648D02*
X258802D01*
Y335648D02*
Y336648D01*
X258302Y335648D02*
X258802D01*
X258302Y335148D02*
Y335648D01*
X257302Y335148D02*
X258302D01*
X257302D02*
Y335648D01*
X250575Y332177D02*
X251075D01*
X250575D02*
Y333177D01*
X251075D01*
Y333677D01*
X252075D01*
Y333177D02*
Y333677D01*
Y333177D02*
X252575D01*
Y332177D02*
Y333177D01*
X252075Y332177D02*
X252575D01*
X252075Y331677D02*
Y332177D01*
X251075Y331677D02*
X252075D01*
X251075D02*
Y332177D01*
X250575Y326665D02*
X251075D01*
X250575D02*
Y327665D01*
X251075D01*
Y328165D01*
X252075D01*
Y327665D02*
Y328165D01*
Y327665D02*
X252575D01*
Y326665D02*
Y327665D01*
X252075Y326665D02*
X252575D01*
X252075Y326165D02*
Y326665D01*
X251075Y326165D02*
X252075D01*
X251075D02*
Y326665D01*
X250575Y321153D02*
X251075D01*
X250575D02*
Y322153D01*
X251075D01*
Y322654D01*
X252075D01*
Y322153D02*
Y322654D01*
Y322153D02*
X252575D01*
Y321153D02*
Y322153D01*
X252075Y321153D02*
X252575D01*
X252075Y320654D02*
Y321153D01*
X251075Y320654D02*
X252075D01*
X251075D02*
Y321153D01*
X243488Y335720D02*
X243988D01*
X243488D02*
Y336720D01*
X243988D01*
Y337221D01*
X244988D01*
Y336720D02*
Y337221D01*
Y336720D02*
X245488D01*
Y335720D02*
Y336720D01*
X244988Y335720D02*
X245488D01*
X244988Y335221D02*
Y335720D01*
X243988Y335221D02*
X244988D01*
X243988D02*
Y335720D01*
X293488Y307374D02*
X293988D01*
X293488D02*
Y308374D01*
X293988D01*
Y308874D01*
X294988D01*
Y308374D02*
Y308874D01*
Y308374D02*
X295488D01*
Y307374D02*
Y308374D01*
X294988Y307374D02*
X295488D01*
X294988Y306874D02*
Y307374D01*
X293988Y306874D02*
X294988D01*
X293988D02*
Y307374D01*
X323803Y315642D02*
X324303D01*
X323803D02*
Y316642D01*
X324303D01*
Y317142D01*
X325303D01*
Y316642D02*
Y317142D01*
Y316642D02*
X325803D01*
Y315642D02*
Y316642D01*
X325303Y315642D02*
X325803D01*
X325303Y315142D02*
Y315642D01*
X324303Y315142D02*
X325303D01*
X324303D02*
Y315642D01*
X310811Y333752D02*
X311311D01*
X310811D02*
Y334752D01*
X311311D01*
Y335252D01*
X312311D01*
Y334752D02*
Y335252D01*
Y334752D02*
X312811D01*
Y333752D02*
Y334752D01*
X312311Y333752D02*
X312811D01*
X312311Y333252D02*
Y333752D01*
X311311Y333252D02*
X312311D01*
X311311D02*
Y333752D01*
X340732D02*
X341232D01*
X340732D02*
Y334752D01*
X341232D01*
Y335252D01*
X342232D01*
Y334752D02*
Y335252D01*
Y334752D02*
X342732D01*
Y333752D02*
Y334752D01*
X342232Y333752D02*
X342732D01*
X342232Y333252D02*
Y333752D01*
X341232Y333252D02*
X342232D01*
X341232D02*
Y333752D01*
X305299Y342413D02*
X305799D01*
X305299D02*
Y343413D01*
X305799D01*
Y343913D01*
X306799D01*
Y343413D02*
Y343913D01*
Y343413D02*
X307299D01*
Y342413D02*
Y343413D01*
X306799Y342413D02*
X307299D01*
X306799Y341913D02*
Y342413D01*
X305799Y341913D02*
X306799D01*
X305799D02*
Y342413D01*
X311598Y348713D02*
X312098D01*
X311598D02*
Y349713D01*
X312098D01*
Y350213D01*
X313098D01*
Y349713D02*
Y350213D01*
Y349713D02*
X313598D01*
Y348713D02*
Y349713D01*
X313098Y348713D02*
X313598D01*
X313098Y348213D02*
Y348713D01*
X312098Y348213D02*
X313098D01*
X312098D02*
Y348713D01*
X326953Y355012D02*
X327453D01*
X326953D02*
Y356012D01*
X327453D01*
Y356512D01*
X328453D01*
Y356012D02*
Y356512D01*
Y356012D02*
X328953D01*
Y355012D02*
Y356012D01*
X328453Y355012D02*
X328953D01*
X328453Y354512D02*
Y355012D01*
X327453Y354512D02*
X328453D01*
X327453D02*
Y355012D01*
X328134Y362492D02*
X328634D01*
X328134D02*
Y363492D01*
X328634D01*
Y363992D01*
X329634D01*
Y363492D02*
Y363992D01*
Y363492D02*
X330134D01*
Y362492D02*
Y363492D01*
X329634Y362492D02*
X330134D01*
X329634Y361992D02*
Y362492D01*
X328634Y361992D02*
X329634D01*
X328634D02*
Y362492D01*
X337189Y371153D02*
X337689D01*
X337189D02*
Y372153D01*
X337689D01*
Y372654D01*
X338689D01*
Y372153D02*
Y372654D01*
Y372153D02*
X339189D01*
Y371153D02*
Y372153D01*
X338689Y371153D02*
X339189D01*
X338689Y370654D02*
Y371153D01*
X337689Y370654D02*
X338689D01*
X337689D02*
Y371153D01*
X328134Y375878D02*
X328634D01*
X328134D02*
Y376878D01*
X328634D01*
Y377378D01*
X329634D01*
Y376878D02*
Y377378D01*
Y376878D02*
X330134D01*
Y375878D02*
Y376878D01*
X329634Y375878D02*
X330134D01*
X329634Y375378D02*
Y375878D01*
X328634Y375378D02*
X329634D01*
X328634D02*
Y375878D01*
X288370Y326665D02*
X288870D01*
X288370D02*
Y327665D01*
X288870D01*
Y328165D01*
X289870D01*
Y327665D02*
Y328165D01*
Y327665D02*
X290370D01*
Y326665D02*
Y327665D01*
X289870Y326665D02*
X290370D01*
X289870Y326165D02*
Y326665D01*
X288870Y326165D02*
X289870D01*
X288870D02*
Y326665D01*
X288764Y334146D02*
X289264D01*
X288764D02*
Y335146D01*
X289264D01*
Y335646D01*
X290264D01*
Y335146D02*
Y335646D01*
Y335146D02*
X290764D01*
Y334146D02*
Y335146D01*
X290264Y334146D02*
X290764D01*
X290264Y333646D02*
Y334146D01*
X289264Y333646D02*
X290264D01*
X289264D02*
Y334146D01*
X274590Y291626D02*
X275091D01*
X274590D02*
Y292626D01*
X275091D01*
Y293126D01*
X276091D01*
Y292626D02*
Y293126D01*
Y292626D02*
X276590D01*
Y291626D02*
Y292626D01*
X276091Y291626D02*
X276590D01*
X276091Y291126D02*
Y291626D01*
X275091Y291126D02*
X276091D01*
X275091D02*
Y291626D01*
X265535Y269185D02*
X266035D01*
X265535D02*
Y270185D01*
X266035D01*
Y270685D01*
X267035D01*
Y270185D02*
Y270685D01*
Y270185D02*
X267535D01*
Y269185D02*
Y270185D01*
X267035Y269185D02*
X267535D01*
X267035Y268685D02*
Y269185D01*
X266035Y268685D02*
X267035D01*
X266035D02*
Y269185D01*
X283646Y285720D02*
X284146D01*
X283646D02*
Y286720D01*
X284146D01*
Y287221D01*
X285146D01*
Y286720D02*
Y287221D01*
Y286720D02*
X285646D01*
Y285720D02*
Y286720D01*
X285146Y285720D02*
X285646D01*
X285146Y285221D02*
Y285720D01*
X284146Y285221D02*
X285146D01*
X284146D02*
Y285720D01*
X309236Y284933D02*
X309736D01*
X309236D02*
Y285933D01*
X309736D01*
Y286433D01*
X310736D01*
Y285933D02*
Y286433D01*
Y285933D02*
X311236D01*
Y284933D02*
Y285933D01*
X310736Y284933D02*
X311236D01*
X310736Y284433D02*
Y284933D01*
X309736Y284433D02*
X310736D01*
X309736D02*
Y284933D01*
X281283Y282965D02*
X281784D01*
X281283D02*
Y283965D01*
X281784D01*
Y284465D01*
X282784D01*
Y283965D02*
Y284465D01*
Y283965D02*
X283283D01*
Y282965D02*
Y283965D01*
X282784Y282965D02*
X283283D01*
X282784Y282465D02*
Y282965D01*
X281784Y282465D02*
X282784D01*
X281784D02*
Y282965D01*
X294669Y255405D02*
X295169D01*
X294669D02*
Y256405D01*
X295169D01*
Y256906D01*
X296169D01*
Y256405D02*
Y256906D01*
Y256405D02*
X296669D01*
Y255405D02*
Y256405D01*
X296169Y255405D02*
X296669D01*
X296169Y254906D02*
Y255405D01*
X295169Y254906D02*
X296169D01*
X295169D02*
Y255405D01*
X286008Y274697D02*
X286508D01*
X286008D02*
Y275697D01*
X286508D01*
Y276197D01*
X287508D01*
Y275697D02*
Y276197D01*
Y275697D02*
X288008D01*
Y274697D02*
Y275697D01*
X287508Y274697D02*
X288008D01*
X287508Y274197D02*
Y274697D01*
X286508Y274197D02*
X287508D01*
X286508D02*
Y274697D01*
X311205Y303831D02*
X311705D01*
X311205D02*
Y304831D01*
X311705D01*
Y305331D01*
X312705D01*
Y304831D02*
Y305331D01*
Y304831D02*
X313205D01*
Y303831D02*
Y304831D01*
X312705Y303831D02*
X313205D01*
X312705Y303331D02*
Y303831D01*
X311705Y303331D02*
X312705D01*
X311705D02*
Y303831D01*
X310465Y309596D02*
X310965D01*
X310465D02*
Y310596D01*
X310965D01*
Y311096D01*
X311965D01*
Y310596D02*
Y311096D01*
Y310596D02*
X312465D01*
Y309596D02*
Y310596D01*
X311965Y309596D02*
X312465D01*
X311965Y309096D02*
Y309596D01*
X310965Y309096D02*
X311965D01*
X310965D02*
Y309596D01*
X251362Y307374D02*
X251862D01*
X251362D02*
Y308374D01*
X251862D01*
Y308874D01*
X252862D01*
Y308374D02*
Y308874D01*
Y308374D02*
X253362D01*
Y307374D02*
Y308374D01*
X252862Y307374D02*
X253362D01*
X252862Y306874D02*
Y307374D01*
X251862Y306874D02*
X252862D01*
X251862D02*
Y307374D01*
X285614Y315642D02*
X286114D01*
X285614D02*
Y316642D01*
X286114D01*
Y317142D01*
X287114D01*
Y316642D02*
Y317142D01*
Y316642D02*
X287614D01*
Y315642D02*
Y316642D01*
X287114Y315642D02*
X287614D01*
X287114Y315142D02*
Y315642D01*
X286114Y315142D02*
X287114D01*
X286114D02*
Y315642D01*
X243488Y328634D02*
X243988D01*
X243488D02*
Y329634D01*
X243988D01*
Y330134D01*
X244988D01*
Y329634D02*
Y330134D01*
Y329634D02*
X245488D01*
Y328634D02*
Y329634D01*
X244988Y328634D02*
X245488D01*
X244988Y328134D02*
Y328634D01*
X243988Y328134D02*
X244988D01*
X243988D02*
Y328634D01*
X237976Y321547D02*
X238476D01*
X237976D02*
Y322547D01*
X238476D01*
Y323047D01*
X239476D01*
Y322547D02*
Y323047D01*
Y322547D02*
X239976D01*
Y321547D02*
Y322547D01*
X239476Y321547D02*
X239976D01*
X239476Y321047D02*
Y321547D01*
X238476Y321047D02*
X239476D01*
X238476D02*
Y321547D01*
X236795Y339264D02*
X237295D01*
X236795D02*
Y340264D01*
X237295D01*
Y340764D01*
X238295D01*
Y340264D02*
Y340764D01*
Y340264D02*
X238795D01*
Y339264D02*
Y340264D01*
X238295Y339264D02*
X238795D01*
X238295Y338764D02*
Y339264D01*
X237295Y338764D02*
X238295D01*
X237295D02*
Y339264D01*
X305299Y280996D02*
X305799D01*
X305299D02*
Y281996D01*
X305799D01*
Y282496D01*
X306799D01*
Y281996D02*
Y282496D01*
Y281996D02*
X307299D01*
Y280996D02*
Y281996D01*
X306799Y280996D02*
X307299D01*
X306799Y280496D02*
Y280996D01*
X305799Y280496D02*
X306799D01*
X305799D02*
Y280996D01*
X278921Y356193D02*
X279421D01*
X278921D02*
Y357193D01*
X279421D01*
Y357693D01*
X280421D01*
Y357193D02*
Y357693D01*
Y357193D02*
X280921D01*
Y356193D02*
Y357193D01*
X280421Y356193D02*
X280921D01*
X280421Y355693D02*
Y356193D01*
X279421Y355693D02*
X280421D01*
X279421D02*
Y356193D01*
X246244Y405799D02*
X246744D01*
X246244D02*
Y406799D01*
X246744D01*
Y407299D01*
X247744D01*
Y406799D02*
Y407299D01*
Y406799D02*
X248244D01*
Y405799D02*
Y406799D01*
X247744Y405799D02*
X248244D01*
X247744Y405299D02*
Y405799D01*
X246744Y405299D02*
X247744D01*
X246744D02*
Y405799D01*
X259236Y416429D02*
X259736D01*
X259236D02*
Y417429D01*
X259736D01*
Y417929D01*
X260736D01*
Y417429D02*
Y417929D01*
Y417429D02*
X261236D01*
Y416429D02*
Y417429D01*
X260736Y416429D02*
X261236D01*
X260736Y415929D02*
Y416429D01*
X259736Y415929D02*
X260736D01*
X259736D02*
Y416429D01*
X254512Y416792D02*
X255012D01*
X254512D02*
Y417792D01*
X255012D01*
Y418292D01*
X256012D01*
Y417792D02*
Y418292D01*
Y417792D02*
X256512D01*
Y416792D02*
Y417792D01*
X256012Y416792D02*
X256512D01*
X256012Y416292D02*
Y416792D01*
X255012Y416292D02*
X256012D01*
X255012D02*
Y416792D01*
X302937Y414067D02*
X303437D01*
X302937D02*
Y415067D01*
X303437D01*
Y415567D01*
X304437D01*
Y415067D02*
Y415567D01*
Y415067D02*
X304937D01*
Y414067D02*
Y415067D01*
X304437Y414067D02*
X304937D01*
X304437Y413567D02*
Y414067D01*
X303437Y413567D02*
X304437D01*
X303437D02*
Y414067D01*
X302937Y408949D02*
X303437D01*
X302937D02*
Y409949D01*
X303437D01*
Y410449D01*
X304437D01*
Y409949D02*
Y410449D01*
Y409949D02*
X304937D01*
Y408949D02*
Y409949D01*
X304437Y408949D02*
X304937D01*
X304437Y408449D02*
Y408949D01*
X303437Y408449D02*
X304437D01*
X303437D02*
Y408949D01*
X252543Y301468D02*
X253043D01*
X252543D02*
Y302468D01*
X253043D01*
Y302969D01*
X254043D01*
Y302468D02*
Y302969D01*
Y302468D02*
X254543D01*
Y301468D02*
Y302468D01*
X254043Y301468D02*
X254543D01*
X254043Y300969D02*
Y301468D01*
X253043Y300969D02*
X254043D01*
X253043D02*
Y301468D01*
X249394Y298319D02*
X249894D01*
X249394D02*
Y299319D01*
X249894D01*
Y299819D01*
X250894D01*
Y299319D02*
Y299819D01*
Y299319D02*
X251394D01*
Y298319D02*
Y299319D01*
X250894Y298319D02*
X251394D01*
X250894Y297819D02*
Y298319D01*
X249894Y297819D02*
X250894D01*
X249894D02*
Y298319D01*
X269079Y326665D02*
X269579D01*
X269079D02*
Y327665D01*
X269579D01*
Y328165D01*
X270579D01*
Y327665D02*
Y328165D01*
Y327665D02*
X271079D01*
Y326665D02*
Y327665D01*
X270579Y326665D02*
X271079D01*
X270579Y326165D02*
Y326665D01*
X269579Y326165D02*
X270579D01*
X269579D02*
Y326665D01*
X271903Y328720D02*
X272403D01*
X271903D02*
Y329720D01*
X272403D01*
Y330220D01*
X273403D01*
Y329720D02*
Y330220D01*
Y329720D02*
X273903D01*
Y328720D02*
Y329720D01*
X273403Y328720D02*
X273903D01*
X273403Y328220D02*
Y328720D01*
X272403Y328220D02*
X273403D01*
X272403D02*
Y328720D01*
X233252Y417504D02*
X235252D01*
Y419504D01*
X233252D02*
X235252D01*
X233252Y417504D02*
Y419504D01*
X235811Y413567D02*
X237811D01*
Y415567D01*
X235811D02*
X237811D01*
X235811Y413567D02*
Y415567D01*
X230693Y413567D02*
X232693D01*
Y415567D01*
X230693D02*
X232693D01*
X230693Y413567D02*
Y415567D01*
X228134Y417504D02*
X230134D01*
Y419504D01*
X228134D02*
X230134D01*
X228134Y417504D02*
Y419504D01*
X238370Y417504D02*
X240370D01*
Y419504D01*
X238370D02*
X240370D01*
X238370Y417504D02*
Y419504D01*
X241962Y280189D02*
X242962Y279189D01*
X243962Y280189D01*
X242962Y281189D02*
X243962Y280189D01*
X241962D02*
X242962Y281189D01*
X244696Y264680D02*
X245696Y263680D01*
X246696Y264680D01*
X245696Y265680D02*
X246696Y264680D01*
X244696D02*
X245696Y265680D01*
X366717Y432858D02*
X367717Y433358D01*
X368717Y432858D01*
X368216Y433858D02*
X368717Y432858D01*
X368216Y433858D02*
X368717Y434858D01*
X367717Y434358D02*
X368717Y434858D01*
X366717D02*
X367717Y434358D01*
X366717Y434858D02*
X367216Y433858D01*
X366717Y432858D02*
X367216Y433858D01*
X366717Y389551D02*
X367717Y390051D01*
X368717Y389551D01*
X368216Y390551D02*
X368717Y389551D01*
X368216Y390551D02*
X368717Y391551D01*
X367717Y391051D02*
X368717Y391551D01*
X366717D02*
X367717Y391051D01*
X366717Y391551D02*
X367216Y390551D01*
X366717Y389551D02*
X367216Y390551D01*
X327847Y421547D02*
X328346Y421047D01*
X327346Y421547D02*
X327847D01*
X327346D02*
X327847Y422047D01*
X327346Y422547D02*
X327847Y422047D01*
X327346Y422547D02*
X327847D01*
X328346Y423047D01*
X328847Y422547D01*
X329346D01*
X328847Y422047D02*
X329346Y422547D01*
X328847Y422047D02*
X329346Y421547D01*
X328847D02*
X329346D01*
X328346Y421047D02*
X328847Y421547D01*
X327847Y401862D02*
X328346Y401362D01*
X327346Y401862D02*
X327847D01*
X327346D02*
X327847Y402362D01*
X327346Y402862D02*
X327847Y402362D01*
X327346Y402862D02*
X327847D01*
X328346Y403362D01*
X328847Y402862D01*
X329346D01*
X328847Y402362D02*
X329346Y402862D01*
X328847Y402362D02*
X329346Y401862D01*
X328847D02*
X329346D01*
X328346Y401362D02*
X328847Y401862D01*
X300945Y345457D02*
X301945Y347457D01*
X299945D02*
X301945D01*
X299945D02*
X300945Y345457D01*
X290945D02*
X291945Y347457D01*
X289945D02*
X291945D01*
X289945D02*
X290945Y345457D01*
X280945D02*
X281945Y347457D01*
X279945D02*
X281945D01*
X279945D02*
X280945Y345457D01*
X270945D02*
X271945Y347457D01*
X269945D02*
X271945D01*
X269945D02*
X270945Y345457D01*
X239764Y356716D02*
X240764Y358717D01*
X238764D02*
X240764D01*
X238764D02*
X239764Y356716D01*
X229764D02*
X230764Y358717D01*
X228764D02*
X230764D01*
X228764D02*
X229764Y356716D01*
X239764Y386717D02*
X240764Y388717D01*
X238764D02*
X240764D01*
X238764D02*
X239764Y386717D01*
X229764D02*
X230764Y388717D01*
X228764D02*
X230764D01*
X228764D02*
X229764Y386717D01*
X239764Y376716D02*
X240764Y378716D01*
X238764D02*
X240764D01*
X238764D02*
X239764Y376716D01*
X229764D02*
X230764Y378716D01*
X228764D02*
X230764D01*
X228764D02*
X229764Y376716D01*
X239764Y366717D02*
X240764Y368717D01*
X238764D02*
X240764D01*
X238764D02*
X239764Y366717D01*
X229764D02*
X230764Y368717D01*
X228764D02*
X230764D01*
X228764D02*
X229764Y366717D01*
X351762Y354912D02*
X352962D01*
Y356112D01*
X351762D02*
X352962D01*
X351762Y354912D02*
Y356112D01*
X351362Y354512D02*
X353362D01*
Y356512D01*
X351362D02*
X353362D01*
X351362Y354512D02*
Y356512D01*
X351762Y339912D02*
X352962D01*
Y341112D01*
X351762D02*
X352962D01*
X351762Y339912D02*
Y341112D01*
X351362Y339512D02*
X353362D01*
Y341512D01*
X351362D02*
X353362D01*
X351362Y339512D02*
Y341512D01*
D151*
X64136Y624142D02*
X1416954D01*
X64136Y504142D02*
X1416954D01*
X64136Y489142D02*
X1416954D01*
Y639142D01*
X64136D02*
X1416954D01*
X64136Y489142D02*
Y639142D01*
X1276694Y489142D02*
Y639142D01*
X1167726Y489142D02*
Y639142D01*
X1034365Y489142D02*
Y639142D01*
X901004Y489142D02*
Y639142D01*
X815628Y489142D02*
Y639142D01*
X696663Y489142D02*
Y639142D01*
X622083Y489142D02*
Y639142D01*
X563098Y489142D02*
Y639142D01*
X413143Y489142D02*
Y639142D01*
X339763Y489142D02*
Y639142D01*
X289176Y489142D02*
Y639142D01*
X179208Y489142D02*
Y639142D01*
X119223Y489142D02*
Y639142D01*
D152*
X1281194Y628642D02*
Y635840D01*
X1284793D01*
X1285993Y634640D01*
Y632241D01*
X1284793Y631041D01*
X1281194D01*
X1283593D02*
X1285993Y628642D01*
X1289592D02*
X1291991D01*
X1293190Y629842D01*
Y632241D01*
X1291991Y633441D01*
X1289592D01*
X1288392Y632241D01*
Y629842D01*
X1289592Y628642D01*
X1295590Y633441D02*
Y629842D01*
X1296789Y628642D01*
X1300388D01*
Y633441D01*
X1303987Y634640D02*
Y633441D01*
X1302787D01*
X1305186D01*
X1303987D01*
Y629842D01*
X1305186Y628642D01*
X1312384D02*
X1309985D01*
X1308785Y629842D01*
Y632241D01*
X1309985Y633441D01*
X1312384D01*
X1313584Y632241D01*
Y631041D01*
X1308785D01*
X1320782Y635840D02*
Y628642D01*
X1317183D01*
X1315983Y629842D01*
Y632241D01*
X1317183Y633441D01*
X1320782D01*
X1330378Y628642D02*
Y635840D01*
X1333977D01*
X1335177Y634640D01*
Y632241D01*
X1333977Y631041D01*
X1330378D01*
X1338776Y633441D02*
X1341175D01*
X1342375Y632241D01*
Y628642D01*
X1338776D01*
X1337576Y629842D01*
X1338776Y631041D01*
X1342375D01*
X1345973Y634640D02*
Y633441D01*
X1344774D01*
X1347173D01*
X1345973D01*
Y629842D01*
X1347173Y628642D01*
X1350772Y635840D02*
Y628642D01*
Y632241D01*
X1351971Y633441D01*
X1354371D01*
X1355570Y632241D01*
Y628642D01*
X1365167Y635840D02*
Y628642D01*
X1369965D01*
X1375964D02*
X1373564D01*
X1372365Y629842D01*
Y632241D01*
X1373564Y633441D01*
X1375964D01*
X1377163Y632241D01*
Y631041D01*
X1372365D01*
X1379562Y628642D02*
Y633441D01*
X1383161D01*
X1384361Y632241D01*
Y628642D01*
X1389159Y626243D02*
X1390359D01*
X1391558Y627443D01*
Y633441D01*
X1387960D01*
X1386760Y632241D01*
Y629842D01*
X1387960Y628642D01*
X1391558D01*
X1395157Y634640D02*
Y633441D01*
X1393958D01*
X1396357D01*
X1395157D01*
Y629842D01*
X1396357Y628642D01*
X1399956Y635840D02*
Y628642D01*
Y632241D01*
X1401155Y633441D01*
X1403555D01*
X1404754Y632241D01*
Y628642D01*
X1172226Y635840D02*
Y628642D01*
Y632241D01*
X1177024D01*
Y635840D01*
Y628642D01*
X1180623D02*
X1183022D01*
X1184222Y629842D01*
Y632241D01*
X1183022Y633441D01*
X1180623D01*
X1179424Y632241D01*
Y629842D01*
X1180623Y628642D01*
X1186621D02*
X1189021D01*
X1187821D01*
Y635840D01*
X1186621D01*
X1196218Y628642D02*
X1193819D01*
X1192619Y629842D01*
Y632241D01*
X1193819Y633441D01*
X1196218D01*
X1197418Y632241D01*
Y631041D01*
X1192619D01*
X1207015Y635840D02*
Y628642D01*
X1211813D01*
X1217811D02*
X1215412D01*
X1214212Y629842D01*
Y632241D01*
X1215412Y633441D01*
X1217811D01*
X1219011Y632241D01*
Y631041D01*
X1214212D01*
X1221410Y628642D02*
Y633441D01*
X1225009D01*
X1226208Y632241D01*
Y628642D01*
X1231007Y626243D02*
X1232207D01*
X1233406Y627443D01*
Y633441D01*
X1229807D01*
X1228608Y632241D01*
Y629842D01*
X1229807Y628642D01*
X1233406D01*
X1237005Y634640D02*
Y633441D01*
X1235805D01*
X1238205D01*
X1237005D01*
Y629842D01*
X1238205Y628642D01*
X1241803Y635840D02*
Y628642D01*
Y632241D01*
X1243003Y633441D01*
X1245402D01*
X1246602Y632241D01*
Y628642D01*
X1038865Y635840D02*
Y628642D01*
Y632241D01*
X1043664D01*
Y635840D01*
Y628642D01*
X1047262D02*
X1049662D01*
X1050861Y629842D01*
Y632241D01*
X1049662Y633441D01*
X1047262D01*
X1046063Y632241D01*
Y629842D01*
X1047262Y628642D01*
X1053261D02*
X1055660D01*
X1054460D01*
Y635840D01*
X1053261D01*
X1062857Y628642D02*
X1060458D01*
X1059259Y629842D01*
Y632241D01*
X1060458Y633441D01*
X1062857D01*
X1064057Y632241D01*
Y631041D01*
X1059259D01*
X1073654Y635840D02*
X1078452D01*
X1076053D01*
Y628642D01*
X1082051D02*
X1084450D01*
X1085650Y629842D01*
Y632241D01*
X1084450Y633441D01*
X1082051D01*
X1080852Y632241D01*
Y629842D01*
X1082051Y628642D01*
X1088049D02*
X1090448D01*
X1089249D01*
Y635840D01*
X1088049D01*
X1097646Y628642D02*
X1095247D01*
X1094047Y629842D01*
Y632241D01*
X1095247Y633441D01*
X1097646D01*
X1098846Y632241D01*
Y631041D01*
X1094047D01*
X1101245Y633441D02*
Y628642D01*
Y631041D01*
X1102445Y632241D01*
X1103644Y633441D01*
X1104844D01*
X1109642D02*
X1112041D01*
X1113241Y632241D01*
Y628642D01*
X1109642D01*
X1108443Y629842D01*
X1109642Y631041D01*
X1113241D01*
X1115640Y628642D02*
Y633441D01*
X1119239D01*
X1120439Y632241D01*
Y628642D01*
X1127637Y633441D02*
X1124038D01*
X1122838Y632241D01*
Y629842D01*
X1124038Y628642D01*
X1127637D01*
X1133634D02*
X1131235D01*
X1130036Y629842D01*
Y632241D01*
X1131235Y633441D01*
X1133634D01*
X1134834Y632241D01*
Y631041D01*
X1130036D01*
X1146830Y628642D02*
X1144431Y631041D01*
Y633441D01*
X1146830Y635840D01*
X1150429Y632241D02*
X1155227D01*
X1157627Y628642D02*
X1160026Y631041D01*
Y633441D01*
X1157627Y635840D01*
X905504D02*
Y628642D01*
Y632241D01*
X910303D01*
Y635840D01*
Y628642D01*
X913902D02*
X916301D01*
X917500Y629842D01*
Y632241D01*
X916301Y633441D01*
X913902D01*
X912702Y632241D01*
Y629842D01*
X913902Y628642D01*
X919900D02*
X922299D01*
X921099D01*
Y635840D01*
X919900D01*
X929497Y628642D02*
X927097D01*
X925898Y629842D01*
Y632241D01*
X927097Y633441D01*
X929497D01*
X930696Y632241D01*
Y631041D01*
X925898D01*
X940293Y635840D02*
X945092D01*
X942692D01*
Y628642D01*
X948690D02*
X951090D01*
X952289Y629842D01*
Y632241D01*
X951090Y633441D01*
X948690D01*
X947491Y632241D01*
Y629842D01*
X948690Y628642D01*
X954688D02*
X957088D01*
X955888D01*
Y635840D01*
X954688D01*
X964285Y628642D02*
X961886D01*
X960686Y629842D01*
Y632241D01*
X961886Y633441D01*
X964285D01*
X965485Y632241D01*
Y631041D01*
X960686D01*
X967884Y633441D02*
Y628642D01*
Y631041D01*
X969084Y632241D01*
X970283Y633441D01*
X971483D01*
X976282D02*
X978681D01*
X979880Y632241D01*
Y628642D01*
X976282D01*
X975082Y629842D01*
X976282Y631041D01*
X979880D01*
X982280Y628642D02*
Y633441D01*
X985878D01*
X987078Y632241D01*
Y628642D01*
X994276Y633441D02*
X990677D01*
X989477Y632241D01*
Y629842D01*
X990677Y628642D01*
X994276D01*
X1000274D02*
X997875D01*
X996675Y629842D01*
Y632241D01*
X997875Y633441D01*
X1000274D01*
X1001473Y632241D01*
Y631041D01*
X996675D01*
X1013470Y628642D02*
X1011070Y631041D01*
Y633441D01*
X1013470Y635840D01*
X1017068Y632241D02*
X1021867D01*
X1019468Y634640D02*
Y629842D01*
X1024266Y628642D02*
X1026665Y631041D01*
Y633441D01*
X1024266Y635840D01*
X820128D02*
Y628642D01*
X823727D01*
X824926Y629842D01*
Y634640D01*
X823727Y635840D01*
X820128D01*
X830925Y628642D02*
X828525D01*
X827326Y629842D01*
Y632241D01*
X828525Y633441D01*
X830925D01*
X832124Y632241D01*
Y631041D01*
X827326D01*
X834523Y628642D02*
X838122D01*
X839322Y629842D01*
X838122Y631041D01*
X835723D01*
X834523Y632241D01*
X835723Y633441D01*
X839322D01*
X846519D02*
X842921D01*
X841721Y632241D01*
Y629842D01*
X842921Y628642D01*
X846519D01*
X848919Y633441D02*
Y628642D01*
Y631041D01*
X850118Y632241D01*
X851318Y633441D01*
X852518D01*
X856116Y628642D02*
X858516D01*
X857316D01*
Y633441D01*
X856116D01*
X862115Y626243D02*
Y633441D01*
X865713D01*
X866913Y632241D01*
Y629842D01*
X865713Y628642D01*
X862115D01*
X870512Y634640D02*
Y633441D01*
X869312D01*
X871711D01*
X870512D01*
Y629842D01*
X871711Y628642D01*
X875310D02*
X877709D01*
X876510D01*
Y633441D01*
X875310D01*
X882508Y628642D02*
X884907D01*
X886107Y629842D01*
Y632241D01*
X884907Y633441D01*
X882508D01*
X881308Y632241D01*
Y629842D01*
X882508Y628642D01*
X888506D02*
Y633441D01*
X892105D01*
X893304Y632241D01*
Y628642D01*
X701163Y635840D02*
X705962D01*
X703562D01*
Y628642D01*
X711960D02*
X709560D01*
X708361Y629842D01*
Y632241D01*
X709560Y633441D01*
X711960D01*
X713159Y632241D01*
Y631041D01*
X708361D01*
X715558Y628642D02*
Y633441D01*
X716758D01*
X717958Y632241D01*
Y628642D01*
Y632241D01*
X719157Y633441D01*
X720357Y632241D01*
Y628642D01*
X722756Y626243D02*
Y633441D01*
X726355D01*
X727555Y632241D01*
Y629842D01*
X726355Y628642D01*
X722756D01*
X729954D02*
X732353D01*
X731153D01*
Y635840D01*
X729954D01*
X737151Y633441D02*
X739551D01*
X740750Y632241D01*
Y628642D01*
X737151D01*
X735952Y629842D01*
X737151Y631041D01*
X740750D01*
X744349Y634640D02*
Y633441D01*
X743149D01*
X745549D01*
X744349D01*
Y629842D01*
X745549Y628642D01*
X752746D02*
X750347D01*
X749148Y629842D01*
Y632241D01*
X750347Y633441D01*
X752746D01*
X753946Y632241D01*
Y631041D01*
X749148D01*
X626583Y628642D02*
Y635840D01*
X630182D01*
X631382Y634640D01*
Y632241D01*
X630182Y631041D01*
X626583D01*
X634980Y633441D02*
X637380D01*
X638579Y632241D01*
Y628642D01*
X634980D01*
X633781Y629842D01*
X634980Y631041D01*
X638579D01*
X645777Y635840D02*
Y628642D01*
X642178D01*
X640978Y629842D01*
Y632241D01*
X642178Y633441D01*
X645777D01*
X660172Y634640D02*
X658973Y635840D01*
X656573D01*
X655374Y634640D01*
Y633441D01*
X656573Y632241D01*
X658973D01*
X660172Y631041D01*
Y629842D01*
X658973Y628642D01*
X656573D01*
X655374Y629842D01*
X662572Y635840D02*
Y628642D01*
Y632241D01*
X663771Y633441D01*
X666170D01*
X667370Y632241D01*
Y628642D01*
X670969Y633441D02*
X673368D01*
X674568Y632241D01*
Y628642D01*
X670969D01*
X669769Y629842D01*
X670969Y631041D01*
X674568D01*
X676967Y626243D02*
Y633441D01*
X680566D01*
X681765Y632241D01*
Y629842D01*
X680566Y628642D01*
X676967D01*
X687763D02*
X685364D01*
X684165Y629842D01*
Y632241D01*
X685364Y633441D01*
X687763D01*
X688963Y632241D01*
Y631041D01*
X684165D01*
X567598Y635840D02*
Y631041D01*
X569998Y628642D01*
X572397Y631041D01*
Y635840D01*
X574796Y628642D02*
X577195D01*
X575996D01*
Y633441D01*
X574796D01*
X581994D02*
X584393D01*
X585593Y632241D01*
Y628642D01*
X581994D01*
X580794Y629842D01*
X581994Y631041D01*
X585593D01*
X587992Y628642D02*
X592790Y633441D01*
X595189Y628642D02*
Y635840D01*
X598788D01*
X599988Y634640D01*
Y632241D01*
X598788Y631041D01*
X595189D01*
X603587Y633441D02*
X605986D01*
X607186Y632241D01*
Y628642D01*
X603587D01*
X602387Y629842D01*
X603587Y631041D01*
X607186D01*
X614383Y635840D02*
Y628642D01*
X610784D01*
X609585Y629842D01*
Y632241D01*
X610784Y633441D01*
X614383D01*
X417643Y635840D02*
Y628642D01*
X421242D01*
X422442Y629842D01*
Y634640D01*
X421242Y635840D01*
X417643D01*
X424841Y633441D02*
Y628642D01*
Y631041D01*
X426041Y632241D01*
X427240Y633441D01*
X428440D01*
X432039Y628642D02*
X434438D01*
X433238D01*
Y633441D01*
X432039D01*
X438037Y628642D02*
X440436D01*
X439236D01*
Y635840D01*
X438037D01*
X444035Y628642D02*
X446434D01*
X445234D01*
Y635840D01*
X444035D01*
X457231D02*
Y628642D01*
X462029D01*
X465628Y633441D02*
X468027D01*
X469227Y632241D01*
Y628642D01*
X465628D01*
X464428Y629842D01*
X465628Y631041D01*
X469227D01*
X471626Y633441D02*
Y629842D01*
X472825Y628642D01*
X476424D01*
Y627443D01*
X475225Y626243D01*
X474025D01*
X476424Y628642D02*
Y633441D01*
X482422Y628642D02*
X480023D01*
X478824Y629842D01*
Y632241D01*
X480023Y633441D01*
X482422D01*
X483622Y632241D01*
Y631041D01*
X478824D01*
X486021Y633441D02*
Y628642D01*
Y631041D01*
X487221Y632241D01*
X488420Y633441D01*
X489620D01*
X500417Y628642D02*
Y635840D01*
X504015D01*
X505215Y634640D01*
Y632241D01*
X504015Y631041D01*
X500417D01*
X508814Y633441D02*
X511213D01*
X512413Y632241D01*
Y628642D01*
X508814D01*
X507614Y629842D01*
X508814Y631041D01*
X512413D01*
X514812Y628642D02*
X517211D01*
X516011D01*
Y633441D01*
X514812D01*
X520810D02*
Y628642D01*
Y631041D01*
X522010Y632241D01*
X523209Y633441D01*
X524409D01*
X344263Y635840D02*
Y628642D01*
Y632241D01*
X349061D01*
Y635840D01*
Y628642D01*
X352660D02*
X355060D01*
X356259Y629842D01*
Y632241D01*
X355060Y633441D01*
X352660D01*
X351461Y632241D01*
Y629842D01*
X352660Y628642D01*
X358658D02*
X361058D01*
X359858D01*
Y635840D01*
X358658D01*
X368255Y628642D02*
X365856D01*
X364656Y629842D01*
Y632241D01*
X365856Y633441D01*
X368255D01*
X369455Y632241D01*
Y631041D01*
X364656D01*
X379052Y635840D02*
X383850D01*
X381451D01*
Y628642D01*
X386249Y633441D02*
Y629842D01*
X387449Y628642D01*
X391048D01*
Y627443D01*
X389848Y626243D01*
X388649D01*
X391048Y628642D02*
Y633441D01*
X393447Y626243D02*
Y633441D01*
X397046D01*
X398246Y632241D01*
Y629842D01*
X397046Y628642D01*
X393447D01*
X404244D02*
X401845D01*
X400645Y629842D01*
Y632241D01*
X401845Y633441D01*
X404244D01*
X405443Y632241D01*
Y631041D01*
X400645D01*
X293675Y628642D02*
Y635840D01*
X297274D01*
X298474Y634640D01*
Y632241D01*
X297274Y631041D01*
X293675D01*
X300873Y628642D02*
X303272D01*
X302073D01*
Y635840D01*
X300873D01*
X308071Y633441D02*
X310470D01*
X311670Y632241D01*
Y628642D01*
X308071D01*
X306871Y629842D01*
X308071Y631041D01*
X311670D01*
X315268Y634640D02*
Y633441D01*
X314069D01*
X316468D01*
X315268D01*
Y629842D01*
X316468Y628642D01*
X323666D02*
X321267D01*
X320067Y629842D01*
Y632241D01*
X321267Y633441D01*
X323666D01*
X324865Y632241D01*
Y631041D01*
X320067D01*
X332063Y635840D02*
Y628642D01*
X328464D01*
X327265Y629842D01*
Y632241D01*
X328464Y633441D01*
X332063D01*
X183707Y635840D02*
Y628642D01*
Y632241D01*
X188506D01*
Y635840D01*
Y628642D01*
X192105D02*
X194504D01*
X195704Y629842D01*
Y632241D01*
X194504Y633441D01*
X192105D01*
X190905Y632241D01*
Y629842D01*
X192105Y628642D01*
X198103D02*
X200502D01*
X199302D01*
Y635840D01*
X198103D01*
X207700Y628642D02*
X205301D01*
X204101Y629842D01*
Y632241D01*
X205301Y633441D01*
X207700D01*
X208899Y632241D01*
Y631041D01*
X204101D01*
X223295Y634640D02*
X222095Y635840D01*
X219696D01*
X218496Y634640D01*
Y633441D01*
X219696Y632241D01*
X222095D01*
X223295Y631041D01*
Y629842D01*
X222095Y628642D01*
X219696D01*
X218496Y629842D01*
X225694Y628642D02*
X228093D01*
X226894D01*
Y633441D01*
X225694D01*
X231692D02*
X236491D01*
X231692Y628642D01*
X236491D01*
X242489D02*
X240089D01*
X238890Y629842D01*
Y632241D01*
X240089Y633441D01*
X242489D01*
X243688Y632241D01*
Y631041D01*
X238890D01*
X128522Y634640D02*
X127322Y635840D01*
X124923D01*
X123723Y634640D01*
Y629842D01*
X124923Y628642D01*
X127322D01*
X128522Y629842D01*
X132121Y628642D02*
X134520D01*
X135720Y629842D01*
Y632241D01*
X134520Y633441D01*
X132121D01*
X130921Y632241D01*
Y629842D01*
X132121Y628642D01*
X138119Y633441D02*
Y629842D01*
X139318Y628642D01*
X142917D01*
Y633441D01*
X145316Y628642D02*
Y633441D01*
X148915D01*
X150115Y632241D01*
Y628642D01*
X153714Y634640D02*
Y633441D01*
X152514D01*
X154913D01*
X153714D01*
Y629842D01*
X154913Y628642D01*
X77934Y634640D02*
X76735Y635840D01*
X74335D01*
X73136Y634640D01*
Y633441D01*
X74335Y632241D01*
X76735D01*
X77934Y631041D01*
Y629842D01*
X76735Y628642D01*
X74335D01*
X73136Y629842D01*
X80334Y633441D02*
Y629842D01*
X81533Y628642D01*
X85132D01*
Y627443D01*
X83932Y626243D01*
X82733D01*
X85132Y628642D02*
Y633441D01*
X87531Y628642D02*
Y633441D01*
X88731D01*
X89930Y632241D01*
Y628642D01*
Y632241D01*
X91130Y633441D01*
X92330Y632241D01*
Y628642D01*
X94729Y635840D02*
Y628642D01*
X98328D01*
X99527Y629842D01*
Y631041D01*
Y632241D01*
X98328Y633441D01*
X94729D01*
X103126Y628642D02*
X105525D01*
X106725Y629842D01*
Y632241D01*
X105525Y633441D01*
X103126D01*
X101927Y632241D01*
Y629842D01*
X103126Y628642D01*
X109124D02*
X111523D01*
X110324D01*
Y635840D01*
X109124D01*
D153*
X176405Y475145D02*
Y469147D01*
Y472146D01*
X180403D01*
Y475145D01*
Y469147D01*
X183403D02*
X185402D01*
X186401Y470147D01*
Y472146D01*
X185402Y473146D01*
X183403D01*
X182403Y472146D01*
Y470147D01*
X183403Y469147D01*
X188401D02*
X190400D01*
X189401D01*
Y475145D01*
X188401D01*
X196398Y469147D02*
X194399D01*
X193399Y470147D01*
Y472146D01*
X194399Y473146D01*
X196398D01*
X197398Y472146D01*
Y471147D01*
X193399D01*
X205395Y475145D02*
Y469147D01*
X209394D01*
X214392D02*
X212393D01*
X211393Y470147D01*
Y472146D01*
X212393Y473146D01*
X214392D01*
X215392Y472146D01*
Y471147D01*
X211393D01*
X217391Y469147D02*
Y473146D01*
X220391D01*
X221390Y472146D01*
Y469147D01*
X225389Y467148D02*
X226389D01*
X227388Y468148D01*
Y473146D01*
X224389D01*
X223390Y472146D01*
Y470147D01*
X224389Y469147D01*
X227388D01*
X230387Y474146D02*
Y473146D01*
X229388D01*
X231387D01*
X230387D01*
Y470147D01*
X231387Y469147D01*
X234386Y475145D02*
Y469147D01*
Y472146D01*
X235386Y473146D01*
X237385D01*
X238385Y472146D01*
Y469147D01*
X176405Y479145D02*
Y485143D01*
X179404D01*
X180403Y484143D01*
Y482144D01*
X179404Y481144D01*
X176405D01*
X178404D02*
X180403Y479145D01*
X183403D02*
X185402D01*
X186401Y480145D01*
Y482144D01*
X185402Y483144D01*
X183403D01*
X182403Y482144D01*
Y480145D01*
X183403Y479145D01*
X188401Y483144D02*
Y480145D01*
X189401Y479145D01*
X192400D01*
Y483144D01*
X195399Y484143D02*
Y483144D01*
X194399D01*
X196398D01*
X195399D01*
Y480145D01*
X196398Y479145D01*
X202396D02*
X200397D01*
X199397Y480145D01*
Y482144D01*
X200397Y483144D01*
X202396D01*
X203396Y482144D01*
Y481144D01*
X199397D01*
X209394Y485143D02*
Y479145D01*
X206395D01*
X205395Y480145D01*
Y482144D01*
X206395Y483144D01*
X209394D01*
X217391Y479145D02*
Y485143D01*
X220391D01*
X221390Y484143D01*
Y482144D01*
X220391Y481144D01*
X217391D01*
X224389Y483144D02*
X226389D01*
X227388Y482144D01*
Y479145D01*
X224389D01*
X223390Y480145D01*
X224389Y481144D01*
X227388D01*
X230387Y484143D02*
Y483144D01*
X229388D01*
X231387D01*
X230387D01*
Y480145D01*
X231387Y479145D01*
X234386Y485143D02*
Y479145D01*
Y482144D01*
X235386Y483144D01*
X237385D01*
X238385Y482144D01*
Y479145D01*
X246382Y485143D02*
Y479145D01*
X250381D01*
X255379D02*
X253380D01*
X252380Y480145D01*
Y482144D01*
X253380Y483144D01*
X255379D01*
X256379Y482144D01*
Y481144D01*
X252380D01*
X258378Y479145D02*
Y483144D01*
X261377D01*
X262377Y482144D01*
Y479145D01*
X266376Y477145D02*
X267375D01*
X268375Y478145D01*
Y483144D01*
X265376D01*
X264376Y482144D01*
Y480145D01*
X265376Y479145D01*
X268375D01*
X271374Y484143D02*
Y483144D01*
X270374D01*
X272374D01*
X271374D01*
Y480145D01*
X272374Y479145D01*
X275373Y485143D02*
Y479145D01*
Y482144D01*
X276372Y483144D01*
X278372D01*
X279372Y482144D01*
Y479145D01*
X77135Y484143D02*
X76135Y485143D01*
X74136D01*
X73136Y484143D01*
Y483144D01*
X74136Y482144D01*
X76135D01*
X77135Y481144D01*
Y480145D01*
X76135Y479145D01*
X74136D01*
X73136Y480145D01*
X79134Y479145D02*
X81133D01*
X80134D01*
Y485143D01*
X79134D01*
X85132Y479145D02*
X87131D01*
X88131Y480145D01*
Y482144D01*
X87131Y483144D01*
X85132D01*
X84132Y482144D01*
Y480145D01*
X85132Y479145D01*
X91130Y484143D02*
Y483144D01*
X90130D01*
X92130D01*
X91130D01*
Y480145D01*
X92130Y479145D01*
X105125Y485143D02*
Y479145D01*
X102126D01*
X101127Y480145D01*
Y482144D01*
X102126Y483144D01*
X105125D01*
X110124Y479145D02*
X108124D01*
X107125Y480145D01*
Y482144D01*
X108124Y483144D01*
X110124D01*
X111124Y482144D01*
Y481144D01*
X107125D01*
X114123Y479145D02*
Y484143D01*
Y482144D01*
X113123D01*
X115122D01*
X114123D01*
Y484143D01*
X115122Y485143D01*
X118121Y479145D02*
X120121D01*
X119121D01*
Y483144D01*
X118121D01*
X123120Y479145D02*
Y483144D01*
X126119D01*
X127118Y482144D01*
Y479145D01*
X129118D02*
X131117D01*
X130117D01*
Y483144D01*
X129118D01*
X135116Y484143D02*
Y483144D01*
X134116D01*
X136115D01*
X135116D01*
Y480145D01*
X136115Y479145D01*
X139114D02*
X141114D01*
X140114D01*
Y483144D01*
X139114D01*
X145113Y479145D02*
X147112D01*
X148112Y480145D01*
Y482144D01*
X147112Y483144D01*
X145113D01*
X144113Y482144D01*
Y480145D01*
X145113Y479145D01*
X150111D02*
Y483144D01*
X153110D01*
X154110Y482144D01*
Y479145D01*
X156109D02*
X159108D01*
X160108Y480145D01*
X159108Y481144D01*
X157109D01*
X156109Y482144D01*
X157109Y483144D01*
X160108D01*
X168105D02*
X169105D01*
Y482144D01*
X168105D01*
Y483144D01*
Y480145D02*
X169105D01*
Y479145D01*
X168105D01*
Y480145D01*
M02*
