M48
;Layer_Color=9474304
;FILE_FORMAT=2:5
INCH,LZ
;TYPE=PLATED
T1F00S00C0.01181
T2F00S00C0.01575
T4F00S00C0.03543
T5F00S00C0.03937
T6F00S00C0.04331
T7F00S00C0.06693
%
T01
X0337402Y0237008
X0338189Y0248031
X0326378Y0256299
X0334646Y0268504
X034556Y0269028
X0342913Y0277953
X0337402Y0281102
X0342126Y0287008
X0348819
X0355118Y0281102
X0362205Y0267717
X0364567Y0295669
Y0299606
X0370472Y0296457
X037559Y0300787
X037441Y0287008
X0376772Y0284646
X036063Y0308268
Y0311811
X0337795Y0292126
X0320866Y0287008
X0317323Y027559
X0316929Y0269291
X031063Y0265748
X0298425Y0259449
X0295669Y0255906
X0288583Y0267323
X0288536Y0272347
X0287008Y0275197
X0282283Y0283465
X0284646Y0286221
X0280315Y0290158
X027559Y0292126
X0274176Y029669
X0268199Y0302451
X0272978Y0311111
X0275202Y030931
X0283465Y0301575
X0294488Y0307874
X0311465Y0310096
X0312205Y0304331
X0308268Y0290945
X0310236Y0285433
X0306299Y0281496
X0300787Y0280709
X0301969Y0293307
X0274659Y0282927
X027126Y0279528
X0257087
X025315Y0276431
Y027355
X0261793Y0274803
X0266535Y0269685
X0265354Y0251969
X0265748Y0247638
X0266142Y0242126
X0266535Y0237402
X0255906Y0237008
X0255512Y0241732
X0255118Y024685
X0254724Y0251181
X0243307Y0257874
X0237008Y0262992
X0234252Y027874
X0238583Y0285433
X0252756Y0283858
X0247085Y029551
X0250394Y0298819
X0253543Y0301969
X0252362Y0307874
X0248425Y0305118
X0251575Y0321654
Y0327165
Y0332677
X0257802Y0336148
X0255512Y0344094
X0257087Y0352362
X0261024
X0264961
X0269685
X0268504Y0364567
Y0368898
Y0373622
X0263386Y0379921
X025748Y0386221
X0259449Y0369291
X0254724Y0366535
X0250787Y0353543
X0247244Y0351575
X023937Y0350394
X0231496Y0347638
X0237795Y0339764
X0244488Y0336221
Y0329134
X0238976Y0322047
X0235433Y0312992
X0229528Y0325197
X0264272Y0324134
X0266929Y0325197
X0270079Y0327165
X0272903Y032922
X0273228Y0314961
X0277559Y0319291
X0286614Y0316142
X028937Y0327165
X0289764Y0334646
X0305906Y0338189
X0306299Y0342913
X0311811Y0334252
X0299208Y0314661
X0263718Y032006
X0257412Y0316051
X0279921Y0356693
X0283465Y0353512
X0282283Y0361811
Y0366142
X0298819Y0362992
Y0359449
X0293307Y0356299
X029685Y0374016
X0302362Y0372441
X030748Y0396063
X0312205
X0310236Y0409449
X0303937
Y0414567
X0302362Y0427165
X030748
X0312205
X0284646Y0424803
X0285039Y0414961
X0281102
X0290551Y0418504
X0288189Y0408661
X0292913
X0277165Y0404724
X0261417Y0404331
Y040748
X0254331Y0406299
X0250787
X0247244
X0255512Y0417292
X0260236Y0416929
X0274803Y0434646
Y0438189
X022874Y0396063
X0322835Y0393307
Y038937
X032126Y037874
X0329134Y0376378
X0340551Y0377559
X0338189Y0371654
X0346063Y0365354
X0353937Y0368504
X0362556Y0365748
X0364567Y0358661
X0372047
X037559
X0377559Y0355118
Y0345669
X037441
X0370866
X0376772Y0365323
X037441Y036811
X035315Y0383071
X0353543Y0423622
X0353829Y0428238
X0337008Y0427165
Y0417323
X0317717Y0413779
X0317323Y0427165
X0319685Y0359449
X0326378Y0359055
X0327953Y0355512
X0329134Y0362992
X0326378Y0365354
X0312598Y0349213
X0313258Y0337795
X0341732Y0334252
X034252Y034252
X0343307Y0346457
X0324803Y0316142
T02
X0231693Y0414567
X0236811
X023937Y0418504
X0234252
X0229134
T04
X0229764Y0357716
Y0367717
X0239764
Y0377716
X0229764
Y0387717
X0239764
Y0357716
X0270945Y0346457
X0280945
X0290945
X0300945
T05
X0367717Y0390551
Y0433858
T06
X0352362Y0340512
Y0355512
T07
X0328346Y0402362
Y0422047
M30
